%
M48
M72
T01C0.0240
T02C0.0315
T03C0.0320
T04C0.0360
T05C0.0394
T06C0.0400
T07C0.0440
T08C0.0591
T09C0.1260
%
T01
X6831Y5180
X7831Y6180
X8831Y5180
X8331Y16680
X9331Y17680
X10331Y16680
X12331Y16680
X13331Y17680
X14331Y16680
X17831Y16680
X18831Y17680
X19831Y16680
X21831Y16680
X22831Y17680
X23831Y16680
X14331Y26180
X13331Y25180
X12331Y26180
X10331Y26180
X9331Y25180
X8331Y26180
X15831Y29180
X16831Y30180
X15831Y31180
X27831Y29680
X28831Y28680
X28831Y30680
T02
X20118Y3930
X19331Y3930
X18544Y3930
T03
X14831Y6180
X13831Y6180
X11831Y6180
X11831Y5180
X10331Y6180
X10331Y7180
X8831Y7180
X7831Y7180
X6831Y7180
X5831Y7180
X11831Y7180
X13331Y14180
X16331Y14180
X15831Y18180
X14331Y19180
X13331Y19180
X12331Y19180
X11331Y19180
X10331Y19180
X9331Y19180
X8331Y19180
X8331Y22180
X9331Y22180
X10331Y22180
X11331Y22180
X12331Y22180
X13331Y22180
X14331Y22180
X15831Y21180
X15831Y20180
X17831Y19180
X18831Y19180
X19831Y19180
X20831Y19180
X21831Y19180
X22831Y19180
X23831Y19180
X23831Y22180
X23831Y23180
X24831Y23180
X25831Y23180
X26831Y22180
X27831Y22180
X27831Y21180
X28831Y22180
X29831Y22180
X27831Y19180
X22831Y22180
X22831Y23180
X22831Y24180
X21831Y23180
X21831Y22180
X20831Y22180
X20831Y23180
X19831Y22180
X18831Y22180
X18831Y23180
X18831Y24180
X19831Y24680
X20831Y24680
X22831Y26680
X22831Y27680
X23831Y27680
X23831Y26680
X25331Y26680
X25331Y27680
X25831Y28680
X24831Y28680
X23831Y28680
X22831Y28680
X19831Y27680
X18831Y27680
X18831Y28680
X18831Y29680
X17831Y29680
X17831Y28680
X17831Y27680
X19831Y30680
X25831Y25180
X26831Y25180
X26831Y26180
X26831Y27180
X27831Y27180
X28831Y27180
X29831Y27180
X30831Y27180
X30831Y26180
X30831Y25180
X31831Y25180
X31831Y26180
X29831Y25180
X28831Y25180
X27831Y25180
X17831Y23180
X17831Y22180
X16831Y23180
X15831Y23180
X25831Y8680
X24831Y6180
X23831Y6180
X28831Y8680
X31331Y8180
X31331Y9180
X31331Y7180
X31331Y5180
X31331Y4180
T04
X19331Y7680
X19331Y8680
X16831Y9680
X15831Y9680
X14831Y9680
X13831Y9680
X12831Y9680
X11831Y9680
X10831Y9680
X10831Y12180
X11831Y12180
X12831Y12180
X13831Y12180
X14831Y12180
X15831Y12180
X16831Y12180
X21831Y25180
X20831Y26430
X21331Y28180
X22831Y30180
X21331Y31180
X25831Y30180
X24831Y25180
X17831Y26430
T05
X28831Y6680
X28831Y5680
X28831Y4680
T06
X21831Y6680
X21831Y7680
X16831Y27680
X27331Y28180
T07
X20831Y6680
X16831Y6680
T08
X17717Y3930
X20945Y3930
T09
X6831Y10180
X32331Y30180
M30
