G75*
G70*
%OFA0B0*%
%FSLAX24Y24*%
%IPPOS*%
%LPD*%
%AMOC8*
5,1,8,0,0,1.08239X$1,22.5*
%
%ADD10C,0.0060*%
%ADD11C,0.0240*%
%ADD12C,0.0160*%
%ADD13R,0.0200X0.0150*%
%ADD14R,0.0800X0.0200*%
%ADD15R,0.0200X0.0800*%
%ADD16C,0.0080*%
%ADD17C,0.0320*%
%ADD18C,0.0050*%
%ADD19R,0.0200X0.1500*%
%ADD20R,0.0150X0.0200*%
%ADD21C,0.0120*%
%ADD22C,0.0100*%
%ADD23R,0.0200X0.1000*%
%ADD24R,0.0750X0.0300*%
D10*
X006331Y007180D02*
X006333Y007224D01*
X006339Y007268D01*
X006349Y007311D01*
X006362Y007353D01*
X006379Y007394D01*
X006400Y007433D01*
X006424Y007470D01*
X006451Y007505D01*
X006481Y007537D01*
X006514Y007567D01*
X006550Y007593D01*
X006587Y007617D01*
X006627Y007636D01*
X006668Y007653D01*
X006711Y007665D01*
X006754Y007674D01*
X006798Y007679D01*
X006842Y007680D01*
X006886Y007677D01*
X006930Y007670D01*
X006973Y007659D01*
X007015Y007645D01*
X007055Y007627D01*
X007094Y007605D01*
X007130Y007581D01*
X007164Y007553D01*
X007196Y007522D01*
X007225Y007488D01*
X007251Y007452D01*
X007273Y007414D01*
X007292Y007374D01*
X007307Y007332D01*
X007319Y007290D01*
X007327Y007246D01*
X007331Y007202D01*
X007331Y007158D01*
X007327Y007114D01*
X007319Y007070D01*
X007307Y007028D01*
X007292Y006986D01*
X007273Y006946D01*
X007251Y006908D01*
X007225Y006872D01*
X007196Y006838D01*
X007164Y006807D01*
X007130Y006779D01*
X007094Y006755D01*
X007055Y006733D01*
X007015Y006715D01*
X006973Y006701D01*
X006930Y006690D01*
X006886Y006683D01*
X006842Y006680D01*
X006798Y006681D01*
X006754Y006686D01*
X006711Y006695D01*
X006668Y006707D01*
X006627Y006724D01*
X006587Y006743D01*
X006550Y006767D01*
X006514Y006793D01*
X006481Y006823D01*
X006451Y006855D01*
X006424Y006890D01*
X006400Y006927D01*
X006379Y006966D01*
X006362Y007007D01*
X006349Y007049D01*
X006339Y007092D01*
X006333Y007136D01*
X006331Y007180D01*
X007272Y005180D02*
X007274Y005227D01*
X007280Y005273D01*
X007290Y005319D01*
X007303Y005364D01*
X007320Y005407D01*
X007341Y005449D01*
X007365Y005489D01*
X007393Y005527D01*
X007424Y005563D01*
X007457Y005595D01*
X007493Y005625D01*
X007531Y005652D01*
X007572Y005675D01*
X007614Y005695D01*
X007658Y005712D01*
X007703Y005724D01*
X007749Y005733D01*
X007796Y005738D01*
X007843Y005739D01*
X007889Y005736D01*
X007936Y005729D01*
X007981Y005718D01*
X008026Y005704D01*
X008069Y005686D01*
X008110Y005664D01*
X008150Y005639D01*
X008187Y005611D01*
X008222Y005579D01*
X008254Y005545D01*
X008283Y005509D01*
X008309Y005470D01*
X008332Y005429D01*
X008351Y005386D01*
X008366Y005342D01*
X008378Y005296D01*
X008386Y005250D01*
X008390Y005203D01*
X008390Y005157D01*
X008386Y005110D01*
X008378Y005064D01*
X008366Y005018D01*
X008351Y004974D01*
X008332Y004931D01*
X008309Y004890D01*
X008283Y004851D01*
X008254Y004815D01*
X008222Y004781D01*
X008187Y004749D01*
X008150Y004721D01*
X008111Y004696D01*
X008069Y004674D01*
X008026Y004656D01*
X007981Y004642D01*
X007936Y004631D01*
X007889Y004624D01*
X007843Y004621D01*
X007796Y004622D01*
X007749Y004627D01*
X007703Y004636D01*
X007658Y004648D01*
X007614Y004665D01*
X007572Y004685D01*
X007531Y004708D01*
X007493Y004735D01*
X007457Y004765D01*
X007424Y004797D01*
X007393Y004833D01*
X007365Y004871D01*
X007341Y004911D01*
X007320Y004953D01*
X007303Y004996D01*
X007290Y005041D01*
X007280Y005087D01*
X007274Y005133D01*
X007272Y005180D01*
X006331Y005180D02*
X006333Y005257D01*
X006339Y005334D01*
X006349Y005411D01*
X006363Y005487D01*
X006380Y005562D01*
X006402Y005636D01*
X006427Y005709D01*
X006457Y005781D01*
X006489Y005851D01*
X006526Y005919D01*
X006565Y005985D01*
X006608Y006049D01*
X006655Y006111D01*
X006704Y006170D01*
X006757Y006227D01*
X006812Y006281D01*
X006870Y006332D01*
X006931Y006380D01*
X006994Y006425D01*
X007059Y006466D01*
X007126Y006504D01*
X007195Y006539D01*
X007266Y006569D01*
X007338Y006597D01*
X007412Y006620D01*
X007486Y006640D01*
X007562Y006656D01*
X007638Y006668D01*
X007715Y006676D01*
X007792Y006680D01*
X007870Y006680D01*
X007947Y006676D01*
X008024Y006668D01*
X008100Y006656D01*
X008176Y006640D01*
X008250Y006620D01*
X008324Y006597D01*
X008396Y006569D01*
X008467Y006539D01*
X008536Y006504D01*
X008603Y006466D01*
X008668Y006425D01*
X008731Y006380D01*
X008792Y006332D01*
X008850Y006281D01*
X008905Y006227D01*
X008958Y006170D01*
X009007Y006111D01*
X009054Y006049D01*
X009097Y005985D01*
X009136Y005919D01*
X009173Y005851D01*
X009205Y005781D01*
X009235Y005709D01*
X009260Y005636D01*
X009282Y005562D01*
X009299Y005487D01*
X009313Y005411D01*
X009323Y005334D01*
X009329Y005257D01*
X009331Y005180D01*
X009329Y005103D01*
X009323Y005026D01*
X009313Y004949D01*
X009299Y004873D01*
X009282Y004798D01*
X009260Y004724D01*
X009235Y004651D01*
X009205Y004579D01*
X009173Y004509D01*
X009136Y004441D01*
X009097Y004375D01*
X009054Y004311D01*
X009007Y004249D01*
X008958Y004190D01*
X008905Y004133D01*
X008850Y004079D01*
X008792Y004028D01*
X008731Y003980D01*
X008668Y003935D01*
X008603Y003894D01*
X008536Y003856D01*
X008467Y003821D01*
X008396Y003791D01*
X008324Y003763D01*
X008250Y003740D01*
X008176Y003720D01*
X008100Y003704D01*
X008024Y003692D01*
X007947Y003684D01*
X007870Y003680D01*
X007792Y003680D01*
X007715Y003684D01*
X007638Y003692D01*
X007562Y003704D01*
X007486Y003720D01*
X007412Y003740D01*
X007338Y003763D01*
X007266Y003791D01*
X007195Y003821D01*
X007126Y003856D01*
X007059Y003894D01*
X006994Y003935D01*
X006931Y003980D01*
X006870Y004028D01*
X006812Y004079D01*
X006757Y004133D01*
X006704Y004190D01*
X006655Y004249D01*
X006608Y004311D01*
X006565Y004375D01*
X006526Y004441D01*
X006489Y004509D01*
X006457Y004579D01*
X006427Y004651D01*
X006402Y004724D01*
X006380Y004798D01*
X006363Y004873D01*
X006349Y004949D01*
X006339Y005026D01*
X006333Y005103D01*
X006331Y005180D01*
X009831Y006180D02*
X009833Y006224D01*
X009839Y006268D01*
X009849Y006311D01*
X009862Y006353D01*
X009879Y006394D01*
X009900Y006433D01*
X009924Y006470D01*
X009951Y006505D01*
X009981Y006537D01*
X010014Y006567D01*
X010050Y006593D01*
X010087Y006617D01*
X010127Y006636D01*
X010168Y006653D01*
X010211Y006665D01*
X010254Y006674D01*
X010298Y006679D01*
X010342Y006680D01*
X010386Y006677D01*
X010430Y006670D01*
X010473Y006659D01*
X010515Y006645D01*
X010555Y006627D01*
X010594Y006605D01*
X010630Y006581D01*
X010664Y006553D01*
X010696Y006522D01*
X010725Y006488D01*
X010751Y006452D01*
X010773Y006414D01*
X010792Y006374D01*
X010807Y006332D01*
X010819Y006290D01*
X010827Y006246D01*
X010831Y006202D01*
X010831Y006158D01*
X010827Y006114D01*
X010819Y006070D01*
X010807Y006028D01*
X010792Y005986D01*
X010773Y005946D01*
X010751Y005908D01*
X010725Y005872D01*
X010696Y005838D01*
X010664Y005807D01*
X010630Y005779D01*
X010594Y005755D01*
X010555Y005733D01*
X010515Y005715D01*
X010473Y005701D01*
X010430Y005690D01*
X010386Y005683D01*
X010342Y005680D01*
X010298Y005681D01*
X010254Y005686D01*
X010211Y005695D01*
X010168Y005707D01*
X010127Y005724D01*
X010087Y005743D01*
X010050Y005767D01*
X010014Y005793D01*
X009981Y005823D01*
X009951Y005855D01*
X009924Y005890D01*
X009900Y005927D01*
X009879Y005966D01*
X009862Y006007D01*
X009849Y006049D01*
X009839Y006092D01*
X009833Y006136D01*
X009831Y006180D01*
X010431Y008780D02*
X010431Y008980D01*
X010431Y009080D01*
X010581Y009080D01*
X010581Y009180D01*
X011081Y009180D01*
X011081Y009080D01*
X011231Y009080D01*
X011231Y010330D01*
X011331Y010230D01*
X011431Y010330D01*
X011431Y009080D01*
X011581Y009080D01*
X011581Y009180D01*
X012081Y009180D01*
X012081Y009080D01*
X012231Y009080D01*
X012231Y010380D01*
X012431Y010380D01*
X013231Y010380D01*
X013431Y010380D01*
X014231Y010380D01*
X014431Y010380D01*
X015231Y010380D01*
X015431Y010380D01*
X016181Y010380D01*
X016231Y010330D01*
X016231Y009080D01*
X016431Y009080D01*
X016431Y010330D01*
X016481Y010380D01*
X017231Y010380D01*
X017231Y009080D01*
X017231Y008980D01*
X017081Y008980D01*
X017081Y009080D01*
X017081Y009180D01*
X016581Y009180D01*
X016581Y009080D01*
X016431Y009080D01*
X016581Y009080D02*
X016581Y008980D01*
X016081Y008980D01*
X016081Y009080D01*
X016231Y009080D01*
X016081Y009080D02*
X016081Y009180D01*
X015581Y009180D01*
X015581Y009080D01*
X015431Y009080D01*
X015431Y010380D01*
X015231Y010380D02*
X015231Y009080D01*
X015431Y009080D01*
X015581Y009080D02*
X015581Y008980D01*
X015081Y008980D01*
X015081Y009080D01*
X015231Y009080D01*
X015081Y009080D02*
X015081Y009180D01*
X014581Y009180D01*
X014581Y009080D01*
X014431Y009080D01*
X014431Y010380D01*
X014231Y010380D02*
X014231Y009080D01*
X014431Y009080D01*
X014581Y009080D02*
X014581Y008980D01*
X014081Y008980D01*
X014081Y009080D01*
X014231Y009080D01*
X014081Y009080D02*
X014081Y009180D01*
X013581Y009180D01*
X013581Y009080D01*
X013431Y009080D01*
X013231Y009080D01*
X013081Y009080D01*
X013081Y009180D01*
X012581Y009180D01*
X012581Y009080D01*
X012431Y009080D01*
X012431Y010380D01*
X012231Y010380D02*
X011481Y010380D01*
X011431Y010330D01*
X011231Y010330D02*
X011181Y010380D01*
X010431Y010380D01*
X010431Y009080D01*
X010431Y008980D02*
X010581Y008980D01*
X010581Y009080D01*
X010431Y008780D02*
X011231Y008780D01*
X011231Y008830D01*
X011431Y008830D01*
X011431Y008780D01*
X012231Y008780D01*
X012231Y008830D01*
X012431Y008830D01*
X012431Y008780D01*
X013231Y008780D01*
X013231Y008830D01*
X013431Y008830D01*
X013431Y008780D01*
X014231Y008780D01*
X014231Y008830D01*
X014431Y008830D01*
X014431Y008780D01*
X015231Y008780D01*
X015231Y008830D01*
X015431Y008830D01*
X015431Y008780D01*
X016231Y008780D01*
X016231Y008830D01*
X016431Y008830D01*
X016431Y008780D01*
X017231Y008780D01*
X017231Y008980D01*
X017231Y009080D02*
X017081Y009080D01*
X016331Y010230D02*
X016231Y010330D01*
X016331Y010230D02*
X016431Y010330D01*
X016431Y010630D02*
X016231Y010630D01*
X016231Y010680D01*
X015931Y010680D01*
X015931Y010730D01*
X015731Y010730D01*
X015731Y010680D01*
X015431Y010680D01*
X015431Y010630D01*
X015231Y010630D01*
X015231Y010680D01*
X014931Y010680D01*
X014931Y010730D01*
X014731Y010730D01*
X014731Y010680D01*
X014431Y010680D01*
X014431Y010630D01*
X014231Y010630D01*
X014231Y010680D01*
X013931Y010680D01*
X013931Y010730D01*
X013731Y010730D01*
X013731Y010680D01*
X013431Y010680D01*
X013431Y010630D01*
X013231Y010630D01*
X013231Y010680D01*
X012931Y010680D01*
X012931Y010730D01*
X012731Y010730D01*
X012731Y010680D01*
X012431Y010680D01*
X012431Y010630D01*
X012231Y010630D01*
X012231Y010680D01*
X011931Y010680D01*
X011931Y010730D01*
X011731Y010730D01*
X011731Y010680D01*
X011431Y010680D01*
X011431Y010630D01*
X011231Y010630D01*
X011231Y010680D01*
X010931Y010680D01*
X010931Y010730D01*
X010731Y010730D01*
X010731Y010680D01*
X010431Y010680D01*
X010431Y010380D01*
X010431Y011280D02*
X010431Y011480D01*
X010431Y011580D01*
X010581Y011580D01*
X010581Y011680D01*
X011081Y011680D01*
X011081Y011580D01*
X011231Y011580D01*
X011231Y012830D01*
X011331Y012730D01*
X011431Y012830D01*
X011431Y011580D01*
X011581Y011580D01*
X011581Y011680D01*
X012081Y011680D01*
X012081Y011580D01*
X012231Y011580D01*
X012231Y012880D01*
X012431Y012880D01*
X013231Y012880D01*
X013431Y012880D01*
X014231Y012880D01*
X014431Y012880D01*
X015231Y012880D01*
X015431Y012880D01*
X016181Y012880D01*
X016231Y012830D01*
X016231Y011580D01*
X016431Y011580D01*
X016431Y012830D01*
X016481Y012880D01*
X017231Y012880D01*
X017231Y011580D01*
X017231Y011480D01*
X017081Y011480D01*
X017081Y011580D01*
X017081Y011680D01*
X016581Y011680D01*
X016581Y011580D01*
X016431Y011580D01*
X016581Y011580D02*
X016581Y011480D01*
X016081Y011480D01*
X016081Y011580D01*
X016231Y011580D01*
X016081Y011580D02*
X016081Y011680D01*
X015581Y011680D01*
X015581Y011580D01*
X015431Y011580D01*
X015431Y012880D01*
X015231Y012880D02*
X015231Y011580D01*
X015431Y011580D01*
X015581Y011580D02*
X015581Y011480D01*
X015081Y011480D01*
X015081Y011580D01*
X015231Y011580D01*
X015081Y011580D02*
X015081Y011680D01*
X014581Y011680D01*
X014581Y011580D01*
X014431Y011580D01*
X014431Y012880D01*
X014231Y012880D02*
X014231Y011580D01*
X014431Y011580D01*
X014581Y011580D02*
X014581Y011480D01*
X014081Y011480D01*
X014081Y011580D01*
X014231Y011580D01*
X014081Y011580D02*
X014081Y011680D01*
X013581Y011680D01*
X013581Y011580D01*
X013431Y011580D01*
X013231Y011580D01*
X013081Y011580D01*
X013081Y011680D01*
X012581Y011680D01*
X012581Y011580D01*
X012431Y011580D01*
X012431Y012880D01*
X012231Y012880D02*
X011481Y012880D01*
X011431Y012830D01*
X011231Y012830D02*
X011181Y012880D01*
X010431Y012880D01*
X010431Y011580D01*
X010431Y011480D02*
X010581Y011480D01*
X010581Y011580D01*
X010431Y011280D02*
X011231Y011280D01*
X011231Y011330D01*
X011431Y011330D01*
X011431Y011280D01*
X012231Y011280D01*
X012231Y011330D01*
X012431Y011330D01*
X012431Y011280D01*
X013231Y011280D01*
X013231Y011330D01*
X013431Y011330D01*
X013431Y011280D01*
X014231Y011280D01*
X014231Y011330D01*
X014431Y011330D01*
X014431Y011280D01*
X015231Y011280D01*
X015231Y011330D01*
X015431Y011330D01*
X015431Y011280D01*
X016231Y011280D01*
X016231Y011330D01*
X016431Y011330D01*
X016431Y011280D01*
X017231Y011280D01*
X017231Y011480D01*
X017231Y011580D02*
X017081Y011580D01*
X016931Y010730D02*
X016731Y010730D01*
X016731Y010680D01*
X016431Y010680D01*
X016431Y010630D01*
X016931Y010680D02*
X016931Y010730D01*
X016931Y010680D02*
X017231Y010680D01*
X017231Y010380D01*
X018831Y009080D02*
X018831Y008280D01*
X018931Y008180D01*
X018831Y008080D01*
X018831Y007280D01*
X018931Y007180D01*
X019731Y007180D01*
X019831Y007280D01*
X019831Y008080D01*
X019731Y008180D01*
X019831Y008280D01*
X019831Y009080D01*
X019731Y009180D01*
X018931Y009180D01*
X018831Y009080D01*
X018031Y007180D02*
X019631Y007180D01*
X019631Y006180D01*
X018031Y006180D01*
X018031Y007180D01*
X018581Y006680D02*
X018831Y006680D01*
X018831Y006430D01*
X018831Y006680D02*
X018831Y006930D01*
X018831Y006680D02*
X019231Y006930D01*
X019231Y006430D01*
X018831Y006680D01*
X019431Y006680D01*
X021331Y006430D02*
X021581Y006180D01*
X022081Y006180D01*
X022331Y006430D01*
X022331Y006930D01*
X022081Y007180D01*
X022331Y007430D01*
X022331Y007930D01*
X022081Y008180D01*
X021581Y008180D01*
X021331Y007930D01*
X021331Y007430D01*
X021581Y007180D01*
X022081Y007180D01*
X021581Y007180D02*
X021331Y006930D01*
X021331Y006430D01*
X023131Y007130D02*
X023131Y004330D01*
X023131Y002680D01*
X023331Y002680D01*
X025331Y002680D01*
X025331Y001130D01*
X025081Y001130D02*
X023581Y001130D01*
X023331Y001130D02*
X023331Y002680D01*
X023131Y004330D02*
X025531Y004330D01*
X025531Y007130D01*
X023131Y007130D01*
X023431Y005105D02*
X023431Y004878D01*
X023601Y004737D02*
X023431Y004567D01*
X023488Y004510D02*
X023261Y004737D01*
X023261Y004510D02*
X023601Y004510D01*
X025061Y004623D02*
X025174Y004737D01*
X025401Y004737D01*
X025231Y004737D02*
X025231Y004510D01*
X025174Y004510D02*
X025061Y004623D01*
X025174Y004510D02*
X025401Y004510D01*
X025531Y004330D02*
X025531Y002680D01*
X025331Y002680D01*
X025331Y001130D02*
X025329Y001068D01*
X025323Y001007D01*
X025314Y000946D01*
X025301Y000886D01*
X025284Y000827D01*
X025263Y000769D01*
X025239Y000712D01*
X025212Y000657D01*
X025181Y000604D01*
X025147Y000552D01*
X025110Y000503D01*
X025070Y000456D01*
X025027Y000412D01*
X024982Y000371D01*
X024934Y000332D01*
X024883Y000296D01*
X024831Y000264D01*
X024777Y000235D01*
X024721Y000209D01*
X024663Y000187D01*
X024605Y000168D01*
X024545Y000153D01*
X024484Y000142D01*
X024423Y000134D01*
X024362Y000130D01*
X024300Y000130D01*
X024239Y000134D01*
X024178Y000142D01*
X024117Y000153D01*
X024057Y000168D01*
X023999Y000187D01*
X023941Y000209D01*
X023885Y000235D01*
X023831Y000264D01*
X023779Y000296D01*
X023728Y000332D01*
X023680Y000371D01*
X023635Y000412D01*
X023592Y000456D01*
X023552Y000503D01*
X023515Y000552D01*
X023481Y000604D01*
X023450Y000657D01*
X023423Y000712D01*
X023399Y000769D01*
X023378Y000827D01*
X023361Y000886D01*
X023348Y000946D01*
X023339Y001007D01*
X023333Y001068D01*
X023331Y001130D01*
X023781Y000780D02*
X024881Y000780D01*
X024581Y000430D02*
X024081Y000430D01*
X025231Y004878D02*
X025231Y005105D01*
X025344Y004992D02*
X025117Y004992D01*
X026431Y008280D02*
X026581Y008280D01*
X026631Y008330D01*
X028031Y008330D01*
X028081Y008280D01*
X028231Y008280D01*
X028248Y008282D01*
X028265Y008286D01*
X028281Y008293D01*
X028295Y008303D01*
X028308Y008316D01*
X028318Y008330D01*
X028325Y008346D01*
X028329Y008363D01*
X028331Y008380D01*
X028331Y008980D01*
X028329Y008997D01*
X028325Y009014D01*
X028318Y009030D01*
X028308Y009044D01*
X028295Y009057D01*
X028281Y009067D01*
X028265Y009074D01*
X028248Y009078D01*
X028231Y009080D01*
X028081Y009080D01*
X028031Y009030D01*
X026631Y009030D01*
X026581Y009080D01*
X026431Y009080D01*
X026414Y009078D01*
X026397Y009074D01*
X026381Y009067D01*
X026367Y009057D01*
X026354Y009044D01*
X026344Y009030D01*
X026337Y009014D01*
X026333Y008997D01*
X026331Y008980D01*
X026331Y008380D01*
X026333Y008363D01*
X026337Y008346D01*
X026344Y008330D01*
X026354Y008316D01*
X026367Y008303D01*
X026381Y008293D01*
X026397Y008286D01*
X026414Y008282D01*
X026431Y008280D01*
X030881Y008480D02*
X030881Y008880D01*
X030881Y009480D02*
X030881Y010930D01*
X033281Y010930D01*
X033281Y003230D01*
X030881Y003230D01*
X030881Y003880D01*
X030881Y004480D02*
X030881Y004880D01*
X030881Y005480D02*
X030881Y006880D01*
X030881Y007480D02*
X030881Y007880D01*
X022272Y016680D02*
X022274Y016727D01*
X022280Y016773D01*
X022290Y016819D01*
X022303Y016864D01*
X022320Y016907D01*
X022341Y016949D01*
X022365Y016989D01*
X022393Y017027D01*
X022424Y017063D01*
X022457Y017095D01*
X022493Y017125D01*
X022531Y017152D01*
X022572Y017175D01*
X022614Y017195D01*
X022658Y017212D01*
X022703Y017224D01*
X022749Y017233D01*
X022796Y017238D01*
X022843Y017239D01*
X022889Y017236D01*
X022936Y017229D01*
X022981Y017218D01*
X023026Y017204D01*
X023069Y017186D01*
X023110Y017164D01*
X023150Y017139D01*
X023187Y017111D01*
X023222Y017079D01*
X023254Y017045D01*
X023283Y017009D01*
X023309Y016970D01*
X023332Y016929D01*
X023351Y016886D01*
X023366Y016842D01*
X023378Y016796D01*
X023386Y016750D01*
X023390Y016703D01*
X023390Y016657D01*
X023386Y016610D01*
X023378Y016564D01*
X023366Y016518D01*
X023351Y016474D01*
X023332Y016431D01*
X023309Y016390D01*
X023283Y016351D01*
X023254Y016315D01*
X023222Y016281D01*
X023187Y016249D01*
X023150Y016221D01*
X023111Y016196D01*
X023069Y016174D01*
X023026Y016156D01*
X022981Y016142D01*
X022936Y016131D01*
X022889Y016124D01*
X022843Y016121D01*
X022796Y016122D01*
X022749Y016127D01*
X022703Y016136D01*
X022658Y016148D01*
X022614Y016165D01*
X022572Y016185D01*
X022531Y016208D01*
X022493Y016235D01*
X022457Y016265D01*
X022424Y016297D01*
X022393Y016333D01*
X022365Y016371D01*
X022341Y016411D01*
X022320Y016453D01*
X022303Y016496D01*
X022290Y016541D01*
X022280Y016587D01*
X022274Y016633D01*
X022272Y016680D01*
X021331Y016680D02*
X021333Y016757D01*
X021339Y016834D01*
X021349Y016911D01*
X021363Y016987D01*
X021380Y017062D01*
X021402Y017136D01*
X021427Y017209D01*
X021457Y017281D01*
X021489Y017351D01*
X021526Y017419D01*
X021565Y017485D01*
X021608Y017549D01*
X021655Y017611D01*
X021704Y017670D01*
X021757Y017727D01*
X021812Y017781D01*
X021870Y017832D01*
X021931Y017880D01*
X021994Y017925D01*
X022059Y017966D01*
X022126Y018004D01*
X022195Y018039D01*
X022266Y018069D01*
X022338Y018097D01*
X022412Y018120D01*
X022486Y018140D01*
X022562Y018156D01*
X022638Y018168D01*
X022715Y018176D01*
X022792Y018180D01*
X022870Y018180D01*
X022947Y018176D01*
X023024Y018168D01*
X023100Y018156D01*
X023176Y018140D01*
X023250Y018120D01*
X023324Y018097D01*
X023396Y018069D01*
X023467Y018039D01*
X023536Y018004D01*
X023603Y017966D01*
X023668Y017925D01*
X023731Y017880D01*
X023792Y017832D01*
X023850Y017781D01*
X023905Y017727D01*
X023958Y017670D01*
X024007Y017611D01*
X024054Y017549D01*
X024097Y017485D01*
X024136Y017419D01*
X024173Y017351D01*
X024205Y017281D01*
X024235Y017209D01*
X024260Y017136D01*
X024282Y017062D01*
X024299Y016987D01*
X024313Y016911D01*
X024323Y016834D01*
X024329Y016757D01*
X024331Y016680D01*
X024329Y016603D01*
X024323Y016526D01*
X024313Y016449D01*
X024299Y016373D01*
X024282Y016298D01*
X024260Y016224D01*
X024235Y016151D01*
X024205Y016079D01*
X024173Y016009D01*
X024136Y015941D01*
X024097Y015875D01*
X024054Y015811D01*
X024007Y015749D01*
X023958Y015690D01*
X023905Y015633D01*
X023850Y015579D01*
X023792Y015528D01*
X023731Y015480D01*
X023668Y015435D01*
X023603Y015394D01*
X023536Y015356D01*
X023467Y015321D01*
X023396Y015291D01*
X023324Y015263D01*
X023250Y015240D01*
X023176Y015220D01*
X023100Y015204D01*
X023024Y015192D01*
X022947Y015184D01*
X022870Y015180D01*
X022792Y015180D01*
X022715Y015184D01*
X022638Y015192D01*
X022562Y015204D01*
X022486Y015220D01*
X022412Y015240D01*
X022338Y015263D01*
X022266Y015291D01*
X022195Y015321D01*
X022126Y015356D01*
X022059Y015394D01*
X021994Y015435D01*
X021931Y015480D01*
X021870Y015528D01*
X021812Y015579D01*
X021757Y015633D01*
X021704Y015690D01*
X021655Y015749D01*
X021608Y015811D01*
X021565Y015875D01*
X021526Y015941D01*
X021489Y016009D01*
X021457Y016079D01*
X021427Y016151D01*
X021402Y016224D01*
X021380Y016298D01*
X021363Y016373D01*
X021349Y016449D01*
X021339Y016526D01*
X021333Y016603D01*
X021331Y016680D01*
X018272Y016680D02*
X018274Y016727D01*
X018280Y016773D01*
X018290Y016819D01*
X018303Y016864D01*
X018320Y016907D01*
X018341Y016949D01*
X018365Y016989D01*
X018393Y017027D01*
X018424Y017063D01*
X018457Y017095D01*
X018493Y017125D01*
X018531Y017152D01*
X018572Y017175D01*
X018614Y017195D01*
X018658Y017212D01*
X018703Y017224D01*
X018749Y017233D01*
X018796Y017238D01*
X018843Y017239D01*
X018889Y017236D01*
X018936Y017229D01*
X018981Y017218D01*
X019026Y017204D01*
X019069Y017186D01*
X019110Y017164D01*
X019150Y017139D01*
X019187Y017111D01*
X019222Y017079D01*
X019254Y017045D01*
X019283Y017009D01*
X019309Y016970D01*
X019332Y016929D01*
X019351Y016886D01*
X019366Y016842D01*
X019378Y016796D01*
X019386Y016750D01*
X019390Y016703D01*
X019390Y016657D01*
X019386Y016610D01*
X019378Y016564D01*
X019366Y016518D01*
X019351Y016474D01*
X019332Y016431D01*
X019309Y016390D01*
X019283Y016351D01*
X019254Y016315D01*
X019222Y016281D01*
X019187Y016249D01*
X019150Y016221D01*
X019111Y016196D01*
X019069Y016174D01*
X019026Y016156D01*
X018981Y016142D01*
X018936Y016131D01*
X018889Y016124D01*
X018843Y016121D01*
X018796Y016122D01*
X018749Y016127D01*
X018703Y016136D01*
X018658Y016148D01*
X018614Y016165D01*
X018572Y016185D01*
X018531Y016208D01*
X018493Y016235D01*
X018457Y016265D01*
X018424Y016297D01*
X018393Y016333D01*
X018365Y016371D01*
X018341Y016411D01*
X018320Y016453D01*
X018303Y016496D01*
X018290Y016541D01*
X018280Y016587D01*
X018274Y016633D01*
X018272Y016680D01*
X017331Y016680D02*
X017333Y016757D01*
X017339Y016834D01*
X017349Y016911D01*
X017363Y016987D01*
X017380Y017062D01*
X017402Y017136D01*
X017427Y017209D01*
X017457Y017281D01*
X017489Y017351D01*
X017526Y017419D01*
X017565Y017485D01*
X017608Y017549D01*
X017655Y017611D01*
X017704Y017670D01*
X017757Y017727D01*
X017812Y017781D01*
X017870Y017832D01*
X017931Y017880D01*
X017994Y017925D01*
X018059Y017966D01*
X018126Y018004D01*
X018195Y018039D01*
X018266Y018069D01*
X018338Y018097D01*
X018412Y018120D01*
X018486Y018140D01*
X018562Y018156D01*
X018638Y018168D01*
X018715Y018176D01*
X018792Y018180D01*
X018870Y018180D01*
X018947Y018176D01*
X019024Y018168D01*
X019100Y018156D01*
X019176Y018140D01*
X019250Y018120D01*
X019324Y018097D01*
X019396Y018069D01*
X019467Y018039D01*
X019536Y018004D01*
X019603Y017966D01*
X019668Y017925D01*
X019731Y017880D01*
X019792Y017832D01*
X019850Y017781D01*
X019905Y017727D01*
X019958Y017670D01*
X020007Y017611D01*
X020054Y017549D01*
X020097Y017485D01*
X020136Y017419D01*
X020173Y017351D01*
X020205Y017281D01*
X020235Y017209D01*
X020260Y017136D01*
X020282Y017062D01*
X020299Y016987D01*
X020313Y016911D01*
X020323Y016834D01*
X020329Y016757D01*
X020331Y016680D01*
X020329Y016603D01*
X020323Y016526D01*
X020313Y016449D01*
X020299Y016373D01*
X020282Y016298D01*
X020260Y016224D01*
X020235Y016151D01*
X020205Y016079D01*
X020173Y016009D01*
X020136Y015941D01*
X020097Y015875D01*
X020054Y015811D01*
X020007Y015749D01*
X019958Y015690D01*
X019905Y015633D01*
X019850Y015579D01*
X019792Y015528D01*
X019731Y015480D01*
X019668Y015435D01*
X019603Y015394D01*
X019536Y015356D01*
X019467Y015321D01*
X019396Y015291D01*
X019324Y015263D01*
X019250Y015240D01*
X019176Y015220D01*
X019100Y015204D01*
X019024Y015192D01*
X018947Y015184D01*
X018870Y015180D01*
X018792Y015180D01*
X018715Y015184D01*
X018638Y015192D01*
X018562Y015204D01*
X018486Y015220D01*
X018412Y015240D01*
X018338Y015263D01*
X018266Y015291D01*
X018195Y015321D01*
X018126Y015356D01*
X018059Y015394D01*
X017994Y015435D01*
X017931Y015480D01*
X017870Y015528D01*
X017812Y015579D01*
X017757Y015633D01*
X017704Y015690D01*
X017655Y015749D01*
X017608Y015811D01*
X017565Y015875D01*
X017526Y015941D01*
X017489Y016009D01*
X017457Y016079D01*
X017427Y016151D01*
X017402Y016224D01*
X017380Y016298D01*
X017363Y016373D01*
X017349Y016449D01*
X017339Y016526D01*
X017333Y016603D01*
X017331Y016680D01*
X016281Y018530D02*
X016281Y019830D01*
X016279Y019856D01*
X016274Y019882D01*
X016266Y019907D01*
X016254Y019930D01*
X016240Y019952D01*
X016222Y019971D01*
X016203Y019989D01*
X016181Y020003D01*
X016158Y020015D01*
X016133Y020023D01*
X016107Y020028D01*
X016081Y020030D01*
X015831Y019680D02*
X015831Y019310D01*
X015831Y019060D02*
X015831Y018680D01*
X016081Y018330D02*
X016107Y018332D01*
X016133Y018337D01*
X016158Y018345D01*
X016181Y018357D01*
X016203Y018371D01*
X016222Y018389D01*
X016240Y018408D01*
X016254Y018430D01*
X016266Y018453D01*
X016274Y018478D01*
X016279Y018504D01*
X016281Y018530D01*
X015581Y018330D02*
X015555Y018332D01*
X015529Y018337D01*
X015504Y018345D01*
X015481Y018357D01*
X015459Y018371D01*
X015440Y018389D01*
X015422Y018408D01*
X015408Y018430D01*
X015396Y018453D01*
X015388Y018478D01*
X015383Y018504D01*
X015381Y018530D01*
X015381Y019830D01*
X015383Y019856D01*
X015388Y019882D01*
X015396Y019907D01*
X015408Y019930D01*
X015422Y019952D01*
X015440Y019971D01*
X015459Y019989D01*
X015481Y020003D01*
X015504Y020015D01*
X015529Y020023D01*
X015555Y020028D01*
X015581Y020030D01*
X014831Y020280D02*
X014831Y019530D01*
X007831Y019530D01*
X007831Y021830D01*
X014831Y021830D01*
X014831Y021080D01*
X014792Y021078D01*
X014753Y021072D01*
X014715Y021063D01*
X014678Y021050D01*
X014642Y021033D01*
X014609Y021013D01*
X014577Y020989D01*
X014548Y020963D01*
X014522Y020934D01*
X014498Y020902D01*
X014478Y020869D01*
X014461Y020833D01*
X014448Y020796D01*
X014439Y020758D01*
X014433Y020719D01*
X014431Y020680D01*
X014433Y020641D01*
X014439Y020602D01*
X014448Y020564D01*
X014461Y020527D01*
X014478Y020491D01*
X014498Y020458D01*
X014522Y020426D01*
X014548Y020397D01*
X014577Y020371D01*
X014609Y020347D01*
X014642Y020327D01*
X014678Y020310D01*
X014715Y020297D01*
X014753Y020288D01*
X014792Y020282D01*
X014831Y020280D01*
X015381Y021530D02*
X015381Y022830D01*
X015383Y022856D01*
X015388Y022882D01*
X015396Y022907D01*
X015408Y022930D01*
X015422Y022952D01*
X015440Y022971D01*
X015459Y022989D01*
X015481Y023003D01*
X015504Y023015D01*
X015529Y023023D01*
X015555Y023028D01*
X015581Y023030D01*
X015831Y022680D02*
X015831Y022300D01*
X015831Y022050D02*
X015831Y021680D01*
X016081Y021330D02*
X016107Y021332D01*
X016133Y021337D01*
X016158Y021345D01*
X016181Y021357D01*
X016203Y021371D01*
X016222Y021389D01*
X016240Y021408D01*
X016254Y021430D01*
X016266Y021453D01*
X016274Y021478D01*
X016279Y021504D01*
X016281Y021530D01*
X016281Y022830D01*
X016279Y022856D01*
X016274Y022882D01*
X016266Y022907D01*
X016254Y022930D01*
X016240Y022952D01*
X016222Y022971D01*
X016203Y022989D01*
X016181Y023003D01*
X016158Y023015D01*
X016133Y023023D01*
X016107Y023028D01*
X016081Y023030D01*
X016331Y023180D02*
X016333Y023224D01*
X016339Y023268D01*
X016349Y023311D01*
X016362Y023353D01*
X016379Y023394D01*
X016400Y023433D01*
X016424Y023470D01*
X016451Y023505D01*
X016481Y023537D01*
X016514Y023567D01*
X016550Y023593D01*
X016587Y023617D01*
X016627Y023636D01*
X016668Y023653D01*
X016711Y023665D01*
X016754Y023674D01*
X016798Y023679D01*
X016842Y023680D01*
X016886Y023677D01*
X016930Y023670D01*
X016973Y023659D01*
X017015Y023645D01*
X017055Y023627D01*
X017094Y023605D01*
X017130Y023581D01*
X017164Y023553D01*
X017196Y023522D01*
X017225Y023488D01*
X017251Y023452D01*
X017273Y023414D01*
X017292Y023374D01*
X017307Y023332D01*
X017319Y023290D01*
X017327Y023246D01*
X017331Y023202D01*
X017331Y023158D01*
X017327Y023114D01*
X017319Y023070D01*
X017307Y023028D01*
X017292Y022986D01*
X017273Y022946D01*
X017251Y022908D01*
X017225Y022872D01*
X017196Y022838D01*
X017164Y022807D01*
X017130Y022779D01*
X017094Y022755D01*
X017055Y022733D01*
X017015Y022715D01*
X016973Y022701D01*
X016930Y022690D01*
X016886Y022683D01*
X016842Y022680D01*
X016798Y022681D01*
X016754Y022686D01*
X016711Y022695D01*
X016668Y022707D01*
X016627Y022724D01*
X016587Y022743D01*
X016550Y022767D01*
X016514Y022793D01*
X016481Y022823D01*
X016451Y022855D01*
X016424Y022890D01*
X016400Y022927D01*
X016379Y022966D01*
X016362Y023007D01*
X016349Y023049D01*
X016339Y023092D01*
X016333Y023136D01*
X016331Y023180D01*
X017331Y021830D02*
X017331Y019530D01*
X024331Y019530D01*
X024331Y020280D01*
X024292Y020282D01*
X024253Y020288D01*
X024215Y020297D01*
X024178Y020310D01*
X024142Y020327D01*
X024109Y020347D01*
X024077Y020371D01*
X024048Y020397D01*
X024022Y020426D01*
X023998Y020458D01*
X023978Y020491D01*
X023961Y020527D01*
X023948Y020564D01*
X023939Y020602D01*
X023933Y020641D01*
X023931Y020680D01*
X023933Y020719D01*
X023939Y020758D01*
X023948Y020796D01*
X023961Y020833D01*
X023978Y020869D01*
X023998Y020902D01*
X024022Y020934D01*
X024048Y020963D01*
X024077Y020989D01*
X024109Y021013D01*
X024142Y021033D01*
X024178Y021050D01*
X024215Y021063D01*
X024253Y021072D01*
X024292Y021078D01*
X024331Y021080D01*
X024331Y021830D01*
X017331Y021830D01*
X018331Y023180D02*
X018333Y023224D01*
X018339Y023268D01*
X018349Y023311D01*
X018362Y023353D01*
X018379Y023394D01*
X018400Y023433D01*
X018424Y023470D01*
X018451Y023505D01*
X018481Y023537D01*
X018514Y023567D01*
X018550Y023593D01*
X018587Y023617D01*
X018627Y023636D01*
X018668Y023653D01*
X018711Y023665D01*
X018754Y023674D01*
X018798Y023679D01*
X018842Y023680D01*
X018886Y023677D01*
X018930Y023670D01*
X018973Y023659D01*
X019015Y023645D01*
X019055Y023627D01*
X019094Y023605D01*
X019130Y023581D01*
X019164Y023553D01*
X019196Y023522D01*
X019225Y023488D01*
X019251Y023452D01*
X019273Y023414D01*
X019292Y023374D01*
X019307Y023332D01*
X019319Y023290D01*
X019327Y023246D01*
X019331Y023202D01*
X019331Y023158D01*
X019327Y023114D01*
X019319Y023070D01*
X019307Y023028D01*
X019292Y022986D01*
X019273Y022946D01*
X019251Y022908D01*
X019225Y022872D01*
X019196Y022838D01*
X019164Y022807D01*
X019130Y022779D01*
X019094Y022755D01*
X019055Y022733D01*
X019015Y022715D01*
X018973Y022701D01*
X018930Y022690D01*
X018886Y022683D01*
X018842Y022680D01*
X018798Y022681D01*
X018754Y022686D01*
X018711Y022695D01*
X018668Y022707D01*
X018627Y022724D01*
X018587Y022743D01*
X018550Y022767D01*
X018514Y022793D01*
X018481Y022823D01*
X018451Y022855D01*
X018424Y022890D01*
X018400Y022927D01*
X018379Y022966D01*
X018362Y023007D01*
X018349Y023049D01*
X018339Y023092D01*
X018333Y023136D01*
X018331Y023180D01*
X019331Y024680D02*
X019333Y024724D01*
X019339Y024768D01*
X019349Y024811D01*
X019362Y024853D01*
X019379Y024894D01*
X019400Y024933D01*
X019424Y024970D01*
X019451Y025005D01*
X019481Y025037D01*
X019514Y025067D01*
X019550Y025093D01*
X019587Y025117D01*
X019627Y025136D01*
X019668Y025153D01*
X019711Y025165D01*
X019754Y025174D01*
X019798Y025179D01*
X019842Y025180D01*
X019886Y025177D01*
X019930Y025170D01*
X019973Y025159D01*
X020015Y025145D01*
X020055Y025127D01*
X020094Y025105D01*
X020130Y025081D01*
X020164Y025053D01*
X020196Y025022D01*
X020225Y024988D01*
X020251Y024952D01*
X020273Y024914D01*
X020292Y024874D01*
X020307Y024832D01*
X020319Y024790D01*
X020327Y024746D01*
X020331Y024702D01*
X020331Y024658D01*
X020327Y024614D01*
X020319Y024570D01*
X020307Y024528D01*
X020292Y024486D01*
X020273Y024446D01*
X020251Y024408D01*
X020225Y024372D01*
X020196Y024338D01*
X020164Y024307D01*
X020130Y024279D01*
X020094Y024255D01*
X020055Y024233D01*
X020015Y024215D01*
X019973Y024201D01*
X019930Y024190D01*
X019886Y024183D01*
X019842Y024180D01*
X019798Y024181D01*
X019754Y024186D01*
X019711Y024195D01*
X019668Y024207D01*
X019627Y024224D01*
X019587Y024243D01*
X019550Y024267D01*
X019514Y024293D01*
X019481Y024323D01*
X019451Y024355D01*
X019424Y024390D01*
X019400Y024427D01*
X019379Y024466D01*
X019362Y024507D01*
X019349Y024549D01*
X019339Y024592D01*
X019333Y024636D01*
X019331Y024680D01*
X019531Y026430D02*
X020331Y026430D01*
X021231Y025830D02*
X021248Y025832D01*
X021265Y025836D01*
X021281Y025843D01*
X021295Y025853D01*
X021308Y025866D01*
X021318Y025880D01*
X021325Y025896D01*
X021329Y025913D01*
X021331Y025930D01*
X021331Y026930D01*
X021329Y026947D01*
X021325Y026964D01*
X021318Y026980D01*
X021308Y026994D01*
X021295Y027007D01*
X021281Y027017D01*
X021265Y027024D01*
X021248Y027028D01*
X021231Y027030D01*
X017431Y027030D01*
X017414Y027028D01*
X017397Y027024D01*
X017381Y027017D01*
X017367Y027007D01*
X017354Y026994D01*
X017344Y026980D01*
X017337Y026964D01*
X017333Y026947D01*
X017331Y026930D01*
X017331Y025930D01*
X017333Y025913D01*
X017337Y025896D01*
X017344Y025880D01*
X017354Y025866D01*
X017367Y025853D01*
X017381Y025843D01*
X017397Y025836D01*
X017414Y025832D01*
X017431Y025830D01*
X021231Y025830D01*
X021331Y025680D02*
X021331Y024680D01*
X021333Y024663D01*
X021337Y024646D01*
X021344Y024630D01*
X021354Y024616D01*
X021367Y024603D01*
X021381Y024593D01*
X021397Y024586D01*
X021414Y024582D01*
X021431Y024580D01*
X025231Y024580D01*
X025248Y024582D01*
X025265Y024586D01*
X025281Y024593D01*
X025295Y024603D01*
X025308Y024616D01*
X025318Y024630D01*
X025325Y024646D01*
X025329Y024663D01*
X025331Y024680D01*
X025331Y025680D01*
X025329Y025697D01*
X025325Y025714D01*
X025318Y025730D01*
X025308Y025744D01*
X025295Y025757D01*
X025281Y025767D01*
X025265Y025774D01*
X025248Y025778D01*
X025231Y025780D01*
X021431Y025780D01*
X021414Y025778D01*
X021397Y025774D01*
X021381Y025767D01*
X021367Y025757D01*
X021354Y025744D01*
X021344Y025730D01*
X021337Y025714D01*
X021333Y025697D01*
X021331Y025680D01*
X022331Y025180D02*
X023131Y025180D01*
X023531Y025180D02*
X024331Y025180D01*
X025381Y024830D02*
X025381Y023530D01*
X025383Y023504D01*
X025388Y023478D01*
X025396Y023453D01*
X025408Y023430D01*
X025422Y023408D01*
X025440Y023389D01*
X025459Y023371D01*
X025481Y023357D01*
X025504Y023345D01*
X025529Y023337D01*
X025555Y023332D01*
X025581Y023330D01*
X025831Y023680D02*
X025831Y024060D01*
X025831Y024310D02*
X025831Y024680D01*
X026081Y025030D02*
X026107Y025028D01*
X026133Y025023D01*
X026158Y025015D01*
X026181Y025003D01*
X026203Y024989D01*
X026222Y024971D01*
X026240Y024952D01*
X026254Y024930D01*
X026266Y024907D01*
X026274Y024882D01*
X026279Y024856D01*
X026281Y024830D01*
X026281Y023530D01*
X026279Y023504D01*
X026274Y023478D01*
X026266Y023453D01*
X026254Y023430D01*
X026240Y023408D01*
X026222Y023389D01*
X026203Y023371D01*
X026181Y023357D01*
X026158Y023345D01*
X026133Y023337D01*
X026107Y023332D01*
X026081Y023330D01*
X026331Y022530D02*
X026331Y024830D01*
X030331Y024830D01*
X030331Y024080D01*
X030292Y024078D01*
X030253Y024072D01*
X030215Y024063D01*
X030178Y024050D01*
X030142Y024033D01*
X030109Y024013D01*
X030077Y023989D01*
X030048Y023963D01*
X030022Y023934D01*
X029998Y023902D01*
X029978Y023869D01*
X029961Y023833D01*
X029948Y023796D01*
X029939Y023758D01*
X029933Y023719D01*
X029931Y023680D01*
X029933Y023641D01*
X029939Y023602D01*
X029948Y023564D01*
X029961Y023527D01*
X029978Y023491D01*
X029998Y023458D01*
X030022Y023426D01*
X030048Y023397D01*
X030077Y023371D01*
X030109Y023347D01*
X030142Y023327D01*
X030178Y023310D01*
X030215Y023297D01*
X030253Y023288D01*
X030292Y023282D01*
X030331Y023280D01*
X030331Y022530D01*
X026331Y022530D01*
X024331Y023180D02*
X024333Y023224D01*
X024339Y023268D01*
X024349Y023311D01*
X024362Y023353D01*
X024379Y023394D01*
X024400Y023433D01*
X024424Y023470D01*
X024451Y023505D01*
X024481Y023537D01*
X024514Y023567D01*
X024550Y023593D01*
X024587Y023617D01*
X024627Y023636D01*
X024668Y023653D01*
X024711Y023665D01*
X024754Y023674D01*
X024798Y023679D01*
X024842Y023680D01*
X024886Y023677D01*
X024930Y023670D01*
X024973Y023659D01*
X025015Y023645D01*
X025055Y023627D01*
X025094Y023605D01*
X025130Y023581D01*
X025164Y023553D01*
X025196Y023522D01*
X025225Y023488D01*
X025251Y023452D01*
X025273Y023414D01*
X025292Y023374D01*
X025307Y023332D01*
X025319Y023290D01*
X025327Y023246D01*
X025331Y023202D01*
X025331Y023158D01*
X025327Y023114D01*
X025319Y023070D01*
X025307Y023028D01*
X025292Y022986D01*
X025273Y022946D01*
X025251Y022908D01*
X025225Y022872D01*
X025196Y022838D01*
X025164Y022807D01*
X025130Y022779D01*
X025094Y022755D01*
X025055Y022733D01*
X025015Y022715D01*
X024973Y022701D01*
X024930Y022690D01*
X024886Y022683D01*
X024842Y022680D01*
X024798Y022681D01*
X024754Y022686D01*
X024711Y022695D01*
X024668Y022707D01*
X024627Y022724D01*
X024587Y022743D01*
X024550Y022767D01*
X024514Y022793D01*
X024481Y022823D01*
X024451Y022855D01*
X024424Y022890D01*
X024400Y022927D01*
X024379Y022966D01*
X024362Y023007D01*
X024349Y023049D01*
X024339Y023092D01*
X024333Y023136D01*
X024331Y023180D01*
X022331Y023180D02*
X022333Y023224D01*
X022339Y023268D01*
X022349Y023311D01*
X022362Y023353D01*
X022379Y023394D01*
X022400Y023433D01*
X022424Y023470D01*
X022451Y023505D01*
X022481Y023537D01*
X022514Y023567D01*
X022550Y023593D01*
X022587Y023617D01*
X022627Y023636D01*
X022668Y023653D01*
X022711Y023665D01*
X022754Y023674D01*
X022798Y023679D01*
X022842Y023680D01*
X022886Y023677D01*
X022930Y023670D01*
X022973Y023659D01*
X023015Y023645D01*
X023055Y023627D01*
X023094Y023605D01*
X023130Y023581D01*
X023164Y023553D01*
X023196Y023522D01*
X023225Y023488D01*
X023251Y023452D01*
X023273Y023414D01*
X023292Y023374D01*
X023307Y023332D01*
X023319Y023290D01*
X023327Y023246D01*
X023331Y023202D01*
X023331Y023158D01*
X023327Y023114D01*
X023319Y023070D01*
X023307Y023028D01*
X023292Y022986D01*
X023273Y022946D01*
X023251Y022908D01*
X023225Y022872D01*
X023196Y022838D01*
X023164Y022807D01*
X023130Y022779D01*
X023094Y022755D01*
X023055Y022733D01*
X023015Y022715D01*
X022973Y022701D01*
X022930Y022690D01*
X022886Y022683D01*
X022842Y022680D01*
X022798Y022681D01*
X022754Y022686D01*
X022711Y022695D01*
X022668Y022707D01*
X022627Y022724D01*
X022587Y022743D01*
X022550Y022767D01*
X022514Y022793D01*
X022481Y022823D01*
X022451Y022855D01*
X022424Y022890D01*
X022400Y022927D01*
X022379Y022966D01*
X022362Y023007D01*
X022349Y023049D01*
X022339Y023092D01*
X022333Y023136D01*
X022331Y023180D01*
X021331Y023180D02*
X021333Y023224D01*
X021339Y023268D01*
X021349Y023311D01*
X021362Y023353D01*
X021379Y023394D01*
X021400Y023433D01*
X021424Y023470D01*
X021451Y023505D01*
X021481Y023537D01*
X021514Y023567D01*
X021550Y023593D01*
X021587Y023617D01*
X021627Y023636D01*
X021668Y023653D01*
X021711Y023665D01*
X021754Y023674D01*
X021798Y023679D01*
X021842Y023680D01*
X021886Y023677D01*
X021930Y023670D01*
X021973Y023659D01*
X022015Y023645D01*
X022055Y023627D01*
X022094Y023605D01*
X022130Y023581D01*
X022164Y023553D01*
X022196Y023522D01*
X022225Y023488D01*
X022251Y023452D01*
X022273Y023414D01*
X022292Y023374D01*
X022307Y023332D01*
X022319Y023290D01*
X022327Y023246D01*
X022331Y023202D01*
X022331Y023158D01*
X022327Y023114D01*
X022319Y023070D01*
X022307Y023028D01*
X022292Y022986D01*
X022273Y022946D01*
X022251Y022908D01*
X022225Y022872D01*
X022196Y022838D01*
X022164Y022807D01*
X022130Y022779D01*
X022094Y022755D01*
X022055Y022733D01*
X022015Y022715D01*
X021973Y022701D01*
X021930Y022690D01*
X021886Y022683D01*
X021842Y022680D01*
X021798Y022681D01*
X021754Y022686D01*
X021711Y022695D01*
X021668Y022707D01*
X021627Y022724D01*
X021587Y022743D01*
X021550Y022767D01*
X021514Y022793D01*
X021481Y022823D01*
X021451Y022855D01*
X021424Y022890D01*
X021400Y022927D01*
X021379Y022966D01*
X021362Y023007D01*
X021349Y023049D01*
X021339Y023092D01*
X021333Y023136D01*
X021331Y023180D01*
X019131Y026430D02*
X018331Y026430D01*
X018331Y027680D02*
X018333Y027724D01*
X018339Y027768D01*
X018349Y027811D01*
X018362Y027853D01*
X018379Y027894D01*
X018400Y027933D01*
X018424Y027970D01*
X018451Y028005D01*
X018481Y028037D01*
X018514Y028067D01*
X018550Y028093D01*
X018587Y028117D01*
X018627Y028136D01*
X018668Y028153D01*
X018711Y028165D01*
X018754Y028174D01*
X018798Y028179D01*
X018842Y028180D01*
X018886Y028177D01*
X018930Y028170D01*
X018973Y028159D01*
X019015Y028145D01*
X019055Y028127D01*
X019094Y028105D01*
X019130Y028081D01*
X019164Y028053D01*
X019196Y028022D01*
X019225Y027988D01*
X019251Y027952D01*
X019273Y027914D01*
X019292Y027874D01*
X019307Y027832D01*
X019319Y027790D01*
X019327Y027746D01*
X019331Y027702D01*
X019331Y027658D01*
X019327Y027614D01*
X019319Y027570D01*
X019307Y027528D01*
X019292Y027486D01*
X019273Y027446D01*
X019251Y027408D01*
X019225Y027372D01*
X019196Y027338D01*
X019164Y027307D01*
X019130Y027279D01*
X019094Y027255D01*
X019055Y027233D01*
X019015Y027215D01*
X018973Y027201D01*
X018930Y027190D01*
X018886Y027183D01*
X018842Y027180D01*
X018798Y027181D01*
X018754Y027186D01*
X018711Y027195D01*
X018668Y027207D01*
X018627Y027224D01*
X018587Y027243D01*
X018550Y027267D01*
X018514Y027293D01*
X018481Y027323D01*
X018451Y027355D01*
X018424Y027390D01*
X018400Y027427D01*
X018379Y027466D01*
X018362Y027507D01*
X018349Y027549D01*
X018339Y027592D01*
X018333Y027636D01*
X018331Y027680D01*
X018531Y028380D02*
X018531Y028980D01*
X018131Y028680D01*
X018131Y028380D01*
X018131Y028680D02*
X018131Y028980D01*
X018131Y028680D02*
X018531Y028380D01*
X019431Y028430D02*
X019431Y028280D01*
X019433Y028263D01*
X019437Y028246D01*
X019444Y028230D01*
X019454Y028216D01*
X019467Y028203D01*
X019481Y028193D01*
X019497Y028186D01*
X019514Y028182D01*
X019531Y028180D01*
X020131Y028180D01*
X020148Y028182D01*
X020165Y028186D01*
X020181Y028193D01*
X020195Y028203D01*
X020208Y028216D01*
X020218Y028230D01*
X020225Y028246D01*
X020229Y028263D01*
X020231Y028280D01*
X020231Y028430D01*
X020181Y028480D01*
X020181Y029880D01*
X020231Y029930D01*
X020231Y030080D01*
X020229Y030097D01*
X020225Y030114D01*
X020218Y030130D01*
X020208Y030144D01*
X020195Y030157D01*
X020181Y030167D01*
X020165Y030174D01*
X020148Y030178D01*
X020131Y030180D01*
X019531Y030180D01*
X019514Y030178D01*
X019497Y030174D01*
X019481Y030167D01*
X019467Y030157D01*
X019454Y030144D01*
X019444Y030130D01*
X019437Y030114D01*
X019433Y030097D01*
X019431Y030080D01*
X019431Y029930D01*
X019481Y029880D01*
X019481Y028480D01*
X019431Y028430D01*
X018531Y029380D02*
X018531Y029680D01*
X018531Y029980D01*
X018531Y029680D02*
X018131Y029980D01*
X018131Y029380D01*
X018531Y029680D01*
X017081Y028180D02*
X017331Y027930D01*
X017331Y027430D01*
X017081Y027180D01*
X016581Y027180D01*
X016331Y027430D01*
X016331Y027930D01*
X016581Y028180D01*
X017081Y028180D01*
X015272Y030180D02*
X015274Y030227D01*
X015280Y030273D01*
X015290Y030319D01*
X015303Y030364D01*
X015320Y030407D01*
X015341Y030449D01*
X015365Y030489D01*
X015393Y030527D01*
X015424Y030563D01*
X015457Y030595D01*
X015493Y030625D01*
X015531Y030652D01*
X015572Y030675D01*
X015614Y030695D01*
X015658Y030712D01*
X015703Y030724D01*
X015749Y030733D01*
X015796Y030738D01*
X015843Y030739D01*
X015889Y030736D01*
X015936Y030729D01*
X015981Y030718D01*
X016026Y030704D01*
X016069Y030686D01*
X016110Y030664D01*
X016150Y030639D01*
X016187Y030611D01*
X016222Y030579D01*
X016254Y030545D01*
X016283Y030509D01*
X016309Y030470D01*
X016332Y030429D01*
X016351Y030386D01*
X016366Y030342D01*
X016378Y030296D01*
X016386Y030250D01*
X016390Y030203D01*
X016390Y030157D01*
X016386Y030110D01*
X016378Y030064D01*
X016366Y030018D01*
X016351Y029974D01*
X016332Y029931D01*
X016309Y029890D01*
X016283Y029851D01*
X016254Y029815D01*
X016222Y029781D01*
X016187Y029749D01*
X016150Y029721D01*
X016111Y029696D01*
X016069Y029674D01*
X016026Y029656D01*
X015981Y029642D01*
X015936Y029631D01*
X015889Y029624D01*
X015843Y029621D01*
X015796Y029622D01*
X015749Y029627D01*
X015703Y029636D01*
X015658Y029648D01*
X015614Y029665D01*
X015572Y029685D01*
X015531Y029708D01*
X015493Y029735D01*
X015457Y029765D01*
X015424Y029797D01*
X015393Y029833D01*
X015365Y029871D01*
X015341Y029911D01*
X015320Y029953D01*
X015303Y029996D01*
X015290Y030041D01*
X015280Y030087D01*
X015274Y030133D01*
X015272Y030180D01*
X014331Y030180D02*
X014333Y030257D01*
X014339Y030334D01*
X014349Y030411D01*
X014363Y030487D01*
X014380Y030562D01*
X014402Y030636D01*
X014427Y030709D01*
X014457Y030781D01*
X014489Y030851D01*
X014526Y030919D01*
X014565Y030985D01*
X014608Y031049D01*
X014655Y031111D01*
X014704Y031170D01*
X014757Y031227D01*
X014812Y031281D01*
X014870Y031332D01*
X014931Y031380D01*
X014994Y031425D01*
X015059Y031466D01*
X015126Y031504D01*
X015195Y031539D01*
X015266Y031569D01*
X015338Y031597D01*
X015412Y031620D01*
X015486Y031640D01*
X015562Y031656D01*
X015638Y031668D01*
X015715Y031676D01*
X015792Y031680D01*
X015870Y031680D01*
X015947Y031676D01*
X016024Y031668D01*
X016100Y031656D01*
X016176Y031640D01*
X016250Y031620D01*
X016324Y031597D01*
X016396Y031569D01*
X016467Y031539D01*
X016536Y031504D01*
X016603Y031466D01*
X016668Y031425D01*
X016731Y031380D01*
X016792Y031332D01*
X016850Y031281D01*
X016905Y031227D01*
X016958Y031170D01*
X017007Y031111D01*
X017054Y031049D01*
X017097Y030985D01*
X017136Y030919D01*
X017173Y030851D01*
X017205Y030781D01*
X017235Y030709D01*
X017260Y030636D01*
X017282Y030562D01*
X017299Y030487D01*
X017313Y030411D01*
X017323Y030334D01*
X017329Y030257D01*
X017331Y030180D01*
X017329Y030103D01*
X017323Y030026D01*
X017313Y029949D01*
X017299Y029873D01*
X017282Y029798D01*
X017260Y029724D01*
X017235Y029651D01*
X017205Y029579D01*
X017173Y029509D01*
X017136Y029441D01*
X017097Y029375D01*
X017054Y029311D01*
X017007Y029249D01*
X016958Y029190D01*
X016905Y029133D01*
X016850Y029079D01*
X016792Y029028D01*
X016731Y028980D01*
X016668Y028935D01*
X016603Y028894D01*
X016536Y028856D01*
X016467Y028821D01*
X016396Y028791D01*
X016324Y028763D01*
X016250Y028740D01*
X016176Y028720D01*
X016100Y028704D01*
X016024Y028692D01*
X015947Y028684D01*
X015870Y028680D01*
X015792Y028680D01*
X015715Y028684D01*
X015638Y028692D01*
X015562Y028704D01*
X015486Y028720D01*
X015412Y028740D01*
X015338Y028763D01*
X015266Y028791D01*
X015195Y028821D01*
X015126Y028856D01*
X015059Y028894D01*
X014994Y028935D01*
X014931Y028980D01*
X014870Y029028D01*
X014812Y029079D01*
X014757Y029133D01*
X014704Y029190D01*
X014655Y029249D01*
X014608Y029311D01*
X014565Y029375D01*
X014526Y029441D01*
X014489Y029509D01*
X014457Y029579D01*
X014427Y029651D01*
X014402Y029724D01*
X014380Y029798D01*
X014363Y029873D01*
X014349Y029949D01*
X014339Y030026D01*
X014333Y030103D01*
X014331Y030180D01*
X012772Y026180D02*
X012774Y026227D01*
X012780Y026273D01*
X012790Y026319D01*
X012803Y026364D01*
X012820Y026407D01*
X012841Y026449D01*
X012865Y026489D01*
X012893Y026527D01*
X012924Y026563D01*
X012957Y026595D01*
X012993Y026625D01*
X013031Y026652D01*
X013072Y026675D01*
X013114Y026695D01*
X013158Y026712D01*
X013203Y026724D01*
X013249Y026733D01*
X013296Y026738D01*
X013343Y026739D01*
X013389Y026736D01*
X013436Y026729D01*
X013481Y026718D01*
X013526Y026704D01*
X013569Y026686D01*
X013610Y026664D01*
X013650Y026639D01*
X013687Y026611D01*
X013722Y026579D01*
X013754Y026545D01*
X013783Y026509D01*
X013809Y026470D01*
X013832Y026429D01*
X013851Y026386D01*
X013866Y026342D01*
X013878Y026296D01*
X013886Y026250D01*
X013890Y026203D01*
X013890Y026157D01*
X013886Y026110D01*
X013878Y026064D01*
X013866Y026018D01*
X013851Y025974D01*
X013832Y025931D01*
X013809Y025890D01*
X013783Y025851D01*
X013754Y025815D01*
X013722Y025781D01*
X013687Y025749D01*
X013650Y025721D01*
X013611Y025696D01*
X013569Y025674D01*
X013526Y025656D01*
X013481Y025642D01*
X013436Y025631D01*
X013389Y025624D01*
X013343Y025621D01*
X013296Y025622D01*
X013249Y025627D01*
X013203Y025636D01*
X013158Y025648D01*
X013114Y025665D01*
X013072Y025685D01*
X013031Y025708D01*
X012993Y025735D01*
X012957Y025765D01*
X012924Y025797D01*
X012893Y025833D01*
X012865Y025871D01*
X012841Y025911D01*
X012820Y025953D01*
X012803Y025996D01*
X012790Y026041D01*
X012780Y026087D01*
X012774Y026133D01*
X012772Y026180D01*
X011831Y026180D02*
X011833Y026257D01*
X011839Y026334D01*
X011849Y026411D01*
X011863Y026487D01*
X011880Y026562D01*
X011902Y026636D01*
X011927Y026709D01*
X011957Y026781D01*
X011989Y026851D01*
X012026Y026919D01*
X012065Y026985D01*
X012108Y027049D01*
X012155Y027111D01*
X012204Y027170D01*
X012257Y027227D01*
X012312Y027281D01*
X012370Y027332D01*
X012431Y027380D01*
X012494Y027425D01*
X012559Y027466D01*
X012626Y027504D01*
X012695Y027539D01*
X012766Y027569D01*
X012838Y027597D01*
X012912Y027620D01*
X012986Y027640D01*
X013062Y027656D01*
X013138Y027668D01*
X013215Y027676D01*
X013292Y027680D01*
X013370Y027680D01*
X013447Y027676D01*
X013524Y027668D01*
X013600Y027656D01*
X013676Y027640D01*
X013750Y027620D01*
X013824Y027597D01*
X013896Y027569D01*
X013967Y027539D01*
X014036Y027504D01*
X014103Y027466D01*
X014168Y027425D01*
X014231Y027380D01*
X014292Y027332D01*
X014350Y027281D01*
X014405Y027227D01*
X014458Y027170D01*
X014507Y027111D01*
X014554Y027049D01*
X014597Y026985D01*
X014636Y026919D01*
X014673Y026851D01*
X014705Y026781D01*
X014735Y026709D01*
X014760Y026636D01*
X014782Y026562D01*
X014799Y026487D01*
X014813Y026411D01*
X014823Y026334D01*
X014829Y026257D01*
X014831Y026180D01*
X014829Y026103D01*
X014823Y026026D01*
X014813Y025949D01*
X014799Y025873D01*
X014782Y025798D01*
X014760Y025724D01*
X014735Y025651D01*
X014705Y025579D01*
X014673Y025509D01*
X014636Y025441D01*
X014597Y025375D01*
X014554Y025311D01*
X014507Y025249D01*
X014458Y025190D01*
X014405Y025133D01*
X014350Y025079D01*
X014292Y025028D01*
X014231Y024980D01*
X014168Y024935D01*
X014103Y024894D01*
X014036Y024856D01*
X013967Y024821D01*
X013896Y024791D01*
X013824Y024763D01*
X013750Y024740D01*
X013676Y024720D01*
X013600Y024704D01*
X013524Y024692D01*
X013447Y024684D01*
X013370Y024680D01*
X013292Y024680D01*
X013215Y024684D01*
X013138Y024692D01*
X013062Y024704D01*
X012986Y024720D01*
X012912Y024740D01*
X012838Y024763D01*
X012766Y024791D01*
X012695Y024821D01*
X012626Y024856D01*
X012559Y024894D01*
X012494Y024935D01*
X012431Y024980D01*
X012370Y025028D01*
X012312Y025079D01*
X012257Y025133D01*
X012204Y025190D01*
X012155Y025249D01*
X012108Y025311D01*
X012065Y025375D01*
X012026Y025441D01*
X011989Y025509D01*
X011957Y025579D01*
X011927Y025651D01*
X011902Y025724D01*
X011880Y025798D01*
X011863Y025873D01*
X011849Y025949D01*
X011839Y026026D01*
X011833Y026103D01*
X011831Y026180D01*
X008772Y026180D02*
X008774Y026227D01*
X008780Y026273D01*
X008790Y026319D01*
X008803Y026364D01*
X008820Y026407D01*
X008841Y026449D01*
X008865Y026489D01*
X008893Y026527D01*
X008924Y026563D01*
X008957Y026595D01*
X008993Y026625D01*
X009031Y026652D01*
X009072Y026675D01*
X009114Y026695D01*
X009158Y026712D01*
X009203Y026724D01*
X009249Y026733D01*
X009296Y026738D01*
X009343Y026739D01*
X009389Y026736D01*
X009436Y026729D01*
X009481Y026718D01*
X009526Y026704D01*
X009569Y026686D01*
X009610Y026664D01*
X009650Y026639D01*
X009687Y026611D01*
X009722Y026579D01*
X009754Y026545D01*
X009783Y026509D01*
X009809Y026470D01*
X009832Y026429D01*
X009851Y026386D01*
X009866Y026342D01*
X009878Y026296D01*
X009886Y026250D01*
X009890Y026203D01*
X009890Y026157D01*
X009886Y026110D01*
X009878Y026064D01*
X009866Y026018D01*
X009851Y025974D01*
X009832Y025931D01*
X009809Y025890D01*
X009783Y025851D01*
X009754Y025815D01*
X009722Y025781D01*
X009687Y025749D01*
X009650Y025721D01*
X009611Y025696D01*
X009569Y025674D01*
X009526Y025656D01*
X009481Y025642D01*
X009436Y025631D01*
X009389Y025624D01*
X009343Y025621D01*
X009296Y025622D01*
X009249Y025627D01*
X009203Y025636D01*
X009158Y025648D01*
X009114Y025665D01*
X009072Y025685D01*
X009031Y025708D01*
X008993Y025735D01*
X008957Y025765D01*
X008924Y025797D01*
X008893Y025833D01*
X008865Y025871D01*
X008841Y025911D01*
X008820Y025953D01*
X008803Y025996D01*
X008790Y026041D01*
X008780Y026087D01*
X008774Y026133D01*
X008772Y026180D01*
X007831Y026180D02*
X007833Y026257D01*
X007839Y026334D01*
X007849Y026411D01*
X007863Y026487D01*
X007880Y026562D01*
X007902Y026636D01*
X007927Y026709D01*
X007957Y026781D01*
X007989Y026851D01*
X008026Y026919D01*
X008065Y026985D01*
X008108Y027049D01*
X008155Y027111D01*
X008204Y027170D01*
X008257Y027227D01*
X008312Y027281D01*
X008370Y027332D01*
X008431Y027380D01*
X008494Y027425D01*
X008559Y027466D01*
X008626Y027504D01*
X008695Y027539D01*
X008766Y027569D01*
X008838Y027597D01*
X008912Y027620D01*
X008986Y027640D01*
X009062Y027656D01*
X009138Y027668D01*
X009215Y027676D01*
X009292Y027680D01*
X009370Y027680D01*
X009447Y027676D01*
X009524Y027668D01*
X009600Y027656D01*
X009676Y027640D01*
X009750Y027620D01*
X009824Y027597D01*
X009896Y027569D01*
X009967Y027539D01*
X010036Y027504D01*
X010103Y027466D01*
X010168Y027425D01*
X010231Y027380D01*
X010292Y027332D01*
X010350Y027281D01*
X010405Y027227D01*
X010458Y027170D01*
X010507Y027111D01*
X010554Y027049D01*
X010597Y026985D01*
X010636Y026919D01*
X010673Y026851D01*
X010705Y026781D01*
X010735Y026709D01*
X010760Y026636D01*
X010782Y026562D01*
X010799Y026487D01*
X010813Y026411D01*
X010823Y026334D01*
X010829Y026257D01*
X010831Y026180D01*
X010829Y026103D01*
X010823Y026026D01*
X010813Y025949D01*
X010799Y025873D01*
X010782Y025798D01*
X010760Y025724D01*
X010735Y025651D01*
X010705Y025579D01*
X010673Y025509D01*
X010636Y025441D01*
X010597Y025375D01*
X010554Y025311D01*
X010507Y025249D01*
X010458Y025190D01*
X010405Y025133D01*
X010350Y025079D01*
X010292Y025028D01*
X010231Y024980D01*
X010168Y024935D01*
X010103Y024894D01*
X010036Y024856D01*
X009967Y024821D01*
X009896Y024791D01*
X009824Y024763D01*
X009750Y024740D01*
X009676Y024720D01*
X009600Y024704D01*
X009524Y024692D01*
X009447Y024684D01*
X009370Y024680D01*
X009292Y024680D01*
X009215Y024684D01*
X009138Y024692D01*
X009062Y024704D01*
X008986Y024720D01*
X008912Y024740D01*
X008838Y024763D01*
X008766Y024791D01*
X008695Y024821D01*
X008626Y024856D01*
X008559Y024894D01*
X008494Y024935D01*
X008431Y024980D01*
X008370Y025028D01*
X008312Y025079D01*
X008257Y025133D01*
X008204Y025190D01*
X008155Y025249D01*
X008108Y025311D01*
X008065Y025375D01*
X008026Y025441D01*
X007989Y025509D01*
X007957Y025579D01*
X007927Y025651D01*
X007902Y025724D01*
X007880Y025798D01*
X007863Y025873D01*
X007849Y025949D01*
X007839Y026026D01*
X007833Y026103D01*
X007831Y026180D01*
X015381Y021530D02*
X015383Y021504D01*
X015388Y021478D01*
X015396Y021453D01*
X015408Y021430D01*
X015422Y021408D01*
X015440Y021389D01*
X015459Y021371D01*
X015481Y021357D01*
X015504Y021345D01*
X015529Y021337D01*
X015555Y021332D01*
X015581Y021330D01*
X012772Y016680D02*
X012774Y016727D01*
X012780Y016773D01*
X012790Y016819D01*
X012803Y016864D01*
X012820Y016907D01*
X012841Y016949D01*
X012865Y016989D01*
X012893Y017027D01*
X012924Y017063D01*
X012957Y017095D01*
X012993Y017125D01*
X013031Y017152D01*
X013072Y017175D01*
X013114Y017195D01*
X013158Y017212D01*
X013203Y017224D01*
X013249Y017233D01*
X013296Y017238D01*
X013343Y017239D01*
X013389Y017236D01*
X013436Y017229D01*
X013481Y017218D01*
X013526Y017204D01*
X013569Y017186D01*
X013610Y017164D01*
X013650Y017139D01*
X013687Y017111D01*
X013722Y017079D01*
X013754Y017045D01*
X013783Y017009D01*
X013809Y016970D01*
X013832Y016929D01*
X013851Y016886D01*
X013866Y016842D01*
X013878Y016796D01*
X013886Y016750D01*
X013890Y016703D01*
X013890Y016657D01*
X013886Y016610D01*
X013878Y016564D01*
X013866Y016518D01*
X013851Y016474D01*
X013832Y016431D01*
X013809Y016390D01*
X013783Y016351D01*
X013754Y016315D01*
X013722Y016281D01*
X013687Y016249D01*
X013650Y016221D01*
X013611Y016196D01*
X013569Y016174D01*
X013526Y016156D01*
X013481Y016142D01*
X013436Y016131D01*
X013389Y016124D01*
X013343Y016121D01*
X013296Y016122D01*
X013249Y016127D01*
X013203Y016136D01*
X013158Y016148D01*
X013114Y016165D01*
X013072Y016185D01*
X013031Y016208D01*
X012993Y016235D01*
X012957Y016265D01*
X012924Y016297D01*
X012893Y016333D01*
X012865Y016371D01*
X012841Y016411D01*
X012820Y016453D01*
X012803Y016496D01*
X012790Y016541D01*
X012780Y016587D01*
X012774Y016633D01*
X012772Y016680D01*
X011831Y016680D02*
X011833Y016757D01*
X011839Y016834D01*
X011849Y016911D01*
X011863Y016987D01*
X011880Y017062D01*
X011902Y017136D01*
X011927Y017209D01*
X011957Y017281D01*
X011989Y017351D01*
X012026Y017419D01*
X012065Y017485D01*
X012108Y017549D01*
X012155Y017611D01*
X012204Y017670D01*
X012257Y017727D01*
X012312Y017781D01*
X012370Y017832D01*
X012431Y017880D01*
X012494Y017925D01*
X012559Y017966D01*
X012626Y018004D01*
X012695Y018039D01*
X012766Y018069D01*
X012838Y018097D01*
X012912Y018120D01*
X012986Y018140D01*
X013062Y018156D01*
X013138Y018168D01*
X013215Y018176D01*
X013292Y018180D01*
X013370Y018180D01*
X013447Y018176D01*
X013524Y018168D01*
X013600Y018156D01*
X013676Y018140D01*
X013750Y018120D01*
X013824Y018097D01*
X013896Y018069D01*
X013967Y018039D01*
X014036Y018004D01*
X014103Y017966D01*
X014168Y017925D01*
X014231Y017880D01*
X014292Y017832D01*
X014350Y017781D01*
X014405Y017727D01*
X014458Y017670D01*
X014507Y017611D01*
X014554Y017549D01*
X014597Y017485D01*
X014636Y017419D01*
X014673Y017351D01*
X014705Y017281D01*
X014735Y017209D01*
X014760Y017136D01*
X014782Y017062D01*
X014799Y016987D01*
X014813Y016911D01*
X014823Y016834D01*
X014829Y016757D01*
X014831Y016680D01*
X014829Y016603D01*
X014823Y016526D01*
X014813Y016449D01*
X014799Y016373D01*
X014782Y016298D01*
X014760Y016224D01*
X014735Y016151D01*
X014705Y016079D01*
X014673Y016009D01*
X014636Y015941D01*
X014597Y015875D01*
X014554Y015811D01*
X014507Y015749D01*
X014458Y015690D01*
X014405Y015633D01*
X014350Y015579D01*
X014292Y015528D01*
X014231Y015480D01*
X014168Y015435D01*
X014103Y015394D01*
X014036Y015356D01*
X013967Y015321D01*
X013896Y015291D01*
X013824Y015263D01*
X013750Y015240D01*
X013676Y015220D01*
X013600Y015204D01*
X013524Y015192D01*
X013447Y015184D01*
X013370Y015180D01*
X013292Y015180D01*
X013215Y015184D01*
X013138Y015192D01*
X013062Y015204D01*
X012986Y015220D01*
X012912Y015240D01*
X012838Y015263D01*
X012766Y015291D01*
X012695Y015321D01*
X012626Y015356D01*
X012559Y015394D01*
X012494Y015435D01*
X012431Y015480D01*
X012370Y015528D01*
X012312Y015579D01*
X012257Y015633D01*
X012204Y015690D01*
X012155Y015749D01*
X012108Y015811D01*
X012065Y015875D01*
X012026Y015941D01*
X011989Y016009D01*
X011957Y016079D01*
X011927Y016151D01*
X011902Y016224D01*
X011880Y016298D01*
X011863Y016373D01*
X011849Y016449D01*
X011839Y016526D01*
X011833Y016603D01*
X011831Y016680D01*
X008772Y016680D02*
X008774Y016727D01*
X008780Y016773D01*
X008790Y016819D01*
X008803Y016864D01*
X008820Y016907D01*
X008841Y016949D01*
X008865Y016989D01*
X008893Y017027D01*
X008924Y017063D01*
X008957Y017095D01*
X008993Y017125D01*
X009031Y017152D01*
X009072Y017175D01*
X009114Y017195D01*
X009158Y017212D01*
X009203Y017224D01*
X009249Y017233D01*
X009296Y017238D01*
X009343Y017239D01*
X009389Y017236D01*
X009436Y017229D01*
X009481Y017218D01*
X009526Y017204D01*
X009569Y017186D01*
X009610Y017164D01*
X009650Y017139D01*
X009687Y017111D01*
X009722Y017079D01*
X009754Y017045D01*
X009783Y017009D01*
X009809Y016970D01*
X009832Y016929D01*
X009851Y016886D01*
X009866Y016842D01*
X009878Y016796D01*
X009886Y016750D01*
X009890Y016703D01*
X009890Y016657D01*
X009886Y016610D01*
X009878Y016564D01*
X009866Y016518D01*
X009851Y016474D01*
X009832Y016431D01*
X009809Y016390D01*
X009783Y016351D01*
X009754Y016315D01*
X009722Y016281D01*
X009687Y016249D01*
X009650Y016221D01*
X009611Y016196D01*
X009569Y016174D01*
X009526Y016156D01*
X009481Y016142D01*
X009436Y016131D01*
X009389Y016124D01*
X009343Y016121D01*
X009296Y016122D01*
X009249Y016127D01*
X009203Y016136D01*
X009158Y016148D01*
X009114Y016165D01*
X009072Y016185D01*
X009031Y016208D01*
X008993Y016235D01*
X008957Y016265D01*
X008924Y016297D01*
X008893Y016333D01*
X008865Y016371D01*
X008841Y016411D01*
X008820Y016453D01*
X008803Y016496D01*
X008790Y016541D01*
X008780Y016587D01*
X008774Y016633D01*
X008772Y016680D01*
X007831Y016680D02*
X007833Y016757D01*
X007839Y016834D01*
X007849Y016911D01*
X007863Y016987D01*
X007880Y017062D01*
X007902Y017136D01*
X007927Y017209D01*
X007957Y017281D01*
X007989Y017351D01*
X008026Y017419D01*
X008065Y017485D01*
X008108Y017549D01*
X008155Y017611D01*
X008204Y017670D01*
X008257Y017727D01*
X008312Y017781D01*
X008370Y017832D01*
X008431Y017880D01*
X008494Y017925D01*
X008559Y017966D01*
X008626Y018004D01*
X008695Y018039D01*
X008766Y018069D01*
X008838Y018097D01*
X008912Y018120D01*
X008986Y018140D01*
X009062Y018156D01*
X009138Y018168D01*
X009215Y018176D01*
X009292Y018180D01*
X009370Y018180D01*
X009447Y018176D01*
X009524Y018168D01*
X009600Y018156D01*
X009676Y018140D01*
X009750Y018120D01*
X009824Y018097D01*
X009896Y018069D01*
X009967Y018039D01*
X010036Y018004D01*
X010103Y017966D01*
X010168Y017925D01*
X010231Y017880D01*
X010292Y017832D01*
X010350Y017781D01*
X010405Y017727D01*
X010458Y017670D01*
X010507Y017611D01*
X010554Y017549D01*
X010597Y017485D01*
X010636Y017419D01*
X010673Y017351D01*
X010705Y017281D01*
X010735Y017209D01*
X010760Y017136D01*
X010782Y017062D01*
X010799Y016987D01*
X010813Y016911D01*
X010823Y016834D01*
X010829Y016757D01*
X010831Y016680D01*
X010829Y016603D01*
X010823Y016526D01*
X010813Y016449D01*
X010799Y016373D01*
X010782Y016298D01*
X010760Y016224D01*
X010735Y016151D01*
X010705Y016079D01*
X010673Y016009D01*
X010636Y015941D01*
X010597Y015875D01*
X010554Y015811D01*
X010507Y015749D01*
X010458Y015690D01*
X010405Y015633D01*
X010350Y015579D01*
X010292Y015528D01*
X010231Y015480D01*
X010168Y015435D01*
X010103Y015394D01*
X010036Y015356D01*
X009967Y015321D01*
X009896Y015291D01*
X009824Y015263D01*
X009750Y015240D01*
X009676Y015220D01*
X009600Y015204D01*
X009524Y015192D01*
X009447Y015184D01*
X009370Y015180D01*
X009292Y015180D01*
X009215Y015184D01*
X009138Y015192D01*
X009062Y015204D01*
X008986Y015220D01*
X008912Y015240D01*
X008838Y015263D01*
X008766Y015291D01*
X008695Y015321D01*
X008626Y015356D01*
X008559Y015394D01*
X008494Y015435D01*
X008431Y015480D01*
X008370Y015528D01*
X008312Y015579D01*
X008257Y015633D01*
X008204Y015690D01*
X008155Y015749D01*
X008108Y015811D01*
X008065Y015875D01*
X008026Y015941D01*
X007989Y016009D01*
X007957Y016079D01*
X007927Y016151D01*
X007902Y016224D01*
X007880Y016298D01*
X007863Y016373D01*
X007849Y016449D01*
X007839Y016526D01*
X007833Y016603D01*
X007831Y016680D01*
X010431Y013180D02*
X010731Y013180D01*
X010731Y013230D01*
X010931Y013230D01*
X010931Y013180D01*
X011231Y013180D01*
X011231Y013130D01*
X011431Y013130D01*
X011431Y013180D01*
X011731Y013180D01*
X011731Y013230D01*
X011931Y013230D01*
X011931Y013180D01*
X012231Y013180D01*
X012231Y013130D01*
X012431Y013130D01*
X012431Y013180D01*
X012731Y013180D01*
X012731Y013230D01*
X012931Y013230D01*
X012931Y013180D01*
X013231Y013180D01*
X013231Y013130D01*
X013431Y013130D01*
X013431Y013180D01*
X013731Y013180D01*
X013731Y013230D01*
X013931Y013230D01*
X013931Y013180D01*
X014231Y013180D01*
X014231Y013130D01*
X014431Y013130D01*
X014431Y013180D01*
X014731Y013180D01*
X014731Y013230D01*
X014931Y013230D01*
X014931Y013180D01*
X015231Y013180D01*
X015231Y013130D01*
X015431Y013130D01*
X015431Y013180D01*
X015731Y013180D01*
X015731Y013230D01*
X015931Y013230D01*
X015931Y013180D01*
X016231Y013180D01*
X016231Y013130D01*
X016431Y013130D01*
X016431Y013180D01*
X016731Y013180D01*
X016731Y013230D01*
X016931Y013230D01*
X016931Y013180D01*
X017231Y013180D01*
X017231Y012880D01*
X016431Y012830D02*
X016331Y012730D01*
X016231Y012830D01*
X013581Y011580D02*
X013581Y011480D01*
X013081Y011480D01*
X013081Y011580D01*
X013231Y011580D02*
X013231Y012880D01*
X013431Y012880D02*
X013431Y011580D01*
X012581Y011580D02*
X012581Y011480D01*
X012081Y011480D01*
X012081Y011580D01*
X012231Y011580D02*
X012431Y011580D01*
X011581Y011580D02*
X011581Y011480D01*
X011081Y011480D01*
X011081Y011580D01*
X011231Y011580D02*
X011431Y011580D01*
X010431Y012880D02*
X010431Y013180D01*
X013231Y010380D02*
X013231Y009080D01*
X013081Y009080D02*
X013081Y008980D01*
X013581Y008980D01*
X013581Y009080D01*
X013431Y009080D02*
X013431Y010380D01*
X012581Y009080D02*
X012581Y008980D01*
X012081Y008980D01*
X012081Y009080D01*
X012231Y009080D02*
X012431Y009080D01*
X011581Y009080D02*
X011581Y008980D01*
X011081Y008980D01*
X011081Y009080D01*
X011231Y009080D02*
X011431Y009080D01*
X013131Y007130D02*
X015531Y007130D01*
X015531Y004330D01*
X013131Y004330D01*
X013131Y002680D01*
X013331Y002680D01*
X015331Y002680D01*
X015331Y001130D01*
X015081Y001130D02*
X013581Y001130D01*
X013331Y001130D02*
X013331Y002680D01*
X013131Y004330D02*
X013131Y007130D01*
X013431Y005105D02*
X013431Y004878D01*
X013601Y004737D02*
X013431Y004567D01*
X013488Y004510D02*
X013261Y004737D01*
X013261Y004510D02*
X013601Y004510D01*
X015061Y004623D02*
X015174Y004737D01*
X015401Y004737D01*
X015231Y004737D02*
X015231Y004510D01*
X015174Y004510D02*
X015061Y004623D01*
X015174Y004510D02*
X015401Y004510D01*
X015531Y004330D02*
X015531Y002680D01*
X015331Y002680D01*
X015331Y001130D02*
X015329Y001068D01*
X015323Y001007D01*
X015314Y000946D01*
X015301Y000886D01*
X015284Y000827D01*
X015263Y000769D01*
X015239Y000712D01*
X015212Y000657D01*
X015181Y000604D01*
X015147Y000552D01*
X015110Y000503D01*
X015070Y000456D01*
X015027Y000412D01*
X014982Y000371D01*
X014934Y000332D01*
X014883Y000296D01*
X014831Y000264D01*
X014777Y000235D01*
X014721Y000209D01*
X014663Y000187D01*
X014605Y000168D01*
X014545Y000153D01*
X014484Y000142D01*
X014423Y000134D01*
X014362Y000130D01*
X014300Y000130D01*
X014239Y000134D01*
X014178Y000142D01*
X014117Y000153D01*
X014057Y000168D01*
X013999Y000187D01*
X013941Y000209D01*
X013885Y000235D01*
X013831Y000264D01*
X013779Y000296D01*
X013728Y000332D01*
X013680Y000371D01*
X013635Y000412D01*
X013592Y000456D01*
X013552Y000503D01*
X013515Y000552D01*
X013481Y000604D01*
X013450Y000657D01*
X013423Y000712D01*
X013399Y000769D01*
X013378Y000827D01*
X013361Y000886D01*
X013348Y000946D01*
X013339Y001007D01*
X013333Y001068D01*
X013331Y001130D01*
X013781Y000780D02*
X014881Y000780D01*
X014581Y000430D02*
X014081Y000430D01*
X015231Y004878D02*
X015231Y005105D01*
X015344Y004992D02*
X015117Y004992D01*
X027381Y019530D02*
X027381Y020830D01*
X027383Y020856D01*
X027388Y020882D01*
X027396Y020907D01*
X027408Y020930D01*
X027422Y020952D01*
X027440Y020971D01*
X027459Y020989D01*
X027481Y021003D01*
X027504Y021015D01*
X027529Y021023D01*
X027555Y021028D01*
X027581Y021030D01*
X027831Y020680D02*
X027831Y020310D01*
X027831Y020060D02*
X027831Y019680D01*
X028081Y019330D02*
X028107Y019332D01*
X028133Y019337D01*
X028158Y019345D01*
X028181Y019357D01*
X028203Y019371D01*
X028222Y019389D01*
X028240Y019408D01*
X028254Y019430D01*
X028266Y019453D01*
X028274Y019478D01*
X028279Y019504D01*
X028281Y019530D01*
X028281Y020830D01*
X028279Y020856D01*
X028274Y020882D01*
X028266Y020907D01*
X028254Y020930D01*
X028240Y020952D01*
X028222Y020971D01*
X028203Y020989D01*
X028181Y021003D01*
X028158Y021015D01*
X028133Y021023D01*
X028107Y021028D01*
X028081Y021030D01*
X027381Y019530D02*
X027383Y019504D01*
X027388Y019478D01*
X027396Y019453D01*
X027408Y019430D01*
X027422Y019408D01*
X027440Y019389D01*
X027459Y019371D01*
X027481Y019357D01*
X027504Y019345D01*
X027529Y019337D01*
X027555Y019332D01*
X027581Y019330D01*
X025381Y024830D02*
X025383Y024856D01*
X025388Y024882D01*
X025396Y024907D01*
X025408Y024930D01*
X025422Y024952D01*
X025440Y024971D01*
X025459Y024989D01*
X025481Y025003D01*
X025504Y025015D01*
X025529Y025023D01*
X025555Y025028D01*
X025581Y025030D01*
X026331Y026180D02*
X026333Y026224D01*
X026339Y026268D01*
X026349Y026311D01*
X026362Y026353D01*
X026379Y026394D01*
X026400Y026433D01*
X026424Y026470D01*
X026451Y026505D01*
X026481Y026537D01*
X026514Y026567D01*
X026550Y026593D01*
X026587Y026617D01*
X026627Y026636D01*
X026668Y026653D01*
X026711Y026665D01*
X026754Y026674D01*
X026798Y026679D01*
X026842Y026680D01*
X026886Y026677D01*
X026930Y026670D01*
X026973Y026659D01*
X027015Y026645D01*
X027055Y026627D01*
X027094Y026605D01*
X027130Y026581D01*
X027164Y026553D01*
X027196Y026522D01*
X027225Y026488D01*
X027251Y026452D01*
X027273Y026414D01*
X027292Y026374D01*
X027307Y026332D01*
X027319Y026290D01*
X027327Y026246D01*
X027331Y026202D01*
X027331Y026158D01*
X027327Y026114D01*
X027319Y026070D01*
X027307Y026028D01*
X027292Y025986D01*
X027273Y025946D01*
X027251Y025908D01*
X027225Y025872D01*
X027196Y025838D01*
X027164Y025807D01*
X027130Y025779D01*
X027094Y025755D01*
X027055Y025733D01*
X027015Y025715D01*
X026973Y025701D01*
X026930Y025690D01*
X026886Y025683D01*
X026842Y025680D01*
X026798Y025681D01*
X026754Y025686D01*
X026711Y025695D01*
X026668Y025707D01*
X026627Y025724D01*
X026587Y025743D01*
X026550Y025767D01*
X026514Y025793D01*
X026481Y025823D01*
X026451Y025855D01*
X026424Y025890D01*
X026400Y025927D01*
X026379Y025966D01*
X026362Y026007D01*
X026349Y026049D01*
X026339Y026092D01*
X026333Y026136D01*
X026331Y026180D01*
X027081Y027680D02*
X027581Y027680D01*
X027831Y027930D01*
X027831Y028430D01*
X027581Y028680D01*
X027081Y028680D01*
X026831Y028430D01*
X026831Y027930D01*
X027081Y027680D01*
X027331Y027180D02*
X027333Y027224D01*
X027339Y027268D01*
X027349Y027311D01*
X027362Y027353D01*
X027379Y027394D01*
X027400Y027433D01*
X027424Y027470D01*
X027451Y027505D01*
X027481Y027537D01*
X027514Y027567D01*
X027550Y027593D01*
X027587Y027617D01*
X027627Y027636D01*
X027668Y027653D01*
X027711Y027665D01*
X027754Y027674D01*
X027798Y027679D01*
X027842Y027680D01*
X027886Y027677D01*
X027930Y027670D01*
X027973Y027659D01*
X028015Y027645D01*
X028055Y027627D01*
X028094Y027605D01*
X028130Y027581D01*
X028164Y027553D01*
X028196Y027522D01*
X028225Y027488D01*
X028251Y027452D01*
X028273Y027414D01*
X028292Y027374D01*
X028307Y027332D01*
X028319Y027290D01*
X028327Y027246D01*
X028331Y027202D01*
X028331Y027158D01*
X028327Y027114D01*
X028319Y027070D01*
X028307Y027028D01*
X028292Y026986D01*
X028273Y026946D01*
X028251Y026908D01*
X028225Y026872D01*
X028196Y026838D01*
X028164Y026807D01*
X028130Y026779D01*
X028094Y026755D01*
X028055Y026733D01*
X028015Y026715D01*
X027973Y026701D01*
X027930Y026690D01*
X027886Y026683D01*
X027842Y026680D01*
X027798Y026681D01*
X027754Y026686D01*
X027711Y026695D01*
X027668Y026707D01*
X027627Y026724D01*
X027587Y026743D01*
X027550Y026767D01*
X027514Y026793D01*
X027481Y026823D01*
X027451Y026855D01*
X027424Y026890D01*
X027400Y026927D01*
X027379Y026966D01*
X027362Y027007D01*
X027349Y027049D01*
X027339Y027092D01*
X027333Y027136D01*
X027331Y027180D01*
X025331Y028680D02*
X025333Y028724D01*
X025339Y028768D01*
X025349Y028811D01*
X025362Y028853D01*
X025379Y028894D01*
X025400Y028933D01*
X025424Y028970D01*
X025451Y029005D01*
X025481Y029037D01*
X025514Y029067D01*
X025550Y029093D01*
X025587Y029117D01*
X025627Y029136D01*
X025668Y029153D01*
X025711Y029165D01*
X025754Y029174D01*
X025798Y029179D01*
X025842Y029180D01*
X025886Y029177D01*
X025930Y029170D01*
X025973Y029159D01*
X026015Y029145D01*
X026055Y029127D01*
X026094Y029105D01*
X026130Y029081D01*
X026164Y029053D01*
X026196Y029022D01*
X026225Y028988D01*
X026251Y028952D01*
X026273Y028914D01*
X026292Y028874D01*
X026307Y028832D01*
X026319Y028790D01*
X026327Y028746D01*
X026331Y028702D01*
X026331Y028658D01*
X026327Y028614D01*
X026319Y028570D01*
X026307Y028528D01*
X026292Y028486D01*
X026273Y028446D01*
X026251Y028408D01*
X026225Y028372D01*
X026196Y028338D01*
X026164Y028307D01*
X026130Y028279D01*
X026094Y028255D01*
X026055Y028233D01*
X026015Y028215D01*
X025973Y028201D01*
X025930Y028190D01*
X025886Y028183D01*
X025842Y028180D01*
X025798Y028181D01*
X025754Y028186D01*
X025711Y028195D01*
X025668Y028207D01*
X025627Y028224D01*
X025587Y028243D01*
X025550Y028267D01*
X025514Y028293D01*
X025481Y028323D01*
X025451Y028355D01*
X025424Y028390D01*
X025400Y028427D01*
X025379Y028466D01*
X025362Y028507D01*
X025349Y028549D01*
X025339Y028592D01*
X025333Y028636D01*
X025331Y028680D01*
X024831Y027680D02*
X024833Y027724D01*
X024839Y027768D01*
X024849Y027811D01*
X024862Y027853D01*
X024879Y027894D01*
X024900Y027933D01*
X024924Y027970D01*
X024951Y028005D01*
X024981Y028037D01*
X025014Y028067D01*
X025050Y028093D01*
X025087Y028117D01*
X025127Y028136D01*
X025168Y028153D01*
X025211Y028165D01*
X025254Y028174D01*
X025298Y028179D01*
X025342Y028180D01*
X025386Y028177D01*
X025430Y028170D01*
X025473Y028159D01*
X025515Y028145D01*
X025555Y028127D01*
X025594Y028105D01*
X025630Y028081D01*
X025664Y028053D01*
X025696Y028022D01*
X025725Y027988D01*
X025751Y027952D01*
X025773Y027914D01*
X025792Y027874D01*
X025807Y027832D01*
X025819Y027790D01*
X025827Y027746D01*
X025831Y027702D01*
X025831Y027658D01*
X025827Y027614D01*
X025819Y027570D01*
X025807Y027528D01*
X025792Y027486D01*
X025773Y027446D01*
X025751Y027408D01*
X025725Y027372D01*
X025696Y027338D01*
X025664Y027307D01*
X025630Y027279D01*
X025594Y027255D01*
X025555Y027233D01*
X025515Y027215D01*
X025473Y027201D01*
X025430Y027190D01*
X025386Y027183D01*
X025342Y027180D01*
X025298Y027181D01*
X025254Y027186D01*
X025211Y027195D01*
X025168Y027207D01*
X025127Y027224D01*
X025087Y027243D01*
X025050Y027267D01*
X025014Y027293D01*
X024981Y027323D01*
X024951Y027355D01*
X024924Y027390D01*
X024900Y027427D01*
X024879Y027466D01*
X024862Y027507D01*
X024849Y027549D01*
X024839Y027592D01*
X024833Y027636D01*
X024831Y027680D01*
X023531Y027380D02*
X023531Y027980D01*
X023131Y027680D01*
X023131Y027380D01*
X023131Y027680D02*
X023131Y027980D01*
X023131Y027680D02*
X023531Y027380D01*
X022331Y026680D02*
X022333Y026724D01*
X022339Y026768D01*
X022349Y026811D01*
X022362Y026853D01*
X022379Y026894D01*
X022400Y026933D01*
X022424Y026970D01*
X022451Y027005D01*
X022481Y027037D01*
X022514Y027067D01*
X022550Y027093D01*
X022587Y027117D01*
X022627Y027136D01*
X022668Y027153D01*
X022711Y027165D01*
X022754Y027174D01*
X022798Y027179D01*
X022842Y027180D01*
X022886Y027177D01*
X022930Y027170D01*
X022973Y027159D01*
X023015Y027145D01*
X023055Y027127D01*
X023094Y027105D01*
X023130Y027081D01*
X023164Y027053D01*
X023196Y027022D01*
X023225Y026988D01*
X023251Y026952D01*
X023273Y026914D01*
X023292Y026874D01*
X023307Y026832D01*
X023319Y026790D01*
X023327Y026746D01*
X023331Y026702D01*
X023331Y026658D01*
X023327Y026614D01*
X023319Y026570D01*
X023307Y026528D01*
X023292Y026486D01*
X023273Y026446D01*
X023251Y026408D01*
X023225Y026372D01*
X023196Y026338D01*
X023164Y026307D01*
X023130Y026279D01*
X023094Y026255D01*
X023055Y026233D01*
X023015Y026215D01*
X022973Y026201D01*
X022930Y026190D01*
X022886Y026183D01*
X022842Y026180D01*
X022798Y026181D01*
X022754Y026186D01*
X022711Y026195D01*
X022668Y026207D01*
X022627Y026224D01*
X022587Y026243D01*
X022550Y026267D01*
X022514Y026293D01*
X022481Y026323D01*
X022451Y026355D01*
X022424Y026390D01*
X022400Y026427D01*
X022379Y026466D01*
X022362Y026507D01*
X022349Y026549D01*
X022339Y026592D01*
X022333Y026636D01*
X022331Y026680D01*
X021831Y027680D02*
X020831Y027680D01*
X020814Y027682D01*
X020797Y027686D01*
X020781Y027693D01*
X020767Y027703D01*
X020754Y027716D01*
X020744Y027730D01*
X020737Y027746D01*
X020733Y027763D01*
X020731Y027780D01*
X020731Y031580D01*
X020733Y031597D01*
X020737Y031614D01*
X020744Y031630D01*
X020754Y031644D01*
X020767Y031657D01*
X020781Y031667D01*
X020797Y031674D01*
X020814Y031678D01*
X020831Y031680D01*
X021831Y031680D01*
X021848Y031678D01*
X021865Y031674D01*
X021881Y031667D01*
X021895Y031657D01*
X021908Y031644D01*
X021918Y031630D01*
X021925Y031614D01*
X021929Y031597D01*
X021931Y031580D01*
X021931Y027780D01*
X021929Y027763D01*
X021925Y027746D01*
X021918Y027730D01*
X021908Y027716D01*
X021895Y027703D01*
X021881Y027693D01*
X021865Y027686D01*
X021848Y027682D01*
X021831Y027680D01*
X021331Y028680D02*
X021331Y029480D01*
X021331Y029880D02*
X021331Y030680D01*
X022331Y030680D02*
X022331Y029680D01*
X022333Y029663D01*
X022337Y029646D01*
X022344Y029630D01*
X022354Y029616D01*
X022367Y029603D01*
X022381Y029593D01*
X022397Y029586D01*
X022414Y029582D01*
X022431Y029580D01*
X026231Y029580D01*
X026248Y029582D01*
X026265Y029586D01*
X026281Y029593D01*
X026295Y029603D01*
X026308Y029616D01*
X026318Y029630D01*
X026325Y029646D01*
X026329Y029663D01*
X026331Y029680D01*
X026331Y030680D01*
X026329Y030697D01*
X026325Y030714D01*
X026318Y030730D01*
X026308Y030744D01*
X026295Y030757D01*
X026281Y030767D01*
X026265Y030774D01*
X026248Y030778D01*
X026231Y030780D01*
X022431Y030780D01*
X022414Y030778D01*
X022397Y030774D01*
X022381Y030767D01*
X022367Y030757D01*
X022354Y030744D01*
X022344Y030730D01*
X022337Y030714D01*
X022333Y030697D01*
X022331Y030680D01*
X023331Y030180D02*
X024131Y030180D01*
X024531Y030180D02*
X025331Y030180D01*
X023531Y028980D02*
X023531Y028680D01*
X023531Y028380D01*
X023531Y028680D02*
X023131Y028980D01*
X023131Y028380D01*
X023531Y028680D01*
X028272Y029680D02*
X028274Y029727D01*
X028280Y029773D01*
X028290Y029819D01*
X028303Y029864D01*
X028320Y029907D01*
X028341Y029949D01*
X028365Y029989D01*
X028393Y030027D01*
X028424Y030063D01*
X028457Y030095D01*
X028493Y030125D01*
X028531Y030152D01*
X028572Y030175D01*
X028614Y030195D01*
X028658Y030212D01*
X028703Y030224D01*
X028749Y030233D01*
X028796Y030238D01*
X028843Y030239D01*
X028889Y030236D01*
X028936Y030229D01*
X028981Y030218D01*
X029026Y030204D01*
X029069Y030186D01*
X029110Y030164D01*
X029150Y030139D01*
X029187Y030111D01*
X029222Y030079D01*
X029254Y030045D01*
X029283Y030009D01*
X029309Y029970D01*
X029332Y029929D01*
X029351Y029886D01*
X029366Y029842D01*
X029378Y029796D01*
X029386Y029750D01*
X029390Y029703D01*
X029390Y029657D01*
X029386Y029610D01*
X029378Y029564D01*
X029366Y029518D01*
X029351Y029474D01*
X029332Y029431D01*
X029309Y029390D01*
X029283Y029351D01*
X029254Y029315D01*
X029222Y029281D01*
X029187Y029249D01*
X029150Y029221D01*
X029111Y029196D01*
X029069Y029174D01*
X029026Y029156D01*
X028981Y029142D01*
X028936Y029131D01*
X028889Y029124D01*
X028843Y029121D01*
X028796Y029122D01*
X028749Y029127D01*
X028703Y029136D01*
X028658Y029148D01*
X028614Y029165D01*
X028572Y029185D01*
X028531Y029208D01*
X028493Y029235D01*
X028457Y029265D01*
X028424Y029297D01*
X028393Y029333D01*
X028365Y029371D01*
X028341Y029411D01*
X028320Y029453D01*
X028303Y029496D01*
X028290Y029541D01*
X028280Y029587D01*
X028274Y029633D01*
X028272Y029680D01*
X027331Y029680D02*
X027333Y029757D01*
X027339Y029834D01*
X027349Y029911D01*
X027363Y029987D01*
X027380Y030062D01*
X027402Y030136D01*
X027427Y030209D01*
X027457Y030281D01*
X027489Y030351D01*
X027526Y030419D01*
X027565Y030485D01*
X027608Y030549D01*
X027655Y030611D01*
X027704Y030670D01*
X027757Y030727D01*
X027812Y030781D01*
X027870Y030832D01*
X027931Y030880D01*
X027994Y030925D01*
X028059Y030966D01*
X028126Y031004D01*
X028195Y031039D01*
X028266Y031069D01*
X028338Y031097D01*
X028412Y031120D01*
X028486Y031140D01*
X028562Y031156D01*
X028638Y031168D01*
X028715Y031176D01*
X028792Y031180D01*
X028870Y031180D01*
X028947Y031176D01*
X029024Y031168D01*
X029100Y031156D01*
X029176Y031140D01*
X029250Y031120D01*
X029324Y031097D01*
X029396Y031069D01*
X029467Y031039D01*
X029536Y031004D01*
X029603Y030966D01*
X029668Y030925D01*
X029731Y030880D01*
X029792Y030832D01*
X029850Y030781D01*
X029905Y030727D01*
X029958Y030670D01*
X030007Y030611D01*
X030054Y030549D01*
X030097Y030485D01*
X030136Y030419D01*
X030173Y030351D01*
X030205Y030281D01*
X030235Y030209D01*
X030260Y030136D01*
X030282Y030062D01*
X030299Y029987D01*
X030313Y029911D01*
X030323Y029834D01*
X030329Y029757D01*
X030331Y029680D01*
X030329Y029603D01*
X030323Y029526D01*
X030313Y029449D01*
X030299Y029373D01*
X030282Y029298D01*
X030260Y029224D01*
X030235Y029151D01*
X030205Y029079D01*
X030173Y029009D01*
X030136Y028941D01*
X030097Y028875D01*
X030054Y028811D01*
X030007Y028749D01*
X029958Y028690D01*
X029905Y028633D01*
X029850Y028579D01*
X029792Y028528D01*
X029731Y028480D01*
X029668Y028435D01*
X029603Y028394D01*
X029536Y028356D01*
X029467Y028321D01*
X029396Y028291D01*
X029324Y028263D01*
X029250Y028240D01*
X029176Y028220D01*
X029100Y028204D01*
X029024Y028192D01*
X028947Y028184D01*
X028870Y028180D01*
X028792Y028180D01*
X028715Y028184D01*
X028638Y028192D01*
X028562Y028204D01*
X028486Y028220D01*
X028412Y028240D01*
X028338Y028263D01*
X028266Y028291D01*
X028195Y028321D01*
X028126Y028356D01*
X028059Y028394D01*
X027994Y028435D01*
X027931Y028480D01*
X027870Y028528D01*
X027812Y028579D01*
X027757Y028633D01*
X027704Y028690D01*
X027655Y028749D01*
X027608Y028811D01*
X027565Y028875D01*
X027526Y028941D01*
X027489Y029009D01*
X027457Y029079D01*
X027427Y029151D01*
X027402Y029224D01*
X027380Y029298D01*
X027363Y029373D01*
X027349Y029449D01*
X027339Y029526D01*
X027333Y029603D01*
X027331Y029680D01*
X029331Y027180D02*
X029333Y027224D01*
X029339Y027268D01*
X029349Y027311D01*
X029362Y027353D01*
X029379Y027394D01*
X029400Y027433D01*
X029424Y027470D01*
X029451Y027505D01*
X029481Y027537D01*
X029514Y027567D01*
X029550Y027593D01*
X029587Y027617D01*
X029627Y027636D01*
X029668Y027653D01*
X029711Y027665D01*
X029754Y027674D01*
X029798Y027679D01*
X029842Y027680D01*
X029886Y027677D01*
X029930Y027670D01*
X029973Y027659D01*
X030015Y027645D01*
X030055Y027627D01*
X030094Y027605D01*
X030130Y027581D01*
X030164Y027553D01*
X030196Y027522D01*
X030225Y027488D01*
X030251Y027452D01*
X030273Y027414D01*
X030292Y027374D01*
X030307Y027332D01*
X030319Y027290D01*
X030327Y027246D01*
X030331Y027202D01*
X030331Y027158D01*
X030327Y027114D01*
X030319Y027070D01*
X030307Y027028D01*
X030292Y026986D01*
X030273Y026946D01*
X030251Y026908D01*
X030225Y026872D01*
X030196Y026838D01*
X030164Y026807D01*
X030130Y026779D01*
X030094Y026755D01*
X030055Y026733D01*
X030015Y026715D01*
X029973Y026701D01*
X029930Y026690D01*
X029886Y026683D01*
X029842Y026680D01*
X029798Y026681D01*
X029754Y026686D01*
X029711Y026695D01*
X029668Y026707D01*
X029627Y026724D01*
X029587Y026743D01*
X029550Y026767D01*
X029514Y026793D01*
X029481Y026823D01*
X029451Y026855D01*
X029424Y026890D01*
X029400Y026927D01*
X029379Y026966D01*
X029362Y027007D01*
X029349Y027049D01*
X029339Y027092D01*
X029333Y027136D01*
X029331Y027180D01*
X030331Y025180D02*
X030333Y025224D01*
X030339Y025268D01*
X030349Y025311D01*
X030362Y025353D01*
X030379Y025394D01*
X030400Y025433D01*
X030424Y025470D01*
X030451Y025505D01*
X030481Y025537D01*
X030514Y025567D01*
X030550Y025593D01*
X030587Y025617D01*
X030627Y025636D01*
X030668Y025653D01*
X030711Y025665D01*
X030754Y025674D01*
X030798Y025679D01*
X030842Y025680D01*
X030886Y025677D01*
X030930Y025670D01*
X030973Y025659D01*
X031015Y025645D01*
X031055Y025627D01*
X031094Y025605D01*
X031130Y025581D01*
X031164Y025553D01*
X031196Y025522D01*
X031225Y025488D01*
X031251Y025452D01*
X031273Y025414D01*
X031292Y025374D01*
X031307Y025332D01*
X031319Y025290D01*
X031327Y025246D01*
X031331Y025202D01*
X031331Y025158D01*
X031327Y025114D01*
X031319Y025070D01*
X031307Y025028D01*
X031292Y024986D01*
X031273Y024946D01*
X031251Y024908D01*
X031225Y024872D01*
X031196Y024838D01*
X031164Y024807D01*
X031130Y024779D01*
X031094Y024755D01*
X031055Y024733D01*
X031015Y024715D01*
X030973Y024701D01*
X030930Y024690D01*
X030886Y024683D01*
X030842Y024680D01*
X030798Y024681D01*
X030754Y024686D01*
X030711Y024695D01*
X030668Y024707D01*
X030627Y024724D01*
X030587Y024743D01*
X030550Y024767D01*
X030514Y024793D01*
X030481Y024823D01*
X030451Y024855D01*
X030424Y024890D01*
X030400Y024927D01*
X030379Y024966D01*
X030362Y025007D01*
X030349Y025049D01*
X030339Y025092D01*
X030333Y025136D01*
X030331Y025180D01*
X031331Y026180D02*
X031333Y026224D01*
X031339Y026268D01*
X031349Y026311D01*
X031362Y026353D01*
X031379Y026394D01*
X031400Y026433D01*
X031424Y026470D01*
X031451Y026505D01*
X031481Y026537D01*
X031514Y026567D01*
X031550Y026593D01*
X031587Y026617D01*
X031627Y026636D01*
X031668Y026653D01*
X031711Y026665D01*
X031754Y026674D01*
X031798Y026679D01*
X031842Y026680D01*
X031886Y026677D01*
X031930Y026670D01*
X031973Y026659D01*
X032015Y026645D01*
X032055Y026627D01*
X032094Y026605D01*
X032130Y026581D01*
X032164Y026553D01*
X032196Y026522D01*
X032225Y026488D01*
X032251Y026452D01*
X032273Y026414D01*
X032292Y026374D01*
X032307Y026332D01*
X032319Y026290D01*
X032327Y026246D01*
X032331Y026202D01*
X032331Y026158D01*
X032327Y026114D01*
X032319Y026070D01*
X032307Y026028D01*
X032292Y025986D01*
X032273Y025946D01*
X032251Y025908D01*
X032225Y025872D01*
X032196Y025838D01*
X032164Y025807D01*
X032130Y025779D01*
X032094Y025755D01*
X032055Y025733D01*
X032015Y025715D01*
X031973Y025701D01*
X031930Y025690D01*
X031886Y025683D01*
X031842Y025680D01*
X031798Y025681D01*
X031754Y025686D01*
X031711Y025695D01*
X031668Y025707D01*
X031627Y025724D01*
X031587Y025743D01*
X031550Y025767D01*
X031514Y025793D01*
X031481Y025823D01*
X031451Y025855D01*
X031424Y025890D01*
X031400Y025927D01*
X031379Y025966D01*
X031362Y026007D01*
X031349Y026049D01*
X031339Y026092D01*
X031333Y026136D01*
X031331Y026180D01*
D11*
X006431Y007180D02*
X006231Y007180D01*
X010331Y006780D02*
X010331Y006580D01*
X013801Y014180D02*
X015861Y014180D01*
X017231Y023180D02*
X017431Y023180D01*
X018831Y023580D02*
X018831Y023780D01*
X020231Y024680D02*
X020431Y024680D01*
X021231Y023180D02*
X021431Y023180D01*
X022831Y023580D02*
X022831Y023780D01*
X024231Y023180D02*
X024431Y023180D01*
X026831Y026580D02*
X026831Y026780D01*
X028231Y027180D02*
X028431Y027180D01*
X030231Y027180D02*
X030431Y027180D01*
X031231Y026180D02*
X031431Y026180D01*
X031431Y025180D02*
X031231Y025180D01*
X025331Y027080D02*
X025331Y027280D01*
X025431Y028680D02*
X025231Y028680D01*
X023431Y026680D02*
X023231Y026680D01*
X018431Y027680D02*
X018231Y027680D01*
D12*
X019131Y026780D02*
X019131Y026430D01*
X019131Y026080D01*
X019531Y026080D02*
X019531Y026430D01*
X019531Y026780D01*
X020981Y029480D02*
X021331Y029480D01*
X021681Y029480D01*
X021681Y029880D02*
X021331Y029880D01*
X020981Y029880D01*
X024131Y029830D02*
X024131Y030180D01*
X024131Y030530D01*
X024531Y030530D02*
X024531Y030180D01*
X024531Y029830D01*
X023531Y025530D02*
X023531Y025180D01*
X023531Y024830D01*
X023131Y024830D02*
X023131Y025180D01*
X023131Y025530D01*
D13*
X019831Y028105D03*
X019831Y030255D03*
D14*
X015831Y030180D03*
X013331Y026180D03*
X009331Y026180D03*
X009331Y016680D03*
X013331Y016680D03*
X018831Y016680D03*
X022831Y016680D03*
X028831Y029680D03*
X007831Y005180D03*
D15*
X007831Y005180D03*
X009331Y016680D03*
X013331Y016680D03*
X018831Y016680D03*
X022831Y016680D03*
X013331Y026180D03*
X009331Y026180D03*
X015831Y030180D03*
X028831Y029680D03*
D16*
X029579Y007923D02*
X026296Y007923D01*
X026296Y003437D01*
X029579Y003437D01*
X029579Y007923D01*
D17*
X029331Y003680D03*
D18*
X031988Y004005D02*
X032221Y004005D01*
X032104Y004005D02*
X032104Y004355D01*
X031988Y004239D01*
X032046Y009055D02*
X032163Y009055D01*
X032221Y009113D01*
X032221Y009172D01*
X032163Y009230D01*
X031988Y009230D01*
X031988Y009113D01*
X032046Y009055D01*
X031988Y009230D02*
X032104Y009347D01*
X032221Y009405D01*
X032269Y010305D02*
X032444Y010305D01*
X032503Y010363D01*
X032503Y010597D01*
X032444Y010655D01*
X032269Y010655D01*
X032269Y010305D01*
X032135Y010480D02*
X031901Y010480D01*
X031766Y010363D02*
X031708Y010305D01*
X031591Y010305D01*
X031533Y010363D01*
X031533Y010597D01*
X031591Y010655D01*
X031708Y010655D01*
X031766Y010597D01*
X031398Y010597D02*
X031340Y010655D01*
X031164Y010655D01*
X031164Y010305D01*
X031340Y010305D01*
X031398Y010363D01*
X031398Y010597D01*
X032638Y010597D02*
X032638Y010363D01*
X032696Y010305D01*
X032813Y010305D01*
X032871Y010363D01*
X032871Y010597D02*
X032813Y010655D01*
X032696Y010655D01*
X032638Y010597D01*
X021024Y004796D02*
X021024Y003064D01*
X020118Y003064D01*
X020118Y001450D01*
X019331Y001450D01*
X019331Y003064D01*
X020118Y003064D01*
X019331Y003064D02*
X017638Y003064D01*
X017638Y004796D01*
X021024Y004796D01*
X011781Y005627D02*
X011781Y005733D01*
X011393Y005226D02*
X011337Y005253D01*
X011283Y005284D01*
X011231Y005318D01*
X011181Y005355D01*
X011181Y007005D01*
X011781Y006733D02*
X011781Y006627D01*
X011384Y007130D02*
X011330Y007103D01*
X011279Y007073D01*
X011229Y007040D01*
X011181Y007005D01*
X012278Y007130D02*
X012335Y007101D01*
X012391Y007068D01*
X012444Y007033D01*
X012495Y006993D01*
X012543Y006951D01*
X012589Y006906D01*
X012632Y006859D01*
X012672Y006809D01*
X012709Y006756D01*
X012742Y006701D01*
X012773Y006645D01*
X012799Y006586D01*
X012822Y006526D01*
X012842Y006465D01*
X012857Y006403D01*
X012869Y006340D01*
X012877Y006276D01*
X012881Y006212D01*
X012881Y006148D01*
X012877Y006084D01*
X012869Y006020D01*
X012857Y005957D01*
X012842Y005895D01*
X012822Y005834D01*
X012799Y005774D01*
X012773Y005715D01*
X012742Y005659D01*
X012709Y005604D01*
X012672Y005551D01*
X012632Y005501D01*
X012589Y005454D01*
X012543Y005409D01*
X012495Y005367D01*
X012444Y005327D01*
X012391Y005292D01*
X012335Y005259D01*
X012278Y005230D01*
X011006Y010075D02*
X011006Y010302D01*
X011006Y010188D02*
X010666Y010188D01*
X010779Y010075D01*
X010779Y012575D02*
X010666Y012688D01*
X011006Y012688D01*
X011006Y012575D02*
X011006Y012802D01*
D19*
X013831Y005080D03*
X014831Y005080D03*
X023831Y005080D03*
X024831Y005080D03*
D20*
X026256Y008680D03*
X028406Y008680D03*
D21*
X028131Y020060D02*
X027831Y020060D01*
X027531Y020060D01*
X027531Y020310D02*
X027831Y020310D01*
X028131Y020310D01*
X026131Y024060D02*
X025831Y024060D01*
X025531Y024060D01*
X025531Y024310D02*
X025831Y024310D01*
X026131Y024310D01*
X016131Y022300D02*
X015831Y022300D01*
X015531Y022300D01*
X015531Y022050D02*
X015831Y022050D01*
X016131Y022050D01*
X016131Y019310D02*
X015831Y019310D01*
X015531Y019310D01*
X015531Y019060D02*
X015831Y019060D01*
X016131Y019060D01*
D22*
X008631Y007480D02*
X008131Y007180D01*
X008131Y006880D01*
X008031Y006880D01*
X008131Y007180D02*
X008131Y007480D01*
X008231Y007480D01*
X008131Y007180D02*
X008631Y006880D01*
D23*
X018281Y006680D03*
D24*
X017656Y006680D03*
X020006Y006680D03*
M02*
