G75*
G70*
%OFA0B0*%
%FSLAX24Y24*%
%IPPOS*%
%LPD*%
%AMOC8*
5,1,8,0,0,1.08239X$1,22.5*
%
%ADD10OC8,0.0520*%
%ADD11OC8,0.0560*%
%ADD12C,0.0520*%
%ADD13C,0.0440*%
%ADD14C,0.0660*%
%ADD15C,0.0600*%
%ADD16OC8,0.0630*%
%ADD17C,0.0560*%
%ADD18C,0.0515*%
%ADD19OC8,0.0600*%
%ADD20C,0.0320*%
%ADD21C,0.0100*%
%ADD22C,0.0160*%
D10*
X005831Y007180D03*
X006831Y007180D03*
X007831Y007180D03*
X008831Y007180D03*
X010331Y007180D03*
X010331Y006180D03*
X015831Y018180D03*
X015831Y020180D03*
X015831Y021180D03*
X015831Y023180D03*
X016831Y023180D03*
X017831Y023180D03*
X018831Y023180D03*
X018831Y024180D03*
X019831Y024680D03*
X020831Y024680D03*
X020831Y023180D03*
X021831Y023180D03*
X022831Y023180D03*
X023831Y023180D03*
X024831Y023180D03*
X025831Y023180D03*
X025831Y025180D03*
X026831Y026180D03*
X026831Y027180D03*
X027831Y027180D03*
X028831Y027180D03*
X029831Y027180D03*
X030831Y027180D03*
X030831Y026180D03*
X030831Y025180D03*
X031831Y025180D03*
X031831Y026180D03*
X027831Y021180D03*
X027831Y019180D03*
X022831Y024180D03*
X022831Y026680D03*
X022831Y027680D03*
X023831Y027680D03*
X023831Y026680D03*
X025331Y026680D03*
X025331Y027680D03*
X025831Y028680D03*
X024831Y028680D03*
X023831Y028680D03*
X022831Y028680D03*
X019831Y027680D03*
X018831Y027680D03*
X018831Y028680D03*
X018831Y029680D03*
X017831Y029680D03*
X017831Y028680D03*
X017831Y027680D03*
X019831Y030680D03*
X025831Y008680D03*
X028831Y008680D03*
D11*
X024831Y025180D03*
X021831Y025180D03*
X020831Y026430D03*
X021331Y028180D03*
X022831Y030180D03*
X021331Y031180D03*
X025831Y030180D03*
X017831Y026430D03*
D12*
X017831Y022440D02*
X017831Y021920D01*
X018831Y021920D02*
X018831Y022440D01*
X019831Y022440D02*
X019831Y021920D01*
X020831Y021920D02*
X020831Y022440D01*
X021831Y022440D02*
X021831Y021920D01*
X022831Y021920D02*
X022831Y022440D01*
X023831Y022440D02*
X023831Y021920D01*
X023831Y019440D02*
X023831Y018920D01*
X022831Y018920D02*
X022831Y019440D01*
X021831Y019440D02*
X021831Y018920D01*
X020831Y018920D02*
X020831Y019440D01*
X019831Y019440D02*
X019831Y018920D01*
X018831Y018920D02*
X018831Y019440D01*
X017831Y019440D02*
X017831Y018920D01*
X014331Y018920D02*
X014331Y019440D01*
X013331Y019440D02*
X013331Y018920D01*
X012331Y018920D02*
X012331Y019440D01*
X011331Y019440D02*
X011331Y018920D01*
X010331Y018920D02*
X010331Y019440D01*
X009331Y019440D02*
X009331Y018920D01*
X008331Y018920D02*
X008331Y019440D01*
X008331Y021920D02*
X008331Y022440D01*
X009331Y022440D02*
X009331Y021920D01*
X010331Y021920D02*
X010331Y022440D01*
X011331Y022440D02*
X011331Y021920D01*
X012331Y021920D02*
X012331Y022440D01*
X013331Y022440D02*
X013331Y021920D01*
X014331Y021920D02*
X014331Y022440D01*
X026831Y022440D02*
X026831Y021920D01*
X027831Y021920D02*
X027831Y022440D01*
X028831Y022440D02*
X028831Y021920D01*
X029831Y021920D02*
X029831Y022440D01*
X029831Y024920D02*
X029831Y025440D01*
X028831Y025440D02*
X028831Y024920D01*
X027831Y024920D02*
X027831Y025440D01*
X026831Y025440D02*
X026831Y024920D01*
X031071Y009180D02*
X031591Y009180D01*
X031591Y008180D02*
X031071Y008180D01*
X031071Y007180D02*
X031591Y007180D01*
X031591Y005180D02*
X031071Y005180D01*
X031071Y004180D02*
X031591Y004180D01*
X024831Y005920D02*
X024831Y006440D01*
X023831Y006440D02*
X023831Y005920D01*
X014831Y005920D02*
X014831Y006440D01*
X013831Y006440D02*
X013831Y005920D01*
X012091Y006180D02*
X011571Y006180D01*
X011571Y005180D02*
X012091Y005180D01*
X012091Y007180D02*
X011571Y007180D01*
D13*
X008831Y005180D03*
X007831Y006180D03*
X006831Y005180D03*
X008331Y016680D03*
X009331Y017680D03*
X010331Y016680D03*
X012331Y016680D03*
X013331Y017680D03*
X014331Y016680D03*
X017831Y016680D03*
X018831Y017680D03*
X019831Y016680D03*
X021831Y016680D03*
X022831Y017680D03*
X023831Y016680D03*
X014331Y026180D03*
X013331Y025180D03*
X012331Y026180D03*
X010331Y026180D03*
X009331Y025180D03*
X008331Y026180D03*
X015831Y029180D03*
X016831Y030180D03*
X015831Y031180D03*
X027831Y029680D03*
X028831Y028680D03*
X028831Y030680D03*
D14*
X028831Y006680D03*
X028831Y005680D03*
X028831Y004680D03*
X020831Y006680D03*
X016831Y006680D03*
D15*
X021531Y006680D02*
X022131Y006680D01*
X022131Y007680D02*
X021531Y007680D01*
D16*
X016331Y014180D03*
X013331Y014180D03*
D17*
X013831Y012460D02*
X013831Y011900D01*
X014831Y011900D02*
X014831Y012460D01*
X015831Y012460D02*
X015831Y011900D01*
X016831Y011900D02*
X016831Y012460D01*
X016831Y009960D02*
X016831Y009400D01*
X015831Y009400D02*
X015831Y009960D01*
X014831Y009960D02*
X014831Y009400D01*
X013831Y009400D02*
X013831Y009960D01*
X012831Y009960D02*
X012831Y009400D01*
X011831Y009400D02*
X011831Y009960D01*
X010831Y009960D02*
X010831Y009400D01*
X010831Y011900D02*
X010831Y012460D01*
X011831Y012460D02*
X011831Y011900D01*
X012831Y011900D02*
X012831Y012460D01*
X019051Y008680D02*
X019611Y008680D01*
X019611Y007680D02*
X019051Y007680D01*
D18*
X019331Y004187D02*
X019331Y003673D01*
X020118Y003673D02*
X020118Y004187D01*
X018544Y004187D02*
X018544Y003673D01*
D19*
X016831Y027680D03*
X027331Y028180D03*
D20*
X026331Y023680D02*
X029331Y023680D01*
X029831Y023180D01*
X029831Y022180D01*
X031831Y022180D01*
X031831Y025180D01*
X029831Y022680D02*
X029831Y022180D01*
X030331Y020180D02*
X027831Y020180D01*
X027831Y019180D01*
X027831Y020180D02*
X026831Y020180D01*
X020831Y020180D01*
X020831Y019180D01*
X020831Y020180D02*
X015831Y020180D01*
X011831Y020180D01*
X011331Y019680D01*
X011331Y019180D01*
X011831Y021180D02*
X015831Y021180D01*
X020831Y021180D01*
X020831Y022180D01*
X020831Y021180D02*
X024831Y021180D01*
X025831Y022180D01*
X025831Y023180D01*
X026331Y023680D01*
X026831Y022180D02*
X026831Y020180D01*
X030331Y020180D02*
X030831Y019680D01*
X030831Y012180D01*
X029831Y011180D01*
X029831Y007680D01*
X030331Y007180D01*
X031331Y007180D01*
X031831Y006180D02*
X029331Y006180D01*
X028831Y006680D01*
X028831Y008680D01*
X031331Y009180D02*
X031831Y009680D01*
X031831Y022180D01*
X025831Y008680D02*
X024831Y007680D01*
X024831Y006180D01*
X022331Y007680D02*
X021831Y007680D01*
X021831Y006680D02*
X020831Y006680D01*
X019331Y004680D02*
X019331Y003930D01*
X019331Y004680D02*
X018331Y005680D01*
X017831Y005680D01*
X016831Y006680D01*
X011831Y021180D02*
X011331Y021680D01*
X011331Y022180D01*
X031331Y004180D02*
X031831Y004180D01*
X032331Y004680D01*
X032331Y005680D01*
X031831Y006180D01*
D21*
X004941Y007930D02*
X004941Y002790D01*
X034221Y002790D01*
X034221Y007930D01*
X031974Y007930D01*
X031972Y007925D01*
X031846Y007799D01*
X031680Y007730D01*
X030981Y007730D01*
X030816Y007799D01*
X030689Y007925D01*
X030687Y007930D01*
X030201Y007930D01*
X030201Y007833D01*
X030484Y007550D01*
X030805Y007550D01*
X030816Y007561D01*
X030981Y007630D01*
X031680Y007630D01*
X031846Y007561D01*
X031972Y007435D01*
X032041Y007270D01*
X032041Y007090D01*
X031972Y006925D01*
X031846Y006799D01*
X031680Y006730D01*
X030981Y006730D01*
X030816Y006799D01*
X030805Y006810D01*
X030257Y006810D01*
X030121Y006866D01*
X029621Y007366D01*
X029517Y007470D01*
X029461Y007606D01*
X029461Y007930D01*
X029201Y007930D01*
X029201Y007045D01*
X029272Y006975D01*
X029351Y006783D01*
X029351Y006683D01*
X029484Y006550D01*
X031905Y006550D01*
X032041Y006494D01*
X032145Y006390D01*
X032145Y006390D01*
X032541Y005994D01*
X032645Y005890D01*
X032701Y005754D01*
X032701Y004606D01*
X032645Y004470D01*
X032145Y003970D01*
X032041Y003866D01*
X031905Y003810D01*
X031857Y003810D01*
X031846Y003799D01*
X031680Y003730D01*
X030981Y003730D01*
X030816Y003799D01*
X030689Y003925D01*
X030621Y004090D01*
X030621Y004270D01*
X030689Y004435D01*
X030816Y004561D01*
X030981Y004630D01*
X031680Y004630D01*
X031735Y004607D01*
X031961Y004833D01*
X031961Y005003D01*
X031942Y004965D01*
X031904Y004913D01*
X031858Y004867D01*
X031806Y004829D01*
X031748Y004800D01*
X031687Y004780D01*
X031623Y004770D01*
X031361Y004770D01*
X031361Y005150D01*
X031301Y005150D01*
X031301Y004770D01*
X031039Y004770D01*
X030975Y004780D01*
X030914Y004800D01*
X030856Y004829D01*
X030804Y004867D01*
X030758Y004913D01*
X030720Y004965D01*
X030691Y005023D01*
X030671Y005084D01*
X030661Y005148D01*
X030661Y005150D01*
X031301Y005150D01*
X031301Y005210D01*
X031301Y005590D01*
X031039Y005590D01*
X030975Y005580D01*
X030914Y005560D01*
X030856Y005531D01*
X030804Y005493D01*
X030758Y005447D01*
X030720Y005395D01*
X030691Y005337D01*
X030671Y005276D01*
X030661Y005212D01*
X030661Y005210D01*
X031301Y005210D01*
X031361Y005210D01*
X031361Y005590D01*
X031623Y005590D01*
X031687Y005580D01*
X031748Y005560D01*
X031806Y005531D01*
X031858Y005493D01*
X031904Y005447D01*
X031942Y005395D01*
X031961Y005357D01*
X031961Y005527D01*
X031678Y005810D01*
X029293Y005810D01*
X029299Y005792D01*
X029309Y005728D01*
X028879Y005728D01*
X028879Y005632D01*
X028879Y005202D01*
X028943Y005212D01*
X029015Y005235D01*
X029083Y005269D01*
X029144Y005314D01*
X029197Y005367D01*
X029242Y005428D01*
X029276Y005496D01*
X029299Y005568D01*
X029309Y005632D01*
X028879Y005632D01*
X028783Y005632D01*
X028783Y005202D01*
X028719Y005212D01*
X028647Y005235D01*
X028579Y005269D01*
X028518Y005314D01*
X028465Y005367D01*
X028420Y005428D01*
X028386Y005496D01*
X028363Y005568D01*
X028353Y005632D01*
X028783Y005632D01*
X028783Y005728D01*
X028353Y005728D01*
X028363Y005792D01*
X028386Y005864D01*
X028420Y005932D01*
X028465Y005993D01*
X028518Y006046D01*
X028579Y006091D01*
X028647Y006125D01*
X028719Y006148D01*
X028783Y006158D01*
X028783Y005728D01*
X028879Y005728D01*
X028879Y006108D01*
X028828Y006160D01*
X028728Y006160D01*
X028536Y006239D01*
X028390Y006385D01*
X028311Y006577D01*
X028311Y006783D01*
X028390Y006975D01*
X028461Y007045D01*
X028461Y007930D01*
X025604Y007930D01*
X025201Y007527D01*
X025201Y006706D01*
X025212Y006695D01*
X025281Y006530D01*
X025281Y005830D01*
X025212Y005665D01*
X025086Y005539D01*
X024920Y005470D01*
X024741Y005470D01*
X024576Y005539D01*
X024449Y005665D01*
X024381Y005830D01*
X024381Y006530D01*
X024449Y006695D01*
X024461Y006706D01*
X024461Y007754D01*
X024517Y007890D01*
X024558Y007930D01*
X022506Y007930D01*
X022516Y007916D01*
X022548Y007853D01*
X022570Y007785D01*
X022579Y007730D01*
X021881Y007730D01*
X021881Y007630D01*
X022579Y007630D01*
X022570Y007575D01*
X022548Y007507D01*
X022516Y007444D01*
X022474Y007387D01*
X022424Y007337D01*
X022367Y007295D01*
X022304Y007263D01*
X022236Y007241D01*
X022166Y007230D01*
X021881Y007230D01*
X021881Y007630D01*
X021781Y007630D01*
X021781Y007230D01*
X021496Y007230D01*
X021426Y007241D01*
X021358Y007263D01*
X021295Y007295D01*
X021238Y007337D01*
X021188Y007387D01*
X021146Y007444D01*
X021114Y007507D01*
X021092Y007575D01*
X021083Y007630D01*
X021781Y007630D01*
X021781Y007730D01*
X021083Y007730D01*
X021092Y007785D01*
X021114Y007853D01*
X021146Y007916D01*
X021156Y007930D01*
X019961Y007930D01*
X019979Y007905D01*
X020009Y007845D01*
X020030Y007781D01*
X020040Y007720D01*
X019371Y007720D01*
X019371Y007640D01*
X020040Y007640D01*
X020030Y007579D01*
X020009Y007515D01*
X019979Y007455D01*
X019939Y007400D01*
X019891Y007352D01*
X019836Y007312D01*
X019776Y007282D01*
X019712Y007261D01*
X019645Y007250D01*
X019371Y007250D01*
X019371Y007640D01*
X019291Y007640D01*
X019291Y007250D01*
X019017Y007250D01*
X018950Y007261D01*
X018886Y007282D01*
X018826Y007312D01*
X018771Y007352D01*
X018723Y007400D01*
X018683Y007455D01*
X018652Y007515D01*
X018632Y007579D01*
X018622Y007640D01*
X019291Y007640D01*
X019291Y007720D01*
X018622Y007720D01*
X018632Y007781D01*
X018652Y007845D01*
X018683Y007905D01*
X018701Y007930D01*
X013985Y007930D01*
X013995Y007926D01*
X015077Y006844D01*
X015087Y006821D01*
X015212Y006695D01*
X015281Y006530D01*
X015281Y005830D01*
X015212Y005665D01*
X015086Y005539D01*
X014920Y005470D01*
X014741Y005470D01*
X014576Y005539D01*
X014449Y005665D01*
X014381Y005830D01*
X014381Y006530D01*
X014437Y006664D01*
X013711Y007390D01*
X012491Y007390D01*
X012541Y007270D01*
X012541Y007090D01*
X012472Y006925D01*
X012346Y006799D01*
X012180Y006730D01*
X011481Y006730D01*
X011316Y006799D01*
X011189Y006925D01*
X011121Y007090D01*
X011121Y007270D01*
X011171Y007390D01*
X010757Y007390D01*
X010781Y007366D01*
X010781Y007140D01*
X011347Y006574D01*
X011481Y006630D01*
X012180Y006630D01*
X012346Y006561D01*
X012472Y006435D01*
X012541Y006270D01*
X012541Y006090D01*
X012472Y005925D01*
X012346Y005799D01*
X012180Y005730D01*
X011481Y005730D01*
X011316Y005799D01*
X011190Y005924D01*
X011167Y005934D01*
X011085Y006016D01*
X010371Y006730D01*
X010145Y006730D01*
X009985Y006890D01*
X009177Y006890D01*
X009017Y006730D01*
X008645Y006730D01*
X008381Y006994D01*
X008381Y007366D01*
X008405Y007390D01*
X008257Y007390D01*
X008281Y007366D01*
X008281Y006994D01*
X008121Y006834D01*
X008121Y006470D01*
X008179Y006412D01*
X008241Y006262D01*
X008241Y006098D01*
X008179Y005948D01*
X008063Y005832D01*
X007913Y005770D01*
X007749Y005770D01*
X007599Y005832D01*
X007483Y005948D01*
X007421Y006098D01*
X007421Y006262D01*
X007483Y006412D01*
X007541Y006470D01*
X007541Y006834D01*
X007381Y006994D01*
X007381Y007320D01*
X007281Y007220D01*
X007281Y006994D01*
X007017Y006730D01*
X006645Y006730D01*
X006381Y006994D01*
X006381Y007366D01*
X006645Y007630D01*
X006871Y007630D01*
X007085Y007844D01*
X007167Y007926D01*
X007177Y007930D01*
X004941Y007930D01*
X004941Y007901D02*
X007141Y007901D01*
X007043Y007802D02*
X004941Y007802D01*
X004941Y007704D02*
X006944Y007704D01*
X006620Y007605D02*
X006042Y007605D01*
X006017Y007630D02*
X005645Y007630D01*
X005381Y007366D01*
X005381Y006994D01*
X005541Y006834D01*
X005541Y006122D01*
X005585Y006016D01*
X005667Y005934D01*
X006421Y005180D01*
X006421Y005098D01*
X006483Y004948D01*
X006599Y004832D01*
X006749Y004770D01*
X006831Y004770D01*
X008585Y003016D01*
X008585Y003016D01*
X008667Y002934D01*
X008773Y002890D01*
X019889Y002890D01*
X019995Y002934D01*
X020283Y003222D01*
X020342Y003281D01*
X020372Y003293D01*
X020498Y003419D01*
X020566Y003584D01*
X020566Y003787D01*
X020602Y003700D01*
X020716Y003586D01*
X020865Y003525D01*
X021026Y003525D01*
X021175Y003586D01*
X021289Y003700D01*
X021350Y003849D01*
X021350Y004011D01*
X021289Y004160D01*
X021175Y004274D01*
X021026Y004335D01*
X020934Y004335D01*
X020988Y004390D01*
X028388Y004390D01*
X028390Y004385D01*
X028536Y004239D01*
X028728Y004160D01*
X028934Y004160D01*
X029126Y004239D01*
X029272Y004385D01*
X029351Y004577D01*
X029351Y004783D01*
X029272Y004975D01*
X029126Y005121D01*
X028934Y005200D01*
X028728Y005200D01*
X028536Y005121D01*
X028390Y004975D01*
X028388Y004970D01*
X020811Y004970D01*
X020704Y004926D01*
X020623Y004844D01*
X020353Y004575D01*
X020207Y004635D01*
X020029Y004635D01*
X019865Y004567D01*
X019739Y004441D01*
X019725Y004406D01*
X019710Y004441D01*
X019701Y004450D01*
X019701Y004754D01*
X019645Y004890D01*
X019541Y004994D01*
X018541Y005994D01*
X018405Y006050D01*
X017984Y006050D01*
X017351Y006683D01*
X017351Y006783D01*
X017272Y006975D01*
X017126Y007121D01*
X016934Y007200D01*
X016728Y007200D01*
X016536Y007121D01*
X016390Y006975D01*
X016311Y006783D01*
X016311Y006577D01*
X016390Y006385D01*
X016536Y006239D01*
X016728Y006160D01*
X016828Y006160D01*
X017517Y005470D01*
X017621Y005366D01*
X017757Y005310D01*
X018178Y005310D01*
X018961Y004527D01*
X018961Y004450D01*
X018952Y004441D01*
X018937Y004406D01*
X018923Y004441D01*
X018797Y004567D01*
X018633Y004635D01*
X018455Y004635D01*
X018290Y004567D01*
X018164Y004441D01*
X018096Y004276D01*
X018096Y004073D01*
X018060Y004160D01*
X017946Y004274D01*
X017797Y004335D01*
X017636Y004335D01*
X017487Y004274D01*
X017373Y004160D01*
X017312Y004011D01*
X017312Y003849D01*
X017373Y003700D01*
X017487Y003586D01*
X017636Y003525D01*
X017797Y003525D01*
X017946Y003586D01*
X018060Y003700D01*
X018096Y003787D01*
X018096Y003584D01*
X018143Y003470D01*
X008951Y003470D01*
X007241Y005180D01*
X007241Y005262D01*
X007179Y005412D01*
X007063Y005528D01*
X006913Y005590D01*
X006831Y005590D01*
X006121Y006300D01*
X006121Y006834D01*
X006281Y006994D01*
X006281Y007366D01*
X006017Y007630D01*
X006141Y007507D02*
X006521Y007507D01*
X006423Y007408D02*
X006239Y007408D01*
X006281Y007310D02*
X006381Y007310D01*
X006381Y007211D02*
X006281Y007211D01*
X006281Y007113D02*
X006381Y007113D01*
X006381Y007014D02*
X006281Y007014D01*
X006203Y006916D02*
X006459Y006916D01*
X006558Y006817D02*
X006121Y006817D01*
X006121Y006719D02*
X007541Y006719D01*
X007541Y006817D02*
X007104Y006817D01*
X007203Y006916D02*
X007459Y006916D01*
X007381Y007014D02*
X007281Y007014D01*
X007281Y007113D02*
X007381Y007113D01*
X007381Y007211D02*
X007281Y007211D01*
X007371Y007310D02*
X007381Y007310D01*
X007541Y006620D02*
X006121Y006620D01*
X006121Y006522D02*
X007541Y006522D01*
X007494Y006423D02*
X006121Y006423D01*
X006121Y006325D02*
X007447Y006325D01*
X007421Y006226D02*
X006195Y006226D01*
X006294Y006128D02*
X007421Y006128D01*
X007450Y006029D02*
X006392Y006029D01*
X006491Y005931D02*
X007501Y005931D01*
X007600Y005832D02*
X006589Y005832D01*
X006688Y005734D02*
X011473Y005734D01*
X011475Y005580D02*
X011414Y005560D01*
X011356Y005531D01*
X011304Y005493D01*
X011258Y005447D01*
X011220Y005395D01*
X011191Y005337D01*
X011171Y005276D01*
X011161Y005212D01*
X011161Y005210D01*
X011801Y005210D01*
X011801Y005590D01*
X011539Y005590D01*
X011475Y005580D01*
X011368Y005537D02*
X008935Y005537D01*
X008939Y005536D02*
X008867Y005550D01*
X008841Y005550D01*
X008841Y005190D01*
X009201Y005190D01*
X009201Y005216D01*
X009187Y005288D01*
X009159Y005355D01*
X009118Y005416D01*
X009067Y005467D01*
X009006Y005508D01*
X008939Y005536D01*
X008841Y005537D02*
X008821Y005537D01*
X008821Y005550D02*
X008795Y005550D01*
X008723Y005536D01*
X008656Y005508D01*
X008595Y005467D01*
X008544Y005416D01*
X008503Y005355D01*
X008475Y005288D01*
X008461Y005216D01*
X008461Y005190D01*
X008821Y005190D01*
X008821Y005550D01*
X008727Y005537D02*
X007042Y005537D01*
X007153Y005438D02*
X008566Y005438D01*
X008497Y005340D02*
X007209Y005340D01*
X007241Y005241D02*
X008466Y005241D01*
X008461Y005170D02*
X008461Y005144D01*
X008475Y005072D01*
X008503Y005005D01*
X008544Y004944D01*
X008595Y004893D01*
X008656Y004852D01*
X008723Y004824D01*
X008795Y004810D01*
X008821Y004810D01*
X008821Y005170D01*
X008841Y005170D01*
X008841Y005190D01*
X008821Y005190D01*
X008821Y005170D01*
X008461Y005170D01*
X008461Y005143D02*
X007279Y005143D01*
X007377Y005044D02*
X008487Y005044D01*
X008543Y004946D02*
X007476Y004946D01*
X007574Y004847D02*
X008668Y004847D01*
X008821Y004847D02*
X008841Y004847D01*
X008841Y004810D02*
X008841Y005170D01*
X009201Y005170D01*
X009201Y005144D01*
X009187Y005072D01*
X009159Y005005D01*
X009118Y004944D01*
X009067Y004893D01*
X009006Y004852D01*
X008939Y004824D01*
X008867Y004810D01*
X008841Y004810D01*
X008841Y004946D02*
X008821Y004946D01*
X008821Y005044D02*
X008841Y005044D01*
X008841Y005143D02*
X008821Y005143D01*
X008821Y005241D02*
X008841Y005241D01*
X008841Y005340D02*
X008821Y005340D01*
X008821Y005438D02*
X008841Y005438D01*
X009096Y005438D02*
X011252Y005438D01*
X011192Y005340D02*
X009165Y005340D01*
X009196Y005241D02*
X011166Y005241D01*
X011161Y005150D02*
X011161Y005148D01*
X011171Y005084D01*
X011191Y005023D01*
X011220Y004965D01*
X011258Y004913D01*
X011304Y004867D01*
X011356Y004829D01*
X011414Y004800D01*
X011475Y004780D01*
X011539Y004770D01*
X011801Y004770D01*
X011801Y005150D01*
X011861Y005150D01*
X011861Y005210D01*
X012501Y005210D01*
X012501Y005212D01*
X012491Y005276D01*
X012471Y005337D01*
X012442Y005395D01*
X012404Y005447D01*
X012358Y005493D01*
X012306Y005531D01*
X012248Y005560D01*
X012187Y005580D01*
X012123Y005590D01*
X011861Y005590D01*
X011861Y005210D01*
X011801Y005210D01*
X011801Y005150D01*
X011161Y005150D01*
X011162Y005143D02*
X009201Y005143D01*
X009175Y005044D02*
X011184Y005044D01*
X011235Y004946D02*
X009119Y004946D01*
X008994Y004847D02*
X011332Y004847D01*
X011801Y004847D02*
X011861Y004847D01*
X011861Y004770D02*
X011861Y005150D01*
X012501Y005150D01*
X012501Y005148D01*
X012491Y005084D01*
X012471Y005023D01*
X012442Y004965D01*
X012404Y004913D01*
X012358Y004867D01*
X012306Y004829D01*
X012248Y004800D01*
X012187Y004780D01*
X012123Y004770D01*
X011861Y004770D01*
X011861Y004946D02*
X011801Y004946D01*
X011801Y005044D02*
X011861Y005044D01*
X011861Y005143D02*
X011801Y005143D01*
X011801Y005241D02*
X011861Y005241D01*
X011861Y005340D02*
X011801Y005340D01*
X011801Y005438D02*
X011861Y005438D01*
X011861Y005537D02*
X011801Y005537D01*
X012189Y005734D02*
X013466Y005734D01*
X013480Y005705D02*
X013518Y005653D01*
X013564Y005607D01*
X013616Y005569D01*
X013674Y005540D01*
X013735Y005520D01*
X013799Y005510D01*
X013801Y005510D01*
X013801Y006150D01*
X013861Y006150D01*
X013861Y006210D01*
X014241Y006210D01*
X014241Y006472D01*
X014231Y006536D01*
X014211Y006597D01*
X014182Y006655D01*
X014144Y006707D01*
X014098Y006753D01*
X014046Y006791D01*
X013988Y006820D01*
X013927Y006840D01*
X013863Y006850D01*
X013861Y006850D01*
X013861Y006210D01*
X013801Y006210D01*
X013801Y006850D01*
X013799Y006850D01*
X013735Y006840D01*
X013674Y006820D01*
X013616Y006791D01*
X013564Y006753D01*
X013518Y006707D01*
X013480Y006655D01*
X013451Y006597D01*
X013431Y006536D01*
X013421Y006472D01*
X013421Y006210D01*
X013801Y006210D01*
X013801Y006150D01*
X013421Y006150D01*
X013421Y005888D01*
X013431Y005824D01*
X013451Y005763D01*
X013480Y005705D01*
X013536Y005635D02*
X006786Y005635D01*
X006360Y005241D02*
X004941Y005241D01*
X004941Y005143D02*
X006421Y005143D01*
X006444Y005044D02*
X004941Y005044D01*
X004941Y004946D02*
X006486Y004946D01*
X006584Y004847D02*
X004941Y004847D01*
X004941Y004749D02*
X006852Y004749D01*
X006951Y004650D02*
X004941Y004650D01*
X004941Y004552D02*
X007049Y004552D01*
X007148Y004453D02*
X004941Y004453D01*
X004941Y004355D02*
X007246Y004355D01*
X007345Y004256D02*
X004941Y004256D01*
X004941Y004158D02*
X007443Y004158D01*
X007542Y004059D02*
X004941Y004059D01*
X004941Y003961D02*
X007640Y003961D01*
X007739Y003862D02*
X004941Y003862D01*
X004941Y003764D02*
X007837Y003764D01*
X007936Y003665D02*
X004941Y003665D01*
X004941Y003567D02*
X008034Y003567D01*
X008133Y003468D02*
X004941Y003468D01*
X004941Y003370D02*
X008231Y003370D01*
X008330Y003271D02*
X004941Y003271D01*
X004941Y003173D02*
X008428Y003173D01*
X008527Y003074D02*
X004941Y003074D01*
X004941Y002976D02*
X008625Y002976D01*
X008855Y003567D02*
X017535Y003567D01*
X017409Y003665D02*
X008756Y003665D01*
X008658Y003764D02*
X017347Y003764D01*
X017312Y003862D02*
X008559Y003862D01*
X008461Y003961D02*
X017312Y003961D01*
X017332Y004059D02*
X008362Y004059D01*
X008264Y004158D02*
X017372Y004158D01*
X017470Y004256D02*
X008165Y004256D01*
X008067Y004355D02*
X018128Y004355D01*
X018096Y004256D02*
X017964Y004256D01*
X018061Y004158D02*
X018096Y004158D01*
X018176Y004453D02*
X007968Y004453D01*
X007870Y004552D02*
X018275Y004552D01*
X018641Y004847D02*
X012330Y004847D01*
X012427Y004946D02*
X018542Y004946D01*
X018444Y005044D02*
X012478Y005044D01*
X012500Y005143D02*
X018345Y005143D01*
X018247Y005241D02*
X012496Y005241D01*
X012470Y005340D02*
X017686Y005340D01*
X017550Y005438D02*
X012410Y005438D01*
X012294Y005537D02*
X013684Y005537D01*
X013801Y005537D02*
X013861Y005537D01*
X013861Y005510D02*
X013863Y005510D01*
X013927Y005520D01*
X013988Y005540D01*
X014046Y005569D01*
X014098Y005607D01*
X014144Y005653D01*
X014182Y005705D01*
X014211Y005763D01*
X014231Y005824D01*
X014241Y005888D01*
X014241Y006150D01*
X013861Y006150D01*
X013861Y005510D01*
X013977Y005537D02*
X014581Y005537D01*
X014480Y005635D02*
X014126Y005635D01*
X014196Y005734D02*
X014421Y005734D01*
X014381Y005832D02*
X014232Y005832D01*
X014241Y005931D02*
X014381Y005931D01*
X014381Y006029D02*
X014241Y006029D01*
X014241Y006128D02*
X014381Y006128D01*
X014381Y006226D02*
X014241Y006226D01*
X014241Y006325D02*
X014381Y006325D01*
X014381Y006423D02*
X014241Y006423D01*
X014233Y006522D02*
X014381Y006522D01*
X014418Y006620D02*
X014199Y006620D01*
X014132Y006719D02*
X014382Y006719D01*
X014284Y006817D02*
X013994Y006817D01*
X013861Y006817D02*
X013801Y006817D01*
X013801Y006719D02*
X013861Y006719D01*
X013861Y006620D02*
X013801Y006620D01*
X013801Y006522D02*
X013861Y006522D01*
X013861Y006423D02*
X013801Y006423D01*
X013801Y006325D02*
X013861Y006325D01*
X013861Y006226D02*
X013801Y006226D01*
X013801Y006128D02*
X013861Y006128D01*
X013861Y006029D02*
X013801Y006029D01*
X013801Y005931D02*
X013861Y005931D01*
X013861Y005832D02*
X013801Y005832D01*
X013801Y005734D02*
X013861Y005734D01*
X013861Y005635D02*
X013801Y005635D01*
X013430Y005832D02*
X012379Y005832D01*
X012475Y005931D02*
X013421Y005931D01*
X013421Y006029D02*
X012516Y006029D01*
X012541Y006128D02*
X013421Y006128D01*
X013421Y006226D02*
X012541Y006226D01*
X012518Y006325D02*
X013421Y006325D01*
X013421Y006423D02*
X012477Y006423D01*
X012386Y006522D02*
X013429Y006522D01*
X013463Y006620D02*
X012205Y006620D01*
X012364Y006817D02*
X013668Y006817D01*
X013530Y006719D02*
X011203Y006719D01*
X011298Y006817D02*
X011104Y006817D01*
X011199Y006916D02*
X011006Y006916D01*
X010907Y007014D02*
X011153Y007014D01*
X011121Y007113D02*
X010809Y007113D01*
X010781Y007211D02*
X011121Y007211D01*
X011138Y007310D02*
X010781Y007310D01*
X010382Y006719D02*
X008121Y006719D01*
X008121Y006817D02*
X008558Y006817D01*
X008459Y006916D02*
X008203Y006916D01*
X008281Y007014D02*
X008381Y007014D01*
X008381Y007113D02*
X008281Y007113D01*
X008281Y007211D02*
X008381Y007211D01*
X008381Y007310D02*
X008281Y007310D01*
X008121Y006620D02*
X010481Y006620D01*
X010501Y006590D02*
X010361Y006590D01*
X010361Y006210D01*
X010741Y006210D01*
X010741Y006350D01*
X010501Y006590D01*
X010569Y006522D02*
X010579Y006522D01*
X010668Y006423D02*
X010678Y006423D01*
X010741Y006325D02*
X010776Y006325D01*
X010741Y006226D02*
X010875Y006226D01*
X010973Y006128D02*
X010741Y006128D01*
X010741Y006150D02*
X010361Y006150D01*
X010361Y006210D01*
X010301Y006210D01*
X010301Y006590D01*
X010161Y006590D01*
X009921Y006350D01*
X009921Y006210D01*
X010301Y006210D01*
X010301Y006150D01*
X010361Y006150D01*
X010361Y005770D01*
X010501Y005770D01*
X010741Y006010D01*
X010741Y006150D01*
X010741Y006029D02*
X011072Y006029D01*
X011175Y005931D02*
X010661Y005931D01*
X010563Y005832D02*
X011283Y005832D01*
X011301Y006620D02*
X011457Y006620D01*
X012463Y006916D02*
X014185Y006916D01*
X014087Y007014D02*
X012509Y007014D01*
X012541Y007113D02*
X013988Y007113D01*
X013890Y007211D02*
X012541Y007211D01*
X012524Y007310D02*
X013791Y007310D01*
X014218Y007704D02*
X019291Y007704D01*
X019371Y007704D02*
X021781Y007704D01*
X021781Y007605D02*
X021881Y007605D01*
X021881Y007507D02*
X021781Y007507D01*
X021781Y007408D02*
X021881Y007408D01*
X021881Y007310D02*
X021781Y007310D01*
X021434Y007170D02*
X021253Y007095D01*
X021208Y007050D01*
X021196Y007050D01*
X021126Y007121D01*
X020934Y007200D01*
X020728Y007200D01*
X020536Y007121D01*
X020390Y006975D01*
X020311Y006783D01*
X020311Y006577D01*
X020390Y006385D01*
X020536Y006239D01*
X020728Y006160D01*
X020934Y006160D01*
X021126Y006239D01*
X021196Y006310D01*
X021208Y006310D01*
X021253Y006265D01*
X021434Y006190D01*
X022228Y006190D01*
X022409Y006265D01*
X022546Y006402D01*
X022621Y006583D01*
X022621Y006777D01*
X022546Y006958D01*
X022409Y007095D01*
X022228Y007170D01*
X021434Y007170D01*
X021295Y007113D02*
X021134Y007113D01*
X021275Y007310D02*
X019831Y007310D01*
X019945Y007408D02*
X021172Y007408D01*
X021114Y007507D02*
X020005Y007507D01*
X020034Y007605D02*
X021087Y007605D01*
X021097Y007802D02*
X020023Y007802D01*
X019981Y007901D02*
X021138Y007901D01*
X021881Y007704D02*
X024461Y007704D01*
X024461Y007605D02*
X022575Y007605D01*
X022548Y007507D02*
X024461Y007507D01*
X024461Y007408D02*
X022490Y007408D01*
X022387Y007310D02*
X024461Y007310D01*
X024461Y007211D02*
X014710Y007211D01*
X014612Y007310D02*
X018831Y007310D01*
X018717Y007408D02*
X014513Y007408D01*
X014415Y007507D02*
X018657Y007507D01*
X018627Y007605D02*
X014316Y007605D01*
X014119Y007802D02*
X018638Y007802D01*
X018681Y007901D02*
X014021Y007901D01*
X014809Y007113D02*
X016528Y007113D01*
X016430Y007014D02*
X014907Y007014D01*
X015006Y006916D02*
X016366Y006916D01*
X016325Y006817D02*
X015090Y006817D01*
X015189Y006719D02*
X016311Y006719D01*
X016311Y006620D02*
X015243Y006620D01*
X015281Y006522D02*
X016334Y006522D01*
X016375Y006423D02*
X015281Y006423D01*
X015281Y006325D02*
X016451Y006325D01*
X016568Y006226D02*
X015281Y006226D01*
X015281Y006128D02*
X016860Y006128D01*
X016959Y006029D02*
X015281Y006029D01*
X015281Y005931D02*
X017057Y005931D01*
X017156Y005832D02*
X015281Y005832D01*
X015241Y005734D02*
X017254Y005734D01*
X017353Y005635D02*
X015182Y005635D01*
X015081Y005537D02*
X017451Y005537D01*
X017907Y006128D02*
X023421Y006128D01*
X023421Y006150D02*
X023421Y005888D01*
X023431Y005824D01*
X023451Y005763D01*
X023480Y005705D01*
X023518Y005653D01*
X023564Y005607D01*
X023616Y005569D01*
X023674Y005540D01*
X023735Y005520D01*
X023799Y005510D01*
X023801Y005510D01*
X023801Y006150D01*
X023861Y006150D01*
X023861Y006210D01*
X024241Y006210D01*
X024241Y006472D01*
X024231Y006536D01*
X024211Y006597D01*
X024182Y006655D01*
X024144Y006707D01*
X024098Y006753D01*
X024046Y006791D01*
X023988Y006820D01*
X023927Y006840D01*
X023863Y006850D01*
X023861Y006850D01*
X023861Y006210D01*
X023801Y006210D01*
X023801Y006850D01*
X023799Y006850D01*
X023735Y006840D01*
X023674Y006820D01*
X023616Y006791D01*
X023564Y006753D01*
X023518Y006707D01*
X023480Y006655D01*
X023451Y006597D01*
X023431Y006536D01*
X023421Y006472D01*
X023421Y006210D01*
X023801Y006210D01*
X023801Y006150D01*
X023421Y006150D01*
X023421Y006226D02*
X022315Y006226D01*
X022468Y006325D02*
X023421Y006325D01*
X023421Y006423D02*
X022555Y006423D01*
X022596Y006522D02*
X023429Y006522D01*
X023463Y006620D02*
X022621Y006620D01*
X022621Y006719D02*
X023530Y006719D01*
X023668Y006817D02*
X022605Y006817D01*
X022564Y006916D02*
X024461Y006916D01*
X024461Y007014D02*
X022490Y007014D01*
X022367Y007113D02*
X024461Y007113D01*
X024461Y006817D02*
X023994Y006817D01*
X023861Y006817D02*
X023801Y006817D01*
X023801Y006719D02*
X023861Y006719D01*
X023861Y006620D02*
X023801Y006620D01*
X023801Y006522D02*
X023861Y006522D01*
X023861Y006423D02*
X023801Y006423D01*
X023801Y006325D02*
X023861Y006325D01*
X023861Y006226D02*
X023801Y006226D01*
X023861Y006150D02*
X024241Y006150D01*
X024241Y005888D01*
X024231Y005824D01*
X024211Y005763D01*
X024182Y005705D01*
X024144Y005653D01*
X024098Y005607D01*
X024046Y005569D01*
X023988Y005540D01*
X023927Y005520D01*
X023863Y005510D01*
X023861Y005510D01*
X023861Y006150D01*
X023861Y006128D02*
X023801Y006128D01*
X023801Y006029D02*
X023861Y006029D01*
X023861Y005931D02*
X023801Y005931D01*
X023801Y005832D02*
X023861Y005832D01*
X023861Y005734D02*
X023801Y005734D01*
X023801Y005635D02*
X023861Y005635D01*
X023861Y005537D02*
X023801Y005537D01*
X023684Y005537D02*
X018998Y005537D01*
X018899Y005635D02*
X023536Y005635D01*
X023466Y005734D02*
X018801Y005734D01*
X018702Y005832D02*
X023430Y005832D01*
X023421Y005931D02*
X018604Y005931D01*
X018455Y006029D02*
X023421Y006029D01*
X023977Y005537D02*
X024581Y005537D01*
X024480Y005635D02*
X024126Y005635D01*
X024196Y005734D02*
X024421Y005734D01*
X024381Y005832D02*
X024232Y005832D01*
X024241Y005931D02*
X024381Y005931D01*
X024381Y006029D02*
X024241Y006029D01*
X024241Y006128D02*
X024381Y006128D01*
X024381Y006226D02*
X024241Y006226D01*
X024241Y006325D02*
X024381Y006325D01*
X024381Y006423D02*
X024241Y006423D01*
X024233Y006522D02*
X024381Y006522D01*
X024418Y006620D02*
X024199Y006620D01*
X024132Y006719D02*
X024461Y006719D01*
X025201Y006719D02*
X028311Y006719D01*
X028325Y006817D02*
X025201Y006817D01*
X025201Y006916D02*
X028366Y006916D01*
X028430Y007014D02*
X025201Y007014D01*
X025201Y007113D02*
X028461Y007113D01*
X028461Y007211D02*
X025201Y007211D01*
X025201Y007310D02*
X028461Y007310D01*
X028461Y007408D02*
X025201Y007408D01*
X025201Y007507D02*
X028461Y007507D01*
X028461Y007605D02*
X025279Y007605D01*
X025378Y007704D02*
X028461Y007704D01*
X028461Y007802D02*
X025476Y007802D01*
X025575Y007901D02*
X028461Y007901D01*
X028461Y008180D02*
X025854Y008180D01*
X025904Y008230D01*
X026017Y008230D01*
X026281Y008494D01*
X026281Y008866D01*
X026017Y009130D01*
X025645Y009130D01*
X025381Y008866D01*
X025381Y008753D01*
X024808Y008180D01*
X004941Y008180D01*
X004941Y032070D01*
X034221Y032070D01*
X034221Y008180D01*
X031361Y008180D01*
X031361Y008210D01*
X032001Y008210D01*
X032001Y008212D01*
X031991Y008276D01*
X031971Y008337D01*
X031942Y008395D01*
X031904Y008447D01*
X031858Y008493D01*
X031806Y008531D01*
X031748Y008560D01*
X031687Y008580D01*
X031623Y008590D01*
X031361Y008590D01*
X031361Y008210D01*
X031301Y008210D01*
X031301Y008590D01*
X031039Y008590D01*
X030975Y008580D01*
X030914Y008560D01*
X030856Y008531D01*
X030804Y008493D01*
X030758Y008447D01*
X030720Y008395D01*
X030691Y008337D01*
X030671Y008276D01*
X030661Y008212D01*
X030661Y008210D01*
X031301Y008210D01*
X031301Y008180D01*
X030201Y008180D01*
X030201Y011027D01*
X031145Y011970D01*
X031201Y012106D01*
X031201Y019754D01*
X031145Y019890D01*
X030645Y020390D01*
X030541Y020494D01*
X030405Y020550D01*
X027201Y020550D01*
X027201Y021654D01*
X027212Y021665D01*
X027281Y021830D01*
X027281Y022530D01*
X027212Y022695D01*
X027086Y022821D01*
X026942Y022881D01*
X026951Y022890D01*
X028211Y022890D01*
X028437Y022664D01*
X028381Y022530D01*
X028381Y021830D01*
X028449Y021665D01*
X028576Y021539D01*
X028741Y021470D01*
X028920Y021470D01*
X029086Y021539D01*
X029212Y021665D01*
X029281Y021830D01*
X029281Y022530D01*
X029212Y022695D01*
X029087Y022821D01*
X029077Y022844D01*
X028611Y023310D01*
X029178Y023310D01*
X029461Y023027D01*
X029461Y022706D01*
X029449Y022695D01*
X029381Y022530D01*
X029381Y021830D01*
X029449Y021665D01*
X029576Y021539D01*
X029741Y021470D01*
X029920Y021470D01*
X030086Y021539D01*
X030212Y021665D01*
X030272Y021810D01*
X031461Y021810D01*
X031461Y009833D01*
X031258Y009630D01*
X030981Y009630D01*
X030816Y009561D01*
X030689Y009435D01*
X030621Y009270D01*
X030621Y009090D01*
X030689Y008925D01*
X030816Y008799D01*
X030981Y008730D01*
X031680Y008730D01*
X031846Y008799D01*
X031972Y008925D01*
X032041Y009090D01*
X032041Y009270D01*
X032012Y009338D01*
X032041Y009366D01*
X032145Y009470D01*
X032201Y009606D01*
X032201Y024914D01*
X032281Y024994D01*
X032281Y025366D01*
X032017Y025630D01*
X031645Y025630D01*
X031381Y025366D01*
X031381Y024994D01*
X031461Y024914D01*
X031461Y022550D01*
X030272Y022550D01*
X030212Y022695D01*
X030201Y022706D01*
X030201Y023254D01*
X030145Y023390D01*
X029644Y023890D01*
X030389Y023890D01*
X030495Y023934D01*
X030995Y024434D01*
X031077Y024516D01*
X031121Y024622D01*
X031121Y024834D01*
X031281Y024994D01*
X031281Y025366D01*
X031121Y025526D01*
X031121Y025834D01*
X031281Y025994D01*
X031281Y026366D01*
X031017Y026630D01*
X030645Y026630D01*
X030381Y026366D01*
X030381Y025994D01*
X030541Y025834D01*
X030541Y025526D01*
X030381Y025366D01*
X030381Y024994D01*
X030541Y024834D01*
X030541Y024800D01*
X030211Y024470D01*
X028451Y024470D01*
X028225Y024696D01*
X028281Y024830D01*
X028281Y025530D01*
X028212Y025695D01*
X028086Y025821D01*
X027920Y025890D01*
X027741Y025890D01*
X027576Y025821D01*
X027449Y025695D01*
X027381Y025530D01*
X027381Y024830D01*
X027449Y024665D01*
X027575Y024539D01*
X027585Y024516D01*
X028051Y024050D01*
X026257Y024050D01*
X026121Y023994D01*
X026017Y023890D01*
X025758Y023630D01*
X025645Y023630D01*
X025381Y023366D01*
X025381Y022994D01*
X025461Y022914D01*
X025461Y022333D01*
X024678Y021550D01*
X024097Y021550D01*
X024212Y021665D01*
X024281Y021830D01*
X024281Y022220D01*
X024577Y022516D01*
X024621Y022622D01*
X024621Y022810D01*
X024661Y022770D01*
X024801Y022770D01*
X024801Y023150D01*
X024861Y023150D01*
X024861Y023210D01*
X025241Y023210D01*
X025241Y023350D01*
X025001Y023590D01*
X024861Y023590D01*
X024861Y023210D01*
X024801Y023210D01*
X024801Y023590D01*
X024661Y023590D01*
X024621Y023550D01*
X024621Y023560D01*
X025077Y024016D01*
X025121Y024122D01*
X025121Y024805D01*
X025301Y024985D01*
X025301Y025375D01*
X025026Y025650D01*
X024771Y025650D01*
X024121Y026300D01*
X024121Y026334D01*
X024281Y026494D01*
X024281Y026866D01*
X024257Y026890D01*
X024905Y026890D01*
X024881Y026866D01*
X024881Y026494D01*
X025145Y026230D01*
X025371Y026230D01*
X025585Y026016D01*
X025585Y026016D01*
X025667Y025934D01*
X025773Y025890D01*
X026485Y025890D01*
X026541Y025834D01*
X026541Y025786D01*
X026449Y025695D01*
X026381Y025530D01*
X026381Y024830D01*
X026449Y024665D01*
X026576Y024539D01*
X026741Y024470D01*
X026920Y024470D01*
X027086Y024539D01*
X027212Y024665D01*
X027281Y024830D01*
X027281Y025530D01*
X027212Y025695D01*
X027121Y025786D01*
X027121Y025834D01*
X027281Y025994D01*
X027281Y026366D01*
X027257Y026390D01*
X027389Y026390D01*
X027495Y026434D01*
X027577Y026516D01*
X027791Y026730D01*
X028017Y026730D01*
X028281Y026994D01*
X028281Y027366D01*
X028121Y027526D01*
X028121Y027738D01*
X028077Y027844D01*
X027995Y027926D01*
X027821Y028100D01*
X027821Y028383D01*
X027534Y028670D01*
X027128Y028670D01*
X026841Y028383D01*
X026841Y027977D01*
X027128Y027690D01*
X027411Y027690D01*
X027541Y027560D01*
X027541Y027526D01*
X027381Y027366D01*
X027381Y027140D01*
X027211Y026970D01*
X027201Y026970D01*
X027241Y027010D01*
X027241Y027150D01*
X026861Y027150D01*
X026861Y027210D01*
X027241Y027210D01*
X027241Y027350D01*
X027001Y027590D01*
X026861Y027590D01*
X026861Y027210D01*
X026801Y027210D01*
X026801Y027590D01*
X026661Y027590D01*
X026421Y027350D01*
X026421Y027210D01*
X026801Y027210D01*
X026801Y027150D01*
X026421Y027150D01*
X026421Y027010D01*
X026461Y026970D01*
X026451Y026970D01*
X026077Y027344D01*
X025995Y027426D01*
X025889Y027470D01*
X025757Y027470D01*
X025781Y027494D01*
X025781Y027866D01*
X025621Y028026D01*
X025621Y028254D01*
X025645Y028230D01*
X026017Y028230D01*
X026281Y028494D01*
X026281Y028720D01*
X026951Y029390D01*
X027541Y029390D01*
X027599Y029332D01*
X027749Y029270D01*
X027913Y029270D01*
X028063Y029332D01*
X028179Y029448D01*
X028241Y029598D01*
X028241Y029762D01*
X028179Y029912D01*
X028063Y030028D01*
X027913Y030090D01*
X027749Y030090D01*
X027599Y030028D01*
X027541Y029970D01*
X026773Y029970D01*
X026667Y029926D01*
X026585Y029844D01*
X025871Y029130D01*
X025645Y029130D01*
X025621Y029106D01*
X025621Y029738D01*
X025590Y029813D01*
X025653Y029750D01*
X025791Y029750D01*
X025791Y030140D01*
X025871Y030140D01*
X025871Y030220D01*
X026261Y030220D01*
X026261Y030358D01*
X026009Y030610D01*
X025871Y030610D01*
X025871Y030220D01*
X025791Y030220D01*
X025791Y030610D01*
X025653Y030610D01*
X025401Y030358D01*
X025401Y030220D01*
X025791Y030220D01*
X025791Y030140D01*
X025401Y030140D01*
X025401Y030020D01*
X024077Y031344D01*
X023995Y031426D01*
X023889Y031470D01*
X022273Y031470D01*
X022167Y031426D01*
X022085Y031344D01*
X021761Y031020D01*
X021761Y031140D01*
X021371Y031140D01*
X021371Y031220D01*
X021761Y031220D01*
X021761Y031358D01*
X021509Y031610D01*
X021371Y031610D01*
X021371Y031220D01*
X021291Y031220D01*
X021291Y031610D01*
X021153Y031610D01*
X020901Y031358D01*
X020901Y031220D01*
X021291Y031220D01*
X021291Y031140D01*
X021371Y031140D01*
X021371Y030750D01*
X021491Y030750D01*
X021211Y030470D01*
X020257Y030470D01*
X020281Y030494D01*
X020281Y030866D01*
X020017Y031130D01*
X019645Y031130D01*
X019485Y030970D01*
X017273Y030970D01*
X017167Y030926D01*
X016831Y030590D01*
X016749Y030590D01*
X016599Y030528D01*
X016483Y030412D01*
X016421Y030262D01*
X016421Y030098D01*
X016483Y029948D01*
X016599Y029832D01*
X016749Y029770D01*
X016913Y029770D01*
X017063Y029832D01*
X017179Y029948D01*
X017241Y030098D01*
X017241Y030180D01*
X017451Y030390D01*
X018131Y030390D01*
X017871Y030130D01*
X017645Y030130D01*
X017381Y029866D01*
X017097Y029866D01*
X017186Y029965D02*
X017479Y029965D01*
X017381Y029866D02*
X017381Y029494D01*
X017541Y029334D01*
X017541Y029026D01*
X017381Y028866D01*
X017381Y028494D01*
X017541Y028334D01*
X017541Y028026D01*
X017485Y027970D01*
X017234Y027970D01*
X017034Y028170D01*
X016628Y028170D01*
X016341Y027883D01*
X016341Y027477D01*
X016628Y027190D01*
X017034Y027190D01*
X017234Y027390D01*
X017485Y027390D01*
X017541Y027334D01*
X017541Y026805D01*
X017361Y026625D01*
X017361Y026370D01*
X017085Y026094D01*
X017041Y025988D01*
X017041Y023550D01*
X017001Y023590D01*
X016861Y023590D01*
X016861Y023210D01*
X016801Y023210D01*
X016801Y023590D01*
X016661Y023590D01*
X016421Y023350D01*
X016421Y023210D01*
X016801Y023210D01*
X016801Y023150D01*
X016861Y023150D01*
X016861Y022770D01*
X017001Y022770D01*
X017041Y022810D01*
X017041Y022622D01*
X017085Y022516D01*
X017167Y022434D01*
X017381Y022220D01*
X017381Y021830D01*
X017449Y021665D01*
X017565Y021550D01*
X016097Y021550D01*
X016017Y021630D01*
X015645Y021630D01*
X015565Y021550D01*
X014597Y021550D01*
X014712Y021665D01*
X014781Y021830D01*
X014781Y022530D01*
X014712Y022695D01*
X014621Y022786D01*
X014621Y024810D01*
X015745Y025934D01*
X015827Y026016D01*
X015871Y026122D01*
X015871Y027488D01*
X015827Y027594D01*
X015077Y028344D01*
X014995Y028426D01*
X014889Y028470D01*
X007773Y028470D01*
X007667Y028426D01*
X006167Y026926D01*
X006085Y026844D01*
X006041Y026738D01*
X006041Y015622D01*
X006085Y015516D01*
X006167Y015434D01*
X008667Y012934D01*
X008773Y012890D01*
X011211Y012890D01*
X011416Y012685D01*
X011361Y012553D01*
X011361Y011807D01*
X011433Y011634D01*
X011541Y011525D01*
X011541Y010335D01*
X011433Y010226D01*
X011361Y010053D01*
X011361Y009307D01*
X011433Y009134D01*
X011565Y009002D01*
X011737Y008930D01*
X011924Y008930D01*
X012097Y009002D01*
X012229Y009134D01*
X012301Y009307D01*
X012301Y010053D01*
X012229Y010226D01*
X012121Y010335D01*
X012121Y011525D01*
X012229Y011634D01*
X012301Y011807D01*
X012301Y012553D01*
X012229Y012726D01*
X012097Y012858D01*
X012038Y012883D01*
X011995Y012926D01*
X011495Y013426D01*
X011389Y013470D01*
X008951Y013470D01*
X006621Y015800D01*
X006621Y026560D01*
X007951Y027890D01*
X014711Y027890D01*
X015291Y027310D01*
X015291Y026300D01*
X014331Y025340D01*
X013245Y026426D01*
X013139Y026470D01*
X012621Y026470D01*
X012563Y026528D01*
X012413Y026590D01*
X012249Y026590D01*
X012099Y026528D01*
X011983Y026412D01*
X011921Y026262D01*
X011921Y026098D01*
X011983Y025948D01*
X012099Y025832D01*
X012249Y025770D01*
X012413Y025770D01*
X012563Y025832D01*
X012621Y025890D01*
X012961Y025890D01*
X013261Y025590D01*
X013249Y025590D01*
X013099Y025528D01*
X012983Y025412D01*
X012921Y025262D01*
X012921Y025098D01*
X012983Y024948D01*
X013041Y024890D01*
X013041Y022786D01*
X012949Y022695D01*
X012881Y022530D01*
X012881Y021830D01*
X012949Y021665D01*
X013065Y021550D01*
X012508Y021550D01*
X012546Y021569D01*
X012598Y021607D01*
X012644Y021653D01*
X012682Y021705D01*
X012711Y021763D01*
X012731Y021824D01*
X012741Y021888D01*
X012741Y022150D01*
X012361Y022150D01*
X012361Y022210D01*
X012741Y022210D01*
X012741Y022472D01*
X012731Y022536D01*
X012711Y022597D01*
X012682Y022655D01*
X012644Y022707D01*
X012598Y022753D01*
X012546Y022791D01*
X012488Y022820D01*
X012427Y022840D01*
X012363Y022850D01*
X012361Y022850D01*
X012361Y022210D01*
X012301Y022210D01*
X012301Y022850D01*
X012299Y022850D01*
X012235Y022840D01*
X012174Y022820D01*
X012116Y022791D01*
X012064Y022753D01*
X012018Y022707D01*
X011980Y022655D01*
X011951Y022597D01*
X011931Y022536D01*
X011921Y022472D01*
X011921Y022210D01*
X012301Y022210D01*
X012301Y022150D01*
X011921Y022150D01*
X011921Y021888D01*
X011931Y021824D01*
X011951Y021763D01*
X011980Y021705D01*
X012018Y021653D01*
X012064Y021607D01*
X012116Y021569D01*
X012154Y021550D01*
X011984Y021550D01*
X011758Y021776D01*
X011781Y021830D01*
X011781Y022530D01*
X011712Y022695D01*
X011586Y022821D01*
X011420Y022890D01*
X011241Y022890D01*
X011121Y022840D01*
X011121Y025738D01*
X011077Y025844D01*
X010741Y026180D01*
X011451Y026890D01*
X013211Y026890D01*
X013921Y026180D01*
X013921Y026098D01*
X013983Y025948D01*
X014099Y025832D01*
X014249Y025770D01*
X014413Y025770D01*
X014563Y025832D01*
X014679Y025948D01*
X014741Y026098D01*
X014741Y026262D01*
X014679Y026412D01*
X014563Y026528D01*
X014413Y026590D01*
X014331Y026590D01*
X013495Y027426D01*
X013389Y027470D01*
X011273Y027470D01*
X011167Y027426D01*
X011085Y027344D01*
X010331Y026590D01*
X010249Y026590D01*
X010099Y026528D01*
X009983Y026412D01*
X009921Y026262D01*
X009921Y026098D01*
X009983Y025948D01*
X010099Y025832D01*
X010249Y025770D01*
X010331Y025770D01*
X010541Y025560D01*
X010541Y022793D01*
X010488Y022820D01*
X010427Y022840D01*
X010363Y022850D01*
X010361Y022850D01*
X010361Y022210D01*
X010301Y022210D01*
X010301Y022850D01*
X010299Y022850D01*
X010235Y022840D01*
X010174Y022820D01*
X010116Y022791D01*
X010064Y022753D01*
X010018Y022707D01*
X009980Y022655D01*
X009951Y022597D01*
X009931Y022536D01*
X009921Y022472D01*
X009921Y022210D01*
X010301Y022210D01*
X010301Y022150D01*
X010361Y022150D01*
X010361Y021510D01*
X010363Y021510D01*
X010427Y021520D01*
X010488Y021540D01*
X010541Y021567D01*
X010541Y019793D01*
X010488Y019820D01*
X010427Y019840D01*
X010363Y019850D01*
X010361Y019850D01*
X010361Y019210D01*
X010301Y019210D01*
X010301Y019850D01*
X010299Y019850D01*
X010235Y019840D01*
X010174Y019820D01*
X010116Y019791D01*
X010064Y019753D01*
X010018Y019707D01*
X009980Y019655D01*
X009951Y019597D01*
X009931Y019536D01*
X009921Y019472D01*
X009921Y019210D01*
X010301Y019210D01*
X010301Y019150D01*
X010361Y019150D01*
X010361Y018510D01*
X010363Y018510D01*
X010427Y018520D01*
X010488Y018540D01*
X010541Y018567D01*
X010541Y017622D01*
X010585Y017516D01*
X011421Y016680D01*
X010711Y015970D01*
X009451Y015970D01*
X008741Y016680D01*
X008741Y016762D01*
X008679Y016912D01*
X008563Y017028D01*
X008413Y017090D01*
X008249Y017090D01*
X008121Y017037D01*
X008121Y017310D01*
X008331Y017520D01*
X009417Y016434D01*
X009523Y016390D01*
X010041Y016390D01*
X010099Y016332D01*
X010249Y016270D01*
X010413Y016270D01*
X010563Y016332D01*
X010679Y016448D01*
X010741Y016598D01*
X010741Y016762D01*
X010679Y016912D01*
X010563Y017028D01*
X010413Y017090D01*
X010249Y017090D01*
X010099Y017028D01*
X010041Y016970D01*
X009701Y016970D01*
X009401Y017270D01*
X009413Y017270D01*
X009563Y017332D01*
X009679Y017448D01*
X009741Y017598D01*
X009741Y017762D01*
X009679Y017912D01*
X009621Y017970D01*
X009621Y018574D01*
X009712Y018665D01*
X009781Y018830D01*
X009781Y019530D01*
X009712Y019695D01*
X009586Y019821D01*
X009420Y019890D01*
X009241Y019890D01*
X009076Y019821D01*
X008949Y019695D01*
X008881Y019530D01*
X008881Y018830D01*
X008949Y018665D01*
X009041Y018574D01*
X009041Y017970D01*
X008983Y017912D01*
X008921Y017762D01*
X008921Y017750D01*
X008621Y018050D01*
X008621Y018574D01*
X008712Y018665D01*
X008781Y018830D01*
X008781Y019530D01*
X008712Y019695D01*
X008586Y019821D01*
X008420Y019890D01*
X008241Y019890D01*
X008076Y019821D01*
X007949Y019695D01*
X007881Y019530D01*
X007881Y018830D01*
X007949Y018665D01*
X008041Y018574D01*
X008041Y018050D01*
X007667Y017676D01*
X007585Y017594D01*
X007541Y017488D01*
X007541Y016372D01*
X007585Y016266D01*
X008917Y014934D01*
X009023Y014890D01*
X011211Y014890D01*
X013416Y012685D01*
X013361Y012553D01*
X013361Y011807D01*
X013433Y011634D01*
X013541Y011525D01*
X013541Y010335D01*
X013433Y010226D01*
X013361Y010053D01*
X013361Y009307D01*
X013433Y009134D01*
X013565Y009002D01*
X013737Y008930D01*
X013924Y008930D01*
X014097Y009002D01*
X014229Y009134D01*
X014301Y009307D01*
X014301Y010053D01*
X014229Y010226D01*
X014121Y010335D01*
X014121Y011525D01*
X014229Y011634D01*
X014301Y011807D01*
X014301Y012553D01*
X014229Y012726D01*
X014097Y012858D01*
X014038Y012883D01*
X013246Y013675D01*
X013540Y013675D01*
X013836Y013971D01*
X013836Y014389D01*
X013621Y014604D01*
X013621Y015738D01*
X013577Y015844D01*
X013495Y015926D01*
X012741Y016680D01*
X012741Y016762D01*
X012679Y016912D01*
X012563Y017028D01*
X012413Y017090D01*
X012249Y017090D01*
X012099Y017028D01*
X012041Y016970D01*
X011951Y016970D01*
X011121Y017800D01*
X011121Y018520D01*
X011241Y018470D01*
X011420Y018470D01*
X011586Y018539D01*
X012178Y018539D01*
X012174Y018540D02*
X012235Y018520D01*
X012299Y018510D01*
X012301Y018510D01*
X012301Y019150D01*
X012361Y019150D01*
X012361Y019210D01*
X012741Y019210D01*
X012741Y019472D01*
X012731Y019536D01*
X012711Y019597D01*
X012682Y019655D01*
X012644Y019707D01*
X012598Y019753D01*
X012546Y019791D01*
X012508Y019810D01*
X013065Y019810D01*
X012949Y019695D01*
X012881Y019530D01*
X012881Y018830D01*
X012949Y018665D01*
X013041Y018574D01*
X013041Y017970D01*
X012983Y017912D01*
X012921Y017762D01*
X012921Y017598D01*
X012983Y017448D01*
X013099Y017332D01*
X013249Y017270D01*
X013413Y017270D01*
X013563Y017332D01*
X013679Y017448D01*
X013741Y017598D01*
X013741Y017762D01*
X013679Y017912D01*
X013621Y017970D01*
X013621Y018574D01*
X013712Y018665D01*
X013781Y018830D01*
X013781Y019530D01*
X013712Y019695D01*
X013597Y019810D01*
X014065Y019810D01*
X013949Y019695D01*
X013881Y019530D01*
X013881Y018830D01*
X013949Y018665D01*
X014041Y018574D01*
X014041Y016970D01*
X013983Y016912D01*
X013921Y016762D01*
X013921Y016598D01*
X013983Y016448D01*
X014041Y016390D01*
X014041Y013622D01*
X014085Y013516D01*
X014541Y013060D01*
X014541Y012835D01*
X014433Y012726D01*
X014361Y012553D01*
X014361Y011807D01*
X014433Y011634D01*
X014541Y011525D01*
X014541Y010335D01*
X014433Y010226D01*
X014361Y010053D01*
X014361Y009307D01*
X014433Y009134D01*
X014565Y009002D01*
X014737Y008930D01*
X014924Y008930D01*
X015097Y009002D01*
X015229Y009134D01*
X015301Y009307D01*
X015301Y010053D01*
X015229Y010226D01*
X015121Y010335D01*
X015121Y011525D01*
X015229Y011634D01*
X015301Y011807D01*
X015301Y012553D01*
X015229Y012726D01*
X015121Y012835D01*
X015121Y013238D01*
X015077Y013344D01*
X014995Y013426D01*
X014621Y013800D01*
X014621Y016390D01*
X014679Y016448D01*
X014741Y016598D01*
X014741Y016762D01*
X014679Y016912D01*
X014621Y016970D01*
X014621Y018574D01*
X014712Y018665D01*
X014781Y018830D01*
X014781Y019530D01*
X014712Y019695D01*
X014597Y019810D01*
X015565Y019810D01*
X015645Y019730D01*
X016017Y019730D01*
X016097Y019810D01*
X017565Y019810D01*
X017449Y019695D01*
X017381Y019530D01*
X017381Y018830D01*
X017449Y018665D01*
X017541Y018574D01*
X017541Y018050D01*
X015167Y015676D01*
X015085Y015594D01*
X015041Y015488D01*
X015041Y014122D01*
X015085Y014016D01*
X015541Y013560D01*
X015541Y012835D01*
X015433Y012726D01*
X015361Y012553D01*
X015361Y011807D01*
X015433Y011634D01*
X015541Y011525D01*
X015541Y010335D01*
X015433Y010226D01*
X015361Y010053D01*
X015361Y009307D01*
X015433Y009134D01*
X015565Y009002D01*
X015737Y008930D01*
X015924Y008930D01*
X016097Y009002D01*
X016229Y009134D01*
X016301Y009307D01*
X016301Y010053D01*
X016229Y010226D01*
X016121Y010335D01*
X016121Y011525D01*
X016229Y011634D01*
X016301Y011807D01*
X016301Y012553D01*
X016229Y012726D01*
X016121Y012835D01*
X016121Y013676D01*
X016122Y013675D01*
X016540Y013675D01*
X016836Y013971D01*
X016836Y014389D01*
X016621Y014604D01*
X016621Y015060D01*
X017831Y016270D01*
X018667Y015434D01*
X018773Y015390D01*
X020889Y015390D01*
X020995Y015434D01*
X021831Y016270D01*
X021913Y016270D01*
X022063Y016332D01*
X022179Y016448D01*
X022241Y016598D01*
X022241Y016762D01*
X022179Y016912D01*
X022063Y017028D01*
X021913Y017090D01*
X021749Y017090D01*
X021599Y017028D01*
X021483Y016912D01*
X021421Y016762D01*
X021421Y016680D01*
X020711Y015970D01*
X018951Y015970D01*
X018241Y016680D01*
X018241Y016762D01*
X018179Y016912D01*
X018063Y017028D01*
X017913Y017090D01*
X017749Y017090D01*
X017599Y017028D01*
X017483Y016912D01*
X017421Y016762D01*
X017421Y016680D01*
X016085Y015344D01*
X016041Y015238D01*
X016041Y014604D01*
X015826Y014389D01*
X015826Y014095D01*
X015621Y014300D01*
X015621Y015310D01*
X017831Y017520D01*
X018835Y016516D01*
X018917Y016434D01*
X019023Y016390D01*
X019541Y016390D01*
X019599Y016332D01*
X019749Y016270D01*
X019913Y016270D01*
X020063Y016332D01*
X020179Y016448D01*
X020241Y016598D01*
X020241Y016762D01*
X020179Y016912D01*
X020063Y017028D01*
X019913Y017090D01*
X019749Y017090D01*
X019599Y017028D01*
X019541Y016970D01*
X019201Y016970D01*
X018901Y017270D01*
X018913Y017270D01*
X019063Y017332D01*
X019179Y017448D01*
X019241Y017598D01*
X019241Y017762D01*
X019179Y017912D01*
X019121Y017970D01*
X019121Y018574D01*
X019212Y018665D01*
X019281Y018830D01*
X019281Y019530D01*
X019212Y019695D01*
X019097Y019810D01*
X019654Y019810D01*
X019616Y019791D01*
X019564Y019753D01*
X019518Y019707D01*
X019480Y019655D01*
X019451Y019597D01*
X019431Y019536D01*
X019421Y019472D01*
X019421Y019210D01*
X019801Y019210D01*
X019801Y019150D01*
X019861Y019150D01*
X019861Y019210D01*
X020241Y019210D01*
X020241Y019472D01*
X020231Y019536D01*
X020211Y019597D01*
X020182Y019655D01*
X020144Y019707D01*
X020098Y019753D01*
X020046Y019791D01*
X020008Y019810D01*
X020461Y019810D01*
X020461Y019706D01*
X020449Y019695D01*
X020381Y019530D01*
X020381Y018830D01*
X020449Y018665D01*
X020576Y018539D01*
X019984Y018539D01*
X019988Y018540D02*
X020046Y018569D01*
X020098Y018607D01*
X020144Y018653D01*
X020182Y018705D01*
X020211Y018763D01*
X020231Y018824D01*
X020241Y018888D01*
X020241Y019150D01*
X019861Y019150D01*
X019861Y018510D01*
X019863Y018510D01*
X019927Y018520D01*
X019988Y018540D01*
X019861Y018539D02*
X019801Y018539D01*
X019801Y018510D02*
X019801Y019150D01*
X019421Y019150D01*
X019421Y018888D01*
X019431Y018824D01*
X019451Y018763D01*
X019480Y018705D01*
X019518Y018653D01*
X019564Y018607D01*
X019616Y018569D01*
X019674Y018540D01*
X019735Y018520D01*
X019799Y018510D01*
X019801Y018510D01*
X019678Y018539D02*
X019121Y018539D01*
X019121Y018440D02*
X022541Y018440D01*
X022541Y018342D02*
X019121Y018342D01*
X019121Y018243D02*
X022541Y018243D01*
X022541Y018145D02*
X019121Y018145D01*
X019121Y018046D02*
X022541Y018046D01*
X022541Y017970D02*
X022483Y017912D01*
X022421Y017762D01*
X022421Y017598D01*
X022483Y017448D01*
X022599Y017332D01*
X022749Y017270D01*
X022913Y017270D01*
X023063Y017332D01*
X023179Y017448D01*
X023241Y017598D01*
X023241Y017762D01*
X023179Y017912D01*
X023121Y017970D01*
X023121Y018574D01*
X023212Y018665D01*
X023281Y018830D01*
X023281Y019530D01*
X023212Y019695D01*
X023097Y019810D01*
X023565Y019810D01*
X023449Y019695D01*
X023381Y019530D01*
X023381Y018830D01*
X023449Y018665D01*
X023541Y018574D01*
X023541Y016970D01*
X023483Y016912D01*
X023421Y016762D01*
X023421Y016680D01*
X019211Y012470D01*
X017301Y012470D01*
X017301Y012553D01*
X017229Y012726D01*
X017097Y012858D01*
X016924Y012930D01*
X016737Y012930D01*
X016565Y012858D01*
X016433Y012726D01*
X016361Y012553D01*
X016361Y011807D01*
X016433Y011634D01*
X016541Y011525D01*
X016541Y010335D01*
X016433Y010226D01*
X016361Y010053D01*
X016361Y009307D01*
X016433Y009134D01*
X016565Y009002D01*
X016737Y008930D01*
X016924Y008930D01*
X017097Y009002D01*
X017229Y009134D01*
X017301Y009307D01*
X017301Y010053D01*
X017229Y010226D01*
X017121Y010335D01*
X017121Y011525D01*
X017229Y011634D01*
X017301Y011807D01*
X017301Y011890D01*
X019389Y011890D01*
X019495Y011934D01*
X023831Y016270D01*
X023913Y016270D01*
X024063Y016332D01*
X024179Y016448D01*
X024241Y016598D01*
X024241Y016762D01*
X024179Y016912D01*
X024121Y016970D01*
X024121Y018574D01*
X024212Y018665D01*
X024281Y018830D01*
X024281Y019530D01*
X024212Y019695D01*
X024097Y019810D01*
X027461Y019810D01*
X027461Y019446D01*
X027381Y019366D01*
X027381Y018994D01*
X027645Y018730D01*
X028017Y018730D01*
X028281Y018994D01*
X028281Y019366D01*
X028201Y019446D01*
X028201Y019810D01*
X030178Y019810D01*
X030461Y019527D01*
X030461Y012333D01*
X029517Y011390D01*
X029461Y011254D01*
X029461Y008180D01*
X029201Y008180D01*
X029201Y008414D01*
X029281Y008494D01*
X029281Y008866D01*
X029017Y009130D01*
X028645Y009130D01*
X028381Y008866D01*
X028381Y008494D01*
X028461Y008414D01*
X028461Y008180D01*
X028461Y008196D02*
X025870Y008196D01*
X026082Y008295D02*
X028461Y008295D01*
X028461Y008393D02*
X026180Y008393D01*
X026279Y008492D02*
X028383Y008492D01*
X028381Y008590D02*
X026281Y008590D01*
X026281Y008689D02*
X028381Y008689D01*
X028381Y008787D02*
X026281Y008787D01*
X026262Y008886D02*
X028400Y008886D01*
X028499Y008984D02*
X026163Y008984D01*
X026065Y009083D02*
X028597Y009083D01*
X029065Y009083D02*
X029461Y009083D01*
X029461Y009181D02*
X017249Y009181D01*
X017290Y009280D02*
X029461Y009280D01*
X029461Y009378D02*
X017301Y009378D01*
X017301Y009477D02*
X029461Y009477D01*
X029461Y009575D02*
X017301Y009575D01*
X017301Y009674D02*
X029461Y009674D01*
X029461Y009772D02*
X017301Y009772D01*
X017301Y009871D02*
X029461Y009871D01*
X029461Y009969D02*
X017301Y009969D01*
X017295Y010068D02*
X029461Y010068D01*
X029461Y010166D02*
X017254Y010166D01*
X017191Y010265D02*
X029461Y010265D01*
X029461Y010363D02*
X017121Y010363D01*
X017121Y010462D02*
X029461Y010462D01*
X029461Y010560D02*
X017121Y010560D01*
X017121Y010659D02*
X029461Y010659D01*
X029461Y010757D02*
X017121Y010757D01*
X017121Y010856D02*
X029461Y010856D01*
X029461Y010954D02*
X017121Y010954D01*
X017121Y011053D02*
X029461Y011053D01*
X029461Y011151D02*
X017121Y011151D01*
X017121Y011250D02*
X029461Y011250D01*
X029500Y011348D02*
X017121Y011348D01*
X017121Y011447D02*
X029574Y011447D01*
X029673Y011545D02*
X017141Y011545D01*
X017233Y011644D02*
X029771Y011644D01*
X029870Y011742D02*
X017274Y011742D01*
X017301Y011841D02*
X029968Y011841D01*
X030067Y011939D02*
X019500Y011939D01*
X019599Y012038D02*
X030165Y012038D01*
X030264Y012136D02*
X019697Y012136D01*
X019796Y012235D02*
X030362Y012235D01*
X030461Y012333D02*
X019894Y012333D01*
X019993Y012432D02*
X030461Y012432D01*
X030461Y012530D02*
X020091Y012530D01*
X020190Y012629D02*
X030461Y012629D01*
X030461Y012727D02*
X020288Y012727D01*
X020387Y012826D02*
X030461Y012826D01*
X030461Y012924D02*
X020485Y012924D01*
X020584Y013023D02*
X030461Y013023D01*
X030461Y013121D02*
X020682Y013121D01*
X020781Y013220D02*
X030461Y013220D01*
X030461Y013318D02*
X020879Y013318D01*
X020978Y013417D02*
X030461Y013417D01*
X030461Y013515D02*
X021076Y013515D01*
X021175Y013614D02*
X030461Y013614D01*
X030461Y013712D02*
X021273Y013712D01*
X021372Y013811D02*
X030461Y013811D01*
X030461Y013909D02*
X021470Y013909D01*
X021569Y014008D02*
X030461Y014008D01*
X030461Y014106D02*
X021667Y014106D01*
X021766Y014205D02*
X030461Y014205D01*
X030461Y014303D02*
X021864Y014303D01*
X021963Y014402D02*
X030461Y014402D01*
X030461Y014500D02*
X022061Y014500D01*
X022160Y014599D02*
X030461Y014599D01*
X030461Y014697D02*
X022258Y014697D01*
X022357Y014796D02*
X030461Y014796D01*
X030461Y014894D02*
X022455Y014894D01*
X022554Y014993D02*
X030461Y014993D01*
X030461Y015091D02*
X022652Y015091D01*
X022751Y015190D02*
X030461Y015190D01*
X030461Y015288D02*
X022849Y015288D01*
X022948Y015387D02*
X030461Y015387D01*
X030461Y015485D02*
X023046Y015485D01*
X023145Y015584D02*
X030461Y015584D01*
X030461Y015682D02*
X023243Y015682D01*
X023342Y015781D02*
X030461Y015781D01*
X030461Y015879D02*
X023440Y015879D01*
X023539Y015978D02*
X030461Y015978D01*
X030461Y016076D02*
X023637Y016076D01*
X023736Y016175D02*
X030461Y016175D01*
X030461Y016273D02*
X023920Y016273D01*
X024102Y016372D02*
X030461Y016372D01*
X030461Y016470D02*
X024188Y016470D01*
X024229Y016569D02*
X030461Y016569D01*
X030461Y016667D02*
X024241Y016667D01*
X024239Y016766D02*
X030461Y016766D01*
X030461Y016864D02*
X024199Y016864D01*
X024128Y016963D02*
X030461Y016963D01*
X030461Y017061D02*
X024121Y017061D01*
X024121Y017160D02*
X030461Y017160D01*
X030461Y017258D02*
X024121Y017258D01*
X024121Y017357D02*
X030461Y017357D01*
X030461Y017455D02*
X024121Y017455D01*
X024121Y017554D02*
X030461Y017554D01*
X030461Y017652D02*
X024121Y017652D01*
X024121Y017751D02*
X030461Y017751D01*
X030461Y017849D02*
X024121Y017849D01*
X024121Y017948D02*
X030461Y017948D01*
X030461Y018046D02*
X024121Y018046D01*
X024121Y018145D02*
X030461Y018145D01*
X030461Y018243D02*
X024121Y018243D01*
X024121Y018342D02*
X030461Y018342D01*
X030461Y018440D02*
X024121Y018440D01*
X024121Y018539D02*
X030461Y018539D01*
X030461Y018637D02*
X024184Y018637D01*
X024242Y018736D02*
X027639Y018736D01*
X027541Y018834D02*
X024281Y018834D01*
X024281Y018933D02*
X027442Y018933D01*
X027381Y019031D02*
X024281Y019031D01*
X024281Y019130D02*
X027381Y019130D01*
X027381Y019228D02*
X024281Y019228D01*
X024281Y019327D02*
X027381Y019327D01*
X027440Y019425D02*
X024281Y019425D01*
X024281Y019524D02*
X027461Y019524D01*
X027461Y019622D02*
X024243Y019622D01*
X024187Y019721D02*
X027461Y019721D01*
X028201Y019721D02*
X030267Y019721D01*
X030366Y019622D02*
X028201Y019622D01*
X028201Y019524D02*
X030461Y019524D01*
X030461Y019425D02*
X028222Y019425D01*
X028281Y019327D02*
X030461Y019327D01*
X030461Y019228D02*
X028281Y019228D01*
X028281Y019130D02*
X030461Y019130D01*
X030461Y019031D02*
X028281Y019031D01*
X028220Y018933D02*
X030461Y018933D01*
X030461Y018834D02*
X028121Y018834D01*
X028023Y018736D02*
X030461Y018736D01*
X031201Y018736D02*
X031461Y018736D01*
X031461Y018834D02*
X031201Y018834D01*
X031201Y018933D02*
X031461Y018933D01*
X031461Y019031D02*
X031201Y019031D01*
X031201Y019130D02*
X031461Y019130D01*
X031461Y019228D02*
X031201Y019228D01*
X031201Y019327D02*
X031461Y019327D01*
X031461Y019425D02*
X031201Y019425D01*
X031201Y019524D02*
X031461Y019524D01*
X031461Y019622D02*
X031201Y019622D01*
X031201Y019721D02*
X031461Y019721D01*
X031461Y019819D02*
X031174Y019819D01*
X031117Y019918D02*
X031461Y019918D01*
X031461Y020016D02*
X031018Y020016D01*
X030920Y020115D02*
X031461Y020115D01*
X031461Y020213D02*
X030821Y020213D01*
X030723Y020312D02*
X031461Y020312D01*
X031461Y020410D02*
X030624Y020410D01*
X030505Y020509D02*
X031461Y020509D01*
X031461Y020607D02*
X027201Y020607D01*
X027201Y020706D02*
X031461Y020706D01*
X031461Y020804D02*
X028035Y020804D01*
X028001Y020770D02*
X028241Y021010D01*
X028241Y021150D01*
X027861Y021150D01*
X027861Y021210D01*
X028241Y021210D01*
X028241Y021350D01*
X028030Y021561D01*
X028046Y021569D01*
X028098Y021607D01*
X028144Y021653D01*
X028182Y021705D01*
X028211Y021763D01*
X028231Y021824D01*
X028241Y021888D01*
X028241Y022150D01*
X027861Y022150D01*
X027861Y022210D01*
X028241Y022210D01*
X028241Y022472D01*
X028231Y022536D01*
X028211Y022597D01*
X028182Y022655D01*
X028144Y022707D01*
X028098Y022753D01*
X028046Y022791D01*
X027988Y022820D01*
X027927Y022840D01*
X027863Y022850D01*
X027861Y022850D01*
X027861Y022210D01*
X027801Y022210D01*
X027801Y022850D01*
X027799Y022850D01*
X027735Y022840D01*
X027674Y022820D01*
X027616Y022791D01*
X027564Y022753D01*
X027518Y022707D01*
X027480Y022655D01*
X027451Y022597D01*
X027431Y022536D01*
X027421Y022472D01*
X027421Y022210D01*
X027801Y022210D01*
X027801Y022150D01*
X027861Y022150D01*
X027861Y021210D01*
X027801Y021210D01*
X027801Y021510D01*
X027801Y022150D01*
X027421Y022150D01*
X027421Y021888D01*
X027431Y021824D01*
X027451Y021763D01*
X027480Y021705D01*
X027518Y021653D01*
X027564Y021607D01*
X027616Y021569D01*
X027632Y021561D01*
X027421Y021350D01*
X027421Y021210D01*
X027801Y021210D01*
X027801Y021150D01*
X027861Y021150D01*
X027861Y020770D01*
X028001Y020770D01*
X027861Y020804D02*
X027801Y020804D01*
X027801Y020770D02*
X027801Y021150D01*
X027421Y021150D01*
X027421Y021010D01*
X027661Y020770D01*
X027801Y020770D01*
X027801Y020903D02*
X027861Y020903D01*
X027861Y021001D02*
X027801Y021001D01*
X027801Y021100D02*
X027861Y021100D01*
X027861Y021198D02*
X031461Y021198D01*
X031461Y021100D02*
X028241Y021100D01*
X028232Y021001D02*
X031461Y021001D01*
X031461Y020903D02*
X028133Y020903D01*
X028241Y021297D02*
X031461Y021297D01*
X031461Y021395D02*
X028196Y021395D01*
X028097Y021494D02*
X028685Y021494D01*
X028523Y021592D02*
X028077Y021592D01*
X028171Y021691D02*
X028439Y021691D01*
X028398Y021789D02*
X028220Y021789D01*
X028241Y021888D02*
X028381Y021888D01*
X028381Y021986D02*
X028241Y021986D01*
X028241Y022085D02*
X028381Y022085D01*
X028381Y022183D02*
X027861Y022183D01*
X027801Y022183D02*
X027281Y022183D01*
X027281Y022085D02*
X027421Y022085D01*
X027421Y021986D02*
X027281Y021986D01*
X027281Y021888D02*
X027421Y021888D01*
X027442Y021789D02*
X027264Y021789D01*
X027223Y021691D02*
X027491Y021691D01*
X027585Y021592D02*
X027201Y021592D01*
X027201Y021494D02*
X027565Y021494D01*
X027466Y021395D02*
X027201Y021395D01*
X027201Y021297D02*
X027421Y021297D01*
X027421Y021100D02*
X027201Y021100D01*
X027201Y021198D02*
X027801Y021198D01*
X027801Y021297D02*
X027861Y021297D01*
X027861Y021395D02*
X027801Y021395D01*
X027801Y021494D02*
X027861Y021494D01*
X027861Y021592D02*
X027801Y021592D01*
X027801Y021691D02*
X027861Y021691D01*
X027861Y021789D02*
X027801Y021789D01*
X027801Y021888D02*
X027861Y021888D01*
X027861Y021986D02*
X027801Y021986D01*
X027801Y022085D02*
X027861Y022085D01*
X027861Y022282D02*
X027801Y022282D01*
X027801Y022380D02*
X027861Y022380D01*
X027861Y022479D02*
X027801Y022479D01*
X027801Y022577D02*
X027861Y022577D01*
X027861Y022676D02*
X027801Y022676D01*
X027801Y022774D02*
X027861Y022774D01*
X028069Y022774D02*
X028327Y022774D01*
X028425Y022676D02*
X028167Y022676D01*
X028218Y022577D02*
X028401Y022577D01*
X028381Y022479D02*
X028240Y022479D01*
X028241Y022380D02*
X028381Y022380D01*
X028381Y022282D02*
X028241Y022282D01*
X028228Y022873D02*
X026963Y022873D01*
X027133Y022774D02*
X027593Y022774D01*
X027495Y022676D02*
X027220Y022676D01*
X027261Y022577D02*
X027444Y022577D01*
X027422Y022479D02*
X027281Y022479D01*
X027281Y022380D02*
X027421Y022380D01*
X027421Y022282D02*
X027281Y022282D01*
X027201Y021001D02*
X027430Y021001D01*
X027529Y020903D02*
X027201Y020903D01*
X027201Y020804D02*
X027627Y020804D01*
X028977Y021494D02*
X029685Y021494D01*
X029523Y021592D02*
X029139Y021592D01*
X029223Y021691D02*
X029439Y021691D01*
X029398Y021789D02*
X029264Y021789D01*
X029281Y021888D02*
X029381Y021888D01*
X029381Y021986D02*
X029281Y021986D01*
X029281Y022085D02*
X029381Y022085D01*
X029381Y022183D02*
X029281Y022183D01*
X029281Y022282D02*
X029381Y022282D01*
X029381Y022380D02*
X029281Y022380D01*
X029281Y022479D02*
X029381Y022479D01*
X029401Y022577D02*
X029261Y022577D01*
X029220Y022676D02*
X029441Y022676D01*
X029461Y022774D02*
X029133Y022774D01*
X029049Y022873D02*
X029461Y022873D01*
X029461Y022971D02*
X028950Y022971D01*
X028852Y023070D02*
X029418Y023070D01*
X029320Y023168D02*
X028753Y023168D01*
X028655Y023267D02*
X029221Y023267D01*
X029775Y023759D02*
X031461Y023759D01*
X031461Y023661D02*
X029874Y023661D01*
X029972Y023562D02*
X031461Y023562D01*
X031461Y023464D02*
X030071Y023464D01*
X030155Y023365D02*
X031461Y023365D01*
X031461Y023267D02*
X030196Y023267D01*
X030201Y023168D02*
X031461Y023168D01*
X031461Y023070D02*
X030201Y023070D01*
X030201Y022971D02*
X031461Y022971D01*
X031461Y022873D02*
X030201Y022873D01*
X030201Y022774D02*
X031461Y022774D01*
X031461Y022676D02*
X030220Y022676D01*
X030261Y022577D02*
X031461Y022577D01*
X032201Y022577D02*
X034221Y022577D01*
X034221Y022479D02*
X032201Y022479D01*
X032201Y022380D02*
X034221Y022380D01*
X034221Y022282D02*
X032201Y022282D01*
X032201Y022183D02*
X034221Y022183D01*
X034221Y022085D02*
X032201Y022085D01*
X032201Y021986D02*
X034221Y021986D01*
X034221Y021888D02*
X032201Y021888D01*
X032201Y021789D02*
X034221Y021789D01*
X034221Y021691D02*
X032201Y021691D01*
X032201Y021592D02*
X034221Y021592D01*
X034221Y021494D02*
X032201Y021494D01*
X032201Y021395D02*
X034221Y021395D01*
X034221Y021297D02*
X032201Y021297D01*
X032201Y021198D02*
X034221Y021198D01*
X034221Y021100D02*
X032201Y021100D01*
X032201Y021001D02*
X034221Y021001D01*
X034221Y020903D02*
X032201Y020903D01*
X032201Y020804D02*
X034221Y020804D01*
X034221Y020706D02*
X032201Y020706D01*
X032201Y020607D02*
X034221Y020607D01*
X034221Y020509D02*
X032201Y020509D01*
X032201Y020410D02*
X034221Y020410D01*
X034221Y020312D02*
X032201Y020312D01*
X032201Y020213D02*
X034221Y020213D01*
X034221Y020115D02*
X032201Y020115D01*
X032201Y020016D02*
X034221Y020016D01*
X034221Y019918D02*
X032201Y019918D01*
X032201Y019819D02*
X034221Y019819D01*
X034221Y019721D02*
X032201Y019721D01*
X032201Y019622D02*
X034221Y019622D01*
X034221Y019524D02*
X032201Y019524D01*
X032201Y019425D02*
X034221Y019425D01*
X034221Y019327D02*
X032201Y019327D01*
X032201Y019228D02*
X034221Y019228D01*
X034221Y019130D02*
X032201Y019130D01*
X032201Y019031D02*
X034221Y019031D01*
X034221Y018933D02*
X032201Y018933D01*
X032201Y018834D02*
X034221Y018834D01*
X034221Y018736D02*
X032201Y018736D01*
X032201Y018637D02*
X034221Y018637D01*
X034221Y018539D02*
X032201Y018539D01*
X032201Y018440D02*
X034221Y018440D01*
X034221Y018342D02*
X032201Y018342D01*
X032201Y018243D02*
X034221Y018243D01*
X034221Y018145D02*
X032201Y018145D01*
X032201Y018046D02*
X034221Y018046D01*
X034221Y017948D02*
X032201Y017948D01*
X032201Y017849D02*
X034221Y017849D01*
X034221Y017751D02*
X032201Y017751D01*
X032201Y017652D02*
X034221Y017652D01*
X034221Y017554D02*
X032201Y017554D01*
X032201Y017455D02*
X034221Y017455D01*
X034221Y017357D02*
X032201Y017357D01*
X032201Y017258D02*
X034221Y017258D01*
X034221Y017160D02*
X032201Y017160D01*
X032201Y017061D02*
X034221Y017061D01*
X034221Y016963D02*
X032201Y016963D01*
X032201Y016864D02*
X034221Y016864D01*
X034221Y016766D02*
X032201Y016766D01*
X032201Y016667D02*
X034221Y016667D01*
X034221Y016569D02*
X032201Y016569D01*
X032201Y016470D02*
X034221Y016470D01*
X034221Y016372D02*
X032201Y016372D01*
X032201Y016273D02*
X034221Y016273D01*
X034221Y016175D02*
X032201Y016175D01*
X032201Y016076D02*
X034221Y016076D01*
X034221Y015978D02*
X032201Y015978D01*
X032201Y015879D02*
X034221Y015879D01*
X034221Y015781D02*
X032201Y015781D01*
X032201Y015682D02*
X034221Y015682D01*
X034221Y015584D02*
X032201Y015584D01*
X032201Y015485D02*
X034221Y015485D01*
X034221Y015387D02*
X032201Y015387D01*
X032201Y015288D02*
X034221Y015288D01*
X034221Y015190D02*
X032201Y015190D01*
X032201Y015091D02*
X034221Y015091D01*
X034221Y014993D02*
X032201Y014993D01*
X032201Y014894D02*
X034221Y014894D01*
X034221Y014796D02*
X032201Y014796D01*
X032201Y014697D02*
X034221Y014697D01*
X034221Y014599D02*
X032201Y014599D01*
X032201Y014500D02*
X034221Y014500D01*
X034221Y014402D02*
X032201Y014402D01*
X032201Y014303D02*
X034221Y014303D01*
X034221Y014205D02*
X032201Y014205D01*
X032201Y014106D02*
X034221Y014106D01*
X034221Y014008D02*
X032201Y014008D01*
X032201Y013909D02*
X034221Y013909D01*
X034221Y013811D02*
X032201Y013811D01*
X032201Y013712D02*
X034221Y013712D01*
X034221Y013614D02*
X032201Y013614D01*
X032201Y013515D02*
X034221Y013515D01*
X034221Y013417D02*
X032201Y013417D01*
X032201Y013318D02*
X034221Y013318D01*
X034221Y013220D02*
X032201Y013220D01*
X032201Y013121D02*
X034221Y013121D01*
X034221Y013023D02*
X032201Y013023D01*
X032201Y012924D02*
X034221Y012924D01*
X034221Y012826D02*
X032201Y012826D01*
X032201Y012727D02*
X034221Y012727D01*
X034221Y012629D02*
X032201Y012629D01*
X032201Y012530D02*
X034221Y012530D01*
X034221Y012432D02*
X032201Y012432D01*
X032201Y012333D02*
X034221Y012333D01*
X034221Y012235D02*
X032201Y012235D01*
X032201Y012136D02*
X034221Y012136D01*
X034221Y012038D02*
X032201Y012038D01*
X032201Y011939D02*
X034221Y011939D01*
X034221Y011841D02*
X032201Y011841D01*
X032201Y011742D02*
X034221Y011742D01*
X034221Y011644D02*
X032201Y011644D01*
X032201Y011545D02*
X034221Y011545D01*
X034221Y011447D02*
X032201Y011447D01*
X032201Y011348D02*
X034221Y011348D01*
X034221Y011250D02*
X032201Y011250D01*
X032201Y011151D02*
X034221Y011151D01*
X034221Y011053D02*
X032201Y011053D01*
X032201Y010954D02*
X034221Y010954D01*
X034221Y010856D02*
X032201Y010856D01*
X032201Y010757D02*
X034221Y010757D01*
X034221Y010659D02*
X032201Y010659D01*
X032201Y010560D02*
X034221Y010560D01*
X034221Y010462D02*
X032201Y010462D01*
X032201Y010363D02*
X034221Y010363D01*
X034221Y010265D02*
X032201Y010265D01*
X032201Y010166D02*
X034221Y010166D01*
X034221Y010068D02*
X032201Y010068D01*
X032201Y009969D02*
X034221Y009969D01*
X034221Y009871D02*
X032201Y009871D01*
X032201Y009772D02*
X034221Y009772D01*
X034221Y009674D02*
X032201Y009674D01*
X032188Y009575D02*
X034221Y009575D01*
X034221Y009477D02*
X032147Y009477D01*
X032052Y009378D02*
X034221Y009378D01*
X034221Y009280D02*
X032037Y009280D01*
X032041Y009366D02*
X032041Y009366D01*
X032041Y009181D02*
X034221Y009181D01*
X034221Y009083D02*
X032038Y009083D01*
X031997Y008984D02*
X034221Y008984D01*
X034221Y008886D02*
X031933Y008886D01*
X031818Y008787D02*
X034221Y008787D01*
X034221Y008689D02*
X030201Y008689D01*
X030201Y008787D02*
X030844Y008787D01*
X030729Y008886D02*
X030201Y008886D01*
X030201Y008984D02*
X030665Y008984D01*
X030624Y009083D02*
X030201Y009083D01*
X030201Y009181D02*
X030621Y009181D01*
X030625Y009280D02*
X030201Y009280D01*
X030201Y009378D02*
X030666Y009378D01*
X030731Y009477D02*
X030201Y009477D01*
X030201Y009575D02*
X030849Y009575D01*
X031301Y009674D02*
X030201Y009674D01*
X030201Y009772D02*
X031400Y009772D01*
X031461Y009871D02*
X030201Y009871D01*
X030201Y009969D02*
X031461Y009969D01*
X031461Y010068D02*
X030201Y010068D01*
X030201Y010166D02*
X031461Y010166D01*
X031461Y010265D02*
X030201Y010265D01*
X030201Y010363D02*
X031461Y010363D01*
X031461Y010462D02*
X030201Y010462D01*
X030201Y010560D02*
X031461Y010560D01*
X031461Y010659D02*
X030201Y010659D01*
X030201Y010757D02*
X031461Y010757D01*
X031461Y010856D02*
X030201Y010856D01*
X030201Y010954D02*
X031461Y010954D01*
X031461Y011053D02*
X030227Y011053D01*
X030325Y011151D02*
X031461Y011151D01*
X031461Y011250D02*
X030424Y011250D01*
X030522Y011348D02*
X031461Y011348D01*
X031461Y011447D02*
X030621Y011447D01*
X030719Y011545D02*
X031461Y011545D01*
X031461Y011644D02*
X030818Y011644D01*
X030916Y011742D02*
X031461Y011742D01*
X031461Y011841D02*
X031015Y011841D01*
X031113Y011939D02*
X031461Y011939D01*
X031461Y012038D02*
X031172Y012038D01*
X031201Y012136D02*
X031461Y012136D01*
X031461Y012235D02*
X031201Y012235D01*
X031201Y012333D02*
X031461Y012333D01*
X031461Y012432D02*
X031201Y012432D01*
X031201Y012530D02*
X031461Y012530D01*
X031461Y012629D02*
X031201Y012629D01*
X031201Y012727D02*
X031461Y012727D01*
X031461Y012826D02*
X031201Y012826D01*
X031201Y012924D02*
X031461Y012924D01*
X031461Y013023D02*
X031201Y013023D01*
X031201Y013121D02*
X031461Y013121D01*
X031461Y013220D02*
X031201Y013220D01*
X031201Y013318D02*
X031461Y013318D01*
X031461Y013417D02*
X031201Y013417D01*
X031201Y013515D02*
X031461Y013515D01*
X031461Y013614D02*
X031201Y013614D01*
X031201Y013712D02*
X031461Y013712D01*
X031461Y013811D02*
X031201Y013811D01*
X031201Y013909D02*
X031461Y013909D01*
X031461Y014008D02*
X031201Y014008D01*
X031201Y014106D02*
X031461Y014106D01*
X031461Y014205D02*
X031201Y014205D01*
X031201Y014303D02*
X031461Y014303D01*
X031461Y014402D02*
X031201Y014402D01*
X031201Y014500D02*
X031461Y014500D01*
X031461Y014599D02*
X031201Y014599D01*
X031201Y014697D02*
X031461Y014697D01*
X031461Y014796D02*
X031201Y014796D01*
X031201Y014894D02*
X031461Y014894D01*
X031461Y014993D02*
X031201Y014993D01*
X031201Y015091D02*
X031461Y015091D01*
X031461Y015190D02*
X031201Y015190D01*
X031201Y015288D02*
X031461Y015288D01*
X031461Y015387D02*
X031201Y015387D01*
X031201Y015485D02*
X031461Y015485D01*
X031461Y015584D02*
X031201Y015584D01*
X031201Y015682D02*
X031461Y015682D01*
X031461Y015781D02*
X031201Y015781D01*
X031201Y015879D02*
X031461Y015879D01*
X031461Y015978D02*
X031201Y015978D01*
X031201Y016076D02*
X031461Y016076D01*
X031461Y016175D02*
X031201Y016175D01*
X031201Y016273D02*
X031461Y016273D01*
X031461Y016372D02*
X031201Y016372D01*
X031201Y016470D02*
X031461Y016470D01*
X031461Y016569D02*
X031201Y016569D01*
X031201Y016667D02*
X031461Y016667D01*
X031461Y016766D02*
X031201Y016766D01*
X031201Y016864D02*
X031461Y016864D01*
X031461Y016963D02*
X031201Y016963D01*
X031201Y017061D02*
X031461Y017061D01*
X031461Y017160D02*
X031201Y017160D01*
X031201Y017258D02*
X031461Y017258D01*
X031461Y017357D02*
X031201Y017357D01*
X031201Y017455D02*
X031461Y017455D01*
X031461Y017554D02*
X031201Y017554D01*
X031201Y017652D02*
X031461Y017652D01*
X031461Y017751D02*
X031201Y017751D01*
X031201Y017849D02*
X031461Y017849D01*
X031461Y017948D02*
X031201Y017948D01*
X031201Y018046D02*
X031461Y018046D01*
X031461Y018145D02*
X031201Y018145D01*
X031201Y018243D02*
X031461Y018243D01*
X031461Y018342D02*
X031201Y018342D01*
X031201Y018440D02*
X031461Y018440D01*
X031461Y018539D02*
X031201Y018539D01*
X031201Y018637D02*
X031461Y018637D01*
X031461Y021494D02*
X029977Y021494D01*
X030139Y021592D02*
X031461Y021592D01*
X031461Y021691D02*
X030223Y021691D01*
X030264Y021789D02*
X031461Y021789D01*
X032201Y022676D02*
X034221Y022676D01*
X034221Y022774D02*
X032201Y022774D01*
X032201Y022873D02*
X034221Y022873D01*
X034221Y022971D02*
X032201Y022971D01*
X032201Y023070D02*
X034221Y023070D01*
X034221Y023168D02*
X032201Y023168D01*
X032201Y023267D02*
X034221Y023267D01*
X034221Y023365D02*
X032201Y023365D01*
X032201Y023464D02*
X034221Y023464D01*
X034221Y023562D02*
X032201Y023562D01*
X032201Y023661D02*
X034221Y023661D01*
X034221Y023759D02*
X032201Y023759D01*
X032201Y023858D02*
X034221Y023858D01*
X034221Y023956D02*
X032201Y023956D01*
X032201Y024055D02*
X034221Y024055D01*
X034221Y024153D02*
X032201Y024153D01*
X032201Y024252D02*
X034221Y024252D01*
X034221Y024350D02*
X032201Y024350D01*
X032201Y024449D02*
X034221Y024449D01*
X034221Y024547D02*
X032201Y024547D01*
X032201Y024646D02*
X034221Y024646D01*
X034221Y024744D02*
X032201Y024744D01*
X032201Y024843D02*
X034221Y024843D01*
X034221Y024941D02*
X032228Y024941D01*
X032281Y025040D02*
X034221Y025040D01*
X034221Y025138D02*
X032281Y025138D01*
X032281Y025237D02*
X034221Y025237D01*
X034221Y025335D02*
X032281Y025335D01*
X032214Y025434D02*
X034221Y025434D01*
X034221Y025532D02*
X032115Y025532D01*
X032001Y025770D02*
X032241Y026010D01*
X032241Y026150D01*
X031861Y026150D01*
X031861Y026210D01*
X032241Y026210D01*
X032241Y026350D01*
X032001Y026590D01*
X031861Y026590D01*
X031861Y026210D01*
X031801Y026210D01*
X031801Y026590D01*
X031661Y026590D01*
X031421Y026350D01*
X031421Y026210D01*
X031801Y026210D01*
X031801Y026150D01*
X031861Y026150D01*
X031861Y025770D01*
X032001Y025770D01*
X032058Y025828D02*
X034221Y025828D01*
X034221Y025926D02*
X032157Y025926D01*
X032241Y026025D02*
X034221Y026025D01*
X034221Y026123D02*
X032241Y026123D01*
X032241Y026222D02*
X034221Y026222D01*
X034221Y026320D02*
X032241Y026320D01*
X032172Y026419D02*
X034221Y026419D01*
X034221Y026517D02*
X032074Y026517D01*
X031861Y026517D02*
X031801Y026517D01*
X031801Y026419D02*
X031861Y026419D01*
X031861Y026320D02*
X031801Y026320D01*
X031801Y026222D02*
X031861Y026222D01*
X031801Y026150D02*
X031421Y026150D01*
X031421Y026010D01*
X031661Y025770D01*
X031801Y025770D01*
X031801Y026150D01*
X031801Y026123D02*
X031861Y026123D01*
X031861Y026025D02*
X031801Y026025D01*
X031801Y025926D02*
X031861Y025926D01*
X031861Y025828D02*
X031801Y025828D01*
X031604Y025828D02*
X031121Y025828D01*
X031121Y025729D02*
X034221Y025729D01*
X034221Y025631D02*
X031121Y025631D01*
X031121Y025532D02*
X031547Y025532D01*
X031448Y025434D02*
X031214Y025434D01*
X031281Y025335D02*
X031381Y025335D01*
X031381Y025237D02*
X031281Y025237D01*
X031281Y025138D02*
X031381Y025138D01*
X031381Y025040D02*
X031281Y025040D01*
X031228Y024941D02*
X031434Y024941D01*
X031461Y024843D02*
X031130Y024843D01*
X031121Y024744D02*
X031461Y024744D01*
X031461Y024646D02*
X031121Y024646D01*
X031090Y024547D02*
X031461Y024547D01*
X031461Y024449D02*
X031010Y024449D01*
X030911Y024350D02*
X031461Y024350D01*
X031461Y024252D02*
X030813Y024252D01*
X030714Y024153D02*
X031461Y024153D01*
X031461Y024055D02*
X030616Y024055D01*
X030517Y023956D02*
X031461Y023956D01*
X031461Y023858D02*
X029677Y023858D01*
X029741Y024470D02*
X029576Y024539D01*
X029449Y024665D01*
X029381Y024830D01*
X029381Y025530D01*
X029449Y025695D01*
X029541Y025786D01*
X029541Y026834D01*
X029485Y026890D01*
X029177Y026890D01*
X029017Y026730D01*
X028645Y026730D01*
X028381Y026994D01*
X028381Y027366D01*
X028645Y027630D01*
X029017Y027630D01*
X029177Y027470D01*
X029485Y027470D01*
X029645Y027630D01*
X030017Y027630D01*
X030281Y027366D01*
X030281Y026994D01*
X030121Y026834D01*
X030121Y025786D01*
X030212Y025695D01*
X030281Y025530D01*
X030281Y024830D01*
X030212Y024665D01*
X030086Y024539D01*
X029920Y024470D01*
X029741Y024470D01*
X029568Y024547D02*
X029002Y024547D01*
X028988Y024540D02*
X029046Y024569D01*
X029098Y024607D01*
X029144Y024653D01*
X029182Y024705D01*
X029211Y024763D01*
X029231Y024824D01*
X029241Y024888D01*
X029241Y025150D01*
X028861Y025150D01*
X028861Y025210D01*
X029241Y025210D01*
X029241Y025472D01*
X029231Y025536D01*
X029211Y025597D01*
X029182Y025655D01*
X029144Y025707D01*
X029098Y025753D01*
X029046Y025791D01*
X028988Y025820D01*
X028927Y025840D01*
X028863Y025850D01*
X028861Y025850D01*
X028861Y025210D01*
X028801Y025210D01*
X028801Y025850D01*
X028799Y025850D01*
X028735Y025840D01*
X028674Y025820D01*
X028616Y025791D01*
X028564Y025753D01*
X028518Y025707D01*
X028480Y025655D01*
X028451Y025597D01*
X028431Y025536D01*
X028421Y025472D01*
X028421Y025210D01*
X028801Y025210D01*
X028801Y025150D01*
X028861Y025150D01*
X028861Y024510D01*
X028863Y024510D01*
X028927Y024520D01*
X028988Y024540D01*
X028861Y024547D02*
X028801Y024547D01*
X028801Y024510D02*
X028801Y025150D01*
X028421Y025150D01*
X028421Y024888D01*
X028431Y024824D01*
X028451Y024763D01*
X028480Y024705D01*
X028518Y024653D01*
X028564Y024607D01*
X028616Y024569D01*
X028674Y024540D01*
X028735Y024520D01*
X028799Y024510D01*
X028801Y024510D01*
X028801Y024646D02*
X028861Y024646D01*
X028861Y024744D02*
X028801Y024744D01*
X028801Y024843D02*
X028861Y024843D01*
X028861Y024941D02*
X028801Y024941D01*
X028801Y025040D02*
X028861Y025040D01*
X028861Y025138D02*
X028801Y025138D01*
X028801Y025237D02*
X028861Y025237D01*
X028861Y025335D02*
X028801Y025335D01*
X028801Y025434D02*
X028861Y025434D01*
X028861Y025532D02*
X028801Y025532D01*
X028801Y025631D02*
X028861Y025631D01*
X028861Y025729D02*
X028801Y025729D01*
X028801Y025828D02*
X028861Y025828D01*
X028965Y025828D02*
X029541Y025828D01*
X029541Y025926D02*
X027213Y025926D01*
X027281Y026025D02*
X029541Y026025D01*
X029541Y026123D02*
X027281Y026123D01*
X027281Y026222D02*
X029541Y026222D01*
X029541Y026320D02*
X027281Y026320D01*
X027458Y026419D02*
X029541Y026419D01*
X029541Y026517D02*
X027578Y026517D01*
X027577Y026516D02*
X027577Y026516D01*
X027677Y026616D02*
X029541Y026616D01*
X029541Y026714D02*
X027775Y026714D01*
X028100Y026813D02*
X028562Y026813D01*
X028464Y026911D02*
X028198Y026911D01*
X028281Y027010D02*
X028381Y027010D01*
X028381Y027108D02*
X028281Y027108D01*
X028281Y027207D02*
X028381Y027207D01*
X028381Y027305D02*
X028281Y027305D01*
X028244Y027404D02*
X028418Y027404D01*
X028517Y027502D02*
X028145Y027502D01*
X028121Y027601D02*
X028615Y027601D01*
X028121Y027699D02*
X034221Y027699D01*
X034221Y027601D02*
X030047Y027601D01*
X030145Y027502D02*
X030573Y027502D01*
X030661Y027590D02*
X030421Y027350D01*
X030421Y027210D01*
X030801Y027210D01*
X030801Y027590D01*
X030661Y027590D01*
X030801Y027502D02*
X030861Y027502D01*
X030861Y027590D02*
X031001Y027590D01*
X031241Y027350D01*
X031241Y027210D01*
X030861Y027210D01*
X030861Y027150D01*
X031241Y027150D01*
X031241Y027010D01*
X031001Y026770D01*
X030861Y026770D01*
X030861Y027150D01*
X030801Y027150D01*
X030801Y026770D01*
X030661Y026770D01*
X030421Y027010D01*
X030421Y027150D01*
X030801Y027150D01*
X030801Y027210D01*
X030861Y027210D01*
X030861Y027590D01*
X030861Y027404D02*
X030801Y027404D01*
X030801Y027305D02*
X030861Y027305D01*
X030861Y027207D02*
X034221Y027207D01*
X034221Y027305D02*
X031241Y027305D01*
X031187Y027404D02*
X034221Y027404D01*
X034221Y027502D02*
X031089Y027502D01*
X030801Y027207D02*
X030281Y027207D01*
X030281Y027305D02*
X030421Y027305D01*
X030475Y027404D02*
X030244Y027404D01*
X030281Y027108D02*
X030421Y027108D01*
X030422Y027010D02*
X030281Y027010D01*
X030198Y026911D02*
X030520Y026911D01*
X030619Y026813D02*
X030121Y026813D01*
X030121Y026714D02*
X034221Y026714D01*
X034221Y026616D02*
X031032Y026616D01*
X031130Y026517D02*
X031588Y026517D01*
X031490Y026419D02*
X031229Y026419D01*
X031281Y026320D02*
X031421Y026320D01*
X031421Y026222D02*
X031281Y026222D01*
X031281Y026123D02*
X031421Y026123D01*
X031421Y026025D02*
X031281Y026025D01*
X031213Y025926D02*
X031505Y025926D01*
X031043Y026813D02*
X034221Y026813D01*
X034221Y026911D02*
X031142Y026911D01*
X031240Y027010D02*
X034221Y027010D01*
X034221Y027108D02*
X031241Y027108D01*
X030861Y027108D02*
X030801Y027108D01*
X030801Y027010D02*
X030861Y027010D01*
X030861Y026911D02*
X030801Y026911D01*
X030801Y026813D02*
X030861Y026813D01*
X030630Y026616D02*
X030121Y026616D01*
X030121Y026517D02*
X030532Y026517D01*
X030433Y026419D02*
X030121Y026419D01*
X030121Y026320D02*
X030381Y026320D01*
X030381Y026222D02*
X030121Y026222D01*
X030121Y026123D02*
X030381Y026123D01*
X030381Y026025D02*
X030121Y026025D01*
X030121Y025926D02*
X030449Y025926D01*
X030541Y025828D02*
X030121Y025828D01*
X030178Y025729D02*
X030541Y025729D01*
X030541Y025631D02*
X030239Y025631D01*
X030280Y025532D02*
X030541Y025532D01*
X030448Y025434D02*
X030281Y025434D01*
X030281Y025335D02*
X030381Y025335D01*
X030381Y025237D02*
X030281Y025237D01*
X030281Y025138D02*
X030381Y025138D01*
X030381Y025040D02*
X030281Y025040D01*
X030281Y024941D02*
X030434Y024941D01*
X030532Y024843D02*
X030281Y024843D01*
X030245Y024744D02*
X030485Y024744D01*
X030386Y024646D02*
X030193Y024646D01*
X030288Y024547D02*
X030094Y024547D01*
X029469Y024646D02*
X029136Y024646D01*
X029201Y024744D02*
X029417Y024744D01*
X029381Y024843D02*
X029234Y024843D01*
X029241Y024941D02*
X029381Y024941D01*
X029381Y025040D02*
X029241Y025040D01*
X029241Y025138D02*
X029381Y025138D01*
X029381Y025237D02*
X029241Y025237D01*
X029241Y025335D02*
X029381Y025335D01*
X029381Y025434D02*
X029241Y025434D01*
X029231Y025532D02*
X029382Y025532D01*
X029423Y025631D02*
X029194Y025631D01*
X029122Y025729D02*
X029484Y025729D01*
X028697Y025828D02*
X028071Y025828D01*
X028178Y025729D02*
X028540Y025729D01*
X028468Y025631D02*
X028239Y025631D01*
X028280Y025532D02*
X028430Y025532D01*
X028421Y025434D02*
X028281Y025434D01*
X028281Y025335D02*
X028421Y025335D01*
X028421Y025237D02*
X028281Y025237D01*
X028281Y025138D02*
X028421Y025138D01*
X028421Y025040D02*
X028281Y025040D01*
X028281Y024941D02*
X028421Y024941D01*
X028428Y024843D02*
X028281Y024843D01*
X028245Y024744D02*
X028460Y024744D01*
X028526Y024646D02*
X028276Y024646D01*
X028374Y024547D02*
X028660Y024547D01*
X028046Y024055D02*
X025093Y024055D01*
X025121Y024153D02*
X027948Y024153D01*
X027849Y024252D02*
X025121Y024252D01*
X025121Y024350D02*
X027751Y024350D01*
X027652Y024449D02*
X025121Y024449D01*
X025121Y024547D02*
X026568Y024547D01*
X026469Y024646D02*
X025121Y024646D01*
X025121Y024744D02*
X026417Y024744D01*
X026381Y024843D02*
X026073Y024843D01*
X026001Y024770D02*
X026241Y025010D01*
X026241Y025150D01*
X025861Y025150D01*
X025861Y025210D01*
X026241Y025210D01*
X026241Y025350D01*
X026001Y025590D01*
X025861Y025590D01*
X025861Y025210D01*
X025801Y025210D01*
X025801Y025590D01*
X025661Y025590D01*
X025421Y025350D01*
X025421Y025210D01*
X025801Y025210D01*
X025801Y025150D01*
X025861Y025150D01*
X025861Y024770D01*
X026001Y024770D01*
X025861Y024843D02*
X025801Y024843D01*
X025801Y024770D02*
X025801Y025150D01*
X025421Y025150D01*
X025421Y025010D01*
X025661Y024770D01*
X025801Y024770D01*
X025801Y024941D02*
X025861Y024941D01*
X025861Y025040D02*
X025801Y025040D01*
X025801Y025138D02*
X025861Y025138D01*
X025861Y025237D02*
X025801Y025237D01*
X025801Y025335D02*
X025861Y025335D01*
X025861Y025434D02*
X025801Y025434D01*
X025801Y025532D02*
X025861Y025532D01*
X026059Y025532D02*
X026382Y025532D01*
X026381Y025434D02*
X026157Y025434D01*
X026241Y025335D02*
X026381Y025335D01*
X026381Y025237D02*
X026241Y025237D01*
X026241Y025138D02*
X026381Y025138D01*
X026381Y025040D02*
X026241Y025040D01*
X026172Y024941D02*
X026381Y024941D01*
X026423Y025631D02*
X025045Y025631D01*
X025144Y025532D02*
X025603Y025532D01*
X025505Y025434D02*
X025242Y025434D01*
X025301Y025335D02*
X025421Y025335D01*
X025421Y025237D02*
X025301Y025237D01*
X025301Y025138D02*
X025421Y025138D01*
X025421Y025040D02*
X025301Y025040D01*
X025257Y024941D02*
X025490Y024941D01*
X025589Y024843D02*
X025158Y024843D01*
X024692Y025729D02*
X026484Y025729D01*
X026541Y025828D02*
X024594Y025828D01*
X024495Y025926D02*
X025686Y025926D01*
X025576Y026025D02*
X024397Y026025D01*
X024298Y026123D02*
X025478Y026123D01*
X025379Y026222D02*
X024200Y026222D01*
X024121Y026320D02*
X025055Y026320D01*
X024956Y026419D02*
X024206Y026419D01*
X024281Y026517D02*
X024881Y026517D01*
X024881Y026616D02*
X024281Y026616D01*
X024281Y026714D02*
X024881Y026714D01*
X024881Y026813D02*
X024281Y026813D01*
X025781Y027502D02*
X026573Y027502D01*
X026475Y027404D02*
X026018Y027404D01*
X026116Y027305D02*
X026421Y027305D01*
X026421Y027108D02*
X026313Y027108D01*
X026412Y027010D02*
X026422Y027010D01*
X026215Y027207D02*
X026801Y027207D01*
X026861Y027207D02*
X027381Y027207D01*
X027381Y027305D02*
X027241Y027305D01*
X027187Y027404D02*
X027418Y027404D01*
X027517Y027502D02*
X027089Y027502D01*
X027119Y027699D02*
X025781Y027699D01*
X025781Y027601D02*
X027500Y027601D01*
X027349Y027108D02*
X027241Y027108D01*
X027240Y027010D02*
X027250Y027010D01*
X026861Y027305D02*
X026801Y027305D01*
X026801Y027404D02*
X026861Y027404D01*
X026861Y027502D02*
X026801Y027502D01*
X027020Y027798D02*
X025781Y027798D01*
X025751Y027896D02*
X026922Y027896D01*
X026841Y027995D02*
X025653Y027995D01*
X025621Y028093D02*
X026841Y028093D01*
X026841Y028192D02*
X025621Y028192D01*
X026077Y028290D02*
X026841Y028290D01*
X026847Y028389D02*
X026176Y028389D01*
X026274Y028487D02*
X026945Y028487D01*
X027044Y028586D02*
X026281Y028586D01*
X026281Y028684D02*
X028421Y028684D01*
X028421Y028762D02*
X028421Y028598D01*
X028483Y028448D01*
X028599Y028332D01*
X028749Y028270D01*
X028913Y028270D01*
X029063Y028332D01*
X029179Y028448D01*
X029241Y028598D01*
X029241Y028762D01*
X029179Y028912D01*
X029063Y029028D01*
X028913Y029090D01*
X028749Y029090D01*
X028599Y029028D01*
X028483Y028912D01*
X028421Y028762D01*
X028430Y028783D02*
X026344Y028783D01*
X026442Y028881D02*
X028470Y028881D01*
X028551Y028980D02*
X026541Y028980D01*
X026639Y029078D02*
X028721Y029078D01*
X028941Y029078D02*
X034221Y029078D01*
X034221Y028980D02*
X029111Y028980D01*
X029191Y028881D02*
X034221Y028881D01*
X034221Y028783D02*
X029232Y028783D01*
X029241Y028684D02*
X034221Y028684D01*
X034221Y028586D02*
X029236Y028586D01*
X029195Y028487D02*
X034221Y028487D01*
X034221Y028389D02*
X029119Y028389D01*
X028961Y028290D02*
X034221Y028290D01*
X034221Y028192D02*
X027821Y028192D01*
X027821Y028290D02*
X028701Y028290D01*
X028543Y028389D02*
X027815Y028389D01*
X027717Y028487D02*
X028467Y028487D01*
X028426Y028586D02*
X027618Y028586D01*
X027828Y028093D02*
X034221Y028093D01*
X034221Y027995D02*
X027927Y027995D01*
X028025Y027896D02*
X034221Y027896D01*
X034221Y027798D02*
X028096Y027798D01*
X029047Y027601D02*
X029615Y027601D01*
X029517Y027502D02*
X029145Y027502D01*
X029100Y026813D02*
X029541Y026813D01*
X027591Y025828D02*
X027121Y025828D01*
X027178Y025729D02*
X027484Y025729D01*
X027423Y025631D02*
X027239Y025631D01*
X027280Y025532D02*
X027382Y025532D01*
X027381Y025434D02*
X027281Y025434D01*
X027281Y025335D02*
X027381Y025335D01*
X027381Y025237D02*
X027281Y025237D01*
X027281Y025138D02*
X027381Y025138D01*
X027381Y025040D02*
X027281Y025040D01*
X027281Y024941D02*
X027381Y024941D01*
X027381Y024843D02*
X027281Y024843D01*
X027245Y024744D02*
X027417Y024744D01*
X027469Y024646D02*
X027193Y024646D01*
X027094Y024547D02*
X027568Y024547D01*
X026084Y023956D02*
X025017Y023956D01*
X024919Y023858D02*
X025985Y023858D01*
X025887Y023759D02*
X024820Y023759D01*
X024722Y023661D02*
X025788Y023661D01*
X025577Y023562D02*
X025029Y023562D01*
X025127Y023464D02*
X025478Y023464D01*
X025381Y023365D02*
X025226Y023365D01*
X025241Y023267D02*
X025381Y023267D01*
X025381Y023168D02*
X024861Y023168D01*
X024861Y023150D02*
X025241Y023150D01*
X025241Y023010D01*
X025001Y022770D01*
X024861Y022770D01*
X024861Y023150D01*
X024861Y023070D02*
X024801Y023070D01*
X024801Y022971D02*
X024861Y022971D01*
X024861Y022873D02*
X024801Y022873D01*
X024801Y022774D02*
X024861Y022774D01*
X025005Y022774D02*
X025461Y022774D01*
X025461Y022676D02*
X024621Y022676D01*
X024621Y022774D02*
X024657Y022774D01*
X024602Y022577D02*
X025461Y022577D01*
X025461Y022479D02*
X024540Y022479D01*
X024441Y022380D02*
X025461Y022380D01*
X025409Y022282D02*
X024343Y022282D01*
X024281Y022183D02*
X025311Y022183D01*
X025212Y022085D02*
X024281Y022085D01*
X024281Y021986D02*
X025114Y021986D01*
X025015Y021888D02*
X024281Y021888D01*
X024264Y021789D02*
X024917Y021789D01*
X024818Y021691D02*
X024223Y021691D01*
X024139Y021592D02*
X024720Y021592D01*
X025103Y022873D02*
X025461Y022873D01*
X025404Y022971D02*
X025202Y022971D01*
X025241Y023070D02*
X025381Y023070D01*
X024861Y023267D02*
X024801Y023267D01*
X024801Y023365D02*
X024861Y023365D01*
X024861Y023464D02*
X024801Y023464D01*
X024801Y023562D02*
X024861Y023562D01*
X024633Y023562D02*
X024623Y023562D01*
X023475Y019721D02*
X023187Y019721D01*
X023243Y019622D02*
X023419Y019622D01*
X023381Y019524D02*
X023281Y019524D01*
X023281Y019425D02*
X023381Y019425D01*
X023381Y019327D02*
X023281Y019327D01*
X023281Y019228D02*
X023381Y019228D01*
X023381Y019130D02*
X023281Y019130D01*
X023281Y019031D02*
X023381Y019031D01*
X023381Y018933D02*
X023281Y018933D01*
X023281Y018834D02*
X023381Y018834D01*
X023420Y018736D02*
X023242Y018736D01*
X023184Y018637D02*
X023478Y018637D01*
X023541Y018539D02*
X023121Y018539D01*
X023121Y018440D02*
X023541Y018440D01*
X023541Y018342D02*
X023121Y018342D01*
X023121Y018243D02*
X023541Y018243D01*
X023541Y018145D02*
X023121Y018145D01*
X023121Y018046D02*
X023541Y018046D01*
X023541Y017948D02*
X023143Y017948D01*
X023205Y017849D02*
X023541Y017849D01*
X023541Y017751D02*
X023241Y017751D01*
X023241Y017652D02*
X023541Y017652D01*
X023541Y017554D02*
X023222Y017554D01*
X023182Y017455D02*
X023541Y017455D01*
X023541Y017357D02*
X023087Y017357D01*
X022575Y017357D02*
X019087Y017357D01*
X019182Y017455D02*
X022480Y017455D01*
X022440Y017554D02*
X019222Y017554D01*
X019241Y017652D02*
X022421Y017652D01*
X022421Y017751D02*
X019241Y017751D01*
X019205Y017849D02*
X022457Y017849D01*
X022519Y017948D02*
X019143Y017948D01*
X019184Y018637D02*
X019534Y018637D01*
X019465Y018736D02*
X019242Y018736D01*
X019281Y018834D02*
X019429Y018834D01*
X019421Y018933D02*
X019281Y018933D01*
X019281Y019031D02*
X019421Y019031D01*
X019421Y019130D02*
X019281Y019130D01*
X019281Y019228D02*
X019421Y019228D01*
X019421Y019327D02*
X019281Y019327D01*
X019281Y019425D02*
X019421Y019425D01*
X019429Y019524D02*
X019281Y019524D01*
X019243Y019622D02*
X019464Y019622D01*
X019532Y019721D02*
X019187Y019721D01*
X019801Y019130D02*
X019861Y019130D01*
X019861Y019031D02*
X019801Y019031D01*
X019801Y018933D02*
X019861Y018933D01*
X019861Y018834D02*
X019801Y018834D01*
X019801Y018736D02*
X019861Y018736D01*
X019861Y018637D02*
X019801Y018637D01*
X020128Y018637D02*
X020478Y018637D01*
X020420Y018736D02*
X020197Y018736D01*
X020232Y018834D02*
X020381Y018834D01*
X020381Y018933D02*
X020241Y018933D01*
X020241Y019031D02*
X020381Y019031D01*
X020381Y019130D02*
X020241Y019130D01*
X020241Y019228D02*
X020381Y019228D01*
X020381Y019327D02*
X020241Y019327D01*
X020241Y019425D02*
X020381Y019425D01*
X020381Y019524D02*
X020233Y019524D01*
X020198Y019622D02*
X020419Y019622D01*
X020461Y019721D02*
X020130Y019721D01*
X021201Y019721D02*
X021532Y019721D01*
X021518Y019707D02*
X021480Y019655D01*
X021451Y019597D01*
X021431Y019536D01*
X021421Y019472D01*
X021421Y019210D01*
X021801Y019210D01*
X021801Y019150D01*
X021861Y019150D01*
X021861Y019210D01*
X022241Y019210D01*
X022241Y019472D01*
X022231Y019536D01*
X022211Y019597D01*
X022182Y019655D01*
X022144Y019707D01*
X022098Y019753D01*
X022046Y019791D01*
X022008Y019810D01*
X022565Y019810D01*
X022449Y019695D01*
X022381Y019530D01*
X022381Y018830D01*
X022449Y018665D01*
X022541Y018574D01*
X022541Y017970D01*
X022541Y018539D02*
X021984Y018539D01*
X021988Y018540D02*
X022046Y018569D01*
X022098Y018607D01*
X022144Y018653D01*
X022182Y018705D01*
X022211Y018763D01*
X022231Y018824D01*
X022241Y018888D01*
X022241Y019150D01*
X021861Y019150D01*
X021861Y018510D01*
X021863Y018510D01*
X021927Y018520D01*
X021988Y018540D01*
X021861Y018539D02*
X021801Y018539D01*
X021801Y018510D02*
X021801Y019150D01*
X021421Y019150D01*
X021421Y018888D01*
X021431Y018824D01*
X021451Y018763D01*
X021480Y018705D01*
X021518Y018653D01*
X021564Y018607D01*
X021616Y018569D01*
X021674Y018540D01*
X021735Y018520D01*
X021799Y018510D01*
X021801Y018510D01*
X021678Y018539D02*
X021086Y018539D01*
X021212Y018665D01*
X021281Y018830D01*
X021281Y019530D01*
X021212Y019695D01*
X021201Y019706D01*
X021201Y019810D01*
X021654Y019810D01*
X021616Y019791D01*
X021564Y019753D01*
X021518Y019707D01*
X021464Y019622D02*
X021243Y019622D01*
X021281Y019524D02*
X021429Y019524D01*
X021421Y019425D02*
X021281Y019425D01*
X021281Y019327D02*
X021421Y019327D01*
X021421Y019228D02*
X021281Y019228D01*
X021281Y019130D02*
X021421Y019130D01*
X021421Y019031D02*
X021281Y019031D01*
X021281Y018933D02*
X021421Y018933D01*
X021429Y018834D02*
X021281Y018834D01*
X021242Y018736D02*
X021465Y018736D01*
X021534Y018637D02*
X021184Y018637D01*
X021086Y018539D02*
X020920Y018470D01*
X020741Y018470D01*
X020576Y018539D01*
X021801Y018637D02*
X021861Y018637D01*
X021861Y018736D02*
X021801Y018736D01*
X021801Y018834D02*
X021861Y018834D01*
X021861Y018933D02*
X021801Y018933D01*
X021801Y019031D02*
X021861Y019031D01*
X021861Y019130D02*
X021801Y019130D01*
X022241Y019130D02*
X022381Y019130D01*
X022381Y019228D02*
X022241Y019228D01*
X022241Y019327D02*
X022381Y019327D01*
X022381Y019425D02*
X022241Y019425D01*
X022233Y019524D02*
X022381Y019524D01*
X022419Y019622D02*
X022198Y019622D01*
X022130Y019721D02*
X022475Y019721D01*
X022381Y019031D02*
X022241Y019031D01*
X022241Y018933D02*
X022381Y018933D01*
X022381Y018834D02*
X022232Y018834D01*
X022197Y018736D02*
X022420Y018736D01*
X022478Y018637D02*
X022128Y018637D01*
X021982Y017061D02*
X023541Y017061D01*
X023541Y017160D02*
X019012Y017160D01*
X018913Y017258D02*
X023541Y017258D01*
X023534Y016963D02*
X022128Y016963D01*
X022199Y016864D02*
X023463Y016864D01*
X023423Y016766D02*
X022239Y016766D01*
X022241Y016667D02*
X023408Y016667D01*
X023309Y016569D02*
X022229Y016569D01*
X022188Y016470D02*
X023211Y016470D01*
X023112Y016372D02*
X022102Y016372D01*
X021920Y016273D02*
X023014Y016273D01*
X022915Y016175D02*
X021736Y016175D01*
X021637Y016076D02*
X022817Y016076D01*
X022718Y015978D02*
X021539Y015978D01*
X021440Y015879D02*
X022620Y015879D01*
X022521Y015781D02*
X021342Y015781D01*
X021243Y015682D02*
X022423Y015682D01*
X022324Y015584D02*
X021145Y015584D01*
X021046Y015485D02*
X022226Y015485D01*
X022127Y015387D02*
X016948Y015387D01*
X017046Y015485D02*
X018616Y015485D01*
X018517Y015584D02*
X017145Y015584D01*
X017243Y015682D02*
X018419Y015682D01*
X018320Y015781D02*
X017342Y015781D01*
X017440Y015879D02*
X018222Y015879D01*
X018123Y015978D02*
X017539Y015978D01*
X017637Y016076D02*
X018025Y016076D01*
X017926Y016175D02*
X017736Y016175D01*
X017309Y016569D02*
X016880Y016569D01*
X016978Y016667D02*
X017408Y016667D01*
X017423Y016766D02*
X017077Y016766D01*
X017175Y016864D02*
X017463Y016864D01*
X017534Y016963D02*
X017274Y016963D01*
X017372Y017061D02*
X017679Y017061D01*
X017569Y017258D02*
X018093Y017258D01*
X018191Y017160D02*
X017471Y017160D01*
X017668Y017357D02*
X017994Y017357D01*
X017896Y017455D02*
X017766Y017455D01*
X017982Y017061D02*
X018290Y017061D01*
X018388Y016963D02*
X018128Y016963D01*
X018199Y016864D02*
X018487Y016864D01*
X018585Y016766D02*
X018239Y016766D01*
X018254Y016667D02*
X018684Y016667D01*
X018782Y016569D02*
X018353Y016569D01*
X018451Y016470D02*
X018881Y016470D01*
X018648Y016273D02*
X019742Y016273D01*
X019920Y016273D02*
X021014Y016273D01*
X021112Y016372D02*
X020102Y016372D01*
X020188Y016470D02*
X021211Y016470D01*
X021309Y016569D02*
X020229Y016569D01*
X020241Y016667D02*
X021408Y016667D01*
X021423Y016766D02*
X020239Y016766D01*
X020199Y016864D02*
X021463Y016864D01*
X021534Y016963D02*
X020128Y016963D01*
X019982Y017061D02*
X021679Y017061D01*
X020915Y016175D02*
X018747Y016175D01*
X018845Y016076D02*
X020817Y016076D01*
X020718Y015978D02*
X018944Y015978D01*
X018550Y016372D02*
X019560Y016372D01*
X019679Y017061D02*
X019110Y017061D01*
X017537Y018046D02*
X016241Y018046D01*
X016241Y018010D02*
X016241Y018150D01*
X015861Y018150D01*
X015861Y018210D01*
X016241Y018210D01*
X016241Y018350D01*
X016001Y018590D01*
X015861Y018590D01*
X015861Y018210D01*
X015801Y018210D01*
X015801Y018590D01*
X015661Y018590D01*
X015421Y018350D01*
X015421Y018210D01*
X015801Y018210D01*
X015801Y018150D01*
X015861Y018150D01*
X015861Y017770D01*
X016001Y017770D01*
X016241Y018010D01*
X016178Y017948D02*
X017438Y017948D01*
X017340Y017849D02*
X016080Y017849D01*
X015861Y017849D02*
X015801Y017849D01*
X015801Y017770D02*
X015801Y018150D01*
X015421Y018150D01*
X015421Y018010D01*
X015661Y017770D01*
X015801Y017770D01*
X015801Y017948D02*
X015861Y017948D01*
X015861Y018046D02*
X015801Y018046D01*
X015801Y018145D02*
X015861Y018145D01*
X015861Y018243D02*
X015801Y018243D01*
X015801Y018342D02*
X015861Y018342D01*
X015861Y018440D02*
X015801Y018440D01*
X015801Y018539D02*
X015861Y018539D01*
X016052Y018539D02*
X017541Y018539D01*
X017541Y018440D02*
X016151Y018440D01*
X016241Y018342D02*
X017541Y018342D01*
X017541Y018243D02*
X016241Y018243D01*
X016241Y018145D02*
X017541Y018145D01*
X017478Y018637D02*
X014684Y018637D01*
X014742Y018736D02*
X017420Y018736D01*
X017381Y018834D02*
X014781Y018834D01*
X014781Y018933D02*
X017381Y018933D01*
X017381Y019031D02*
X014781Y019031D01*
X014781Y019130D02*
X017381Y019130D01*
X017381Y019228D02*
X014781Y019228D01*
X014781Y019327D02*
X017381Y019327D01*
X017381Y019425D02*
X014781Y019425D01*
X014781Y019524D02*
X017381Y019524D01*
X017419Y019622D02*
X014743Y019622D01*
X014687Y019721D02*
X017475Y019721D01*
X017523Y021592D02*
X016055Y021592D01*
X015607Y021592D02*
X014639Y021592D01*
X014723Y021691D02*
X017439Y021691D01*
X017398Y021789D02*
X014764Y021789D01*
X014781Y021888D02*
X017381Y021888D01*
X017381Y021986D02*
X014781Y021986D01*
X014781Y022085D02*
X017381Y022085D01*
X017381Y022183D02*
X014781Y022183D01*
X014781Y022282D02*
X017319Y022282D01*
X017221Y022380D02*
X014781Y022380D01*
X014781Y022479D02*
X017122Y022479D01*
X017060Y022577D02*
X014761Y022577D01*
X014720Y022676D02*
X017041Y022676D01*
X017041Y022774D02*
X017005Y022774D01*
X016861Y022774D02*
X016801Y022774D01*
X016801Y022770D02*
X016801Y023150D01*
X016421Y023150D01*
X016421Y023010D01*
X016661Y022770D01*
X016801Y022770D01*
X016801Y022873D02*
X016861Y022873D01*
X016861Y022971D02*
X016801Y022971D01*
X016801Y023070D02*
X016861Y023070D01*
X016801Y023168D02*
X015861Y023168D01*
X015861Y023150D02*
X015861Y023210D01*
X016241Y023210D01*
X016241Y023350D01*
X016001Y023590D01*
X015861Y023590D01*
X015861Y023210D01*
X015801Y023210D01*
X015801Y023590D01*
X015661Y023590D01*
X015421Y023350D01*
X015421Y023210D01*
X015801Y023210D01*
X015801Y023150D01*
X015861Y023150D01*
X016241Y023150D01*
X016241Y023010D01*
X016001Y022770D01*
X015861Y022770D01*
X015861Y023150D01*
X015801Y023150D02*
X015801Y022770D01*
X015661Y022770D01*
X015421Y023010D01*
X015421Y023150D01*
X015801Y023150D01*
X015801Y023168D02*
X014621Y023168D01*
X014621Y023070D02*
X015421Y023070D01*
X015460Y022971D02*
X014621Y022971D01*
X014621Y022873D02*
X015559Y022873D01*
X015657Y022774D02*
X014633Y022774D01*
X014621Y023267D02*
X015421Y023267D01*
X015436Y023365D02*
X014621Y023365D01*
X014621Y023464D02*
X015535Y023464D01*
X015633Y023562D02*
X014621Y023562D01*
X014621Y023661D02*
X017041Y023661D01*
X017041Y023759D02*
X014621Y023759D01*
X014621Y023858D02*
X017041Y023858D01*
X017041Y023956D02*
X014621Y023956D01*
X014621Y024055D02*
X017041Y024055D01*
X017041Y024153D02*
X014621Y024153D01*
X014621Y024252D02*
X017041Y024252D01*
X017041Y024350D02*
X014621Y024350D01*
X014621Y024449D02*
X017041Y024449D01*
X017041Y024547D02*
X014621Y024547D01*
X014621Y024646D02*
X017041Y024646D01*
X017041Y024744D02*
X014621Y024744D01*
X014654Y024843D02*
X017041Y024843D01*
X017041Y024941D02*
X014752Y024941D01*
X014851Y025040D02*
X017041Y025040D01*
X017041Y025138D02*
X014949Y025138D01*
X015048Y025237D02*
X017041Y025237D01*
X017041Y025335D02*
X015146Y025335D01*
X015245Y025434D02*
X017041Y025434D01*
X017041Y025532D02*
X015343Y025532D01*
X015442Y025631D02*
X017041Y025631D01*
X017041Y025729D02*
X015540Y025729D01*
X015639Y025828D02*
X017041Y025828D01*
X017041Y025926D02*
X015737Y025926D01*
X015830Y026025D02*
X017056Y026025D01*
X017114Y026123D02*
X015871Y026123D01*
X015871Y026222D02*
X017212Y026222D01*
X017311Y026320D02*
X015871Y026320D01*
X015871Y026419D02*
X017361Y026419D01*
X017361Y026517D02*
X015871Y026517D01*
X015871Y026616D02*
X017361Y026616D01*
X017450Y026714D02*
X015871Y026714D01*
X015871Y026813D02*
X017541Y026813D01*
X017541Y026911D02*
X015871Y026911D01*
X015871Y027010D02*
X017541Y027010D01*
X017541Y027108D02*
X015871Y027108D01*
X015871Y027207D02*
X016611Y027207D01*
X016513Y027305D02*
X015871Y027305D01*
X015871Y027404D02*
X016414Y027404D01*
X016341Y027502D02*
X015865Y027502D01*
X015821Y027601D02*
X016341Y027601D01*
X016341Y027699D02*
X015722Y027699D01*
X015624Y027798D02*
X016341Y027798D01*
X016354Y027896D02*
X015525Y027896D01*
X015427Y027995D02*
X016453Y027995D01*
X016551Y028093D02*
X015328Y028093D01*
X015230Y028192D02*
X017541Y028192D01*
X017541Y028290D02*
X015131Y028290D01*
X015033Y028389D02*
X017486Y028389D01*
X017388Y028487D02*
X004941Y028487D01*
X004941Y028389D02*
X007629Y028389D01*
X007531Y028290D02*
X004941Y028290D01*
X004941Y028192D02*
X007432Y028192D01*
X007334Y028093D02*
X004941Y028093D01*
X004941Y027995D02*
X007235Y027995D01*
X007137Y027896D02*
X004941Y027896D01*
X004941Y027798D02*
X007038Y027798D01*
X006940Y027699D02*
X004941Y027699D01*
X004941Y027601D02*
X006841Y027601D01*
X006743Y027502D02*
X004941Y027502D01*
X004941Y027404D02*
X006644Y027404D01*
X006546Y027305D02*
X004941Y027305D01*
X004941Y027207D02*
X006447Y027207D01*
X006349Y027108D02*
X004941Y027108D01*
X004941Y027010D02*
X006250Y027010D01*
X006152Y026911D02*
X004941Y026911D01*
X004941Y026813D02*
X006072Y026813D01*
X006041Y026714D02*
X004941Y026714D01*
X004941Y026616D02*
X006041Y026616D01*
X006041Y026517D02*
X004941Y026517D01*
X004941Y026419D02*
X006041Y026419D01*
X006041Y026320D02*
X004941Y026320D01*
X004941Y026222D02*
X006041Y026222D01*
X006041Y026123D02*
X004941Y026123D01*
X004941Y026025D02*
X006041Y026025D01*
X006041Y025926D02*
X004941Y025926D01*
X004941Y025828D02*
X006041Y025828D01*
X006041Y025729D02*
X004941Y025729D01*
X004941Y025631D02*
X006041Y025631D01*
X006041Y025532D02*
X004941Y025532D01*
X004941Y025434D02*
X006041Y025434D01*
X006041Y025335D02*
X004941Y025335D01*
X004941Y025237D02*
X006041Y025237D01*
X006041Y025138D02*
X004941Y025138D01*
X004941Y025040D02*
X006041Y025040D01*
X006041Y024941D02*
X004941Y024941D01*
X004941Y024843D02*
X006041Y024843D01*
X006041Y024744D02*
X004941Y024744D01*
X004941Y024646D02*
X006041Y024646D01*
X006041Y024547D02*
X004941Y024547D01*
X004941Y024449D02*
X006041Y024449D01*
X006041Y024350D02*
X004941Y024350D01*
X004941Y024252D02*
X006041Y024252D01*
X006041Y024153D02*
X004941Y024153D01*
X004941Y024055D02*
X006041Y024055D01*
X006041Y023956D02*
X004941Y023956D01*
X004941Y023858D02*
X006041Y023858D01*
X006041Y023759D02*
X004941Y023759D01*
X004941Y023661D02*
X006041Y023661D01*
X006041Y023562D02*
X004941Y023562D01*
X004941Y023464D02*
X006041Y023464D01*
X006041Y023365D02*
X004941Y023365D01*
X004941Y023267D02*
X006041Y023267D01*
X006041Y023168D02*
X004941Y023168D01*
X004941Y023070D02*
X006041Y023070D01*
X006041Y022971D02*
X004941Y022971D01*
X004941Y022873D02*
X006041Y022873D01*
X006041Y022774D02*
X004941Y022774D01*
X004941Y022676D02*
X006041Y022676D01*
X006041Y022577D02*
X004941Y022577D01*
X004941Y022479D02*
X006041Y022479D01*
X006041Y022380D02*
X004941Y022380D01*
X004941Y022282D02*
X006041Y022282D01*
X006041Y022183D02*
X004941Y022183D01*
X004941Y022085D02*
X006041Y022085D01*
X006041Y021986D02*
X004941Y021986D01*
X004941Y021888D02*
X006041Y021888D01*
X006041Y021789D02*
X004941Y021789D01*
X004941Y021691D02*
X006041Y021691D01*
X006041Y021592D02*
X004941Y021592D01*
X004941Y021494D02*
X006041Y021494D01*
X006041Y021395D02*
X004941Y021395D01*
X004941Y021297D02*
X006041Y021297D01*
X006041Y021198D02*
X004941Y021198D01*
X004941Y021100D02*
X006041Y021100D01*
X006041Y021001D02*
X004941Y021001D01*
X004941Y020903D02*
X006041Y020903D01*
X006041Y020804D02*
X004941Y020804D01*
X004941Y020706D02*
X006041Y020706D01*
X006041Y020607D02*
X004941Y020607D01*
X004941Y020509D02*
X006041Y020509D01*
X006041Y020410D02*
X004941Y020410D01*
X004941Y020312D02*
X006041Y020312D01*
X006041Y020213D02*
X004941Y020213D01*
X004941Y020115D02*
X006041Y020115D01*
X006041Y020016D02*
X004941Y020016D01*
X004941Y019918D02*
X006041Y019918D01*
X006041Y019819D02*
X004941Y019819D01*
X004941Y019721D02*
X006041Y019721D01*
X006041Y019622D02*
X004941Y019622D01*
X004941Y019524D02*
X006041Y019524D01*
X006041Y019425D02*
X004941Y019425D01*
X004941Y019327D02*
X006041Y019327D01*
X006041Y019228D02*
X004941Y019228D01*
X004941Y019130D02*
X006041Y019130D01*
X006041Y019031D02*
X004941Y019031D01*
X004941Y018933D02*
X006041Y018933D01*
X006041Y018834D02*
X004941Y018834D01*
X004941Y018736D02*
X006041Y018736D01*
X006041Y018637D02*
X004941Y018637D01*
X004941Y018539D02*
X006041Y018539D01*
X006041Y018440D02*
X004941Y018440D01*
X004941Y018342D02*
X006041Y018342D01*
X006041Y018243D02*
X004941Y018243D01*
X004941Y018145D02*
X006041Y018145D01*
X006041Y018046D02*
X004941Y018046D01*
X004941Y017948D02*
X006041Y017948D01*
X006041Y017849D02*
X004941Y017849D01*
X004941Y017751D02*
X006041Y017751D01*
X006041Y017652D02*
X004941Y017652D01*
X004941Y017554D02*
X006041Y017554D01*
X006041Y017455D02*
X004941Y017455D01*
X004941Y017357D02*
X006041Y017357D01*
X006041Y017258D02*
X004941Y017258D01*
X004941Y017160D02*
X006041Y017160D01*
X006041Y017061D02*
X004941Y017061D01*
X004941Y016963D02*
X006041Y016963D01*
X006041Y016864D02*
X004941Y016864D01*
X004941Y016766D02*
X006041Y016766D01*
X006041Y016667D02*
X004941Y016667D01*
X004941Y016569D02*
X006041Y016569D01*
X006041Y016470D02*
X004941Y016470D01*
X004941Y016372D02*
X006041Y016372D01*
X006041Y016273D02*
X004941Y016273D01*
X004941Y016175D02*
X006041Y016175D01*
X006041Y016076D02*
X004941Y016076D01*
X004941Y015978D02*
X006041Y015978D01*
X006041Y015879D02*
X004941Y015879D01*
X004941Y015781D02*
X006041Y015781D01*
X006041Y015682D02*
X004941Y015682D01*
X004941Y015584D02*
X006057Y015584D01*
X006116Y015485D02*
X004941Y015485D01*
X004941Y015387D02*
X006214Y015387D01*
X006167Y015434D02*
X006167Y015434D01*
X006313Y015288D02*
X004941Y015288D01*
X004941Y015190D02*
X006411Y015190D01*
X006510Y015091D02*
X004941Y015091D01*
X004941Y014993D02*
X006608Y014993D01*
X006707Y014894D02*
X004941Y014894D01*
X004941Y014796D02*
X006805Y014796D01*
X006904Y014697D02*
X004941Y014697D01*
X004941Y014599D02*
X007002Y014599D01*
X007101Y014500D02*
X004941Y014500D01*
X004941Y014402D02*
X007199Y014402D01*
X007298Y014303D02*
X004941Y014303D01*
X004941Y014205D02*
X007396Y014205D01*
X007495Y014106D02*
X004941Y014106D01*
X004941Y014008D02*
X007593Y014008D01*
X007692Y013909D02*
X004941Y013909D01*
X004941Y013811D02*
X007790Y013811D01*
X007889Y013712D02*
X004941Y013712D01*
X004941Y013614D02*
X007987Y013614D01*
X008086Y013515D02*
X004941Y013515D01*
X004941Y013417D02*
X008184Y013417D01*
X008283Y013318D02*
X004941Y013318D01*
X004941Y013220D02*
X008381Y013220D01*
X008480Y013121D02*
X004941Y013121D01*
X004941Y013023D02*
X008578Y013023D01*
X008691Y012924D02*
X004941Y012924D01*
X004941Y012826D02*
X010603Y012826D01*
X010606Y012828D02*
X010551Y012788D01*
X010503Y012740D01*
X010463Y012685D01*
X010432Y012625D01*
X010412Y012561D01*
X010401Y012494D01*
X010401Y012220D01*
X010791Y012220D01*
X010791Y012889D01*
X010730Y012879D01*
X010666Y012858D01*
X010606Y012828D01*
X010493Y012727D02*
X004941Y012727D01*
X004941Y012629D02*
X010434Y012629D01*
X010407Y012530D02*
X004941Y012530D01*
X004941Y012432D02*
X010401Y012432D01*
X010401Y012333D02*
X004941Y012333D01*
X004941Y012235D02*
X010401Y012235D01*
X010401Y012140D02*
X010401Y011866D01*
X010412Y011799D01*
X010432Y011735D01*
X010463Y011675D01*
X010503Y011620D01*
X010551Y011572D01*
X010606Y011532D01*
X010666Y011502D01*
X010730Y011481D01*
X010791Y011471D01*
X010791Y012140D01*
X010871Y012140D01*
X010871Y012220D01*
X011261Y012220D01*
X011261Y012494D01*
X011250Y012561D01*
X011229Y012625D01*
X011199Y012685D01*
X011159Y012740D01*
X011111Y012788D01*
X011056Y012828D01*
X010996Y012858D01*
X010932Y012879D01*
X010871Y012889D01*
X010871Y012220D01*
X010791Y012220D01*
X010791Y012140D01*
X010401Y012140D01*
X010401Y012136D02*
X004941Y012136D01*
X004941Y012038D02*
X010401Y012038D01*
X010401Y011939D02*
X004941Y011939D01*
X004941Y011841D02*
X010405Y011841D01*
X010430Y011742D02*
X004941Y011742D01*
X004941Y011644D02*
X010486Y011644D01*
X010588Y011545D02*
X004941Y011545D01*
X004941Y011447D02*
X011541Y011447D01*
X011541Y011348D02*
X004941Y011348D01*
X004941Y011250D02*
X011541Y011250D01*
X011541Y011151D02*
X004941Y011151D01*
X004941Y011053D02*
X011541Y011053D01*
X011541Y010954D02*
X004941Y010954D01*
X004941Y010856D02*
X006528Y010856D01*
X006412Y010807D02*
X006204Y010599D01*
X006091Y010327D01*
X006091Y010033D01*
X006204Y009761D01*
X006412Y009553D01*
X006684Y009440D01*
X006978Y009440D01*
X007250Y009553D01*
X007458Y009761D01*
X007571Y010033D01*
X007571Y010327D01*
X007458Y010599D01*
X007250Y010807D01*
X006978Y010920D01*
X006684Y010920D01*
X006412Y010807D01*
X006362Y010757D02*
X004941Y010757D01*
X004941Y010659D02*
X006263Y010659D01*
X006187Y010560D02*
X004941Y010560D01*
X004941Y010462D02*
X006147Y010462D01*
X006106Y010363D02*
X004941Y010363D01*
X004941Y010265D02*
X006091Y010265D01*
X006091Y010166D02*
X004941Y010166D01*
X004941Y010068D02*
X006091Y010068D01*
X006117Y009969D02*
X004941Y009969D01*
X004941Y009871D02*
X006158Y009871D01*
X006199Y009772D02*
X004941Y009772D01*
X004941Y009674D02*
X006291Y009674D01*
X006390Y009575D02*
X004941Y009575D01*
X004941Y009477D02*
X006596Y009477D01*
X007066Y009477D02*
X010401Y009477D01*
X010401Y009575D02*
X007272Y009575D01*
X007371Y009674D02*
X010791Y009674D01*
X010791Y009640D02*
X010401Y009640D01*
X010401Y009366D01*
X010412Y009299D01*
X010432Y009235D01*
X010463Y009175D01*
X010503Y009120D01*
X010551Y009072D01*
X010606Y009032D01*
X010666Y009002D01*
X010730Y008981D01*
X010791Y008971D01*
X010791Y009640D01*
X010871Y009640D01*
X010871Y009720D01*
X011261Y009720D01*
X011261Y009994D01*
X011250Y010061D01*
X011229Y010125D01*
X011199Y010185D01*
X011159Y010240D01*
X011111Y010288D01*
X011056Y010328D01*
X010996Y010358D01*
X010932Y010379D01*
X010871Y010389D01*
X010871Y009720D01*
X010791Y009720D01*
X010791Y010389D01*
X010730Y010379D01*
X010666Y010358D01*
X010606Y010328D01*
X010551Y010288D01*
X010503Y010240D01*
X010463Y010185D01*
X010432Y010125D01*
X010412Y010061D01*
X010401Y009994D01*
X010401Y009720D01*
X010791Y009720D01*
X010791Y009640D01*
X010791Y009575D02*
X010871Y009575D01*
X010871Y009640D02*
X010871Y008971D01*
X010932Y008981D01*
X010996Y009002D01*
X011056Y009032D01*
X011111Y009072D01*
X011159Y009120D01*
X011199Y009175D01*
X011229Y009235D01*
X011250Y009299D01*
X011261Y009366D01*
X011261Y009640D01*
X010871Y009640D01*
X010871Y009674D02*
X011361Y009674D01*
X011361Y009772D02*
X011261Y009772D01*
X011261Y009871D02*
X011361Y009871D01*
X011361Y009969D02*
X011261Y009969D01*
X011248Y010068D02*
X011367Y010068D01*
X011408Y010166D02*
X011209Y010166D01*
X011135Y010265D02*
X011471Y010265D01*
X011541Y010363D02*
X010982Y010363D01*
X010871Y010363D02*
X010791Y010363D01*
X010791Y010265D02*
X010871Y010265D01*
X010871Y010166D02*
X010791Y010166D01*
X010791Y010068D02*
X010871Y010068D01*
X010871Y009969D02*
X010791Y009969D01*
X010791Y009871D02*
X010871Y009871D01*
X010871Y009772D02*
X010791Y009772D01*
X010791Y009477D02*
X010871Y009477D01*
X010871Y009378D02*
X010791Y009378D01*
X010791Y009280D02*
X010871Y009280D01*
X010871Y009181D02*
X010791Y009181D01*
X010791Y009083D02*
X010871Y009083D01*
X010871Y008984D02*
X010791Y008984D01*
X010720Y008984D02*
X004941Y008984D01*
X004941Y008886D02*
X018673Y008886D01*
X018683Y008905D02*
X018652Y008845D01*
X018632Y008781D01*
X018622Y008720D01*
X019291Y008720D01*
X019291Y009110D01*
X019017Y009110D01*
X018950Y009099D01*
X018886Y009078D01*
X018826Y009048D01*
X018771Y009008D01*
X018723Y008960D01*
X018683Y008905D01*
X018747Y008984D02*
X017055Y008984D01*
X017178Y009083D02*
X018898Y009083D01*
X019291Y009083D02*
X019371Y009083D01*
X019371Y009110D02*
X019371Y008720D01*
X020040Y008720D01*
X020030Y008781D01*
X020009Y008845D01*
X019979Y008905D01*
X019939Y008960D01*
X019891Y009008D01*
X019836Y009048D01*
X019776Y009078D01*
X019712Y009099D01*
X019645Y009110D01*
X019371Y009110D01*
X019371Y008984D02*
X019291Y008984D01*
X019291Y008886D02*
X019371Y008886D01*
X019371Y008787D02*
X019291Y008787D01*
X019291Y008720D02*
X019371Y008720D01*
X019371Y008640D01*
X020040Y008640D01*
X020030Y008579D01*
X020009Y008515D01*
X019979Y008455D01*
X019939Y008400D01*
X019891Y008352D01*
X019836Y008312D01*
X019776Y008282D01*
X019712Y008261D01*
X019645Y008250D01*
X019371Y008250D01*
X019371Y008640D01*
X019291Y008640D01*
X019291Y008250D01*
X019017Y008250D01*
X018950Y008261D01*
X018886Y008282D01*
X018826Y008312D01*
X018771Y008352D01*
X018723Y008400D01*
X018683Y008455D01*
X018652Y008515D01*
X018632Y008579D01*
X018622Y008640D01*
X019291Y008640D01*
X019291Y008720D01*
X019291Y008689D02*
X004941Y008689D01*
X004941Y008787D02*
X018634Y008787D01*
X018630Y008590D02*
X004941Y008590D01*
X004941Y008492D02*
X018664Y008492D01*
X018730Y008393D02*
X004941Y008393D01*
X004941Y008295D02*
X018860Y008295D01*
X019291Y008295D02*
X019371Y008295D01*
X019371Y008393D02*
X019291Y008393D01*
X019291Y008492D02*
X019371Y008492D01*
X019371Y008590D02*
X019291Y008590D01*
X019371Y008689D02*
X025316Y008689D01*
X025381Y008787D02*
X020028Y008787D01*
X019989Y008886D02*
X025400Y008886D01*
X025499Y008984D02*
X019915Y008984D01*
X019764Y009083D02*
X025597Y009083D01*
X025218Y008590D02*
X020032Y008590D01*
X019998Y008492D02*
X025119Y008492D01*
X025021Y008393D02*
X019932Y008393D01*
X019802Y008295D02*
X024922Y008295D01*
X024824Y008196D02*
X004941Y008196D01*
X004941Y007605D02*
X005620Y007605D01*
X005521Y007507D02*
X004941Y007507D01*
X004941Y007408D02*
X005423Y007408D01*
X005381Y007310D02*
X004941Y007310D01*
X004941Y007211D02*
X005381Y007211D01*
X005381Y007113D02*
X004941Y007113D01*
X004941Y007014D02*
X005381Y007014D01*
X005459Y006916D02*
X004941Y006916D01*
X004941Y006817D02*
X005541Y006817D01*
X005541Y006719D02*
X004941Y006719D01*
X004941Y006620D02*
X005541Y006620D01*
X005541Y006522D02*
X004941Y006522D01*
X004941Y006423D02*
X005541Y006423D01*
X005541Y006325D02*
X004941Y006325D01*
X004941Y006226D02*
X005541Y006226D01*
X005541Y006128D02*
X004941Y006128D01*
X004941Y006029D02*
X005580Y006029D01*
X005670Y005931D02*
X004941Y005931D01*
X004941Y005832D02*
X005769Y005832D01*
X005867Y005734D02*
X004941Y005734D01*
X004941Y005635D02*
X005966Y005635D01*
X006064Y005537D02*
X004941Y005537D01*
X004941Y005438D02*
X006163Y005438D01*
X006261Y005340D02*
X004941Y005340D01*
X004941Y002877D02*
X034221Y002877D01*
X034221Y002976D02*
X020037Y002976D01*
X020135Y003074D02*
X034221Y003074D01*
X034221Y003173D02*
X020234Y003173D01*
X020332Y003271D02*
X034221Y003271D01*
X034221Y003370D02*
X020448Y003370D01*
X020518Y003468D02*
X034221Y003468D01*
X034221Y003567D02*
X021127Y003567D01*
X021253Y003665D02*
X034221Y003665D01*
X034221Y003764D02*
X031761Y003764D01*
X032030Y003862D02*
X034221Y003862D01*
X034221Y003961D02*
X032135Y003961D01*
X032233Y004059D02*
X034221Y004059D01*
X034221Y004158D02*
X032332Y004158D01*
X032430Y004256D02*
X034221Y004256D01*
X034221Y004355D02*
X032529Y004355D01*
X032627Y004453D02*
X034221Y004453D01*
X034221Y004552D02*
X032678Y004552D01*
X032701Y004650D02*
X034221Y004650D01*
X034221Y004749D02*
X032701Y004749D01*
X032701Y004847D02*
X034221Y004847D01*
X034221Y004946D02*
X032701Y004946D01*
X032701Y005044D02*
X034221Y005044D01*
X034221Y005143D02*
X032701Y005143D01*
X032701Y005241D02*
X034221Y005241D01*
X034221Y005340D02*
X032701Y005340D01*
X032701Y005438D02*
X034221Y005438D01*
X034221Y005537D02*
X032701Y005537D01*
X032701Y005635D02*
X034221Y005635D01*
X034221Y005734D02*
X032701Y005734D01*
X032668Y005832D02*
X034221Y005832D01*
X034221Y005931D02*
X032604Y005931D01*
X032505Y006029D02*
X034221Y006029D01*
X034221Y006128D02*
X032407Y006128D01*
X032308Y006226D02*
X034221Y006226D01*
X034221Y006325D02*
X032210Y006325D01*
X032111Y006423D02*
X034221Y006423D01*
X034221Y006522D02*
X031973Y006522D01*
X031864Y006817D02*
X034221Y006817D01*
X034221Y006719D02*
X029351Y006719D01*
X029337Y006817D02*
X030240Y006817D01*
X030072Y006916D02*
X029296Y006916D01*
X029232Y007014D02*
X029974Y007014D01*
X029875Y007113D02*
X029201Y007113D01*
X029201Y007211D02*
X029777Y007211D01*
X029678Y007310D02*
X029201Y007310D01*
X029201Y007408D02*
X029580Y007408D01*
X029502Y007507D02*
X029201Y007507D01*
X029201Y007605D02*
X029462Y007605D01*
X029461Y007704D02*
X029201Y007704D01*
X029201Y007802D02*
X029461Y007802D01*
X029461Y007901D02*
X029201Y007901D01*
X029201Y008196D02*
X029461Y008196D01*
X029461Y008295D02*
X029201Y008295D01*
X029201Y008393D02*
X029461Y008393D01*
X029461Y008492D02*
X029279Y008492D01*
X029281Y008590D02*
X029461Y008590D01*
X029461Y008689D02*
X029281Y008689D01*
X029281Y008787D02*
X029461Y008787D01*
X029461Y008886D02*
X029262Y008886D01*
X029163Y008984D02*
X029461Y008984D01*
X030201Y008590D02*
X034221Y008590D01*
X034221Y008492D02*
X031859Y008492D01*
X031943Y008393D02*
X034221Y008393D01*
X034221Y008295D02*
X031985Y008295D01*
X031948Y007901D02*
X034221Y007901D01*
X034221Y007802D02*
X031849Y007802D01*
X031741Y007605D02*
X034221Y007605D01*
X034221Y007507D02*
X031901Y007507D01*
X031984Y007408D02*
X034221Y007408D01*
X034221Y007310D02*
X032024Y007310D01*
X032041Y007211D02*
X034221Y007211D01*
X034221Y007113D02*
X032041Y007113D01*
X032009Y007014D02*
X034221Y007014D01*
X034221Y006916D02*
X031963Y006916D01*
X031754Y005734D02*
X029308Y005734D01*
X029289Y005537D02*
X030868Y005537D01*
X030752Y005438D02*
X029246Y005438D01*
X029169Y005340D02*
X030692Y005340D01*
X030666Y005241D02*
X029027Y005241D01*
X029073Y005143D02*
X030662Y005143D01*
X030684Y005044D02*
X029202Y005044D01*
X029284Y004946D02*
X030735Y004946D01*
X030832Y004847D02*
X029325Y004847D01*
X029351Y004749D02*
X031876Y004749D01*
X031830Y004847D02*
X031961Y004847D01*
X031961Y004946D02*
X031927Y004946D01*
X031778Y004650D02*
X029351Y004650D01*
X029341Y004552D02*
X030806Y004552D01*
X030708Y004453D02*
X029300Y004453D01*
X029241Y004355D02*
X030656Y004355D01*
X030621Y004256D02*
X029142Y004256D01*
X028520Y004256D02*
X021192Y004256D01*
X021290Y004158D02*
X030621Y004158D01*
X030634Y004059D02*
X021330Y004059D01*
X021350Y003961D02*
X030675Y003961D01*
X030753Y003862D02*
X021350Y003862D01*
X021315Y003764D02*
X030901Y003764D01*
X031301Y004847D02*
X031361Y004847D01*
X031361Y004946D02*
X031301Y004946D01*
X031301Y005044D02*
X031361Y005044D01*
X031361Y005143D02*
X031301Y005143D01*
X031301Y005241D02*
X031361Y005241D01*
X031361Y005340D02*
X031301Y005340D01*
X031301Y005438D02*
X031361Y005438D01*
X031361Y005537D02*
X031301Y005537D01*
X031794Y005537D02*
X031951Y005537D01*
X031961Y005438D02*
X031910Y005438D01*
X031853Y005635D02*
X028879Y005635D01*
X028783Y005635D02*
X025182Y005635D01*
X025241Y005734D02*
X028353Y005734D01*
X028376Y005832D02*
X025281Y005832D01*
X025281Y005931D02*
X028420Y005931D01*
X028501Y006029D02*
X025281Y006029D01*
X025281Y006128D02*
X028655Y006128D01*
X028783Y006128D02*
X028860Y006128D01*
X028879Y006029D02*
X028783Y006029D01*
X028783Y005931D02*
X028879Y005931D01*
X028879Y005832D02*
X028783Y005832D01*
X028783Y005734D02*
X028879Y005734D01*
X028879Y005537D02*
X028783Y005537D01*
X028783Y005438D02*
X028879Y005438D01*
X028879Y005340D02*
X028783Y005340D01*
X028783Y005241D02*
X028879Y005241D01*
X028635Y005241D02*
X019293Y005241D01*
X019195Y005340D02*
X028493Y005340D01*
X028416Y005438D02*
X019096Y005438D01*
X019392Y005143D02*
X028589Y005143D01*
X028460Y005044D02*
X019490Y005044D01*
X019589Y004946D02*
X020752Y004946D01*
X020625Y004847D02*
X019662Y004847D01*
X019701Y004749D02*
X020527Y004749D01*
X020623Y004844D02*
X020623Y004844D01*
X020428Y004650D02*
X019701Y004650D01*
X019701Y004552D02*
X019850Y004552D01*
X019751Y004453D02*
X019701Y004453D01*
X020566Y003764D02*
X020575Y003764D01*
X020566Y003665D02*
X020637Y003665D01*
X020559Y003567D02*
X020764Y003567D01*
X020953Y004355D02*
X028421Y004355D01*
X028373Y005537D02*
X025081Y005537D01*
X025281Y006226D02*
X028568Y006226D01*
X028451Y006325D02*
X025281Y006325D01*
X025281Y006423D02*
X028375Y006423D01*
X028334Y006522D02*
X025281Y006522D01*
X025243Y006620D02*
X028311Y006620D01*
X029414Y006620D02*
X034221Y006620D01*
X034221Y007704D02*
X030331Y007704D01*
X030232Y007802D02*
X030813Y007802D01*
X030714Y007901D02*
X030201Y007901D01*
X030201Y008196D02*
X031301Y008196D01*
X031361Y008196D02*
X034221Y008196D01*
X031361Y008295D02*
X031301Y008295D01*
X031301Y008393D02*
X031361Y008393D01*
X031361Y008492D02*
X031301Y008492D01*
X030803Y008492D02*
X030201Y008492D01*
X030201Y008393D02*
X030719Y008393D01*
X030677Y008295D02*
X030201Y008295D01*
X030429Y007605D02*
X030921Y007605D01*
X024528Y007901D02*
X022524Y007901D01*
X022564Y007802D02*
X024481Y007802D01*
X021347Y006226D02*
X021094Y006226D01*
X020568Y006226D02*
X017808Y006226D01*
X017710Y006325D02*
X020451Y006325D01*
X020375Y006423D02*
X017611Y006423D01*
X017513Y006522D02*
X020334Y006522D01*
X020311Y006620D02*
X017414Y006620D01*
X017351Y006719D02*
X020311Y006719D01*
X020325Y006817D02*
X017337Y006817D01*
X017296Y006916D02*
X020366Y006916D01*
X020430Y007014D02*
X017232Y007014D01*
X017134Y007113D02*
X020528Y007113D01*
X019371Y007310D02*
X019291Y007310D01*
X019291Y007408D02*
X019371Y007408D01*
X019371Y007507D02*
X019291Y007507D01*
X019291Y007605D02*
X019371Y007605D01*
X018739Y004749D02*
X007673Y004749D01*
X007771Y004650D02*
X018838Y004650D01*
X018812Y004552D02*
X018936Y004552D01*
X018911Y004453D02*
X018961Y004453D01*
X018096Y003764D02*
X018086Y003764D01*
X018096Y003665D02*
X018025Y003665D01*
X018103Y003567D02*
X017898Y003567D01*
X016607Y008984D02*
X016055Y008984D01*
X016178Y009083D02*
X016484Y009083D01*
X016413Y009181D02*
X016249Y009181D01*
X016290Y009280D02*
X016372Y009280D01*
X016361Y009378D02*
X016301Y009378D01*
X016301Y009477D02*
X016361Y009477D01*
X016361Y009575D02*
X016301Y009575D01*
X016301Y009674D02*
X016361Y009674D01*
X016361Y009772D02*
X016301Y009772D01*
X016301Y009871D02*
X016361Y009871D01*
X016361Y009969D02*
X016301Y009969D01*
X016295Y010068D02*
X016367Y010068D01*
X016408Y010166D02*
X016254Y010166D01*
X016191Y010265D02*
X016471Y010265D01*
X016541Y010363D02*
X016121Y010363D01*
X016121Y010462D02*
X016541Y010462D01*
X016541Y010560D02*
X016121Y010560D01*
X016121Y010659D02*
X016541Y010659D01*
X016541Y010757D02*
X016121Y010757D01*
X016121Y010856D02*
X016541Y010856D01*
X016541Y010954D02*
X016121Y010954D01*
X016121Y011053D02*
X016541Y011053D01*
X016541Y011151D02*
X016121Y011151D01*
X016121Y011250D02*
X016541Y011250D01*
X016541Y011348D02*
X016121Y011348D01*
X016121Y011447D02*
X016541Y011447D01*
X016521Y011545D02*
X016141Y011545D01*
X016233Y011644D02*
X016428Y011644D01*
X016388Y011742D02*
X016274Y011742D01*
X016301Y011841D02*
X016361Y011841D01*
X016361Y011939D02*
X016301Y011939D01*
X016301Y012038D02*
X016361Y012038D01*
X016361Y012136D02*
X016301Y012136D01*
X016301Y012235D02*
X016361Y012235D01*
X016361Y012333D02*
X016301Y012333D01*
X016301Y012432D02*
X016361Y012432D01*
X016361Y012530D02*
X016301Y012530D01*
X016270Y012629D02*
X016392Y012629D01*
X016433Y012727D02*
X016229Y012727D01*
X016130Y012826D02*
X016532Y012826D01*
X016723Y012924D02*
X016121Y012924D01*
X016121Y013023D02*
X019763Y013023D01*
X019862Y013121D02*
X016121Y013121D01*
X016121Y013220D02*
X019960Y013220D01*
X020059Y013318D02*
X016121Y013318D01*
X016121Y013417D02*
X020157Y013417D01*
X020256Y013515D02*
X016121Y013515D01*
X016121Y013614D02*
X020354Y013614D01*
X020453Y013712D02*
X016577Y013712D01*
X016676Y013811D02*
X020551Y013811D01*
X020650Y013909D02*
X016774Y013909D01*
X016836Y014008D02*
X020748Y014008D01*
X020847Y014106D02*
X016836Y014106D01*
X016836Y014205D02*
X020945Y014205D01*
X021044Y014303D02*
X016836Y014303D01*
X016824Y014402D02*
X021142Y014402D01*
X021241Y014500D02*
X016725Y014500D01*
X016627Y014599D02*
X021339Y014599D01*
X021438Y014697D02*
X016621Y014697D01*
X016621Y014796D02*
X021536Y014796D01*
X021635Y014894D02*
X016621Y014894D01*
X016621Y014993D02*
X021733Y014993D01*
X021832Y015091D02*
X016652Y015091D01*
X016751Y015190D02*
X021930Y015190D01*
X022029Y015288D02*
X016849Y015288D01*
X016423Y015682D02*
X015993Y015682D01*
X015895Y015584D02*
X016324Y015584D01*
X016226Y015485D02*
X015796Y015485D01*
X015698Y015387D02*
X016127Y015387D01*
X016062Y015288D02*
X015621Y015288D01*
X015621Y015190D02*
X016041Y015190D01*
X016041Y015091D02*
X015621Y015091D01*
X015621Y014993D02*
X016041Y014993D01*
X016041Y014894D02*
X015621Y014894D01*
X015621Y014796D02*
X016041Y014796D01*
X016041Y014697D02*
X015621Y014697D01*
X015621Y014599D02*
X016035Y014599D01*
X015937Y014500D02*
X015621Y014500D01*
X015621Y014402D02*
X015838Y014402D01*
X015826Y014303D02*
X015621Y014303D01*
X015717Y014205D02*
X015826Y014205D01*
X015815Y014106D02*
X015826Y014106D01*
X015389Y013712D02*
X014709Y013712D01*
X014621Y013811D02*
X015290Y013811D01*
X015192Y013909D02*
X014621Y013909D01*
X014621Y014008D02*
X015093Y014008D01*
X015048Y014106D02*
X014621Y014106D01*
X014621Y014205D02*
X015041Y014205D01*
X015041Y014303D02*
X014621Y014303D01*
X014621Y014402D02*
X015041Y014402D01*
X015041Y014500D02*
X014621Y014500D01*
X014621Y014599D02*
X015041Y014599D01*
X015041Y014697D02*
X014621Y014697D01*
X014621Y014796D02*
X015041Y014796D01*
X015041Y014894D02*
X014621Y014894D01*
X014621Y014993D02*
X015041Y014993D01*
X015041Y015091D02*
X014621Y015091D01*
X014621Y015190D02*
X015041Y015190D01*
X015041Y015288D02*
X014621Y015288D01*
X014621Y015387D02*
X015041Y015387D01*
X015041Y015485D02*
X014621Y015485D01*
X014621Y015584D02*
X015081Y015584D01*
X015173Y015682D02*
X014621Y015682D01*
X014621Y015781D02*
X015271Y015781D01*
X015370Y015879D02*
X014621Y015879D01*
X014621Y015978D02*
X015468Y015978D01*
X015567Y016076D02*
X014621Y016076D01*
X014621Y016175D02*
X015665Y016175D01*
X015764Y016273D02*
X014621Y016273D01*
X014621Y016372D02*
X015862Y016372D01*
X015961Y016470D02*
X014688Y016470D01*
X014729Y016569D02*
X016059Y016569D01*
X016158Y016667D02*
X014741Y016667D01*
X014739Y016766D02*
X016256Y016766D01*
X016355Y016864D02*
X014699Y016864D01*
X014628Y016963D02*
X016453Y016963D01*
X016552Y017061D02*
X014621Y017061D01*
X014621Y017160D02*
X016650Y017160D01*
X016749Y017258D02*
X014621Y017258D01*
X014621Y017357D02*
X016847Y017357D01*
X016946Y017455D02*
X014621Y017455D01*
X014621Y017554D02*
X017044Y017554D01*
X017143Y017652D02*
X014621Y017652D01*
X014621Y017751D02*
X017241Y017751D01*
X017211Y016470D02*
X016781Y016470D01*
X016683Y016372D02*
X017112Y016372D01*
X017014Y016273D02*
X016584Y016273D01*
X016486Y016175D02*
X016915Y016175D01*
X016817Y016076D02*
X016387Y016076D01*
X016289Y015978D02*
X016718Y015978D01*
X016620Y015879D02*
X016190Y015879D01*
X016092Y015781D02*
X016521Y015781D01*
X015582Y017849D02*
X014621Y017849D01*
X014621Y017948D02*
X015484Y017948D01*
X015421Y018046D02*
X014621Y018046D01*
X014621Y018145D02*
X015421Y018145D01*
X015421Y018243D02*
X014621Y018243D01*
X014621Y018342D02*
X015421Y018342D01*
X015511Y018440D02*
X014621Y018440D01*
X014621Y018539D02*
X015610Y018539D01*
X014041Y018539D02*
X013621Y018539D01*
X013621Y018440D02*
X014041Y018440D01*
X014041Y018342D02*
X013621Y018342D01*
X013621Y018243D02*
X014041Y018243D01*
X014041Y018145D02*
X013621Y018145D01*
X013621Y018046D02*
X014041Y018046D01*
X014041Y017948D02*
X013643Y017948D01*
X013705Y017849D02*
X014041Y017849D01*
X014041Y017751D02*
X013741Y017751D01*
X013741Y017652D02*
X014041Y017652D01*
X014041Y017554D02*
X013722Y017554D01*
X013682Y017455D02*
X014041Y017455D01*
X014041Y017357D02*
X013587Y017357D01*
X014041Y017258D02*
X011663Y017258D01*
X011565Y017357D02*
X013075Y017357D01*
X012980Y017455D02*
X011466Y017455D01*
X011368Y017554D02*
X012940Y017554D01*
X012921Y017652D02*
X011269Y017652D01*
X011171Y017751D02*
X012921Y017751D01*
X012957Y017849D02*
X011121Y017849D01*
X011121Y017948D02*
X013019Y017948D01*
X013041Y018046D02*
X011121Y018046D01*
X011121Y018145D02*
X013041Y018145D01*
X013041Y018243D02*
X011121Y018243D01*
X011121Y018342D02*
X013041Y018342D01*
X013041Y018440D02*
X011121Y018440D01*
X011586Y018539D02*
X011712Y018665D01*
X011781Y018830D01*
X011781Y019530D01*
X011758Y019584D01*
X011984Y019810D01*
X012154Y019810D01*
X012116Y019791D01*
X012064Y019753D01*
X012018Y019707D01*
X011980Y019655D01*
X011951Y019597D01*
X011931Y019536D01*
X011921Y019472D01*
X011921Y019210D01*
X012301Y019210D01*
X012301Y019150D01*
X011921Y019150D01*
X011921Y018888D01*
X011931Y018824D01*
X011951Y018763D01*
X011980Y018705D01*
X012018Y018653D01*
X012064Y018607D01*
X012116Y018569D01*
X012174Y018540D01*
X012301Y018539D02*
X012361Y018539D01*
X012361Y018510D02*
X012363Y018510D01*
X012427Y018520D01*
X012488Y018540D01*
X012546Y018569D01*
X012598Y018607D01*
X012644Y018653D01*
X012682Y018705D01*
X012711Y018763D01*
X012731Y018824D01*
X012741Y018888D01*
X012741Y019150D01*
X012361Y019150D01*
X012361Y018510D01*
X012484Y018539D02*
X013041Y018539D01*
X012978Y018637D02*
X012628Y018637D01*
X012697Y018736D02*
X012920Y018736D01*
X012881Y018834D02*
X012732Y018834D01*
X012741Y018933D02*
X012881Y018933D01*
X012881Y019031D02*
X012741Y019031D01*
X012741Y019130D02*
X012881Y019130D01*
X012881Y019228D02*
X012741Y019228D01*
X012741Y019327D02*
X012881Y019327D01*
X012881Y019425D02*
X012741Y019425D01*
X012733Y019524D02*
X012881Y019524D01*
X012919Y019622D02*
X012698Y019622D01*
X012630Y019721D02*
X012975Y019721D01*
X013687Y019721D02*
X013975Y019721D01*
X013919Y019622D02*
X013743Y019622D01*
X013781Y019524D02*
X013881Y019524D01*
X013881Y019425D02*
X013781Y019425D01*
X013781Y019327D02*
X013881Y019327D01*
X013881Y019228D02*
X013781Y019228D01*
X013781Y019130D02*
X013881Y019130D01*
X013881Y019031D02*
X013781Y019031D01*
X013781Y018933D02*
X013881Y018933D01*
X013881Y018834D02*
X013781Y018834D01*
X013742Y018736D02*
X013920Y018736D01*
X013978Y018637D02*
X013684Y018637D01*
X012361Y018637D02*
X012301Y018637D01*
X012301Y018736D02*
X012361Y018736D01*
X012361Y018834D02*
X012301Y018834D01*
X012301Y018933D02*
X012361Y018933D01*
X012361Y019031D02*
X012301Y019031D01*
X012301Y019130D02*
X012361Y019130D01*
X011921Y019130D02*
X011781Y019130D01*
X011781Y019228D02*
X011921Y019228D01*
X011921Y019327D02*
X011781Y019327D01*
X011781Y019425D02*
X011921Y019425D01*
X011929Y019524D02*
X011781Y019524D01*
X011796Y019622D02*
X011964Y019622D01*
X011895Y019721D02*
X012032Y019721D01*
X011921Y019031D02*
X011781Y019031D01*
X011781Y018933D02*
X011921Y018933D01*
X011929Y018834D02*
X011781Y018834D01*
X011742Y018736D02*
X011965Y018736D01*
X012034Y018637D02*
X011684Y018637D01*
X010541Y018539D02*
X010484Y018539D01*
X010541Y018440D02*
X009621Y018440D01*
X009621Y018342D02*
X010541Y018342D01*
X010541Y018243D02*
X009621Y018243D01*
X009621Y018145D02*
X010541Y018145D01*
X010541Y018046D02*
X009621Y018046D01*
X009643Y017948D02*
X010541Y017948D01*
X010541Y017849D02*
X009705Y017849D01*
X009741Y017751D02*
X010541Y017751D01*
X010541Y017652D02*
X009741Y017652D01*
X009722Y017554D02*
X010569Y017554D01*
X010646Y017455D02*
X009682Y017455D01*
X009587Y017357D02*
X010744Y017357D01*
X010843Y017258D02*
X009413Y017258D01*
X009512Y017160D02*
X010941Y017160D01*
X011040Y017061D02*
X010482Y017061D01*
X010628Y016963D02*
X011138Y016963D01*
X011237Y016864D02*
X010699Y016864D01*
X010739Y016766D02*
X011335Y016766D01*
X011408Y016667D02*
X010741Y016667D01*
X010729Y016569D02*
X011309Y016569D01*
X011211Y016470D02*
X010688Y016470D01*
X010602Y016372D02*
X011112Y016372D01*
X011014Y016273D02*
X010420Y016273D01*
X010242Y016273D02*
X009148Y016273D01*
X009050Y016372D02*
X010060Y016372D01*
X009381Y016470D02*
X008951Y016470D01*
X008853Y016569D02*
X009282Y016569D01*
X009184Y016667D02*
X008754Y016667D01*
X008739Y016766D02*
X009085Y016766D01*
X008987Y016864D02*
X008699Y016864D01*
X008628Y016963D02*
X008888Y016963D01*
X008790Y017061D02*
X008482Y017061D01*
X008593Y017258D02*
X008121Y017258D01*
X008121Y017160D02*
X008691Y017160D01*
X008494Y017357D02*
X008168Y017357D01*
X008266Y017455D02*
X008396Y017455D01*
X008179Y017061D02*
X008121Y017061D01*
X007643Y017652D02*
X007371Y017652D01*
X007371Y017554D02*
X007568Y017554D01*
X007541Y017455D02*
X007371Y017455D01*
X007371Y017357D02*
X007541Y017357D01*
X007541Y017258D02*
X007371Y017258D01*
X007371Y017160D02*
X007541Y017160D01*
X007541Y017061D02*
X007371Y017061D01*
X007371Y016963D02*
X007541Y016963D01*
X007541Y016864D02*
X007371Y016864D01*
X007371Y016766D02*
X007541Y016766D01*
X007541Y016667D02*
X007371Y016667D01*
X007371Y016569D02*
X007541Y016569D01*
X007541Y016470D02*
X007371Y016470D01*
X007371Y016372D02*
X007541Y016372D01*
X007582Y016273D02*
X007371Y016273D01*
X007371Y016175D02*
X007676Y016175D01*
X007775Y016076D02*
X007371Y016076D01*
X007371Y016050D02*
X007371Y020810D01*
X008093Y021532D01*
X008241Y021470D01*
X008420Y021470D01*
X008586Y021539D01*
X008712Y021665D01*
X008781Y021830D01*
X008781Y022530D01*
X008712Y022695D01*
X008621Y022786D01*
X008621Y025890D01*
X008679Y025948D01*
X008741Y026098D01*
X008741Y026262D01*
X008679Y026412D01*
X008563Y026528D01*
X008413Y026590D01*
X008249Y026590D01*
X008099Y026528D01*
X007983Y026412D01*
X007921Y026262D01*
X007921Y026098D01*
X007983Y025948D01*
X008041Y025890D01*
X008041Y022786D01*
X007949Y022695D01*
X007881Y022530D01*
X007881Y022140D01*
X006917Y021176D01*
X006835Y021094D01*
X006791Y020988D01*
X006791Y015872D01*
X006835Y015766D01*
X008667Y013934D01*
X008773Y013890D01*
X011211Y013890D01*
X012416Y012685D01*
X012361Y012553D01*
X012361Y011807D01*
X012433Y011634D01*
X012541Y011525D01*
X012541Y010335D01*
X012433Y010226D01*
X012361Y010053D01*
X012361Y009307D01*
X012433Y009134D01*
X012565Y009002D01*
X012737Y008930D01*
X012924Y008930D01*
X013097Y009002D01*
X013229Y009134D01*
X013301Y009307D01*
X013301Y010053D01*
X013229Y010226D01*
X013121Y010335D01*
X013121Y011525D01*
X013229Y011634D01*
X013301Y011807D01*
X013301Y012553D01*
X013229Y012726D01*
X013097Y012858D01*
X013038Y012883D01*
X011577Y014344D01*
X011495Y014426D01*
X011389Y014470D01*
X008951Y014470D01*
X007371Y016050D01*
X007444Y015978D02*
X007873Y015978D01*
X007972Y015879D02*
X007542Y015879D01*
X007641Y015781D02*
X008070Y015781D01*
X008169Y015682D02*
X007739Y015682D01*
X007838Y015584D02*
X008267Y015584D01*
X008366Y015485D02*
X007936Y015485D01*
X008035Y015387D02*
X008464Y015387D01*
X008563Y015288D02*
X008133Y015288D01*
X008232Y015190D02*
X008661Y015190D01*
X008760Y015091D02*
X008330Y015091D01*
X008429Y014993D02*
X008858Y014993D01*
X009014Y014894D02*
X008527Y014894D01*
X008626Y014796D02*
X011305Y014796D01*
X011404Y014697D02*
X008724Y014697D01*
X008823Y014599D02*
X011502Y014599D01*
X011601Y014500D02*
X008921Y014500D01*
X008495Y014106D02*
X008315Y014106D01*
X008396Y014205D02*
X008217Y014205D01*
X008298Y014303D02*
X008118Y014303D01*
X008199Y014402D02*
X008020Y014402D01*
X008101Y014500D02*
X007921Y014500D01*
X008002Y014599D02*
X007823Y014599D01*
X007904Y014697D02*
X007724Y014697D01*
X007805Y014796D02*
X007626Y014796D01*
X007707Y014894D02*
X007527Y014894D01*
X007608Y014993D02*
X007429Y014993D01*
X007510Y015091D02*
X007330Y015091D01*
X007411Y015190D02*
X007232Y015190D01*
X007313Y015288D02*
X007133Y015288D01*
X007214Y015387D02*
X007035Y015387D01*
X007116Y015485D02*
X006936Y015485D01*
X007017Y015584D02*
X006838Y015584D01*
X006919Y015682D02*
X006739Y015682D01*
X006829Y015781D02*
X006641Y015781D01*
X006621Y015879D02*
X006791Y015879D01*
X006791Y015978D02*
X006621Y015978D01*
X006621Y016076D02*
X006791Y016076D01*
X006791Y016175D02*
X006621Y016175D01*
X006621Y016273D02*
X006791Y016273D01*
X006791Y016372D02*
X006621Y016372D01*
X006621Y016470D02*
X006791Y016470D01*
X006791Y016569D02*
X006621Y016569D01*
X006621Y016667D02*
X006791Y016667D01*
X006791Y016766D02*
X006621Y016766D01*
X006621Y016864D02*
X006791Y016864D01*
X006791Y016963D02*
X006621Y016963D01*
X006621Y017061D02*
X006791Y017061D01*
X006791Y017160D02*
X006621Y017160D01*
X006621Y017258D02*
X006791Y017258D01*
X006791Y017357D02*
X006621Y017357D01*
X006621Y017455D02*
X006791Y017455D01*
X006791Y017554D02*
X006621Y017554D01*
X006621Y017652D02*
X006791Y017652D01*
X006791Y017751D02*
X006621Y017751D01*
X006621Y017849D02*
X006791Y017849D01*
X006791Y017948D02*
X006621Y017948D01*
X006621Y018046D02*
X006791Y018046D01*
X006791Y018145D02*
X006621Y018145D01*
X006621Y018243D02*
X006791Y018243D01*
X006791Y018342D02*
X006621Y018342D01*
X006621Y018440D02*
X006791Y018440D01*
X006791Y018539D02*
X006621Y018539D01*
X006621Y018637D02*
X006791Y018637D01*
X006791Y018736D02*
X006621Y018736D01*
X006621Y018834D02*
X006791Y018834D01*
X006791Y018933D02*
X006621Y018933D01*
X006621Y019031D02*
X006791Y019031D01*
X006791Y019130D02*
X006621Y019130D01*
X006621Y019228D02*
X006791Y019228D01*
X006791Y019327D02*
X006621Y019327D01*
X006621Y019425D02*
X006791Y019425D01*
X006791Y019524D02*
X006621Y019524D01*
X006621Y019622D02*
X006791Y019622D01*
X006791Y019721D02*
X006621Y019721D01*
X006621Y019819D02*
X006791Y019819D01*
X006791Y019918D02*
X006621Y019918D01*
X006621Y020016D02*
X006791Y020016D01*
X006791Y020115D02*
X006621Y020115D01*
X006621Y020213D02*
X006791Y020213D01*
X006791Y020312D02*
X006621Y020312D01*
X006621Y020410D02*
X006791Y020410D01*
X006791Y020509D02*
X006621Y020509D01*
X006621Y020607D02*
X006791Y020607D01*
X006791Y020706D02*
X006621Y020706D01*
X006621Y020804D02*
X006791Y020804D01*
X006791Y020903D02*
X006621Y020903D01*
X006621Y021001D02*
X006797Y021001D01*
X006840Y021100D02*
X006621Y021100D01*
X006621Y021198D02*
X006939Y021198D01*
X007037Y021297D02*
X006621Y021297D01*
X006621Y021395D02*
X007136Y021395D01*
X007234Y021494D02*
X006621Y021494D01*
X006621Y021592D02*
X007333Y021592D01*
X007431Y021691D02*
X006621Y021691D01*
X006621Y021789D02*
X007530Y021789D01*
X007628Y021888D02*
X006621Y021888D01*
X006621Y021986D02*
X007727Y021986D01*
X007825Y022085D02*
X006621Y022085D01*
X006621Y022183D02*
X007881Y022183D01*
X007881Y022282D02*
X006621Y022282D01*
X006621Y022380D02*
X007881Y022380D01*
X007881Y022479D02*
X006621Y022479D01*
X006621Y022577D02*
X007901Y022577D01*
X007941Y022676D02*
X006621Y022676D01*
X006621Y022774D02*
X008029Y022774D01*
X008041Y022873D02*
X006621Y022873D01*
X006621Y022971D02*
X008041Y022971D01*
X008041Y023070D02*
X006621Y023070D01*
X006621Y023168D02*
X008041Y023168D01*
X008041Y023267D02*
X006621Y023267D01*
X006621Y023365D02*
X008041Y023365D01*
X008041Y023464D02*
X006621Y023464D01*
X006621Y023562D02*
X008041Y023562D01*
X008041Y023661D02*
X006621Y023661D01*
X006621Y023759D02*
X008041Y023759D01*
X008041Y023858D02*
X006621Y023858D01*
X006621Y023956D02*
X008041Y023956D01*
X008041Y024055D02*
X006621Y024055D01*
X006621Y024153D02*
X008041Y024153D01*
X008041Y024252D02*
X006621Y024252D01*
X006621Y024350D02*
X008041Y024350D01*
X008041Y024449D02*
X006621Y024449D01*
X006621Y024547D02*
X008041Y024547D01*
X008041Y024646D02*
X006621Y024646D01*
X006621Y024744D02*
X008041Y024744D01*
X008041Y024843D02*
X006621Y024843D01*
X006621Y024941D02*
X008041Y024941D01*
X008041Y025040D02*
X006621Y025040D01*
X006621Y025138D02*
X008041Y025138D01*
X008041Y025237D02*
X006621Y025237D01*
X006621Y025335D02*
X008041Y025335D01*
X008041Y025434D02*
X006621Y025434D01*
X006621Y025532D02*
X008041Y025532D01*
X008041Y025631D02*
X006621Y025631D01*
X006621Y025729D02*
X008041Y025729D01*
X008041Y025828D02*
X006621Y025828D01*
X006621Y025926D02*
X008005Y025926D01*
X007952Y026025D02*
X006621Y026025D01*
X006621Y026123D02*
X007921Y026123D01*
X007921Y026222D02*
X006621Y026222D01*
X006621Y026320D02*
X007945Y026320D01*
X007990Y026419D02*
X006621Y026419D01*
X006621Y026517D02*
X008088Y026517D01*
X008574Y026517D02*
X010088Y026517D01*
X009990Y026419D02*
X008672Y026419D01*
X008717Y026320D02*
X009945Y026320D01*
X009921Y026222D02*
X008741Y026222D01*
X008741Y026123D02*
X009921Y026123D01*
X009952Y026025D02*
X008710Y026025D01*
X008657Y025926D02*
X010005Y025926D01*
X010110Y025828D02*
X008621Y025828D01*
X008621Y025729D02*
X010372Y025729D01*
X010470Y025631D02*
X008621Y025631D01*
X008621Y025532D02*
X009110Y025532D01*
X009099Y025528D02*
X008983Y025412D01*
X008921Y025262D01*
X008921Y025098D01*
X008983Y024948D01*
X009041Y024890D01*
X009041Y022786D01*
X008949Y022695D01*
X008881Y022530D01*
X008881Y021830D01*
X008949Y021665D01*
X009076Y021539D01*
X009241Y021470D01*
X009420Y021470D01*
X009586Y021539D01*
X009712Y021665D01*
X009781Y021830D01*
X009781Y022530D01*
X009712Y022695D01*
X009621Y022786D01*
X009621Y024890D01*
X009679Y024948D01*
X009741Y025098D01*
X009741Y025262D01*
X009679Y025412D01*
X009563Y025528D01*
X009413Y025590D01*
X009249Y025590D01*
X009099Y025528D01*
X009005Y025434D02*
X008621Y025434D01*
X008621Y025335D02*
X008951Y025335D01*
X008921Y025237D02*
X008621Y025237D01*
X008621Y025138D02*
X008921Y025138D01*
X008945Y025040D02*
X008621Y025040D01*
X008621Y024941D02*
X008990Y024941D01*
X009041Y024843D02*
X008621Y024843D01*
X008621Y024744D02*
X009041Y024744D01*
X009041Y024646D02*
X008621Y024646D01*
X008621Y024547D02*
X009041Y024547D01*
X009041Y024449D02*
X008621Y024449D01*
X008621Y024350D02*
X009041Y024350D01*
X009041Y024252D02*
X008621Y024252D01*
X008621Y024153D02*
X009041Y024153D01*
X009041Y024055D02*
X008621Y024055D01*
X008621Y023956D02*
X009041Y023956D01*
X009041Y023858D02*
X008621Y023858D01*
X008621Y023759D02*
X009041Y023759D01*
X009041Y023661D02*
X008621Y023661D01*
X008621Y023562D02*
X009041Y023562D01*
X009041Y023464D02*
X008621Y023464D01*
X008621Y023365D02*
X009041Y023365D01*
X009041Y023267D02*
X008621Y023267D01*
X008621Y023168D02*
X009041Y023168D01*
X009041Y023070D02*
X008621Y023070D01*
X008621Y022971D02*
X009041Y022971D01*
X009041Y022873D02*
X008621Y022873D01*
X008633Y022774D02*
X009029Y022774D01*
X008941Y022676D02*
X008720Y022676D01*
X008761Y022577D02*
X008901Y022577D01*
X008881Y022479D02*
X008781Y022479D01*
X008781Y022380D02*
X008881Y022380D01*
X008881Y022282D02*
X008781Y022282D01*
X008781Y022183D02*
X008881Y022183D01*
X008881Y022085D02*
X008781Y022085D01*
X008781Y021986D02*
X008881Y021986D01*
X008881Y021888D02*
X008781Y021888D01*
X008764Y021789D02*
X008898Y021789D01*
X008939Y021691D02*
X008723Y021691D01*
X008639Y021592D02*
X009023Y021592D01*
X009185Y021494D02*
X008477Y021494D01*
X008185Y021494D02*
X008055Y021494D01*
X007956Y021395D02*
X010541Y021395D01*
X010541Y021297D02*
X007858Y021297D01*
X007759Y021198D02*
X010541Y021198D01*
X010541Y021100D02*
X007661Y021100D01*
X007562Y021001D02*
X010541Y021001D01*
X010541Y020903D02*
X007464Y020903D01*
X007371Y020804D02*
X010541Y020804D01*
X010541Y020706D02*
X007371Y020706D01*
X007371Y020607D02*
X010541Y020607D01*
X010541Y020509D02*
X007371Y020509D01*
X007371Y020410D02*
X010541Y020410D01*
X010541Y020312D02*
X007371Y020312D01*
X007371Y020213D02*
X010541Y020213D01*
X010541Y020115D02*
X007371Y020115D01*
X007371Y020016D02*
X010541Y020016D01*
X010541Y019918D02*
X007371Y019918D01*
X007371Y019819D02*
X008074Y019819D01*
X007975Y019721D02*
X007371Y019721D01*
X007371Y019622D02*
X007919Y019622D01*
X007881Y019524D02*
X007371Y019524D01*
X007371Y019425D02*
X007881Y019425D01*
X007881Y019327D02*
X007371Y019327D01*
X007371Y019228D02*
X007881Y019228D01*
X007881Y019130D02*
X007371Y019130D01*
X007371Y019031D02*
X007881Y019031D01*
X007881Y018933D02*
X007371Y018933D01*
X007371Y018834D02*
X007881Y018834D01*
X007920Y018736D02*
X007371Y018736D01*
X007371Y018637D02*
X007978Y018637D01*
X008041Y018539D02*
X007371Y018539D01*
X007371Y018440D02*
X008041Y018440D01*
X008041Y018342D02*
X007371Y018342D01*
X007371Y018243D02*
X008041Y018243D01*
X008041Y018145D02*
X007371Y018145D01*
X007371Y018046D02*
X008037Y018046D01*
X007938Y017948D02*
X007371Y017948D01*
X007371Y017849D02*
X007840Y017849D01*
X007741Y017751D02*
X007371Y017751D01*
X008625Y018046D02*
X009041Y018046D01*
X009041Y018145D02*
X008621Y018145D01*
X008621Y018243D02*
X009041Y018243D01*
X009041Y018342D02*
X008621Y018342D01*
X008621Y018440D02*
X009041Y018440D01*
X009041Y018539D02*
X008621Y018539D01*
X008684Y018637D02*
X008978Y018637D01*
X008920Y018736D02*
X008742Y018736D01*
X008781Y018834D02*
X008881Y018834D01*
X008881Y018933D02*
X008781Y018933D01*
X008781Y019031D02*
X008881Y019031D01*
X008881Y019130D02*
X008781Y019130D01*
X008781Y019228D02*
X008881Y019228D01*
X008881Y019327D02*
X008781Y019327D01*
X008781Y019425D02*
X008881Y019425D01*
X008881Y019524D02*
X008781Y019524D01*
X008743Y019622D02*
X008919Y019622D01*
X008975Y019721D02*
X008687Y019721D01*
X008588Y019819D02*
X009074Y019819D01*
X009588Y019819D02*
X010172Y019819D01*
X010301Y019819D02*
X010361Y019819D01*
X010361Y019721D02*
X010301Y019721D01*
X010301Y019622D02*
X010361Y019622D01*
X010361Y019524D02*
X010301Y019524D01*
X010301Y019425D02*
X010361Y019425D01*
X010361Y019327D02*
X010301Y019327D01*
X010301Y019228D02*
X010361Y019228D01*
X010301Y019150D02*
X009921Y019150D01*
X009921Y018888D01*
X009931Y018824D01*
X009951Y018763D01*
X009980Y018705D01*
X010018Y018653D01*
X010064Y018607D01*
X010116Y018569D01*
X010174Y018540D01*
X010235Y018520D01*
X010299Y018510D01*
X010301Y018510D01*
X010301Y019150D01*
X010301Y019130D02*
X010361Y019130D01*
X010361Y019031D02*
X010301Y019031D01*
X010301Y018933D02*
X010361Y018933D01*
X010361Y018834D02*
X010301Y018834D01*
X010301Y018736D02*
X010361Y018736D01*
X010361Y018637D02*
X010301Y018637D01*
X010301Y018539D02*
X010361Y018539D01*
X010178Y018539D02*
X009621Y018539D01*
X009684Y018637D02*
X010034Y018637D01*
X009965Y018736D02*
X009742Y018736D01*
X009781Y018834D02*
X009929Y018834D01*
X009921Y018933D02*
X009781Y018933D01*
X009781Y019031D02*
X009921Y019031D01*
X009921Y019130D02*
X009781Y019130D01*
X009781Y019228D02*
X009921Y019228D01*
X009921Y019327D02*
X009781Y019327D01*
X009781Y019425D02*
X009921Y019425D01*
X009929Y019524D02*
X009781Y019524D01*
X009743Y019622D02*
X009964Y019622D01*
X010032Y019721D02*
X009687Y019721D01*
X010490Y019819D02*
X010541Y019819D01*
X010541Y021494D02*
X009477Y021494D01*
X009639Y021592D02*
X010085Y021592D01*
X010064Y021607D02*
X010116Y021569D01*
X010174Y021540D01*
X010235Y021520D01*
X010299Y021510D01*
X010301Y021510D01*
X010301Y022150D01*
X009921Y022150D01*
X009921Y021888D01*
X009931Y021824D01*
X009951Y021763D01*
X009980Y021705D01*
X010018Y021653D01*
X010064Y021607D01*
X009991Y021691D02*
X009723Y021691D01*
X009764Y021789D02*
X009942Y021789D01*
X009921Y021888D02*
X009781Y021888D01*
X009781Y021986D02*
X009921Y021986D01*
X009921Y022085D02*
X009781Y022085D01*
X009781Y022183D02*
X010301Y022183D01*
X010301Y022085D02*
X010361Y022085D01*
X010361Y021986D02*
X010301Y021986D01*
X010301Y021888D02*
X010361Y021888D01*
X010361Y021789D02*
X010301Y021789D01*
X010301Y021691D02*
X010361Y021691D01*
X010361Y021592D02*
X010301Y021592D01*
X010301Y022282D02*
X010361Y022282D01*
X010361Y022380D02*
X010301Y022380D01*
X010301Y022479D02*
X010361Y022479D01*
X010361Y022577D02*
X010301Y022577D01*
X010301Y022676D02*
X010361Y022676D01*
X010361Y022774D02*
X010301Y022774D01*
X010093Y022774D02*
X009633Y022774D01*
X009621Y022873D02*
X010541Y022873D01*
X010541Y022971D02*
X009621Y022971D01*
X009621Y023070D02*
X010541Y023070D01*
X010541Y023168D02*
X009621Y023168D01*
X009621Y023267D02*
X010541Y023267D01*
X010541Y023365D02*
X009621Y023365D01*
X009621Y023464D02*
X010541Y023464D01*
X010541Y023562D02*
X009621Y023562D01*
X009621Y023661D02*
X010541Y023661D01*
X010541Y023759D02*
X009621Y023759D01*
X009621Y023858D02*
X010541Y023858D01*
X010541Y023956D02*
X009621Y023956D01*
X009621Y024055D02*
X010541Y024055D01*
X010541Y024153D02*
X009621Y024153D01*
X009621Y024252D02*
X010541Y024252D01*
X010541Y024350D02*
X009621Y024350D01*
X009621Y024449D02*
X010541Y024449D01*
X010541Y024547D02*
X009621Y024547D01*
X009621Y024646D02*
X010541Y024646D01*
X010541Y024744D02*
X009621Y024744D01*
X009621Y024843D02*
X010541Y024843D01*
X010541Y024941D02*
X009672Y024941D01*
X009717Y025040D02*
X010541Y025040D01*
X010541Y025138D02*
X009741Y025138D01*
X009741Y025237D02*
X010541Y025237D01*
X010541Y025335D02*
X009711Y025335D01*
X009657Y025434D02*
X010541Y025434D01*
X010541Y025532D02*
X009552Y025532D01*
X010356Y026616D02*
X006677Y026616D01*
X006775Y026714D02*
X010455Y026714D01*
X010553Y026813D02*
X006874Y026813D01*
X006972Y026911D02*
X010652Y026911D01*
X010750Y027010D02*
X007071Y027010D01*
X007169Y027108D02*
X010849Y027108D01*
X010947Y027207D02*
X007268Y027207D01*
X007366Y027305D02*
X011046Y027305D01*
X011144Y027404D02*
X007465Y027404D01*
X007563Y027502D02*
X015099Y027502D01*
X015197Y027404D02*
X013518Y027404D01*
X013616Y027305D02*
X015291Y027305D01*
X015291Y027207D02*
X013715Y027207D01*
X013813Y027108D02*
X015291Y027108D01*
X015291Y027010D02*
X013912Y027010D01*
X014010Y026911D02*
X015291Y026911D01*
X015291Y026813D02*
X014109Y026813D01*
X014207Y026714D02*
X015291Y026714D01*
X015291Y026616D02*
X014306Y026616D01*
X014574Y026517D02*
X015291Y026517D01*
X015291Y026419D02*
X014672Y026419D01*
X014717Y026320D02*
X015291Y026320D01*
X015212Y026222D02*
X014741Y026222D01*
X014741Y026123D02*
X015114Y026123D01*
X015015Y026025D02*
X014710Y026025D01*
X014657Y025926D02*
X014917Y025926D01*
X014818Y025828D02*
X014551Y025828D01*
X014720Y025729D02*
X013942Y025729D01*
X014041Y025631D02*
X014621Y025631D01*
X014523Y025532D02*
X014139Y025532D01*
X014238Y025434D02*
X014424Y025434D01*
X014110Y025828D02*
X013844Y025828D01*
X013745Y025926D02*
X014005Y025926D01*
X013952Y026025D02*
X013647Y026025D01*
X013548Y026123D02*
X013921Y026123D01*
X013879Y026222D02*
X013450Y026222D01*
X013351Y026320D02*
X013781Y026320D01*
X013682Y026419D02*
X013253Y026419D01*
X013485Y026616D02*
X011177Y026616D01*
X011275Y026714D02*
X013387Y026714D01*
X013288Y026813D02*
X011374Y026813D01*
X011078Y026517D02*
X012088Y026517D01*
X011990Y026419D02*
X010980Y026419D01*
X010881Y026320D02*
X011945Y026320D01*
X011921Y026222D02*
X010783Y026222D01*
X010798Y026123D02*
X011921Y026123D01*
X011952Y026025D02*
X010897Y026025D01*
X010995Y025926D02*
X012005Y025926D01*
X012110Y025828D02*
X011084Y025828D01*
X011121Y025729D02*
X013122Y025729D01*
X013220Y025631D02*
X011121Y025631D01*
X011121Y025532D02*
X013110Y025532D01*
X013005Y025434D02*
X011121Y025434D01*
X011121Y025335D02*
X012951Y025335D01*
X012921Y025237D02*
X011121Y025237D01*
X011121Y025138D02*
X012921Y025138D01*
X012945Y025040D02*
X011121Y025040D01*
X011121Y024941D02*
X012990Y024941D01*
X013041Y024843D02*
X011121Y024843D01*
X011121Y024744D02*
X013041Y024744D01*
X013041Y024646D02*
X011121Y024646D01*
X011121Y024547D02*
X013041Y024547D01*
X013041Y024449D02*
X011121Y024449D01*
X011121Y024350D02*
X013041Y024350D01*
X013041Y024252D02*
X011121Y024252D01*
X011121Y024153D02*
X013041Y024153D01*
X013041Y024055D02*
X011121Y024055D01*
X011121Y023956D02*
X013041Y023956D01*
X013041Y023858D02*
X011121Y023858D01*
X011121Y023759D02*
X013041Y023759D01*
X013041Y023661D02*
X011121Y023661D01*
X011121Y023562D02*
X013041Y023562D01*
X013041Y023464D02*
X011121Y023464D01*
X011121Y023365D02*
X013041Y023365D01*
X013041Y023267D02*
X011121Y023267D01*
X011121Y023168D02*
X013041Y023168D01*
X013041Y023070D02*
X011121Y023070D01*
X011121Y022971D02*
X013041Y022971D01*
X013041Y022873D02*
X011463Y022873D01*
X011633Y022774D02*
X012093Y022774D01*
X011995Y022676D02*
X011720Y022676D01*
X011761Y022577D02*
X011944Y022577D01*
X011922Y022479D02*
X011781Y022479D01*
X011781Y022380D02*
X011921Y022380D01*
X011921Y022282D02*
X011781Y022282D01*
X011781Y022183D02*
X012301Y022183D01*
X012361Y022183D02*
X012881Y022183D01*
X012881Y022085D02*
X012741Y022085D01*
X012741Y021986D02*
X012881Y021986D01*
X012881Y021888D02*
X012741Y021888D01*
X012720Y021789D02*
X012898Y021789D01*
X012939Y021691D02*
X012671Y021691D01*
X012577Y021592D02*
X013023Y021592D01*
X012881Y022282D02*
X012741Y022282D01*
X012741Y022380D02*
X012881Y022380D01*
X012881Y022479D02*
X012740Y022479D01*
X012718Y022577D02*
X012901Y022577D01*
X012941Y022676D02*
X012667Y022676D01*
X012569Y022774D02*
X013029Y022774D01*
X012361Y022774D02*
X012301Y022774D01*
X012301Y022676D02*
X012361Y022676D01*
X012361Y022577D02*
X012301Y022577D01*
X012301Y022479D02*
X012361Y022479D01*
X012361Y022380D02*
X012301Y022380D01*
X012301Y022282D02*
X012361Y022282D01*
X011921Y022085D02*
X011781Y022085D01*
X011781Y021986D02*
X011921Y021986D01*
X011921Y021888D02*
X011781Y021888D01*
X011764Y021789D02*
X011942Y021789D01*
X011991Y021691D02*
X011844Y021691D01*
X011942Y021592D02*
X012085Y021592D01*
X011199Y022873D02*
X011121Y022873D01*
X009995Y022676D02*
X009720Y022676D01*
X009761Y022577D02*
X009944Y022577D01*
X009922Y022479D02*
X009781Y022479D01*
X009781Y022380D02*
X009921Y022380D01*
X009921Y022282D02*
X009781Y022282D01*
X012551Y025828D02*
X013023Y025828D01*
X012574Y026517D02*
X013584Y026517D01*
X014803Y027798D02*
X007859Y027798D01*
X007760Y027699D02*
X014902Y027699D01*
X015000Y027601D02*
X007662Y027601D01*
X004941Y028586D02*
X017381Y028586D01*
X017381Y028684D02*
X004941Y028684D01*
X004941Y028783D02*
X017381Y028783D01*
X017396Y028881D02*
X016050Y028881D01*
X016067Y028893D02*
X016118Y028944D01*
X016159Y029005D01*
X016187Y029072D01*
X016201Y029144D01*
X016201Y029170D01*
X015841Y029170D01*
X015841Y029190D01*
X016201Y029190D01*
X016201Y029216D01*
X016187Y029288D01*
X016159Y029355D01*
X016118Y029416D01*
X016067Y029467D01*
X016006Y029508D01*
X015939Y029536D01*
X015867Y029550D01*
X015841Y029550D01*
X015841Y029190D01*
X015821Y029190D01*
X015821Y029550D01*
X015795Y029550D01*
X015723Y029536D01*
X015656Y029508D01*
X015595Y029467D01*
X015544Y029416D01*
X015503Y029355D01*
X015475Y029288D01*
X015461Y029216D01*
X015461Y029190D01*
X015821Y029190D01*
X015821Y029170D01*
X015841Y029170D01*
X015841Y028810D01*
X015867Y028810D01*
X015939Y028824D01*
X016006Y028852D01*
X016067Y028893D01*
X016142Y028980D02*
X017494Y028980D01*
X017541Y029078D02*
X016188Y029078D01*
X016189Y029275D02*
X017541Y029275D01*
X017541Y029177D02*
X015841Y029177D01*
X015821Y029177D02*
X004941Y029177D01*
X004941Y029275D02*
X015473Y029275D01*
X015461Y029170D02*
X015461Y029144D01*
X015475Y029072D01*
X015503Y029005D01*
X015544Y028944D01*
X015595Y028893D01*
X015656Y028852D01*
X015723Y028824D01*
X015795Y028810D01*
X015821Y028810D01*
X015821Y029170D01*
X015461Y029170D01*
X015474Y029078D02*
X004941Y029078D01*
X004941Y028980D02*
X015520Y028980D01*
X015612Y028881D02*
X004941Y028881D01*
X004941Y029374D02*
X015515Y029374D01*
X015602Y029472D02*
X004941Y029472D01*
X004941Y029571D02*
X017381Y029571D01*
X017381Y029669D02*
X004941Y029669D01*
X004941Y029768D02*
X017381Y029768D01*
X017403Y029472D02*
X016060Y029472D01*
X016147Y029374D02*
X017501Y029374D01*
X017578Y030063D02*
X017226Y030063D01*
X017241Y030162D02*
X017902Y030162D01*
X018001Y030260D02*
X017321Y030260D01*
X017420Y030359D02*
X018099Y030359D01*
X017224Y030950D02*
X016179Y030950D01*
X016179Y030948D02*
X016241Y031098D01*
X016241Y031262D01*
X016179Y031412D01*
X016063Y031528D01*
X015913Y031590D01*
X015749Y031590D01*
X015599Y031528D01*
X015483Y031412D01*
X015421Y031262D01*
X015421Y031098D01*
X015483Y030948D01*
X015599Y030832D01*
X015749Y030770D01*
X015913Y030770D01*
X016063Y030832D01*
X016179Y030948D01*
X016220Y031048D02*
X019563Y031048D01*
X020099Y031048D02*
X020901Y031048D01*
X020901Y031002D02*
X021153Y030750D01*
X021291Y030750D01*
X021291Y031140D01*
X020901Y031140D01*
X020901Y031002D01*
X020953Y030950D02*
X020198Y030950D01*
X020281Y030851D02*
X021052Y030851D01*
X021150Y030753D02*
X020281Y030753D01*
X020281Y030654D02*
X021395Y030654D01*
X021371Y030753D02*
X021291Y030753D01*
X021291Y030851D02*
X021371Y030851D01*
X021371Y030950D02*
X021291Y030950D01*
X021291Y031048D02*
X021371Y031048D01*
X021371Y031147D02*
X021887Y031147D01*
X021986Y031245D02*
X021761Y031245D01*
X021761Y031344D02*
X022084Y031344D01*
X022085Y031344D02*
X022085Y031344D01*
X022206Y031442D02*
X021677Y031442D01*
X021579Y031541D02*
X034221Y031541D01*
X034221Y031639D02*
X004941Y031639D01*
X004941Y031541D02*
X015630Y031541D01*
X015513Y031442D02*
X004941Y031442D01*
X004941Y031344D02*
X015455Y031344D01*
X015421Y031245D02*
X004941Y031245D01*
X004941Y031147D02*
X015421Y031147D01*
X015442Y031048D02*
X004941Y031048D01*
X004941Y030950D02*
X015483Y030950D01*
X015580Y030851D02*
X004941Y030851D01*
X004941Y030753D02*
X016993Y030753D01*
X017092Y030851D02*
X016082Y030851D01*
X016241Y031147D02*
X021291Y031147D01*
X021291Y031245D02*
X021371Y031245D01*
X021371Y031344D02*
X021291Y031344D01*
X021291Y031442D02*
X021371Y031442D01*
X021371Y031541D02*
X021291Y031541D01*
X021083Y031541D02*
X016032Y031541D01*
X016149Y031442D02*
X020985Y031442D01*
X020901Y031344D02*
X016207Y031344D01*
X016241Y031245D02*
X020901Y031245D01*
X021296Y030556D02*
X020281Y030556D01*
X021761Y031048D02*
X021789Y031048D01*
X023956Y031442D02*
X034221Y031442D01*
X034221Y031344D02*
X024078Y031344D01*
X024176Y031245D02*
X034221Y031245D01*
X034221Y031147D02*
X024275Y031147D01*
X024373Y031048D02*
X028785Y031048D01*
X028795Y031050D02*
X028723Y031036D01*
X028656Y031008D01*
X028595Y030967D01*
X028544Y030916D01*
X028503Y030855D01*
X028475Y030788D01*
X028461Y030716D01*
X028461Y030690D01*
X028821Y030690D01*
X028821Y031050D01*
X028795Y031050D01*
X028821Y031048D02*
X028841Y031048D01*
X028841Y031050D02*
X028841Y030690D01*
X029201Y030690D01*
X029201Y030716D01*
X029187Y030788D01*
X029159Y030855D01*
X029118Y030916D01*
X029067Y030967D01*
X029006Y031008D01*
X028939Y031036D01*
X028867Y031050D01*
X028841Y031050D01*
X028877Y031048D02*
X034221Y031048D01*
X034221Y030950D02*
X029085Y030950D01*
X029161Y030851D02*
X032018Y030851D01*
X031912Y030807D02*
X031704Y030599D01*
X031591Y030327D01*
X031591Y030033D01*
X031704Y029761D01*
X031912Y029553D01*
X032184Y029440D01*
X032478Y029440D01*
X032750Y029553D01*
X032958Y029761D01*
X033071Y030033D01*
X033071Y030327D01*
X032958Y030599D01*
X032750Y030807D01*
X032478Y030920D01*
X032184Y030920D01*
X031912Y030807D01*
X031857Y030753D02*
X029194Y030753D01*
X029201Y030670D02*
X028841Y030670D01*
X028841Y030690D01*
X028821Y030690D01*
X028821Y030670D01*
X028841Y030670D01*
X028841Y030310D01*
X028867Y030310D01*
X028939Y030324D01*
X029006Y030352D01*
X029067Y030393D01*
X029118Y030444D01*
X029159Y030505D01*
X029187Y030572D01*
X029201Y030644D01*
X029201Y030670D01*
X029201Y030654D02*
X031759Y030654D01*
X031686Y030556D02*
X029180Y030556D01*
X029127Y030457D02*
X031645Y030457D01*
X031604Y030359D02*
X029016Y030359D01*
X028841Y030359D02*
X028821Y030359D01*
X028821Y030310D02*
X028821Y030670D01*
X028461Y030670D01*
X028461Y030644D01*
X028475Y030572D01*
X028503Y030505D01*
X028544Y030444D01*
X028595Y030393D01*
X028656Y030352D01*
X028723Y030324D01*
X028795Y030310D01*
X028821Y030310D01*
X028821Y030457D02*
X028841Y030457D01*
X028841Y030556D02*
X028821Y030556D01*
X028821Y030654D02*
X028841Y030654D01*
X028841Y030753D02*
X028821Y030753D01*
X028821Y030851D02*
X028841Y030851D01*
X028841Y030950D02*
X028821Y030950D01*
X028577Y030950D02*
X024472Y030950D01*
X024570Y030851D02*
X028501Y030851D01*
X028468Y030753D02*
X024669Y030753D01*
X024767Y030654D02*
X028461Y030654D01*
X028482Y030556D02*
X026064Y030556D01*
X026162Y030457D02*
X028535Y030457D01*
X028646Y030359D02*
X026261Y030359D01*
X026261Y030260D02*
X031591Y030260D01*
X031591Y030162D02*
X025871Y030162D01*
X025871Y030140D02*
X026261Y030140D01*
X026261Y030002D01*
X026009Y029750D01*
X025871Y029750D01*
X025871Y030140D01*
X025871Y030063D02*
X025791Y030063D01*
X025791Y029965D02*
X025871Y029965D01*
X025871Y029866D02*
X025791Y029866D01*
X025791Y029768D02*
X025871Y029768D01*
X026027Y029768D02*
X026508Y029768D01*
X026607Y029866D02*
X026125Y029866D01*
X026224Y029965D02*
X026760Y029965D01*
X026410Y029669D02*
X025621Y029669D01*
X025621Y029571D02*
X026311Y029571D01*
X026213Y029472D02*
X025621Y029472D01*
X025621Y029374D02*
X026114Y029374D01*
X026016Y029275D02*
X025621Y029275D01*
X025621Y029177D02*
X025917Y029177D01*
X025635Y029768D02*
X025609Y029768D01*
X025401Y030063D02*
X025358Y030063D01*
X025260Y030162D02*
X025791Y030162D01*
X025791Y030260D02*
X025871Y030260D01*
X025871Y030359D02*
X025791Y030359D01*
X025791Y030457D02*
X025871Y030457D01*
X025871Y030556D02*
X025791Y030556D01*
X025598Y030556D02*
X024866Y030556D01*
X024964Y030457D02*
X025500Y030457D01*
X025401Y030359D02*
X025063Y030359D01*
X025161Y030260D02*
X025401Y030260D01*
X026261Y030063D02*
X027684Y030063D01*
X027978Y030063D02*
X031591Y030063D01*
X031619Y029965D02*
X028126Y029965D01*
X028198Y029866D02*
X031660Y029866D01*
X031701Y029768D02*
X028238Y029768D01*
X028241Y029669D02*
X031795Y029669D01*
X031894Y029571D02*
X028229Y029571D01*
X028189Y029472D02*
X032107Y029472D01*
X032555Y029472D02*
X034221Y029472D01*
X034221Y029374D02*
X028104Y029374D01*
X027925Y029275D02*
X034221Y029275D01*
X034221Y029177D02*
X026738Y029177D01*
X026836Y029275D02*
X027737Y029275D01*
X027558Y029374D02*
X026935Y029374D01*
X032644Y030851D02*
X034221Y030851D01*
X034221Y030753D02*
X032805Y030753D01*
X032903Y030654D02*
X034221Y030654D01*
X034221Y030556D02*
X032976Y030556D01*
X033017Y030457D02*
X034221Y030457D01*
X034221Y030359D02*
X033058Y030359D01*
X033071Y030260D02*
X034221Y030260D01*
X034221Y030162D02*
X033071Y030162D01*
X033071Y030063D02*
X034221Y030063D01*
X034221Y029965D02*
X033043Y029965D01*
X033002Y029866D02*
X034221Y029866D01*
X034221Y029768D02*
X032961Y029768D01*
X032866Y029669D02*
X034221Y029669D01*
X034221Y029571D02*
X032768Y029571D01*
X034221Y031738D02*
X004941Y031738D01*
X004941Y031836D02*
X034221Y031836D01*
X034221Y031935D02*
X004941Y031935D01*
X004941Y032033D02*
X034221Y032033D01*
X017541Y028093D02*
X017111Y028093D01*
X017209Y027995D02*
X017509Y027995D01*
X017541Y027305D02*
X017149Y027305D01*
X017050Y027207D02*
X017541Y027207D01*
X015841Y028881D02*
X015821Y028881D01*
X015821Y028980D02*
X015841Y028980D01*
X015841Y029078D02*
X015821Y029078D01*
X015821Y029275D02*
X015841Y029275D01*
X015841Y029374D02*
X015821Y029374D01*
X015821Y029472D02*
X015841Y029472D01*
X016476Y029965D02*
X004941Y029965D01*
X004941Y030063D02*
X016436Y030063D01*
X016421Y030162D02*
X004941Y030162D01*
X004941Y030260D02*
X016421Y030260D01*
X016461Y030359D02*
X004941Y030359D01*
X004941Y030457D02*
X016528Y030457D01*
X016666Y030556D02*
X004941Y030556D01*
X004941Y030654D02*
X016895Y030654D01*
X016565Y029866D02*
X004941Y029866D01*
X015801Y023562D02*
X015861Y023562D01*
X015861Y023464D02*
X015801Y023464D01*
X015801Y023365D02*
X015861Y023365D01*
X015861Y023267D02*
X015801Y023267D01*
X015801Y023070D02*
X015861Y023070D01*
X015861Y022971D02*
X015801Y022971D01*
X015801Y022873D02*
X015861Y022873D01*
X015861Y022774D02*
X015801Y022774D01*
X016005Y022774D02*
X016657Y022774D01*
X016559Y022873D02*
X016103Y022873D01*
X016202Y022971D02*
X016460Y022971D01*
X016421Y023070D02*
X016241Y023070D01*
X016241Y023267D02*
X016421Y023267D01*
X016436Y023365D02*
X016226Y023365D01*
X016127Y023464D02*
X016535Y023464D01*
X016633Y023562D02*
X016029Y023562D01*
X016801Y023562D02*
X016861Y023562D01*
X016861Y023464D02*
X016801Y023464D01*
X016801Y023365D02*
X016861Y023365D01*
X016861Y023267D02*
X016801Y023267D01*
X017029Y023562D02*
X017041Y023562D01*
X014041Y017160D02*
X011762Y017160D01*
X011860Y017061D02*
X012179Y017061D01*
X012482Y017061D02*
X014041Y017061D01*
X014034Y016963D02*
X012628Y016963D01*
X012699Y016864D02*
X013963Y016864D01*
X013923Y016766D02*
X012739Y016766D01*
X012754Y016667D02*
X013921Y016667D01*
X013933Y016569D02*
X012853Y016569D01*
X012951Y016470D02*
X013974Y016470D01*
X014041Y016372D02*
X013050Y016372D01*
X013148Y016273D02*
X014041Y016273D01*
X014041Y016175D02*
X013247Y016175D01*
X013345Y016076D02*
X014041Y016076D01*
X014041Y015978D02*
X013444Y015978D01*
X013542Y015879D02*
X014041Y015879D01*
X014041Y015781D02*
X013603Y015781D01*
X013621Y015682D02*
X014041Y015682D01*
X014041Y015584D02*
X013621Y015584D01*
X013621Y015485D02*
X014041Y015485D01*
X014041Y015387D02*
X013621Y015387D01*
X013621Y015288D02*
X014041Y015288D01*
X014041Y015190D02*
X013621Y015190D01*
X013621Y015091D02*
X014041Y015091D01*
X014041Y014993D02*
X013621Y014993D01*
X013621Y014894D02*
X014041Y014894D01*
X014041Y014796D02*
X013621Y014796D01*
X013621Y014697D02*
X014041Y014697D01*
X014041Y014599D02*
X013627Y014599D01*
X013725Y014500D02*
X014041Y014500D01*
X014041Y014402D02*
X013824Y014402D01*
X013836Y014303D02*
X014041Y014303D01*
X014041Y014205D02*
X013836Y014205D01*
X013836Y014106D02*
X014041Y014106D01*
X014041Y014008D02*
X013836Y014008D01*
X013774Y013909D02*
X014041Y013909D01*
X014041Y013811D02*
X013676Y013811D01*
X013577Y013712D02*
X014041Y013712D01*
X014045Y013614D02*
X013308Y013614D01*
X013406Y013515D02*
X014086Y013515D01*
X014184Y013417D02*
X013505Y013417D01*
X013603Y013318D02*
X014283Y013318D01*
X014381Y013220D02*
X013702Y013220D01*
X013800Y013121D02*
X014480Y013121D01*
X014541Y013023D02*
X013899Y013023D01*
X013997Y012924D02*
X014541Y012924D01*
X014532Y012826D02*
X014130Y012826D01*
X014229Y012727D02*
X014433Y012727D01*
X014392Y012629D02*
X014270Y012629D01*
X014301Y012530D02*
X014361Y012530D01*
X014361Y012432D02*
X014301Y012432D01*
X014301Y012333D02*
X014361Y012333D01*
X014361Y012235D02*
X014301Y012235D01*
X014301Y012136D02*
X014361Y012136D01*
X014361Y012038D02*
X014301Y012038D01*
X014301Y011939D02*
X014361Y011939D01*
X014361Y011841D02*
X014301Y011841D01*
X014274Y011742D02*
X014388Y011742D01*
X014428Y011644D02*
X014233Y011644D01*
X014141Y011545D02*
X014521Y011545D01*
X014541Y011447D02*
X014121Y011447D01*
X014121Y011348D02*
X014541Y011348D01*
X014541Y011250D02*
X014121Y011250D01*
X014121Y011151D02*
X014541Y011151D01*
X014541Y011053D02*
X014121Y011053D01*
X014121Y010954D02*
X014541Y010954D01*
X014541Y010856D02*
X014121Y010856D01*
X014121Y010757D02*
X014541Y010757D01*
X014541Y010659D02*
X014121Y010659D01*
X014121Y010560D02*
X014541Y010560D01*
X014541Y010462D02*
X014121Y010462D01*
X014121Y010363D02*
X014541Y010363D01*
X014471Y010265D02*
X014191Y010265D01*
X014254Y010166D02*
X014408Y010166D01*
X014367Y010068D02*
X014295Y010068D01*
X014301Y009969D02*
X014361Y009969D01*
X014361Y009871D02*
X014301Y009871D01*
X014301Y009772D02*
X014361Y009772D01*
X014361Y009674D02*
X014301Y009674D01*
X014301Y009575D02*
X014361Y009575D01*
X014361Y009477D02*
X014301Y009477D01*
X014301Y009378D02*
X014361Y009378D01*
X014372Y009280D02*
X014290Y009280D01*
X014249Y009181D02*
X014413Y009181D01*
X014484Y009083D02*
X014178Y009083D01*
X014055Y008984D02*
X014607Y008984D01*
X015055Y008984D02*
X015607Y008984D01*
X015484Y009083D02*
X015178Y009083D01*
X015249Y009181D02*
X015413Y009181D01*
X015372Y009280D02*
X015290Y009280D01*
X015301Y009378D02*
X015361Y009378D01*
X015361Y009477D02*
X015301Y009477D01*
X015301Y009575D02*
X015361Y009575D01*
X015361Y009674D02*
X015301Y009674D01*
X015301Y009772D02*
X015361Y009772D01*
X015361Y009871D02*
X015301Y009871D01*
X015301Y009969D02*
X015361Y009969D01*
X015367Y010068D02*
X015295Y010068D01*
X015254Y010166D02*
X015408Y010166D01*
X015471Y010265D02*
X015191Y010265D01*
X015121Y010363D02*
X015541Y010363D01*
X015541Y010462D02*
X015121Y010462D01*
X015121Y010560D02*
X015541Y010560D01*
X015541Y010659D02*
X015121Y010659D01*
X015121Y010757D02*
X015541Y010757D01*
X015541Y010856D02*
X015121Y010856D01*
X015121Y010954D02*
X015541Y010954D01*
X015541Y011053D02*
X015121Y011053D01*
X015121Y011151D02*
X015541Y011151D01*
X015541Y011250D02*
X015121Y011250D01*
X015121Y011348D02*
X015541Y011348D01*
X015541Y011447D02*
X015121Y011447D01*
X015141Y011545D02*
X015521Y011545D01*
X015428Y011644D02*
X015233Y011644D01*
X015274Y011742D02*
X015388Y011742D01*
X015361Y011841D02*
X015301Y011841D01*
X015301Y011939D02*
X015361Y011939D01*
X015361Y012038D02*
X015301Y012038D01*
X015301Y012136D02*
X015361Y012136D01*
X015361Y012235D02*
X015301Y012235D01*
X015301Y012333D02*
X015361Y012333D01*
X015361Y012432D02*
X015301Y012432D01*
X015301Y012530D02*
X015361Y012530D01*
X015392Y012629D02*
X015270Y012629D01*
X015229Y012727D02*
X015433Y012727D01*
X015532Y012826D02*
X015130Y012826D01*
X015121Y012924D02*
X015541Y012924D01*
X015541Y013023D02*
X015121Y013023D01*
X015121Y013121D02*
X015541Y013121D01*
X015541Y013220D02*
X015121Y013220D01*
X015088Y013318D02*
X015541Y013318D01*
X015541Y013417D02*
X015005Y013417D01*
X014906Y013515D02*
X015541Y013515D01*
X015487Y013614D02*
X014808Y013614D01*
X013374Y012727D02*
X013229Y012727D01*
X013270Y012629D02*
X013392Y012629D01*
X013361Y012530D02*
X013301Y012530D01*
X013301Y012432D02*
X013361Y012432D01*
X013361Y012333D02*
X013301Y012333D01*
X013301Y012235D02*
X013361Y012235D01*
X013361Y012136D02*
X013301Y012136D01*
X013301Y012038D02*
X013361Y012038D01*
X013361Y011939D02*
X013301Y011939D01*
X013301Y011841D02*
X013361Y011841D01*
X013388Y011742D02*
X013274Y011742D01*
X013233Y011644D02*
X013428Y011644D01*
X013521Y011545D02*
X013141Y011545D01*
X013121Y011447D02*
X013541Y011447D01*
X013541Y011348D02*
X013121Y011348D01*
X013121Y011250D02*
X013541Y011250D01*
X013541Y011151D02*
X013121Y011151D01*
X013121Y011053D02*
X013541Y011053D01*
X013541Y010954D02*
X013121Y010954D01*
X013121Y010856D02*
X013541Y010856D01*
X013541Y010757D02*
X013121Y010757D01*
X013121Y010659D02*
X013541Y010659D01*
X013541Y010560D02*
X013121Y010560D01*
X013121Y010462D02*
X013541Y010462D01*
X013541Y010363D02*
X013121Y010363D01*
X013191Y010265D02*
X013471Y010265D01*
X013408Y010166D02*
X013254Y010166D01*
X013295Y010068D02*
X013367Y010068D01*
X013361Y009969D02*
X013301Y009969D01*
X013301Y009871D02*
X013361Y009871D01*
X013361Y009772D02*
X013301Y009772D01*
X013301Y009674D02*
X013361Y009674D01*
X013361Y009575D02*
X013301Y009575D01*
X013301Y009477D02*
X013361Y009477D01*
X013361Y009378D02*
X013301Y009378D01*
X013290Y009280D02*
X013372Y009280D01*
X013413Y009181D02*
X013249Y009181D01*
X013178Y009083D02*
X013484Y009083D01*
X013607Y008984D02*
X013055Y008984D01*
X012607Y008984D02*
X012055Y008984D01*
X012178Y009083D02*
X012484Y009083D01*
X012413Y009181D02*
X012249Y009181D01*
X012290Y009280D02*
X012372Y009280D01*
X012361Y009378D02*
X012301Y009378D01*
X012301Y009477D02*
X012361Y009477D01*
X012361Y009575D02*
X012301Y009575D01*
X012301Y009674D02*
X012361Y009674D01*
X012361Y009772D02*
X012301Y009772D01*
X012301Y009871D02*
X012361Y009871D01*
X012361Y009969D02*
X012301Y009969D01*
X012295Y010068D02*
X012367Y010068D01*
X012408Y010166D02*
X012254Y010166D01*
X012191Y010265D02*
X012471Y010265D01*
X012541Y010363D02*
X012121Y010363D01*
X012121Y010462D02*
X012541Y010462D01*
X012541Y010560D02*
X012121Y010560D01*
X012121Y010659D02*
X012541Y010659D01*
X012541Y010757D02*
X012121Y010757D01*
X012121Y010856D02*
X012541Y010856D01*
X012541Y010954D02*
X012121Y010954D01*
X012121Y011053D02*
X012541Y011053D01*
X012541Y011151D02*
X012121Y011151D01*
X012121Y011250D02*
X012541Y011250D01*
X012541Y011348D02*
X012121Y011348D01*
X012121Y011447D02*
X012541Y011447D01*
X012521Y011545D02*
X012141Y011545D01*
X012233Y011644D02*
X012428Y011644D01*
X012388Y011742D02*
X012274Y011742D01*
X012301Y011841D02*
X012361Y011841D01*
X012361Y011939D02*
X012301Y011939D01*
X012301Y012038D02*
X012361Y012038D01*
X012361Y012136D02*
X012301Y012136D01*
X012301Y012235D02*
X012361Y012235D01*
X012361Y012333D02*
X012301Y012333D01*
X012301Y012432D02*
X012361Y012432D01*
X012361Y012530D02*
X012301Y012530D01*
X012270Y012629D02*
X012392Y012629D01*
X012374Y012727D02*
X012229Y012727D01*
X012275Y012826D02*
X012130Y012826D01*
X012177Y012924D02*
X011997Y012924D01*
X011995Y012926D02*
X011995Y012926D01*
X012078Y013023D02*
X011899Y013023D01*
X011980Y013121D02*
X011800Y013121D01*
X011881Y013220D02*
X011702Y013220D01*
X011783Y013318D02*
X011603Y013318D01*
X011684Y013417D02*
X011505Y013417D01*
X011586Y013515D02*
X008906Y013515D01*
X008808Y013614D02*
X011487Y013614D01*
X011389Y013712D02*
X008709Y013712D01*
X008611Y013811D02*
X011290Y013811D01*
X011717Y014205D02*
X011896Y014205D01*
X011815Y014106D02*
X011995Y014106D01*
X011914Y014008D02*
X012093Y014008D01*
X012012Y013909D02*
X012192Y013909D01*
X012111Y013811D02*
X012290Y013811D01*
X012209Y013712D02*
X012389Y013712D01*
X012308Y013614D02*
X012487Y013614D01*
X012406Y013515D02*
X012586Y013515D01*
X012505Y013417D02*
X012684Y013417D01*
X012603Y013318D02*
X012783Y013318D01*
X012702Y013220D02*
X012881Y013220D01*
X012800Y013121D02*
X012980Y013121D01*
X012899Y013023D02*
X013078Y013023D01*
X012997Y012924D02*
X013177Y012924D01*
X013130Y012826D02*
X013275Y012826D01*
X011798Y014303D02*
X011618Y014303D01*
X011699Y014402D02*
X011520Y014402D01*
X011275Y012826D02*
X011059Y012826D01*
X011168Y012727D02*
X011374Y012727D01*
X011392Y012629D02*
X011228Y012629D01*
X011255Y012530D02*
X011361Y012530D01*
X011361Y012432D02*
X011261Y012432D01*
X011261Y012333D02*
X011361Y012333D01*
X011361Y012235D02*
X011261Y012235D01*
X011261Y012140D02*
X010871Y012140D01*
X010871Y011471D01*
X010932Y011481D01*
X010996Y011502D01*
X011056Y011532D01*
X011111Y011572D01*
X011159Y011620D01*
X011199Y011675D01*
X011229Y011735D01*
X011250Y011799D01*
X011261Y011866D01*
X011261Y012140D01*
X011261Y012136D02*
X011361Y012136D01*
X011361Y012038D02*
X011261Y012038D01*
X011261Y011939D02*
X011361Y011939D01*
X011361Y011841D02*
X011257Y011841D01*
X011232Y011742D02*
X011388Y011742D01*
X011428Y011644D02*
X011176Y011644D01*
X011074Y011545D02*
X011521Y011545D01*
X010871Y011545D02*
X010791Y011545D01*
X010791Y011644D02*
X010871Y011644D01*
X010871Y011742D02*
X010791Y011742D01*
X010791Y011841D02*
X010871Y011841D01*
X010871Y011939D02*
X010791Y011939D01*
X010791Y012038D02*
X010871Y012038D01*
X010871Y012136D02*
X010791Y012136D01*
X010791Y012235D02*
X010871Y012235D01*
X010871Y012333D02*
X010791Y012333D01*
X010791Y012432D02*
X010871Y012432D01*
X010871Y012530D02*
X010791Y012530D01*
X010791Y012629D02*
X010871Y012629D01*
X010871Y012727D02*
X010791Y012727D01*
X010791Y012826D02*
X010871Y012826D01*
X011541Y010856D02*
X007134Y010856D01*
X007300Y010757D02*
X011541Y010757D01*
X011541Y010659D02*
X007399Y010659D01*
X007474Y010560D02*
X011541Y010560D01*
X011541Y010462D02*
X007515Y010462D01*
X007556Y010363D02*
X010680Y010363D01*
X010527Y010265D02*
X007571Y010265D01*
X007571Y010166D02*
X010453Y010166D01*
X010414Y010068D02*
X007571Y010068D01*
X007544Y009969D02*
X010401Y009969D01*
X010401Y009871D02*
X007504Y009871D01*
X007463Y009772D02*
X010401Y009772D01*
X010401Y009378D02*
X004941Y009378D01*
X004941Y009280D02*
X010418Y009280D01*
X010460Y009181D02*
X004941Y009181D01*
X004941Y009083D02*
X010540Y009083D01*
X010942Y008984D02*
X011607Y008984D01*
X011484Y009083D02*
X011122Y009083D01*
X011202Y009181D02*
X011413Y009181D01*
X011372Y009280D02*
X011244Y009280D01*
X011261Y009378D02*
X011361Y009378D01*
X011361Y009477D02*
X011261Y009477D01*
X011261Y009575D02*
X011361Y009575D01*
X010058Y006817D02*
X009104Y006817D01*
X009921Y006325D02*
X008215Y006325D01*
X008241Y006226D02*
X009921Y006226D01*
X009921Y006150D02*
X009921Y006010D01*
X010161Y005770D01*
X010301Y005770D01*
X010301Y006150D01*
X009921Y006150D01*
X009921Y006128D02*
X008241Y006128D01*
X008212Y006029D02*
X009921Y006029D01*
X010001Y005931D02*
X008161Y005931D01*
X008062Y005832D02*
X010099Y005832D01*
X010301Y005832D02*
X010361Y005832D01*
X010361Y005931D02*
X010301Y005931D01*
X010301Y006029D02*
X010361Y006029D01*
X010361Y006128D02*
X010301Y006128D01*
X010301Y006226D02*
X010361Y006226D01*
X010361Y006325D02*
X010301Y006325D01*
X010301Y006423D02*
X010361Y006423D01*
X010361Y006522D02*
X010301Y006522D01*
X010093Y006522D02*
X008121Y006522D01*
X008168Y006423D02*
X009994Y006423D01*
X008727Y013909D02*
X008512Y013909D01*
X008593Y014008D02*
X008414Y014008D01*
X009444Y015978D02*
X010718Y015978D01*
X010817Y016076D02*
X009345Y016076D01*
X009247Y016175D02*
X010915Y016175D01*
X010179Y017061D02*
X009610Y017061D01*
X008921Y017751D02*
X008921Y017751D01*
X008957Y017849D02*
X008822Y017849D01*
X008724Y017948D02*
X009019Y017948D01*
X016939Y012924D02*
X019665Y012924D01*
X019566Y012826D02*
X017130Y012826D01*
X017229Y012727D02*
X019468Y012727D01*
X019369Y012629D02*
X017270Y012629D01*
X017301Y012530D02*
X019271Y012530D01*
D22*
X019331Y012180D02*
X023831Y016680D01*
X023831Y019180D01*
X022831Y019180D02*
X022831Y017680D01*
X021831Y016680D02*
X020831Y015680D01*
X018831Y015680D01*
X017831Y016680D01*
X016331Y015180D01*
X016331Y014180D01*
X015831Y013680D02*
X015831Y012180D01*
X015831Y009680D01*
X014831Y009680D02*
X014831Y012180D01*
X014831Y013180D01*
X014331Y013680D01*
X014331Y016680D01*
X014331Y019180D01*
X013331Y019180D02*
X013331Y017680D01*
X012331Y016680D02*
X013331Y015680D01*
X013331Y014180D01*
X013831Y012680D02*
X011331Y015180D01*
X009081Y015180D01*
X007831Y016430D01*
X007831Y017430D01*
X008331Y017930D01*
X009581Y016680D01*
X010331Y016680D01*
X010831Y017680D02*
X011831Y016680D01*
X010831Y015680D01*
X009331Y015680D01*
X008331Y016680D01*
X008331Y017930D02*
X008331Y019180D01*
X009331Y019180D02*
X009331Y017680D01*
X010831Y017680D02*
X010831Y020680D01*
X010831Y025680D01*
X010331Y026180D01*
X011331Y027180D01*
X013331Y027180D01*
X014331Y026180D01*
X014331Y024930D02*
X015581Y026180D01*
X015581Y027430D01*
X014831Y028180D01*
X007831Y028180D01*
X006331Y026680D01*
X006331Y015680D01*
X008831Y013180D01*
X011331Y013180D01*
X011831Y012680D01*
X011831Y012180D01*
X011831Y009680D01*
X012831Y009680D02*
X012831Y012180D01*
X012831Y012680D01*
X011331Y014180D01*
X008831Y014180D01*
X007081Y015930D01*
X007081Y020930D01*
X008331Y022180D01*
X008331Y026180D01*
X009331Y025180D02*
X009331Y022180D01*
X010831Y020680D02*
X025331Y020680D01*
X026331Y021680D01*
X026331Y022680D01*
X026831Y023180D01*
X028331Y023180D01*
X028831Y022680D01*
X028831Y022180D01*
X028331Y024180D02*
X030331Y024180D01*
X030831Y024680D01*
X030831Y025180D01*
X030831Y026180D01*
X029831Y027180D02*
X029831Y025180D01*
X028331Y024180D02*
X027831Y024680D01*
X027831Y025180D01*
X026831Y025180D02*
X026831Y026180D01*
X025831Y026180D01*
X025331Y026680D01*
X025831Y027180D02*
X023831Y027180D01*
X023831Y026680D01*
X023831Y026180D01*
X024831Y025180D01*
X024831Y024180D01*
X024331Y023680D01*
X024331Y022680D01*
X023831Y022180D01*
X023831Y023180D02*
X022831Y023180D01*
X022831Y022180D01*
X021831Y022180D02*
X021831Y023180D01*
X021831Y024180D01*
X022581Y024930D01*
X022581Y025680D01*
X022081Y026180D01*
X022081Y029430D01*
X022831Y030180D01*
X023831Y030180D01*
X024831Y029180D01*
X024831Y028680D01*
X025831Y028680D02*
X026831Y029680D01*
X027831Y029680D01*
X027331Y028180D02*
X027831Y027680D01*
X027831Y027180D01*
X027331Y026680D01*
X026331Y026680D01*
X025831Y027180D01*
X025331Y027680D02*
X025331Y029680D01*
X023831Y031180D01*
X022331Y031180D01*
X021331Y030180D01*
X018331Y030180D01*
X017831Y029680D01*
X017831Y028680D01*
X017831Y027680D01*
X016831Y027680D01*
X017831Y027680D02*
X017831Y026430D01*
X017331Y025930D01*
X017331Y022680D01*
X017831Y022180D01*
X018831Y022180D02*
X018831Y023180D01*
X017831Y023180D01*
X018831Y024180D02*
X018831Y027680D01*
X018831Y028680D01*
X018831Y029680D01*
X019831Y030680D02*
X017331Y030680D01*
X016831Y030180D01*
X019831Y027680D02*
X019831Y024680D01*
X019831Y022180D01*
X020831Y023180D02*
X020831Y023680D01*
X021331Y024180D01*
X021331Y024680D01*
X021831Y025180D01*
X020831Y024680D02*
X020831Y026430D01*
X020831Y027680D02*
X019831Y027680D01*
X020831Y027680D02*
X021331Y028180D01*
X022831Y027680D02*
X022831Y026680D01*
X022831Y026180D01*
X023331Y025680D01*
X023331Y024680D01*
X022831Y024180D01*
X023831Y027180D02*
X023831Y027680D01*
X023831Y028680D01*
X022831Y028680D02*
X022831Y027680D01*
X028831Y027180D02*
X029831Y027180D01*
X019831Y016680D02*
X019081Y016680D01*
X017831Y017930D01*
X015331Y015430D01*
X015331Y014180D01*
X015831Y013680D01*
X016831Y012180D02*
X016831Y009680D01*
X016831Y012180D02*
X019331Y012180D01*
X013831Y007680D02*
X014831Y006680D01*
X014831Y006180D01*
X013831Y007680D02*
X011831Y007680D01*
X011831Y007180D01*
X011831Y007680D02*
X007331Y007680D01*
X006831Y007180D01*
X007831Y007180D02*
X007831Y006180D01*
X008831Y005180D02*
X010331Y005180D01*
X010331Y006180D01*
X010331Y007180D02*
X011331Y006180D01*
X011831Y006180D01*
X011831Y005180D02*
X010331Y005180D01*
X008831Y003180D02*
X006831Y005180D01*
X005831Y006180D01*
X005831Y007180D01*
X008831Y007180D02*
X010331Y007180D01*
X008831Y003180D02*
X019831Y003180D01*
X020118Y003467D01*
X020118Y003930D01*
X020868Y004680D01*
X028831Y004680D01*
X018831Y017680D02*
X018831Y019180D01*
X017831Y019180D02*
X017831Y017930D01*
X014331Y022180D02*
X014331Y024930D01*
X013081Y026180D01*
X012331Y026180D01*
X013331Y025180D02*
X013331Y022180D01*
X012331Y016680D02*
X011831Y016680D01*
X013831Y012680D02*
X013831Y012180D01*
X013831Y009680D01*
M02*
