%
M48
M72
T01C0.0240
T02C0.0276
T03C0.0320
T04C0.0354
T05C0.0360
T06C0.0400
T07C0.0433
T08C0.0440
T09C0.1260
T10C0.1280
%
T01
X18831Y11150
X19831Y10150
X19831Y12150
X22331Y10650
X23331Y11650
X24331Y10650
X30331Y11150
X31331Y10150
X31331Y12150
X29831Y25150
X30831Y26150
X28831Y26150
X25831Y26150
X24831Y25150
X23831Y26150
X16331Y19650
X17331Y18650
X15331Y18650
X11331Y19650
X10331Y18650
X10331Y20650
T02
X10331Y14400
X7831Y13650
X6331Y14400
X6831Y8650
X8331Y8150
X13831Y4650
X15831Y1400
X23081Y3900
X25331Y5150
X27131Y3650
X26831Y650
X17172Y9150
T03
X17831Y11150
X17831Y12150
X17831Y13150
X18831Y13150
X20831Y13150
X21831Y13150
X22831Y12250
X24331Y13150
X25331Y13150
X26331Y13150
X27331Y13150
X28331Y13150
X29331Y13150
X30331Y13150
X31331Y13150
X32331Y13150
X32331Y14150
X31331Y15150
X30331Y16150
X29331Y16150
X28331Y16150
X27331Y16150
X26331Y16150
X25331Y16150
X24331Y16150
X22831Y17050
X21831Y16150
X22831Y15050
X22831Y14250
X19831Y16150
X18831Y16150
X17831Y16150
X16831Y16150
X15831Y16150
X14831Y16150
X14831Y17150
X13831Y17150
X13831Y16150
X12831Y16150
X11331Y17050
X11331Y15050
X11331Y14250
X12831Y13150
X13831Y13150
X14831Y13150
X15831Y13150
X16831Y13150
X16831Y12150
X15831Y12150
X15831Y11150
X13831Y12150
X11331Y12250
X17831Y17650
X18831Y18650
X19831Y18650
X19831Y17650
X18831Y20150
X18831Y21150
X17831Y22150
X17831Y23150
X17831Y24150
X17831Y25150
X17831Y26150
X16331Y26150
X15331Y26150
X14331Y26150
X13331Y26150
X12331Y26150
X11331Y26150
X10331Y26150
X8831Y25150
X7831Y24250
X7831Y26250
X8831Y27150
X10331Y23150
X11331Y23150
X12331Y23150
X13331Y23150
X14331Y23150
X15331Y23150
X16331Y23150
X16331Y21650
X15331Y21650
X15331Y20650
X14331Y20150
X14331Y21150
X14331Y22150
X13331Y21150
X13331Y20150
X12331Y20150
X11331Y21150
X11331Y22150
X12331Y22150
X9331Y22150
X8831Y21650
X8831Y20650
X17331Y20650
X20831Y21150
X20831Y22150
X21831Y22150
X20831Y23150
X20831Y24150
X20831Y25150
X21831Y25150
X20831Y26150
X26831Y25650
X27831Y25650
X26831Y24650
X27831Y27650
X31831Y25650
X31831Y22650
X31831Y21650
X31831Y19650
X29331Y12150
X29331Y11150
X28831Y10150
X27831Y10150
X27331Y11150
X28331Y12150
X26331Y12150
X25331Y11150
X25331Y10150
X26331Y10150
X28331Y7900
X29331Y7900
X22831Y18650
X22831Y19650
X21831Y20150
X12831Y1650
X11831Y1650
T04
X10931Y1450
X10931Y2350
X9031Y3150
X9031Y3950
X8331Y3550
X8331Y2750
X8331Y4350
X9031Y4750
X9031Y5550
X8331Y5150
X10931Y5950
X10931Y6850
X28231Y6850
X28231Y5950
X30131Y5150
X30831Y4750
X30831Y5550
X30131Y4350
X30131Y3550
X30131Y2750
X30831Y3150
X30831Y3950
X28231Y2350
X28231Y1450
T05
X24081Y2650
X23081Y2650
X22081Y2650
X21081Y2650
X20081Y2650
X19081Y2650
X18081Y2650
X17081Y2650
X16081Y2650
X15081Y2650
T06
X16331Y10150
X20831Y18150
X25331Y17700
X29331Y17700
X29331Y23600
X25331Y23600
X16331Y27150
X8831Y23150
X7831Y23150
T07
X14857Y7725
X17219Y6741
X17219Y5559
X19581Y5559
X20762Y5559
X21943Y5559
X21943Y6741
X20762Y6741
X19581Y6741
X14857Y4575
X24305Y4575
X24305Y7725
T08
X13831Y7150
X13831Y3150
T09
X26331Y8150
X8331Y16650
T10
X7331Y1650
X7331Y6650
X31831Y6650
X31831Y1650
M30
