G75*
G70*
%OFA0B0*%
%FSLAX24Y24*%
%IPPOS*%
%LPD*%
%AMOC8*
5,1,8,0,0,1.08239X$1,22.5*
%
%ADD10C,0.0515*%
%ADD11C,0.0600*%
%ADD12C,0.0580*%
%ADD13C,0.0515*%
%ADD14OC8,0.0520*%
%ADD15OC8,0.0620*%
%ADD16C,0.0620*%
%ADD17C,0.0660*%
%ADD18C,0.0560*%
%ADD19C,0.0320*%
%ADD20C,0.0100*%
%ADD21C,0.0160*%
D10*
X027831Y026122D02*
X027831Y026637D01*
X028831Y026637D02*
X028831Y026122D01*
X029831Y026122D02*
X029831Y026637D01*
X030831Y026637D02*
X030831Y026122D01*
X032831Y026122D02*
X032831Y026637D01*
X033831Y026637D02*
X033831Y026122D01*
X034831Y026122D02*
X034831Y026637D01*
X035088Y015667D02*
X034573Y015667D01*
X034573Y014879D02*
X035088Y014879D01*
X035088Y014092D02*
X034573Y014092D01*
D11*
X034331Y017079D02*
X034331Y017679D01*
X033331Y017679D02*
X033331Y017079D01*
X028131Y021379D02*
X027531Y021379D01*
X027531Y022379D02*
X028131Y022379D01*
X028131Y023379D02*
X027531Y023379D01*
X026081Y027579D02*
X026081Y028179D01*
X025081Y028179D02*
X025081Y027579D01*
X024081Y027579D02*
X024081Y028179D01*
X023081Y028179D02*
X023081Y027579D01*
X022081Y027579D02*
X022081Y028179D01*
X021081Y028179D02*
X021081Y027579D01*
X020081Y027579D02*
X020081Y028179D01*
X019081Y028179D02*
X019081Y027579D01*
X018081Y027579D02*
X018081Y028179D01*
X017081Y028179D02*
X017081Y027579D01*
D12*
X017331Y015879D03*
X018331Y015879D03*
X019331Y015879D03*
X020331Y015879D03*
X021331Y015879D03*
X021331Y014879D03*
X021331Y013879D03*
X021331Y012879D03*
X021331Y011879D03*
X021331Y010879D03*
X021331Y009879D03*
X020331Y009879D03*
X019331Y009879D03*
X018331Y009879D03*
X017331Y009879D03*
X016331Y009879D03*
X015331Y009879D03*
X014331Y009879D03*
X013331Y009879D03*
X012331Y009879D03*
X011331Y009879D03*
X010331Y009879D03*
X009331Y009879D03*
X008331Y009879D03*
X009331Y014879D03*
X009331Y015879D03*
X008331Y015879D03*
X010331Y015879D03*
X011331Y015879D03*
X012331Y015879D03*
X012331Y014879D03*
X011331Y014879D03*
X013331Y014879D03*
X013331Y015879D03*
X014331Y015879D03*
X015331Y015879D03*
X016331Y015879D03*
D13*
X024000Y014422D03*
X024000Y013635D03*
X024000Y012848D03*
X024000Y012060D03*
X024000Y011273D03*
X024000Y010485D03*
X024000Y009698D03*
X024000Y008911D03*
X024000Y008123D03*
X024000Y007336D03*
X032662Y007336D03*
X032662Y008123D03*
X032662Y008911D03*
X032662Y009698D03*
X032662Y010485D03*
X032662Y011273D03*
X032662Y012060D03*
X032662Y012848D03*
X032662Y013635D03*
X032662Y014422D03*
D14*
X023831Y020379D03*
X022831Y020379D03*
X023331Y019379D03*
X022331Y019379D03*
X021331Y020379D03*
X020331Y020379D03*
X020831Y019379D03*
X019831Y019379D03*
X018831Y020379D03*
X017831Y020379D03*
X018331Y019379D03*
X017331Y019379D03*
X017331Y021379D03*
X018831Y021379D03*
X019831Y021379D03*
X021331Y021379D03*
X022331Y021379D03*
X023831Y021379D03*
X023831Y024379D03*
X023081Y025379D03*
X022081Y025379D03*
X021081Y025379D03*
X020081Y025379D03*
X019081Y025379D03*
X018081Y025379D03*
X018081Y026379D03*
X019081Y026379D03*
X020081Y026379D03*
X021081Y026379D03*
X022081Y026379D03*
X023081Y026379D03*
X022331Y024379D03*
X021331Y024379D03*
X019831Y024379D03*
X018831Y024379D03*
X017331Y024379D03*
X012331Y007379D03*
X012331Y006379D03*
X012331Y005379D03*
X012331Y002379D03*
X018331Y002379D03*
X018331Y003379D03*
X021581Y003379D03*
X021581Y002379D03*
X024831Y002379D03*
X024831Y003379D03*
D15*
X028831Y018379D03*
D16*
X027831Y018379D03*
D17*
X032331Y023379D03*
X033331Y023379D03*
X034331Y023379D03*
D18*
X031831Y017659D02*
X031831Y017099D01*
X030831Y017099D02*
X030831Y017659D01*
D19*
X031831Y017379D02*
X033331Y017379D01*
X033331Y023379D01*
X034831Y024879D01*
X034831Y026379D01*
X033831Y026379D02*
X033831Y024879D01*
X032331Y023379D01*
X034331Y023379D02*
X035581Y022129D01*
X035581Y016417D01*
X034831Y015667D01*
X034831Y014879D02*
X034331Y014879D01*
X033831Y015379D01*
X033831Y016379D01*
X034331Y016879D01*
X034331Y017379D01*
X029831Y026379D02*
X029831Y026879D01*
X028831Y027879D01*
X026081Y027879D01*
X025081Y027879D02*
X025081Y027129D01*
X025831Y026379D01*
X027831Y026379D01*
D20*
X007461Y028749D02*
X007461Y000509D01*
X035701Y000509D01*
X035701Y016013D01*
X035524Y015836D01*
X035556Y015760D01*
X035556Y015574D01*
X035485Y015402D01*
X035356Y015273D01*
X035485Y015144D01*
X035556Y014972D01*
X035556Y014786D01*
X035485Y014614D01*
X035356Y014485D01*
X035485Y014357D01*
X035556Y014185D01*
X035556Y013999D01*
X035485Y013827D01*
X035353Y013695D01*
X035181Y013624D01*
X035073Y013624D01*
X035192Y013506D01*
X035256Y013350D01*
X035256Y013180D01*
X035192Y013024D01*
X035072Y012904D01*
X034916Y012840D01*
X034746Y012840D01*
X034590Y012904D01*
X034470Y013024D01*
X034406Y013180D01*
X034406Y013350D01*
X034470Y013506D01*
X034589Y013624D01*
X034481Y013624D01*
X034309Y013695D01*
X034177Y013827D01*
X034106Y013999D01*
X034106Y014185D01*
X034177Y014357D01*
X034306Y014485D01*
X034282Y014509D01*
X034257Y014509D01*
X034121Y014565D01*
X034017Y014670D01*
X033621Y015066D01*
X033621Y007821D01*
X033577Y007715D01*
X033129Y007267D01*
X033129Y007243D01*
X033058Y007071D01*
X032926Y006940D01*
X032755Y006868D01*
X032569Y006868D01*
X032397Y006940D01*
X032265Y007071D01*
X032194Y007243D01*
X032194Y007429D01*
X032265Y007601D01*
X032394Y007730D01*
X032285Y007839D01*
X030451Y007839D01*
X028245Y005633D01*
X028139Y005589D01*
X023531Y005589D01*
X023577Y005543D01*
X023577Y005543D01*
X024995Y004125D01*
X024995Y004125D01*
X025077Y004043D01*
X025121Y003937D01*
X025121Y003754D01*
X025301Y003574D01*
X025301Y003184D01*
X025026Y002909D01*
X024636Y002909D01*
X024361Y003184D01*
X024361Y003574D01*
X024541Y003754D01*
X024541Y003759D01*
X023211Y005089D01*
X020531Y005089D01*
X021745Y003875D01*
X021771Y003849D01*
X021776Y003849D01*
X022051Y003574D01*
X022051Y003184D01*
X021776Y002909D01*
X021386Y002909D01*
X021111Y003184D01*
X021111Y003574D01*
X021169Y003631D01*
X020211Y004589D01*
X019273Y004589D01*
X019167Y004633D01*
X019085Y004715D01*
X019085Y004715D01*
X014421Y009379D01*
X014241Y009379D01*
X018495Y005125D01*
X018577Y005043D01*
X018621Y004937D01*
X018621Y003754D01*
X018801Y003574D01*
X018801Y003184D01*
X018526Y002909D01*
X018136Y002909D01*
X017861Y003184D01*
X017861Y003574D01*
X018041Y003754D01*
X018041Y004759D01*
X013421Y009379D01*
X013232Y009379D01*
X013048Y009455D01*
X012907Y009596D01*
X012831Y009780D01*
X012831Y009979D01*
X012755Y010162D01*
X012614Y010303D01*
X012430Y010379D01*
X012232Y010379D01*
X012048Y010303D01*
X011907Y010162D01*
X011831Y009979D01*
X011831Y009780D01*
X011907Y009596D01*
X012041Y009462D01*
X012041Y007754D01*
X011861Y007574D01*
X011861Y007184D01*
X012136Y006909D01*
X012526Y006909D01*
X012801Y007184D01*
X012801Y007574D01*
X012621Y007754D01*
X012621Y009462D01*
X012755Y009596D01*
X012831Y009780D01*
X012831Y009979D01*
X012907Y010162D01*
X013048Y010303D01*
X013232Y010379D01*
X013430Y010379D01*
X013614Y010303D01*
X013755Y010162D01*
X013831Y009979D01*
X013831Y009789D01*
X013831Y009789D01*
X013831Y009979D01*
X013907Y010162D01*
X014048Y010303D01*
X014232Y010379D01*
X014430Y010379D01*
X014614Y010303D01*
X014755Y010162D01*
X014831Y009979D01*
X014831Y009789D01*
X014831Y009789D01*
X014831Y009979D01*
X014907Y010162D01*
X015048Y010303D01*
X015232Y010379D01*
X015430Y010379D01*
X015614Y010303D01*
X015755Y010162D01*
X015831Y009979D01*
X015831Y009789D01*
X015831Y009789D01*
X015831Y009979D01*
X015907Y010162D01*
X016048Y010303D01*
X016232Y010379D01*
X016430Y010379D01*
X016614Y010303D01*
X016755Y010162D01*
X016831Y009979D01*
X016831Y009789D01*
X016831Y009789D01*
X016831Y009979D01*
X016907Y010162D01*
X017048Y010303D01*
X017232Y010379D01*
X017430Y010379D01*
X017614Y010303D01*
X017755Y010162D01*
X017831Y009979D01*
X017831Y009789D01*
X017831Y009789D01*
X017831Y009979D01*
X017907Y010162D01*
X018048Y010303D01*
X018232Y010379D01*
X018430Y010379D01*
X018614Y010303D01*
X018755Y010162D01*
X018831Y009979D01*
X018831Y009780D01*
X018907Y009596D01*
X019048Y009455D01*
X019232Y009379D01*
X019430Y009379D01*
X019614Y009455D01*
X019755Y009596D01*
X019831Y009780D01*
X019831Y009979D01*
X019755Y010162D01*
X019614Y010303D01*
X019430Y010379D01*
X019232Y010379D01*
X019048Y010303D01*
X018907Y010162D01*
X018831Y009979D01*
X018831Y009780D01*
X018755Y009596D01*
X018614Y009455D01*
X018430Y009379D01*
X018241Y009379D01*
X020951Y006669D01*
X027711Y006669D01*
X030085Y009043D01*
X030167Y009125D01*
X030273Y009169D01*
X032263Y009169D01*
X032265Y009175D01*
X032394Y009304D01*
X032265Y009433D01*
X032194Y009605D01*
X032194Y009791D01*
X032265Y009963D01*
X032394Y010092D01*
X032265Y010221D01*
X032194Y010392D01*
X032194Y010578D01*
X032265Y010750D01*
X032394Y010879D01*
X032265Y011008D01*
X032194Y011180D01*
X032194Y011366D01*
X032265Y011538D01*
X032394Y011667D01*
X032265Y011795D01*
X032194Y011967D01*
X032194Y012153D01*
X032265Y012325D01*
X032394Y012454D01*
X032265Y012583D01*
X032194Y012755D01*
X032194Y012941D01*
X032265Y013112D01*
X032394Y013241D01*
X032265Y013370D01*
X032194Y013542D01*
X032194Y013728D01*
X032265Y013900D01*
X032397Y014031D01*
X032471Y014062D01*
X032448Y014074D01*
X032396Y014112D01*
X032351Y014157D01*
X032313Y014209D01*
X032284Y014266D01*
X032264Y014327D01*
X032254Y014390D01*
X032254Y014394D01*
X032633Y014394D01*
X032633Y014451D01*
X032254Y014451D01*
X032254Y014455D01*
X032264Y014518D01*
X032284Y014579D01*
X032313Y014636D01*
X032351Y014688D01*
X032396Y014733D01*
X032448Y014771D01*
X032505Y014800D01*
X032566Y014820D01*
X032630Y014830D01*
X032633Y014830D01*
X032633Y014451D01*
X032690Y014451D01*
X032690Y014830D01*
X032694Y014830D01*
X032757Y014820D01*
X032818Y014800D01*
X032875Y014771D01*
X032927Y014733D01*
X032972Y014688D01*
X033010Y014636D01*
X033039Y014579D01*
X033041Y014574D01*
X033041Y015259D01*
X032711Y015589D01*
X029273Y015589D01*
X029167Y015633D01*
X029085Y015715D01*
X027585Y017215D01*
X027541Y017321D01*
X021183Y017321D01*
X021085Y017223D02*
X027582Y017223D01*
X027541Y017321D02*
X027541Y017936D01*
X027536Y017938D01*
X027390Y018085D01*
X027311Y018276D01*
X027311Y018483D01*
X027390Y018674D01*
X027536Y018820D01*
X027541Y018822D01*
X027541Y020869D01*
X027430Y020869D01*
X027242Y020947D01*
X027099Y021090D01*
X027021Y021278D01*
X027021Y021481D01*
X027099Y021668D01*
X027242Y021812D01*
X027430Y021889D01*
X028232Y021889D01*
X028420Y021812D01*
X028563Y021668D01*
X028641Y021481D01*
X028641Y021278D01*
X028563Y021090D01*
X028420Y020947D01*
X028232Y020869D01*
X028121Y020869D01*
X028121Y018822D01*
X028126Y018820D01*
X028272Y018674D01*
X028351Y018483D01*
X028351Y018276D01*
X028272Y018085D01*
X028126Y017938D01*
X028121Y017936D01*
X028121Y017499D01*
X029451Y016169D01*
X032889Y016169D01*
X032995Y016125D01*
X033461Y015659D01*
X033461Y016453D01*
X033517Y016589D01*
X033544Y016615D01*
X033432Y016569D01*
X033230Y016569D01*
X033042Y016647D01*
X032899Y016790D01*
X032821Y016978D01*
X032821Y017009D01*
X032321Y017009D01*
X032321Y017002D01*
X032246Y016822D01*
X032109Y016684D01*
X031928Y016609D01*
X031734Y016609D01*
X031553Y016684D01*
X031416Y016822D01*
X031341Y017002D01*
X031341Y017757D01*
X031416Y017937D01*
X031553Y018075D01*
X031734Y018149D01*
X031928Y018149D01*
X032109Y018075D01*
X032246Y017937D01*
X032321Y017757D01*
X032321Y017749D01*
X032821Y017749D01*
X032821Y017781D01*
X032899Y017968D01*
X032961Y018030D01*
X032961Y022985D01*
X032873Y023073D01*
X032831Y023175D01*
X032789Y023073D01*
X032637Y022921D01*
X032438Y022839D01*
X032224Y022839D01*
X032025Y022921D01*
X031873Y023073D01*
X031867Y023089D01*
X028562Y023089D01*
X028420Y022947D01*
X028232Y022869D01*
X027430Y022869D01*
X027242Y022947D01*
X027100Y023089D01*
X015951Y023089D01*
X009241Y016379D01*
X009430Y016379D01*
X009614Y016303D01*
X009755Y016162D01*
X009831Y015979D01*
X009831Y015780D01*
X009907Y015596D01*
X010041Y015462D01*
X010041Y014321D01*
X010085Y014215D01*
X012585Y011715D01*
X012667Y011633D01*
X012773Y011589D01*
X020914Y011589D01*
X021048Y011455D01*
X021232Y011379D01*
X021430Y011379D01*
X021232Y011379D01*
X021048Y011303D01*
X020907Y011162D01*
X020831Y010979D01*
X020831Y010780D01*
X020907Y010596D01*
X021048Y010455D01*
X021232Y010379D01*
X021048Y010303D01*
X020907Y010162D01*
X020831Y009979D01*
X020755Y010162D01*
X020614Y010303D01*
X020430Y010379D01*
X020232Y010379D01*
X020048Y010303D01*
X019907Y010162D01*
X019831Y009979D01*
X019831Y009780D01*
X019907Y009596D01*
X020048Y009455D01*
X020232Y009379D01*
X020430Y009379D01*
X020614Y009455D01*
X020755Y009596D01*
X020831Y009780D01*
X020831Y009979D01*
X020831Y009780D01*
X020907Y009596D01*
X021048Y009455D01*
X021232Y009379D01*
X021430Y009379D01*
X021614Y009455D01*
X021755Y009596D01*
X021831Y009780D01*
X021831Y009979D01*
X021755Y010162D01*
X021614Y010303D01*
X021430Y010379D01*
X021232Y010379D01*
X021430Y010379D01*
X021614Y010455D01*
X021755Y010596D01*
X021831Y010780D01*
X021831Y010979D01*
X021755Y011162D01*
X021614Y011303D01*
X021430Y011379D01*
X021614Y011455D01*
X021755Y011596D01*
X021831Y011780D01*
X021831Y011979D01*
X021755Y012162D01*
X021614Y012303D01*
X021430Y012379D01*
X021232Y012379D01*
X021048Y012303D01*
X020914Y012169D01*
X012951Y012169D01*
X010621Y014499D01*
X010621Y015462D01*
X010755Y015596D01*
X010831Y015780D01*
X010831Y015979D01*
X010755Y016162D01*
X010614Y016303D01*
X010430Y016379D01*
X010232Y016379D01*
X010048Y016303D01*
X009907Y016162D01*
X009831Y015979D01*
X009831Y015780D01*
X009755Y015596D01*
X009614Y015455D01*
X009430Y015379D01*
X009232Y015379D01*
X009048Y015303D01*
X008907Y015162D01*
X008831Y014979D01*
X008831Y014780D01*
X008907Y014596D01*
X009048Y014455D01*
X009232Y014379D01*
X009430Y014379D01*
X009614Y014455D01*
X009755Y014596D01*
X009831Y014780D01*
X009831Y014979D01*
X009755Y015162D01*
X009614Y015303D01*
X009430Y015379D01*
X009232Y015379D01*
X009048Y015455D01*
X008907Y015596D01*
X008831Y015780D01*
X008831Y015969D01*
X008831Y015969D01*
X008831Y015780D01*
X008755Y015596D01*
X008614Y015455D01*
X008430Y015379D01*
X008232Y015379D01*
X008048Y015455D01*
X007907Y015596D01*
X007831Y015780D01*
X007831Y015979D01*
X007907Y016162D01*
X008048Y016303D01*
X008232Y016379D01*
X008421Y016379D01*
X015667Y023625D01*
X013048Y023625D01*
X013008Y023527D02*
X015568Y023527D01*
X015667Y023625D02*
X015773Y023669D01*
X027100Y023669D01*
X027242Y023812D01*
X027430Y023889D01*
X028232Y023889D01*
X028420Y023812D01*
X028562Y023669D01*
X031867Y023669D01*
X031873Y023685D01*
X032025Y023837D01*
X032224Y023919D01*
X032348Y023919D01*
X033461Y025032D01*
X033461Y025831D01*
X033435Y025857D01*
X033363Y026029D01*
X033363Y026730D01*
X033435Y026901D01*
X033566Y027033D01*
X033738Y027104D01*
X033924Y027104D01*
X034096Y027033D01*
X034227Y026901D01*
X034298Y026730D01*
X034298Y026029D01*
X034227Y025857D01*
X034201Y025831D01*
X034201Y024806D01*
X034178Y024749D01*
X034461Y025032D01*
X034461Y025831D01*
X034435Y025857D01*
X034363Y026029D01*
X034363Y026730D01*
X034435Y026901D01*
X034566Y027033D01*
X034738Y027104D01*
X034924Y027104D01*
X035096Y027033D01*
X035227Y026901D01*
X035298Y026730D01*
X035298Y026029D01*
X035227Y025857D01*
X035201Y025831D01*
X035201Y024806D01*
X035145Y024670D01*
X035041Y024565D01*
X034394Y023919D01*
X034438Y023919D01*
X034637Y023837D01*
X034789Y023685D01*
X034871Y023487D01*
X034871Y023362D01*
X035701Y022532D01*
X035701Y028749D01*
X007461Y028749D01*
X007461Y028747D02*
X035701Y028747D01*
X035701Y028649D02*
X026280Y028649D01*
X026370Y028612D02*
X026182Y028689D01*
X025980Y028689D01*
X025792Y028612D01*
X025649Y028468D01*
X025581Y028305D01*
X025513Y028468D01*
X025370Y028612D01*
X025182Y028689D01*
X024980Y028689D01*
X024792Y028612D01*
X024649Y028468D01*
X024571Y028281D01*
X024571Y027478D01*
X024649Y027290D01*
X024711Y027228D01*
X024711Y027056D01*
X024767Y026920D01*
X024871Y026815D01*
X025621Y026065D01*
X025757Y026009D01*
X027372Y026009D01*
X027435Y025857D01*
X027566Y025725D01*
X027738Y025654D01*
X027924Y025654D01*
X028096Y025725D01*
X028227Y025857D01*
X028298Y026029D01*
X028298Y026730D01*
X028227Y026901D01*
X028096Y027033D01*
X027924Y027104D01*
X027738Y027104D01*
X027566Y027033D01*
X027435Y026901D01*
X027372Y026749D01*
X025984Y026749D01*
X025478Y027255D01*
X025513Y027290D01*
X025581Y027454D01*
X025649Y027290D01*
X025792Y027147D01*
X025980Y027069D01*
X026182Y027069D01*
X026370Y027147D01*
X026513Y027290D01*
X026591Y027478D01*
X026591Y027509D01*
X028678Y027509D01*
X029391Y026796D01*
X029363Y026730D01*
X029363Y026029D01*
X029435Y025857D01*
X029566Y025725D01*
X029738Y025654D01*
X029924Y025654D01*
X030096Y025725D01*
X030227Y025857D01*
X030298Y026029D01*
X030298Y026730D01*
X030227Y026901D01*
X030201Y026928D01*
X030201Y026953D01*
X030145Y027089D01*
X029145Y028089D01*
X029041Y028193D01*
X028905Y028249D01*
X026591Y028249D01*
X026591Y028281D01*
X026513Y028468D01*
X026370Y028612D01*
X026431Y028550D02*
X035701Y028550D01*
X035701Y028452D02*
X026520Y028452D01*
X026561Y028353D02*
X035701Y028353D01*
X035701Y028255D02*
X026591Y028255D01*
X026586Y027467D02*
X028720Y027467D01*
X028819Y027368D02*
X026546Y027368D01*
X026493Y027270D02*
X028917Y027270D01*
X029016Y027171D02*
X026394Y027171D01*
X026191Y027073D02*
X027662Y027073D01*
X027507Y026974D02*
X025759Y026974D01*
X025858Y026876D02*
X027424Y026876D01*
X027383Y026777D02*
X025956Y026777D01*
X025971Y027073D02*
X025661Y027073D01*
X025562Y027171D02*
X025768Y027171D01*
X025669Y027270D02*
X025493Y027270D01*
X025546Y027368D02*
X025616Y027368D01*
X025008Y026679D02*
X023446Y026679D01*
X023371Y026754D02*
X023371Y027148D01*
X023513Y027290D01*
X023591Y027478D01*
X023591Y028281D01*
X023513Y028468D01*
X023370Y028612D01*
X023182Y028689D01*
X022980Y028689D01*
X022792Y028612D01*
X022649Y028468D01*
X022581Y028305D01*
X022513Y028468D01*
X022370Y028612D01*
X022182Y028689D01*
X021980Y028689D01*
X021792Y028612D01*
X021649Y028468D01*
X021581Y028305D01*
X021513Y028468D01*
X021370Y028612D01*
X021182Y028689D01*
X020980Y028689D01*
X020792Y028612D01*
X020649Y028468D01*
X020581Y028305D01*
X020513Y028468D01*
X020370Y028612D01*
X020182Y028689D01*
X019980Y028689D01*
X019792Y028612D01*
X019649Y028468D01*
X019581Y028305D01*
X019513Y028468D01*
X019370Y028612D01*
X019182Y028689D01*
X018980Y028689D01*
X018792Y028612D01*
X018649Y028468D01*
X018581Y028305D01*
X018513Y028468D01*
X018370Y028612D01*
X018182Y028689D01*
X017980Y028689D01*
X017792Y028612D01*
X017649Y028468D01*
X017571Y028281D01*
X017571Y027478D01*
X017649Y027290D01*
X017791Y027148D01*
X017791Y026754D01*
X017611Y026574D01*
X017611Y026184D01*
X017886Y025909D01*
X018276Y025909D01*
X018551Y026184D01*
X018551Y026574D01*
X018371Y026754D01*
X018371Y027148D01*
X018513Y027290D01*
X018581Y027454D01*
X018649Y027290D01*
X018791Y027148D01*
X018791Y026754D01*
X018611Y026574D01*
X018611Y026184D01*
X018886Y025909D01*
X019276Y025909D01*
X019551Y026184D01*
X019551Y026574D01*
X019371Y026754D01*
X019371Y027148D01*
X019513Y027290D01*
X019581Y027454D01*
X019649Y027290D01*
X019791Y027148D01*
X019791Y026754D01*
X019611Y026574D01*
X019611Y026184D01*
X019886Y025909D01*
X020276Y025909D01*
X020551Y026184D01*
X020551Y026574D01*
X020371Y026754D01*
X020371Y027148D01*
X020513Y027290D01*
X020581Y027454D01*
X020649Y027290D01*
X020791Y027148D01*
X020791Y026754D01*
X020611Y026574D01*
X020611Y026184D01*
X020886Y025909D01*
X021276Y025909D01*
X021551Y026184D01*
X021551Y026574D01*
X021371Y026754D01*
X021371Y027148D01*
X021513Y027290D01*
X021581Y027454D01*
X021649Y027290D01*
X021791Y027148D01*
X021791Y026754D01*
X021611Y026574D01*
X021611Y026184D01*
X021886Y025909D01*
X022276Y025909D01*
X022551Y026184D01*
X022551Y026574D01*
X022371Y026754D01*
X022371Y027148D01*
X022513Y027290D01*
X022581Y027454D01*
X022649Y027290D01*
X022791Y027148D01*
X022791Y026754D01*
X022611Y026574D01*
X022611Y026184D01*
X022886Y025909D01*
X023276Y025909D01*
X023551Y026184D01*
X023551Y026574D01*
X023371Y026754D01*
X023371Y026777D02*
X024910Y026777D01*
X024811Y026876D02*
X023371Y026876D01*
X023371Y026974D02*
X024745Y026974D01*
X024711Y027073D02*
X023371Y027073D01*
X023394Y027171D02*
X023890Y027171D01*
X023908Y027162D02*
X023976Y027140D01*
X024031Y027131D01*
X024031Y027829D01*
X024131Y027829D01*
X024131Y027131D01*
X024186Y027140D01*
X024254Y027162D01*
X024317Y027194D01*
X024374Y027236D01*
X024424Y027286D01*
X024466Y027343D01*
X024498Y027406D01*
X024520Y027474D01*
X024531Y027544D01*
X024531Y027829D01*
X024131Y027829D01*
X024131Y027929D01*
X024531Y027929D01*
X024531Y028215D01*
X024520Y028285D01*
X024498Y028352D01*
X024466Y028415D01*
X024424Y028472D01*
X024374Y028522D01*
X024317Y028564D01*
X024254Y028596D01*
X024186Y028618D01*
X024131Y028627D01*
X024131Y027929D01*
X024031Y027929D01*
X024031Y027829D01*
X023631Y027829D01*
X023631Y027544D01*
X023642Y027474D01*
X023664Y027406D01*
X023696Y027343D01*
X023738Y027286D01*
X023788Y027236D01*
X023845Y027194D01*
X023908Y027162D01*
X024031Y027171D02*
X024131Y027171D01*
X024131Y027270D02*
X024031Y027270D01*
X024031Y027368D02*
X024131Y027368D01*
X024131Y027467D02*
X024031Y027467D01*
X024031Y027565D02*
X024131Y027565D01*
X024131Y027664D02*
X024031Y027664D01*
X024031Y027762D02*
X024131Y027762D01*
X024131Y027861D02*
X024571Y027861D01*
X024571Y027959D02*
X024531Y027959D01*
X024531Y028058D02*
X024571Y028058D01*
X024571Y028156D02*
X024531Y028156D01*
X024525Y028255D02*
X024571Y028255D01*
X024601Y028353D02*
X024497Y028353D01*
X024439Y028452D02*
X024642Y028452D01*
X024731Y028550D02*
X024336Y028550D01*
X024131Y028550D02*
X024031Y028550D01*
X024031Y028627D02*
X023976Y028618D01*
X023908Y028596D01*
X023845Y028564D01*
X023788Y028522D01*
X023738Y028472D01*
X023696Y028415D01*
X023664Y028352D01*
X023642Y028285D01*
X023631Y028215D01*
X023631Y027929D01*
X024031Y027929D01*
X024031Y028627D01*
X024031Y028452D02*
X024131Y028452D01*
X024131Y028353D02*
X024031Y028353D01*
X024031Y028255D02*
X024131Y028255D01*
X024131Y028156D02*
X024031Y028156D01*
X024031Y028058D02*
X024131Y028058D01*
X024131Y027959D02*
X024031Y027959D01*
X024031Y027861D02*
X023591Y027861D01*
X023591Y027959D02*
X023631Y027959D01*
X023631Y028058D02*
X023591Y028058D01*
X023591Y028156D02*
X023631Y028156D01*
X023637Y028255D02*
X023591Y028255D01*
X023561Y028353D02*
X023665Y028353D01*
X023723Y028452D02*
X023520Y028452D01*
X023431Y028550D02*
X023826Y028550D01*
X023280Y028649D02*
X024882Y028649D01*
X025280Y028649D02*
X025882Y028649D01*
X025731Y028550D02*
X025431Y028550D01*
X025520Y028452D02*
X025642Y028452D01*
X025601Y028353D02*
X025561Y028353D01*
X024571Y027762D02*
X024531Y027762D01*
X024531Y027664D02*
X024571Y027664D01*
X024571Y027565D02*
X024531Y027565D01*
X024518Y027467D02*
X024576Y027467D01*
X024616Y027368D02*
X024479Y027368D01*
X024408Y027270D02*
X024669Y027270D01*
X024711Y027171D02*
X024272Y027171D01*
X023754Y027270D02*
X023493Y027270D01*
X023546Y027368D02*
X023683Y027368D01*
X023644Y027467D02*
X023586Y027467D01*
X023591Y027565D02*
X023631Y027565D01*
X023631Y027664D02*
X023591Y027664D01*
X023591Y027762D02*
X023631Y027762D01*
X022882Y028649D02*
X022280Y028649D01*
X022431Y028550D02*
X022731Y028550D01*
X022642Y028452D02*
X022520Y028452D01*
X022561Y028353D02*
X022601Y028353D01*
X021882Y028649D02*
X021280Y028649D01*
X021431Y028550D02*
X021731Y028550D01*
X021642Y028452D02*
X021520Y028452D01*
X021561Y028353D02*
X021601Y028353D01*
X020882Y028649D02*
X020280Y028649D01*
X020431Y028550D02*
X020731Y028550D01*
X020642Y028452D02*
X020520Y028452D01*
X020561Y028353D02*
X020601Y028353D01*
X019882Y028649D02*
X019280Y028649D01*
X019431Y028550D02*
X019731Y028550D01*
X019642Y028452D02*
X019520Y028452D01*
X019561Y028353D02*
X019601Y028353D01*
X018882Y028649D02*
X018280Y028649D01*
X018431Y028550D02*
X018731Y028550D01*
X018642Y028452D02*
X018520Y028452D01*
X018561Y028353D02*
X018601Y028353D01*
X017882Y028649D02*
X007461Y028649D01*
X007461Y028550D02*
X016826Y028550D01*
X016845Y028564D02*
X016788Y028522D01*
X016738Y028472D01*
X016696Y028415D01*
X016664Y028352D01*
X016642Y028285D01*
X016631Y028215D01*
X016631Y027929D01*
X017031Y027929D01*
X017031Y027829D01*
X017131Y027829D01*
X017131Y027131D01*
X017186Y027140D01*
X017254Y027162D01*
X017317Y027194D01*
X017374Y027236D01*
X017424Y027286D01*
X017466Y027343D01*
X017498Y027406D01*
X017520Y027474D01*
X017531Y027544D01*
X017531Y027829D01*
X017131Y027829D01*
X017131Y027929D01*
X017531Y027929D01*
X017531Y028215D01*
X017520Y028285D01*
X017498Y028352D01*
X017466Y028415D01*
X017424Y028472D01*
X017374Y028522D01*
X017317Y028564D01*
X017254Y028596D01*
X017186Y028618D01*
X017131Y028627D01*
X017131Y027929D01*
X017031Y027929D01*
X017031Y028627D01*
X016976Y028618D01*
X016908Y028596D01*
X016845Y028564D01*
X016723Y028452D02*
X007461Y028452D01*
X007461Y028353D02*
X016665Y028353D01*
X016637Y028255D02*
X007461Y028255D01*
X007461Y028156D02*
X016631Y028156D01*
X016631Y028058D02*
X007461Y028058D01*
X007461Y027959D02*
X016631Y027959D01*
X016631Y027829D02*
X016631Y027544D01*
X016642Y027474D01*
X016664Y027406D01*
X016696Y027343D01*
X016738Y027286D01*
X016788Y027236D01*
X016845Y027194D01*
X016908Y027162D01*
X016976Y027140D01*
X017031Y027131D01*
X017031Y027829D01*
X016631Y027829D01*
X016631Y027762D02*
X007461Y027762D01*
X007461Y027664D02*
X016631Y027664D01*
X016631Y027565D02*
X007461Y027565D01*
X007461Y027467D02*
X016644Y027467D01*
X016683Y027368D02*
X007461Y027368D01*
X007461Y027270D02*
X016754Y027270D01*
X016890Y027171D02*
X007461Y027171D01*
X007461Y027073D02*
X017791Y027073D01*
X017791Y026974D02*
X007461Y026974D01*
X007461Y026876D02*
X017791Y026876D01*
X017791Y026777D02*
X007461Y026777D01*
X007461Y026679D02*
X017716Y026679D01*
X017617Y026580D02*
X007461Y026580D01*
X007461Y026482D02*
X017611Y026482D01*
X017611Y026383D02*
X007461Y026383D01*
X007461Y026285D02*
X017611Y026285D01*
X017611Y026186D02*
X007461Y026186D01*
X007461Y026088D02*
X017708Y026088D01*
X017806Y025989D02*
X007461Y025989D01*
X007461Y025891D02*
X027421Y025891D01*
X027380Y025989D02*
X023356Y025989D01*
X023454Y026088D02*
X025599Y026088D01*
X025501Y026186D02*
X023551Y026186D01*
X023551Y026285D02*
X025402Y026285D01*
X025304Y026383D02*
X023551Y026383D01*
X023551Y026482D02*
X025205Y026482D01*
X025107Y026580D02*
X023545Y026580D01*
X023276Y025849D02*
X022886Y025849D01*
X022611Y025574D01*
X022611Y025184D01*
X022886Y024909D01*
X022891Y024909D01*
X023361Y024439D01*
X023361Y024184D01*
X023636Y023909D01*
X024026Y023909D01*
X024301Y024184D01*
X024301Y024574D01*
X024026Y024849D01*
X023771Y024849D01*
X023493Y025127D01*
X023551Y025184D01*
X023551Y025574D01*
X023276Y025849D01*
X023333Y025792D02*
X027499Y025792D01*
X027643Y025694D02*
X023431Y025694D01*
X023530Y025595D02*
X033461Y025595D01*
X033461Y025497D02*
X023551Y025497D01*
X023551Y025398D02*
X033461Y025398D01*
X033461Y025300D02*
X023551Y025300D01*
X023551Y025201D02*
X033461Y025201D01*
X033461Y025103D02*
X023518Y025103D01*
X023616Y025004D02*
X033433Y025004D01*
X033334Y024906D02*
X023715Y024906D01*
X024068Y024807D02*
X033236Y024807D01*
X033137Y024709D02*
X024166Y024709D01*
X024265Y024610D02*
X033039Y024610D01*
X032940Y024512D02*
X024301Y024512D01*
X024301Y024413D02*
X032842Y024413D01*
X032743Y024315D02*
X024301Y024315D01*
X024301Y024216D02*
X032645Y024216D01*
X032546Y024118D02*
X024234Y024118D01*
X024136Y024019D02*
X032448Y024019D01*
X032349Y023921D02*
X024037Y023921D01*
X023625Y023921D02*
X022537Y023921D01*
X022526Y023909D02*
X022801Y024184D01*
X022801Y024574D01*
X022526Y024849D01*
X022371Y024849D01*
X022371Y025004D01*
X022791Y025004D01*
X022693Y025103D02*
X022469Y025103D01*
X022551Y025184D02*
X022551Y025574D01*
X022276Y025849D01*
X021886Y025849D01*
X021611Y025574D01*
X021611Y025184D01*
X021791Y025004D01*
X021371Y025004D01*
X021551Y025184D01*
X021551Y025574D01*
X021276Y025849D01*
X020886Y025849D01*
X020611Y025574D01*
X020611Y025184D01*
X020791Y025004D01*
X020371Y025004D01*
X020551Y025184D01*
X020551Y025574D01*
X020276Y025849D01*
X019886Y025849D01*
X019611Y025574D01*
X019611Y025184D01*
X019791Y025004D01*
X019371Y025004D01*
X019551Y025184D01*
X019551Y025574D01*
X019276Y025849D01*
X018886Y025849D01*
X018611Y025574D01*
X018611Y025184D01*
X018791Y025004D01*
X018371Y025004D01*
X018276Y024909D02*
X018551Y025184D01*
X018551Y025574D01*
X018276Y025849D01*
X017886Y025849D01*
X017611Y025574D01*
X017611Y025184D01*
X017669Y025127D01*
X017391Y024849D01*
X017136Y024849D01*
X016861Y024574D01*
X016861Y024184D01*
X017136Y023909D01*
X017526Y023909D01*
X017801Y024184D01*
X017801Y024439D01*
X018271Y024909D01*
X018276Y024909D01*
X018268Y024906D02*
X018791Y024906D01*
X018791Y024849D02*
X018636Y024849D01*
X018361Y024574D01*
X018361Y024184D01*
X018636Y023909D01*
X019026Y023909D01*
X019301Y024184D01*
X019301Y024439D01*
X019327Y024465D01*
X019361Y024547D01*
X019361Y024184D01*
X019636Y023909D01*
X020026Y023909D01*
X020301Y024184D01*
X020301Y024439D01*
X020327Y024465D01*
X020371Y024571D01*
X020371Y025004D01*
X020371Y024906D02*
X020791Y024906D01*
X020791Y025004D02*
X020791Y024571D01*
X020835Y024465D01*
X020861Y024439D01*
X020861Y024184D01*
X021136Y023909D01*
X021526Y023909D01*
X021801Y024184D01*
X021801Y024547D01*
X021835Y024465D01*
X021861Y024439D01*
X021861Y024184D01*
X022136Y023909D01*
X022526Y023909D01*
X022636Y024019D02*
X023526Y024019D01*
X023428Y024118D02*
X022734Y024118D01*
X022801Y024216D02*
X023361Y024216D01*
X023361Y024315D02*
X022801Y024315D01*
X022801Y024413D02*
X023361Y024413D01*
X023288Y024512D02*
X022801Y024512D01*
X022765Y024610D02*
X023190Y024610D01*
X023091Y024709D02*
X022666Y024709D01*
X022568Y024807D02*
X022993Y024807D01*
X022894Y024906D02*
X022371Y024906D01*
X022371Y025004D02*
X022551Y025184D01*
X022551Y025201D02*
X022611Y025201D01*
X022611Y025300D02*
X022551Y025300D01*
X022551Y025398D02*
X022611Y025398D01*
X022611Y025497D02*
X022551Y025497D01*
X022530Y025595D02*
X022632Y025595D01*
X022731Y025694D02*
X022431Y025694D01*
X022333Y025792D02*
X022829Y025792D01*
X022806Y025989D02*
X022356Y025989D01*
X022454Y026088D02*
X022708Y026088D01*
X022611Y026186D02*
X022551Y026186D01*
X022551Y026285D02*
X022611Y026285D01*
X022611Y026383D02*
X022551Y026383D01*
X022551Y026482D02*
X022611Y026482D01*
X022617Y026580D02*
X022545Y026580D01*
X022446Y026679D02*
X022716Y026679D01*
X022791Y026777D02*
X022371Y026777D01*
X022371Y026876D02*
X022791Y026876D01*
X022791Y026974D02*
X022371Y026974D01*
X022371Y027073D02*
X022791Y027073D01*
X022768Y027171D02*
X022394Y027171D01*
X022493Y027270D02*
X022669Y027270D01*
X022616Y027368D02*
X022546Y027368D01*
X021768Y027171D02*
X021394Y027171D01*
X021371Y027073D02*
X021791Y027073D01*
X021791Y026974D02*
X021371Y026974D01*
X021371Y026876D02*
X021791Y026876D01*
X021791Y026777D02*
X021371Y026777D01*
X021446Y026679D02*
X021716Y026679D01*
X021617Y026580D02*
X021545Y026580D01*
X021551Y026482D02*
X021611Y026482D01*
X021611Y026383D02*
X021551Y026383D01*
X021551Y026285D02*
X021611Y026285D01*
X021611Y026186D02*
X021551Y026186D01*
X021454Y026088D02*
X021708Y026088D01*
X021806Y025989D02*
X021356Y025989D01*
X021333Y025792D02*
X021829Y025792D01*
X021731Y025694D02*
X021431Y025694D01*
X021530Y025595D02*
X021632Y025595D01*
X021611Y025497D02*
X021551Y025497D01*
X021551Y025398D02*
X021611Y025398D01*
X021611Y025300D02*
X021551Y025300D01*
X021551Y025201D02*
X021611Y025201D01*
X021693Y025103D02*
X021469Y025103D01*
X021371Y025004D02*
X021371Y024849D01*
X021526Y024849D01*
X021791Y024584D01*
X021791Y025004D01*
X021791Y024906D02*
X021371Y024906D01*
X021568Y024807D02*
X021791Y024807D01*
X021791Y024709D02*
X021666Y024709D01*
X021765Y024610D02*
X021791Y024610D01*
X021801Y024512D02*
X021816Y024512D01*
X021801Y024413D02*
X021861Y024413D01*
X021861Y024315D02*
X021801Y024315D01*
X021801Y024216D02*
X021861Y024216D01*
X021928Y024118D02*
X021734Y024118D01*
X021636Y024019D02*
X022026Y024019D01*
X022125Y023921D02*
X021537Y023921D01*
X021125Y023921D02*
X020037Y023921D01*
X020136Y024019D02*
X021026Y024019D01*
X020928Y024118D02*
X020234Y024118D01*
X020301Y024216D02*
X020861Y024216D01*
X020861Y024315D02*
X020301Y024315D01*
X020301Y024413D02*
X020861Y024413D01*
X020816Y024512D02*
X020346Y024512D01*
X020371Y024610D02*
X020791Y024610D01*
X020791Y024709D02*
X020371Y024709D01*
X020371Y024807D02*
X020791Y024807D01*
X020693Y025103D02*
X020469Y025103D01*
X020551Y025201D02*
X020611Y025201D01*
X020611Y025300D02*
X020551Y025300D01*
X020551Y025398D02*
X020611Y025398D01*
X020611Y025497D02*
X020551Y025497D01*
X020530Y025595D02*
X020632Y025595D01*
X020731Y025694D02*
X020431Y025694D01*
X020333Y025792D02*
X020829Y025792D01*
X020806Y025989D02*
X020356Y025989D01*
X020454Y026088D02*
X020708Y026088D01*
X020611Y026186D02*
X020551Y026186D01*
X020551Y026285D02*
X020611Y026285D01*
X020611Y026383D02*
X020551Y026383D01*
X020551Y026482D02*
X020611Y026482D01*
X020617Y026580D02*
X020545Y026580D01*
X020446Y026679D02*
X020716Y026679D01*
X020791Y026777D02*
X020371Y026777D01*
X020371Y026876D02*
X020791Y026876D01*
X020791Y026974D02*
X020371Y026974D01*
X020371Y027073D02*
X020791Y027073D01*
X020768Y027171D02*
X020394Y027171D01*
X020493Y027270D02*
X020669Y027270D01*
X020616Y027368D02*
X020546Y027368D01*
X019768Y027171D02*
X019394Y027171D01*
X019371Y027073D02*
X019791Y027073D01*
X019791Y026974D02*
X019371Y026974D01*
X019371Y026876D02*
X019791Y026876D01*
X019791Y026777D02*
X019371Y026777D01*
X019446Y026679D02*
X019716Y026679D01*
X019617Y026580D02*
X019545Y026580D01*
X019551Y026482D02*
X019611Y026482D01*
X019611Y026383D02*
X019551Y026383D01*
X019551Y026285D02*
X019611Y026285D01*
X019611Y026186D02*
X019551Y026186D01*
X019454Y026088D02*
X019708Y026088D01*
X019806Y025989D02*
X019356Y025989D01*
X019333Y025792D02*
X019829Y025792D01*
X019731Y025694D02*
X019431Y025694D01*
X019530Y025595D02*
X019632Y025595D01*
X019611Y025497D02*
X019551Y025497D01*
X019551Y025398D02*
X019611Y025398D01*
X019611Y025300D02*
X019551Y025300D01*
X019551Y025201D02*
X019611Y025201D01*
X019693Y025103D02*
X019469Y025103D01*
X019371Y025004D02*
X019371Y024584D01*
X019636Y024849D01*
X019791Y024849D01*
X019791Y025004D01*
X019791Y024906D02*
X019371Y024906D01*
X019371Y024807D02*
X019594Y024807D01*
X019496Y024709D02*
X019371Y024709D01*
X019371Y024610D02*
X019397Y024610D01*
X019361Y024512D02*
X019346Y024512D01*
X019361Y024413D02*
X019301Y024413D01*
X019301Y024315D02*
X019361Y024315D01*
X019361Y024216D02*
X019301Y024216D01*
X019234Y024118D02*
X019428Y024118D01*
X019526Y024019D02*
X019136Y024019D01*
X019037Y023921D02*
X019625Y023921D01*
X018625Y023921D02*
X017537Y023921D01*
X017636Y024019D02*
X018526Y024019D01*
X018428Y024118D02*
X017734Y024118D01*
X017801Y024216D02*
X018361Y024216D01*
X018361Y024315D02*
X017801Y024315D01*
X017801Y024413D02*
X018361Y024413D01*
X018361Y024512D02*
X017874Y024512D01*
X017972Y024610D02*
X018397Y024610D01*
X018496Y024709D02*
X018071Y024709D01*
X018169Y024807D02*
X018594Y024807D01*
X018791Y024849D02*
X018791Y025004D01*
X018693Y025103D02*
X018469Y025103D01*
X018551Y025201D02*
X018611Y025201D01*
X018611Y025300D02*
X018551Y025300D01*
X018551Y025398D02*
X018611Y025398D01*
X018611Y025497D02*
X018551Y025497D01*
X018530Y025595D02*
X018632Y025595D01*
X018731Y025694D02*
X018431Y025694D01*
X018333Y025792D02*
X018829Y025792D01*
X018806Y025989D02*
X018356Y025989D01*
X018454Y026088D02*
X018708Y026088D01*
X018611Y026186D02*
X018551Y026186D01*
X018551Y026285D02*
X018611Y026285D01*
X018611Y026383D02*
X018551Y026383D01*
X018551Y026482D02*
X018611Y026482D01*
X018617Y026580D02*
X018545Y026580D01*
X018446Y026679D02*
X018716Y026679D01*
X018791Y026777D02*
X018371Y026777D01*
X018371Y026876D02*
X018791Y026876D01*
X018791Y026974D02*
X018371Y026974D01*
X018371Y027073D02*
X018791Y027073D01*
X018768Y027171D02*
X018394Y027171D01*
X018493Y027270D02*
X018669Y027270D01*
X018616Y027368D02*
X018546Y027368D01*
X017768Y027171D02*
X017272Y027171D01*
X017131Y027171D02*
X017031Y027171D01*
X017031Y027270D02*
X017131Y027270D01*
X017131Y027368D02*
X017031Y027368D01*
X017031Y027467D02*
X017131Y027467D01*
X017131Y027565D02*
X017031Y027565D01*
X017031Y027664D02*
X017131Y027664D01*
X017131Y027762D02*
X017031Y027762D01*
X017031Y027861D02*
X007461Y027861D01*
X007461Y025792D02*
X017829Y025792D01*
X017731Y025694D02*
X007461Y025694D01*
X007461Y025595D02*
X017632Y025595D01*
X017611Y025497D02*
X007461Y025497D01*
X007461Y025398D02*
X017611Y025398D01*
X017611Y025300D02*
X007461Y025300D01*
X007461Y025201D02*
X017611Y025201D01*
X017644Y025103D02*
X007461Y025103D01*
X007461Y025004D02*
X017546Y025004D01*
X017447Y024906D02*
X007461Y024906D01*
X007461Y024807D02*
X017094Y024807D01*
X016996Y024709D02*
X007461Y024709D01*
X007461Y024610D02*
X012110Y024610D01*
X012180Y024639D02*
X011901Y024523D01*
X011687Y024310D01*
X011571Y024030D01*
X011571Y023728D01*
X011687Y023449D01*
X011901Y023235D01*
X012180Y023119D01*
X012482Y023119D01*
X012761Y023235D01*
X012975Y023449D01*
X013091Y023728D01*
X013091Y024030D01*
X012975Y024310D01*
X012761Y024523D01*
X012482Y024639D01*
X012180Y024639D01*
X011889Y024512D02*
X007461Y024512D01*
X007461Y024413D02*
X011790Y024413D01*
X011692Y024315D02*
X007461Y024315D01*
X007461Y024216D02*
X011648Y024216D01*
X011607Y024118D02*
X007461Y024118D01*
X007461Y024019D02*
X011571Y024019D01*
X011571Y023921D02*
X007461Y023921D01*
X007461Y023822D02*
X011571Y023822D01*
X011573Y023724D02*
X007461Y023724D01*
X007461Y023625D02*
X011614Y023625D01*
X011654Y023527D02*
X007461Y023527D01*
X007461Y023428D02*
X011707Y023428D01*
X011806Y023330D02*
X007461Y023330D01*
X007461Y023231D02*
X011909Y023231D01*
X012147Y023133D02*
X007461Y023133D01*
X007461Y023034D02*
X015076Y023034D01*
X014977Y022936D02*
X007461Y022936D01*
X007461Y022837D02*
X014879Y022837D01*
X014780Y022739D02*
X007461Y022739D01*
X007461Y022640D02*
X014682Y022640D01*
X014583Y022542D02*
X007461Y022542D01*
X007461Y022443D02*
X014485Y022443D01*
X014386Y022345D02*
X007461Y022345D01*
X007461Y022246D02*
X014288Y022246D01*
X014189Y022148D02*
X007461Y022148D01*
X007461Y022049D02*
X014091Y022049D01*
X013992Y021951D02*
X007461Y021951D01*
X007461Y021852D02*
X013894Y021852D01*
X013795Y021754D02*
X007461Y021754D01*
X007461Y021655D02*
X013697Y021655D01*
X013598Y021557D02*
X007461Y021557D01*
X007461Y021458D02*
X013500Y021458D01*
X013401Y021360D02*
X007461Y021360D01*
X007461Y021261D02*
X013303Y021261D01*
X013204Y021163D02*
X007461Y021163D01*
X007461Y021064D02*
X013106Y021064D01*
X013007Y020966D02*
X007461Y020966D01*
X007461Y020867D02*
X012909Y020867D01*
X012810Y020769D02*
X007461Y020769D01*
X007461Y020670D02*
X012712Y020670D01*
X012613Y020572D02*
X007461Y020572D01*
X007461Y020473D02*
X012515Y020473D01*
X012416Y020375D02*
X007461Y020375D01*
X007461Y020276D02*
X012318Y020276D01*
X012219Y020178D02*
X007461Y020178D01*
X007461Y020079D02*
X012121Y020079D01*
X012022Y019981D02*
X007461Y019981D01*
X007461Y019882D02*
X011924Y019882D01*
X011825Y019784D02*
X007461Y019784D01*
X007461Y019685D02*
X011727Y019685D01*
X011628Y019587D02*
X007461Y019587D01*
X007461Y019488D02*
X011530Y019488D01*
X011431Y019390D02*
X007461Y019390D01*
X007461Y019291D02*
X011333Y019291D01*
X011234Y019193D02*
X007461Y019193D01*
X007461Y019094D02*
X011136Y019094D01*
X011037Y018996D02*
X007461Y018996D01*
X007461Y018897D02*
X010939Y018897D01*
X010840Y018799D02*
X007461Y018799D01*
X007461Y018700D02*
X010742Y018700D01*
X010643Y018602D02*
X007461Y018602D01*
X007461Y018503D02*
X010545Y018503D01*
X010446Y018405D02*
X007461Y018405D01*
X007461Y018306D02*
X010348Y018306D01*
X010249Y018208D02*
X007461Y018208D01*
X007461Y018109D02*
X010151Y018109D01*
X010052Y018011D02*
X007461Y018011D01*
X007461Y017912D02*
X009954Y017912D01*
X009855Y017814D02*
X007461Y017814D01*
X007461Y017715D02*
X009757Y017715D01*
X009658Y017617D02*
X007461Y017617D01*
X007461Y017518D02*
X009560Y017518D01*
X009461Y017420D02*
X007461Y017420D01*
X007461Y017321D02*
X009363Y017321D01*
X009264Y017223D02*
X007461Y017223D01*
X007461Y017124D02*
X009166Y017124D01*
X009067Y017026D02*
X007461Y017026D01*
X007461Y016927D02*
X008969Y016927D01*
X008870Y016829D02*
X007461Y016829D01*
X007461Y016730D02*
X008772Y016730D01*
X008673Y016632D02*
X007461Y016632D01*
X007461Y016533D02*
X008575Y016533D01*
X008476Y016435D02*
X007461Y016435D01*
X007461Y016336D02*
X008128Y016336D01*
X007982Y016238D02*
X007461Y016238D01*
X007461Y016139D02*
X007897Y016139D01*
X007857Y016041D02*
X007461Y016041D01*
X007461Y015942D02*
X007831Y015942D01*
X007831Y015844D02*
X007461Y015844D01*
X007461Y015745D02*
X007845Y015745D01*
X007886Y015647D02*
X007461Y015647D01*
X007461Y015548D02*
X007955Y015548D01*
X008061Y015450D02*
X007461Y015450D01*
X007461Y015351D02*
X009164Y015351D01*
X009061Y015450D02*
X008601Y015450D01*
X008707Y015548D02*
X008955Y015548D01*
X008886Y015647D02*
X008776Y015647D01*
X008817Y015745D02*
X008845Y015745D01*
X008831Y015844D02*
X008831Y015844D01*
X008831Y015942D02*
X008831Y015942D01*
X009297Y016435D02*
X014041Y016435D01*
X014041Y016437D02*
X014041Y016296D01*
X013907Y016162D01*
X013831Y015979D01*
X013755Y016162D01*
X013614Y016303D01*
X013430Y016379D01*
X013232Y016379D01*
X013048Y016303D01*
X012907Y016162D01*
X012831Y015979D01*
X012755Y016162D01*
X012614Y016303D01*
X012430Y016379D01*
X012232Y016379D01*
X012048Y016303D01*
X011907Y016162D01*
X011831Y015979D01*
X011755Y016162D01*
X011614Y016303D01*
X011430Y016379D01*
X011232Y016379D01*
X011048Y016303D01*
X010907Y016162D01*
X010831Y015979D01*
X010831Y015780D01*
X010907Y015596D01*
X011048Y015455D01*
X011232Y015379D01*
X011048Y015303D01*
X010907Y015162D01*
X010831Y014979D01*
X010831Y014780D01*
X010907Y014596D01*
X011048Y014455D01*
X011232Y014379D01*
X011430Y014379D01*
X011614Y014455D01*
X011755Y014596D01*
X011831Y014780D01*
X011907Y014596D01*
X012048Y014455D01*
X012232Y014379D01*
X012430Y014379D01*
X012614Y014455D01*
X012755Y014596D01*
X012831Y014780D01*
X012907Y014596D01*
X013048Y014455D01*
X013232Y014379D01*
X013430Y014379D01*
X013614Y014455D01*
X013755Y014596D01*
X013831Y014780D01*
X013831Y014979D01*
X013755Y015162D01*
X013614Y015303D01*
X013430Y015379D01*
X013232Y015379D01*
X013048Y015303D01*
X012907Y015162D01*
X012831Y014979D01*
X012831Y014780D01*
X012831Y014979D01*
X012755Y015162D01*
X012614Y015303D01*
X012430Y015379D01*
X012232Y015379D01*
X012048Y015303D01*
X011907Y015162D01*
X011831Y014979D01*
X011831Y014780D01*
X011831Y014979D01*
X011755Y015162D01*
X011614Y015303D01*
X011430Y015379D01*
X011232Y015379D01*
X011430Y015379D01*
X011614Y015455D01*
X011755Y015596D01*
X011831Y015780D01*
X011831Y015979D01*
X011831Y015780D01*
X011907Y015596D01*
X012048Y015455D01*
X012232Y015379D01*
X012430Y015379D01*
X012614Y015455D01*
X012755Y015596D01*
X012831Y015780D01*
X012831Y015979D01*
X012831Y015780D01*
X012907Y015596D01*
X013048Y015455D01*
X013232Y015379D01*
X013430Y015379D01*
X013614Y015455D01*
X013755Y015596D01*
X013831Y015780D01*
X013831Y015979D01*
X013831Y015780D01*
X013907Y015596D01*
X014048Y015455D01*
X014232Y015379D01*
X014430Y015379D01*
X014614Y015455D01*
X014755Y015596D01*
X014831Y015780D01*
X014907Y015596D01*
X015048Y015455D01*
X015232Y015379D01*
X015430Y015379D01*
X015614Y015455D01*
X015755Y015596D01*
X015831Y015780D01*
X015907Y015596D01*
X016048Y015455D01*
X016232Y015379D01*
X016430Y015379D01*
X016614Y015455D01*
X016755Y015596D01*
X016831Y015780D01*
X016907Y015596D01*
X017048Y015455D01*
X017232Y015379D01*
X017430Y015379D01*
X017614Y015455D01*
X017755Y015596D01*
X017831Y015780D01*
X017907Y015596D01*
X018048Y015455D01*
X018232Y015379D01*
X018430Y015379D01*
X018614Y015455D01*
X018755Y015596D01*
X018831Y015780D01*
X018907Y015596D01*
X019048Y015455D01*
X019232Y015379D01*
X019430Y015379D01*
X019614Y015455D01*
X019755Y015596D01*
X019831Y015780D01*
X019907Y015596D01*
X020048Y015455D01*
X020232Y015379D01*
X020430Y015379D01*
X020614Y015455D01*
X020755Y015596D01*
X020831Y015780D01*
X020907Y015596D01*
X021048Y015455D01*
X021232Y015379D01*
X021430Y015379D01*
X021232Y015379D01*
X021048Y015303D01*
X020907Y015162D01*
X020831Y014979D01*
X020831Y014780D01*
X020907Y014596D01*
X021048Y014455D01*
X021232Y014379D01*
X021430Y014379D01*
X021232Y014379D01*
X021048Y014303D01*
X020907Y014162D01*
X020831Y013979D01*
X020831Y013780D01*
X020907Y013596D01*
X021048Y013455D01*
X021232Y013379D01*
X021430Y013379D01*
X021614Y013455D01*
X021755Y013596D01*
X021831Y013780D01*
X021831Y013979D01*
X021755Y014162D01*
X021614Y014303D01*
X021430Y014379D01*
X021614Y014455D01*
X021755Y014596D01*
X021831Y014780D01*
X021831Y014979D01*
X021755Y015162D01*
X021614Y015303D01*
X021430Y015379D01*
X021614Y015455D01*
X021755Y015596D01*
X021831Y015780D01*
X021831Y015979D01*
X021755Y016162D01*
X021614Y016303D01*
X021430Y016379D01*
X021232Y016379D01*
X021048Y016303D01*
X020907Y016162D01*
X020831Y015979D01*
X020831Y015780D01*
X020831Y015979D01*
X020755Y016162D01*
X020614Y016303D01*
X020430Y016379D01*
X020241Y016379D01*
X021451Y017589D01*
X022889Y017589D01*
X022995Y017633D01*
X023995Y018633D01*
X024077Y018715D01*
X024121Y018821D01*
X024121Y020004D01*
X024301Y020184D01*
X024301Y020574D01*
X024121Y020754D01*
X024121Y021004D01*
X024301Y021184D01*
X024301Y021574D01*
X024026Y021849D01*
X023636Y021849D01*
X023361Y021574D01*
X023361Y021184D01*
X023541Y021004D01*
X023541Y020754D01*
X023361Y020574D01*
X023361Y020184D01*
X023541Y020004D01*
X023541Y019749D01*
X023501Y019789D01*
X023361Y019789D01*
X023361Y019409D01*
X023301Y019409D01*
X023301Y019349D01*
X023361Y019349D01*
X023361Y018969D01*
X023501Y018969D01*
X023541Y019009D01*
X023541Y018999D01*
X022711Y018169D01*
X021531Y018169D01*
X022271Y018909D01*
X022526Y018909D01*
X022801Y019184D01*
X022801Y019574D01*
X022621Y019754D01*
X022621Y020009D01*
X022661Y019969D01*
X022801Y019969D01*
X022801Y020349D01*
X022861Y020349D01*
X022861Y019969D01*
X023001Y019969D01*
X023241Y020209D01*
X023241Y020349D01*
X022861Y020349D01*
X022861Y020409D01*
X023241Y020409D01*
X023241Y020549D01*
X023001Y020789D01*
X022861Y020789D01*
X022861Y020409D01*
X022801Y020409D01*
X022801Y020789D01*
X022661Y020789D01*
X022621Y020749D01*
X022621Y021004D01*
X022801Y021184D01*
X022801Y021574D01*
X022526Y021849D01*
X022136Y021849D01*
X021861Y021574D01*
X021861Y021184D01*
X022041Y021004D01*
X022041Y019754D01*
X021861Y019574D01*
X021861Y019319D01*
X021621Y019079D01*
X021621Y020004D01*
X021801Y020184D01*
X021801Y020574D01*
X021621Y020754D01*
X021621Y021004D01*
X021801Y021184D01*
X021801Y021574D01*
X021526Y021849D01*
X021136Y021849D01*
X020861Y021574D01*
X020861Y021184D01*
X021041Y021004D01*
X021041Y020754D01*
X020861Y020574D01*
X020861Y020184D01*
X021041Y020004D01*
X021041Y019749D01*
X021001Y019789D01*
X020861Y019789D01*
X020861Y019409D01*
X020801Y019409D01*
X020801Y019349D01*
X020421Y019349D01*
X020421Y019209D01*
X020461Y019169D01*
X020286Y019169D01*
X020301Y019184D01*
X020301Y019574D01*
X020121Y019754D01*
X020121Y020009D01*
X020161Y019969D01*
X020301Y019969D01*
X020301Y020349D01*
X020361Y020349D01*
X020361Y019969D01*
X020501Y019969D01*
X020741Y020209D01*
X020741Y020349D01*
X020361Y020349D01*
X020361Y020409D01*
X020741Y020409D01*
X020741Y020549D01*
X020501Y020789D01*
X020361Y020789D01*
X020361Y020409D01*
X020301Y020409D01*
X020301Y020789D01*
X020161Y020789D01*
X020121Y020749D01*
X020121Y021004D01*
X020301Y021184D01*
X020301Y021574D01*
X020026Y021849D01*
X019636Y021849D01*
X019361Y021574D01*
X019361Y021184D01*
X019541Y021004D01*
X019541Y019754D01*
X019361Y019574D01*
X019361Y019319D01*
X019121Y019079D01*
X019121Y020004D01*
X019301Y020184D01*
X019301Y020574D01*
X019121Y020754D01*
X019121Y021004D01*
X019301Y021184D01*
X019301Y021574D01*
X019026Y021849D01*
X018636Y021849D01*
X018361Y021574D01*
X018361Y021184D01*
X018541Y021004D01*
X018541Y020754D01*
X018361Y020574D01*
X018361Y020184D01*
X018541Y020004D01*
X018541Y019749D01*
X018501Y019789D01*
X018361Y019789D01*
X018361Y019409D01*
X018301Y019409D01*
X018301Y019349D01*
X017921Y019349D01*
X017921Y019209D01*
X017961Y019169D01*
X017786Y019169D01*
X017801Y019184D01*
X017801Y019574D01*
X017621Y019754D01*
X017621Y020009D01*
X017661Y019969D01*
X017801Y019969D01*
X017801Y020349D01*
X017861Y020349D01*
X017861Y019969D01*
X018001Y019969D01*
X018241Y020209D01*
X018241Y020349D01*
X017861Y020349D01*
X017861Y020409D01*
X018241Y020409D01*
X018241Y020549D01*
X018001Y020789D01*
X017861Y020789D01*
X017861Y020409D01*
X017801Y020409D01*
X017801Y020789D01*
X017661Y020789D01*
X017621Y020749D01*
X017621Y021004D01*
X017801Y021184D01*
X017801Y021574D01*
X017526Y021849D01*
X017136Y021849D01*
X016861Y021574D01*
X016861Y021184D01*
X017041Y021004D01*
X017041Y019754D01*
X016861Y019574D01*
X016861Y019319D01*
X014085Y016543D01*
X014041Y016437D01*
X014041Y016336D02*
X013534Y016336D01*
X013680Y016238D02*
X013982Y016238D01*
X013897Y016139D02*
X013764Y016139D01*
X013805Y016041D02*
X013857Y016041D01*
X013831Y015942D02*
X013831Y015942D01*
X013831Y015844D02*
X013831Y015844D01*
X013817Y015745D02*
X013845Y015745D01*
X013886Y015647D02*
X013776Y015647D01*
X013707Y015548D02*
X013955Y015548D01*
X014061Y015450D02*
X013601Y015450D01*
X013498Y015351D02*
X021164Y015351D01*
X021061Y015450D02*
X020601Y015450D01*
X020707Y015548D02*
X020955Y015548D01*
X020886Y015647D02*
X020776Y015647D01*
X020817Y015745D02*
X020845Y015745D01*
X020831Y015844D02*
X020831Y015844D01*
X020831Y015942D02*
X020831Y015942D01*
X020805Y016041D02*
X020857Y016041D01*
X020897Y016139D02*
X020764Y016139D01*
X020680Y016238D02*
X020982Y016238D01*
X021128Y016336D02*
X020534Y016336D01*
X020395Y016533D02*
X028267Y016533D01*
X028365Y016435D02*
X020297Y016435D01*
X020494Y016632D02*
X028168Y016632D01*
X028070Y016730D02*
X020592Y016730D01*
X020691Y016829D02*
X027971Y016829D01*
X027873Y016927D02*
X020789Y016927D01*
X020888Y017026D02*
X027774Y017026D01*
X027676Y017124D02*
X020986Y017124D01*
X021282Y017420D02*
X027541Y017420D01*
X027541Y017518D02*
X021380Y017518D01*
X021570Y018208D02*
X022749Y018208D01*
X022848Y018306D02*
X021668Y018306D01*
X021767Y018405D02*
X022946Y018405D01*
X023045Y018503D02*
X021865Y018503D01*
X021964Y018602D02*
X023143Y018602D01*
X023242Y018700D02*
X022062Y018700D01*
X022161Y018799D02*
X023340Y018799D01*
X023439Y018897D02*
X022259Y018897D01*
X022612Y018996D02*
X023135Y018996D01*
X023161Y018969D02*
X023301Y018969D01*
X023301Y019349D01*
X022921Y019349D01*
X022921Y019209D01*
X023161Y018969D01*
X023301Y018996D02*
X023361Y018996D01*
X023361Y019094D02*
X023301Y019094D01*
X023301Y019193D02*
X023361Y019193D01*
X023361Y019291D02*
X023301Y019291D01*
X023301Y019390D02*
X022801Y019390D01*
X022801Y019488D02*
X022921Y019488D01*
X022921Y019549D02*
X022921Y019409D01*
X023301Y019409D01*
X023301Y019789D01*
X023161Y019789D01*
X022921Y019549D01*
X022959Y019587D02*
X022788Y019587D01*
X022690Y019685D02*
X023057Y019685D01*
X023156Y019784D02*
X022621Y019784D01*
X022621Y019882D02*
X023541Y019882D01*
X023541Y019784D02*
X023506Y019784D01*
X023361Y019784D02*
X023301Y019784D01*
X023301Y019685D02*
X023361Y019685D01*
X023361Y019587D02*
X023301Y019587D01*
X023301Y019488D02*
X023361Y019488D01*
X022921Y019291D02*
X022801Y019291D01*
X022801Y019193D02*
X022938Y019193D01*
X023036Y019094D02*
X022711Y019094D01*
X023527Y018996D02*
X023537Y018996D01*
X023964Y018602D02*
X027360Y018602D01*
X027320Y018503D02*
X023865Y018503D01*
X023767Y018405D02*
X027311Y018405D01*
X027311Y018306D02*
X023668Y018306D01*
X023570Y018208D02*
X027339Y018208D01*
X027380Y018109D02*
X023471Y018109D01*
X023373Y018011D02*
X027464Y018011D01*
X027541Y017912D02*
X023274Y017912D01*
X023176Y017814D02*
X027541Y017814D01*
X027541Y017715D02*
X023077Y017715D01*
X022955Y017617D02*
X027541Y017617D01*
X028121Y017617D02*
X030401Y017617D01*
X030401Y017693D02*
X030401Y017419D01*
X030791Y017419D01*
X030791Y017339D01*
X030871Y017339D01*
X030871Y016670D01*
X030932Y016680D01*
X030996Y016701D01*
X031056Y016731D01*
X031111Y016771D01*
X031159Y016819D01*
X031199Y016874D01*
X031229Y016934D01*
X031250Y016998D01*
X031261Y017065D01*
X031261Y017339D01*
X030871Y017339D01*
X030871Y017419D01*
X031261Y017419D01*
X031261Y017693D01*
X031250Y017760D01*
X031229Y017824D01*
X031199Y017885D01*
X031159Y017939D01*
X031111Y017987D01*
X031056Y018027D01*
X030996Y018058D01*
X030932Y018079D01*
X030871Y018088D01*
X030871Y017419D01*
X030791Y017419D01*
X030791Y018088D01*
X030730Y018079D01*
X030666Y018058D01*
X030606Y018027D01*
X030551Y017987D01*
X030503Y017939D01*
X030463Y017885D01*
X030432Y017824D01*
X030412Y017760D01*
X030401Y017693D01*
X030404Y017715D02*
X028121Y017715D01*
X028121Y017814D02*
X030429Y017814D01*
X030483Y017912D02*
X028121Y017912D01*
X028198Y018011D02*
X028549Y018011D01*
X028640Y017919D02*
X028801Y017919D01*
X028801Y018349D01*
X028861Y018349D01*
X028861Y017919D01*
X029022Y017919D01*
X029291Y018189D01*
X029291Y018349D01*
X028861Y018349D01*
X028861Y018409D01*
X029291Y018409D01*
X029291Y018570D01*
X029022Y018839D01*
X028861Y018839D01*
X028861Y018409D01*
X028801Y018409D01*
X028801Y018349D01*
X028371Y018349D01*
X028371Y018189D01*
X028640Y017919D01*
X028801Y018011D02*
X028861Y018011D01*
X028861Y018109D02*
X028801Y018109D01*
X028801Y018208D02*
X028861Y018208D01*
X028861Y018306D02*
X028801Y018306D01*
X028801Y018405D02*
X028351Y018405D01*
X028371Y018409D02*
X028801Y018409D01*
X028801Y018839D01*
X028640Y018839D01*
X028371Y018570D01*
X028371Y018409D01*
X028371Y018503D02*
X028342Y018503D01*
X028302Y018602D02*
X028403Y018602D01*
X028501Y018700D02*
X028245Y018700D01*
X028147Y018799D02*
X028600Y018799D01*
X028801Y018799D02*
X028861Y018799D01*
X028861Y018700D02*
X028801Y018700D01*
X028801Y018602D02*
X028861Y018602D01*
X028861Y018503D02*
X028801Y018503D01*
X028861Y018405D02*
X032961Y018405D01*
X032961Y018503D02*
X029291Y018503D01*
X029259Y018602D02*
X032961Y018602D01*
X032961Y018700D02*
X029160Y018700D01*
X029062Y018799D02*
X032961Y018799D01*
X032961Y018897D02*
X028121Y018897D01*
X028121Y018996D02*
X032961Y018996D01*
X032961Y019094D02*
X028121Y019094D01*
X028121Y019193D02*
X032961Y019193D01*
X032961Y019291D02*
X028121Y019291D01*
X028121Y019390D02*
X032961Y019390D01*
X032961Y019488D02*
X028121Y019488D01*
X028121Y019587D02*
X032961Y019587D01*
X032961Y019685D02*
X028121Y019685D01*
X028121Y019784D02*
X032961Y019784D01*
X032961Y019882D02*
X028121Y019882D01*
X028121Y019981D02*
X032961Y019981D01*
X032961Y020079D02*
X028121Y020079D01*
X028121Y020178D02*
X032961Y020178D01*
X032961Y020276D02*
X028121Y020276D01*
X028121Y020375D02*
X032961Y020375D01*
X032961Y020473D02*
X028121Y020473D01*
X028121Y020572D02*
X032961Y020572D01*
X032961Y020670D02*
X028121Y020670D01*
X028121Y020769D02*
X032961Y020769D01*
X032961Y020867D02*
X028121Y020867D01*
X028439Y020966D02*
X032961Y020966D01*
X032961Y021064D02*
X028537Y021064D01*
X028593Y021163D02*
X032961Y021163D01*
X032961Y021261D02*
X028634Y021261D01*
X028641Y021360D02*
X032961Y021360D01*
X032961Y021458D02*
X028641Y021458D01*
X028609Y021557D02*
X032961Y021557D01*
X032961Y021655D02*
X028569Y021655D01*
X028478Y021754D02*
X032961Y021754D01*
X032961Y021852D02*
X028322Y021852D01*
X028304Y021962D02*
X028367Y021994D01*
X028424Y022036D01*
X028474Y022086D01*
X028516Y022143D01*
X028548Y022206D01*
X028570Y022274D01*
X028579Y022329D01*
X027881Y022329D01*
X027881Y021929D01*
X028166Y021929D01*
X028236Y021940D01*
X028304Y021962D01*
X028269Y021951D02*
X032961Y021951D01*
X032961Y022049D02*
X028437Y022049D01*
X028518Y022148D02*
X032961Y022148D01*
X032961Y022246D02*
X028561Y022246D01*
X028579Y022429D02*
X028570Y022485D01*
X028548Y022552D01*
X028516Y022615D01*
X028474Y022672D01*
X028424Y022722D01*
X028367Y022764D01*
X028304Y022796D01*
X028236Y022818D01*
X028166Y022829D01*
X027881Y022829D01*
X027881Y022429D01*
X028579Y022429D01*
X028576Y022443D02*
X032961Y022443D01*
X032961Y022345D02*
X027881Y022345D01*
X027881Y022329D02*
X027881Y022429D01*
X027781Y022429D01*
X027781Y022329D01*
X027881Y022329D01*
X027881Y022246D02*
X027781Y022246D01*
X027781Y022329D02*
X027781Y021929D01*
X027496Y021929D01*
X027426Y021940D01*
X027358Y021962D01*
X027295Y021994D01*
X027238Y022036D01*
X027188Y022086D01*
X027146Y022143D01*
X027114Y022206D01*
X027092Y022274D01*
X027083Y022329D01*
X027781Y022329D01*
X027781Y022345D02*
X015207Y022345D01*
X015305Y022443D02*
X027086Y022443D01*
X027083Y022429D02*
X027781Y022429D01*
X027781Y022829D01*
X027496Y022829D01*
X027426Y022818D01*
X027358Y022796D01*
X027295Y022764D01*
X027238Y022722D01*
X027188Y022672D01*
X027146Y022615D01*
X027114Y022552D01*
X027092Y022485D01*
X027083Y022429D01*
X027111Y022542D02*
X015404Y022542D01*
X015502Y022640D02*
X027164Y022640D01*
X027260Y022739D02*
X015601Y022739D01*
X015699Y022837D02*
X032961Y022837D01*
X032961Y022739D02*
X028402Y022739D01*
X028498Y022640D02*
X032961Y022640D01*
X032961Y022542D02*
X028551Y022542D01*
X028393Y022936D02*
X032011Y022936D01*
X031912Y023034D02*
X028507Y023034D01*
X028508Y023724D02*
X031912Y023724D01*
X032010Y023822D02*
X028394Y023822D01*
X027268Y023822D02*
X013091Y023822D01*
X013089Y023724D02*
X027154Y023724D01*
X027155Y023034D02*
X015896Y023034D01*
X015798Y022936D02*
X027269Y022936D01*
X027781Y022739D02*
X027881Y022739D01*
X027881Y022640D02*
X027781Y022640D01*
X027781Y022542D02*
X027881Y022542D01*
X027881Y022443D02*
X027781Y022443D01*
X027781Y022148D02*
X027881Y022148D01*
X027881Y022049D02*
X027781Y022049D01*
X027781Y021951D02*
X027881Y021951D01*
X027393Y021951D02*
X014813Y021951D01*
X014911Y022049D02*
X027225Y022049D01*
X027144Y022148D02*
X015010Y022148D01*
X015108Y022246D02*
X027101Y022246D01*
X027340Y021852D02*
X014714Y021852D01*
X014616Y021754D02*
X017041Y021754D01*
X016942Y021655D02*
X014517Y021655D01*
X014419Y021557D02*
X016861Y021557D01*
X016861Y021458D02*
X014320Y021458D01*
X014222Y021360D02*
X016861Y021360D01*
X016861Y021261D02*
X014123Y021261D01*
X014025Y021163D02*
X016883Y021163D01*
X016981Y021064D02*
X013926Y021064D01*
X013828Y020966D02*
X017041Y020966D01*
X017041Y020867D02*
X013729Y020867D01*
X013631Y020769D02*
X017041Y020769D01*
X017041Y020670D02*
X013532Y020670D01*
X013434Y020572D02*
X017041Y020572D01*
X017041Y020473D02*
X013335Y020473D01*
X013237Y020375D02*
X017041Y020375D01*
X017041Y020276D02*
X013138Y020276D01*
X013040Y020178D02*
X017041Y020178D01*
X017041Y020079D02*
X012941Y020079D01*
X012843Y019981D02*
X017041Y019981D01*
X017041Y019882D02*
X012744Y019882D01*
X012646Y019784D02*
X017041Y019784D01*
X016972Y019685D02*
X012547Y019685D01*
X012449Y019587D02*
X016874Y019587D01*
X016861Y019488D02*
X012350Y019488D01*
X012252Y019390D02*
X016861Y019390D01*
X016833Y019291D02*
X012153Y019291D01*
X012055Y019193D02*
X016734Y019193D01*
X016636Y019094D02*
X011956Y019094D01*
X011858Y018996D02*
X016537Y018996D01*
X016439Y018897D02*
X011759Y018897D01*
X011661Y018799D02*
X016340Y018799D01*
X016242Y018700D02*
X011562Y018700D01*
X011464Y018602D02*
X016143Y018602D01*
X016045Y018503D02*
X011365Y018503D01*
X011267Y018405D02*
X015946Y018405D01*
X015848Y018306D02*
X011168Y018306D01*
X011070Y018208D02*
X015749Y018208D01*
X015651Y018109D02*
X010971Y018109D01*
X010873Y018011D02*
X015552Y018011D01*
X015454Y017912D02*
X010774Y017912D01*
X010676Y017814D02*
X015355Y017814D01*
X015257Y017715D02*
X010577Y017715D01*
X010479Y017617D02*
X015158Y017617D01*
X015060Y017518D02*
X010380Y017518D01*
X010282Y017420D02*
X014961Y017420D01*
X014863Y017321D02*
X010183Y017321D01*
X010085Y017223D02*
X014764Y017223D01*
X014666Y017124D02*
X009986Y017124D01*
X009888Y017026D02*
X014567Y017026D01*
X014469Y016927D02*
X009789Y016927D01*
X009691Y016829D02*
X014370Y016829D01*
X014272Y016730D02*
X009592Y016730D01*
X009494Y016632D02*
X014173Y016632D01*
X014081Y016533D02*
X009395Y016533D01*
X009534Y016336D02*
X010128Y016336D01*
X009982Y016238D02*
X009680Y016238D01*
X009764Y016139D02*
X009897Y016139D01*
X009857Y016041D02*
X009805Y016041D01*
X009831Y015942D02*
X009831Y015942D01*
X009831Y015844D02*
X009831Y015844D01*
X009817Y015745D02*
X009845Y015745D01*
X009886Y015647D02*
X009776Y015647D01*
X009707Y015548D02*
X009955Y015548D01*
X010041Y015450D02*
X009601Y015450D01*
X009498Y015351D02*
X010041Y015351D01*
X010041Y015253D02*
X009665Y015253D01*
X009758Y015154D02*
X010041Y015154D01*
X010041Y015056D02*
X009799Y015056D01*
X009831Y014957D02*
X010041Y014957D01*
X010041Y014859D02*
X009831Y014859D01*
X009823Y014760D02*
X010041Y014760D01*
X010041Y014662D02*
X009782Y014662D01*
X009722Y014563D02*
X010041Y014563D01*
X010041Y014465D02*
X009624Y014465D01*
X010041Y014366D02*
X007461Y014366D01*
X007461Y014268D02*
X010063Y014268D01*
X010131Y014169D02*
X007461Y014169D01*
X007461Y014071D02*
X010229Y014071D01*
X010328Y013972D02*
X007461Y013972D01*
X007461Y013874D02*
X010426Y013874D01*
X010525Y013775D02*
X007461Y013775D01*
X007461Y013677D02*
X010623Y013677D01*
X010722Y013578D02*
X007461Y013578D01*
X007461Y013480D02*
X010820Y013480D01*
X010919Y013381D02*
X007461Y013381D01*
X007461Y013283D02*
X011017Y013283D01*
X011116Y013184D02*
X007461Y013184D01*
X007461Y013086D02*
X011214Y013086D01*
X011313Y012987D02*
X007461Y012987D01*
X007461Y012889D02*
X011411Y012889D01*
X011510Y012790D02*
X007461Y012790D01*
X007461Y012692D02*
X011608Y012692D01*
X011707Y012593D02*
X007461Y012593D01*
X007461Y012495D02*
X011805Y012495D01*
X011904Y012396D02*
X007461Y012396D01*
X007461Y012298D02*
X012002Y012298D01*
X012101Y012199D02*
X007461Y012199D01*
X007461Y012101D02*
X012199Y012101D01*
X012298Y012002D02*
X007461Y012002D01*
X007461Y011904D02*
X012396Y011904D01*
X012495Y011805D02*
X007461Y011805D01*
X007461Y011707D02*
X012593Y011707D01*
X012727Y011608D02*
X007461Y011608D01*
X007461Y011510D02*
X020993Y011510D01*
X021154Y011411D02*
X007461Y011411D01*
X007461Y011313D02*
X021071Y011313D01*
X020959Y011214D02*
X007461Y011214D01*
X007461Y011116D02*
X020888Y011116D01*
X020847Y011017D02*
X007461Y011017D01*
X007461Y010919D02*
X020831Y010919D01*
X020831Y010820D02*
X007461Y010820D01*
X007461Y010722D02*
X020855Y010722D01*
X020896Y010623D02*
X007461Y010623D01*
X007461Y010525D02*
X020978Y010525D01*
X021118Y010426D02*
X007461Y010426D01*
X007461Y010328D02*
X009107Y010328D01*
X009048Y010303D02*
X008907Y010162D01*
X008831Y009979D01*
X008831Y009780D01*
X008907Y009596D01*
X009048Y009455D01*
X009232Y009379D01*
X009430Y009379D01*
X009614Y009455D01*
X009755Y009596D01*
X009831Y009780D01*
X009831Y009979D01*
X009755Y010162D01*
X009614Y010303D01*
X009430Y010379D01*
X009232Y010379D01*
X009048Y010303D01*
X008974Y010229D02*
X008598Y010229D01*
X008618Y010215D02*
X008562Y010255D01*
X008500Y010287D01*
X008434Y010308D01*
X008376Y010318D01*
X008376Y009924D01*
X008769Y009924D01*
X008760Y009982D01*
X008739Y010048D01*
X008707Y010110D01*
X008667Y010166D01*
X008618Y010215D01*
X008692Y010131D02*
X008894Y010131D01*
X008853Y010032D02*
X008744Y010032D01*
X008768Y009934D02*
X008831Y009934D01*
X008831Y009835D02*
X008376Y009835D01*
X008376Y009834D02*
X008376Y009924D01*
X008286Y009924D01*
X008286Y009834D01*
X008376Y009834D01*
X008376Y009441D01*
X008286Y009441D01*
X008286Y009834D01*
X007893Y009834D01*
X007902Y009776D01*
X007923Y009710D01*
X007955Y009649D01*
X007995Y009593D01*
X008044Y009544D01*
X008100Y009503D01*
X008162Y009471D01*
X008228Y009450D01*
X008286Y009441D01*
X008284Y009441D02*
X007461Y009441D01*
X007461Y009343D02*
X012041Y009343D01*
X012041Y009441D02*
X011580Y009441D01*
X011614Y009455D02*
X011430Y009379D01*
X011232Y009379D01*
X011048Y009455D01*
X010907Y009596D01*
X010831Y009780D01*
X010755Y009596D01*
X010614Y009455D01*
X010430Y009379D01*
X010232Y009379D01*
X010048Y009455D01*
X009907Y009596D01*
X009831Y009780D01*
X009831Y009979D01*
X009907Y010162D01*
X010048Y010303D01*
X010232Y010379D01*
X010430Y010379D01*
X010614Y010303D01*
X010755Y010162D01*
X010831Y009979D01*
X010831Y009780D01*
X010831Y009979D01*
X010907Y010162D01*
X011048Y010303D01*
X011232Y010379D01*
X011430Y010379D01*
X011614Y010303D01*
X011755Y010162D01*
X011831Y009979D01*
X011831Y009780D01*
X011755Y009596D01*
X011614Y009455D01*
X011699Y009540D02*
X011963Y009540D01*
X011890Y009638D02*
X011772Y009638D01*
X011813Y009737D02*
X011849Y009737D01*
X011831Y009835D02*
X011831Y009835D01*
X011831Y009934D02*
X011831Y009934D01*
X011809Y010032D02*
X011853Y010032D01*
X011894Y010131D02*
X011768Y010131D01*
X011688Y010229D02*
X011974Y010229D01*
X012107Y010328D02*
X011555Y010328D01*
X011107Y010328D02*
X010555Y010328D01*
X010688Y010229D02*
X010974Y010229D01*
X010894Y010131D02*
X010768Y010131D01*
X010809Y010032D02*
X010853Y010032D01*
X010831Y009934D02*
X010831Y009934D01*
X010831Y009835D02*
X010831Y009835D01*
X010813Y009737D02*
X010849Y009737D01*
X010890Y009638D02*
X010772Y009638D01*
X010699Y009540D02*
X010963Y009540D01*
X011082Y009441D02*
X010580Y009441D01*
X010082Y009441D02*
X009580Y009441D01*
X009699Y009540D02*
X009963Y009540D01*
X009890Y009638D02*
X009772Y009638D01*
X009813Y009737D02*
X009849Y009737D01*
X009831Y009835D02*
X009831Y009835D01*
X009831Y009934D02*
X009831Y009934D01*
X009809Y010032D02*
X009853Y010032D01*
X009894Y010131D02*
X009768Y010131D01*
X009688Y010229D02*
X009974Y010229D01*
X010107Y010328D02*
X009555Y010328D01*
X008849Y009737D02*
X008747Y009737D01*
X008739Y009710D02*
X008760Y009776D01*
X008769Y009834D01*
X008376Y009834D01*
X008286Y009835D02*
X007461Y009835D01*
X007461Y009737D02*
X007915Y009737D01*
X007962Y009638D02*
X007461Y009638D01*
X007461Y009540D02*
X008050Y009540D01*
X008286Y009540D02*
X008376Y009540D01*
X008376Y009638D02*
X008286Y009638D01*
X008286Y009737D02*
X008376Y009737D01*
X008376Y009934D02*
X008286Y009934D01*
X008286Y009924D02*
X008286Y010318D01*
X008228Y010308D01*
X008162Y010287D01*
X008100Y010255D01*
X008044Y010215D01*
X007995Y010166D01*
X007955Y010110D01*
X007923Y010048D01*
X007902Y009982D01*
X007893Y009924D01*
X008286Y009924D01*
X008286Y010032D02*
X008376Y010032D01*
X008376Y010131D02*
X008286Y010131D01*
X008286Y010229D02*
X008376Y010229D01*
X008064Y010229D02*
X007461Y010229D01*
X007461Y010131D02*
X007970Y010131D01*
X007918Y010032D02*
X007461Y010032D01*
X007461Y009934D02*
X007894Y009934D01*
X008376Y009441D02*
X008434Y009450D01*
X008500Y009471D01*
X008562Y009503D01*
X008618Y009544D01*
X008667Y009593D01*
X008707Y009649D01*
X008739Y009710D01*
X008700Y009638D02*
X008890Y009638D01*
X008963Y009540D02*
X008612Y009540D01*
X008378Y009441D02*
X009082Y009441D01*
X007461Y009244D02*
X012041Y009244D01*
X012041Y009146D02*
X007461Y009146D01*
X007461Y009047D02*
X012041Y009047D01*
X012041Y008949D02*
X007461Y008949D01*
X007461Y008850D02*
X012041Y008850D01*
X012041Y008752D02*
X007461Y008752D01*
X007461Y008653D02*
X012041Y008653D01*
X012041Y008555D02*
X007461Y008555D01*
X007461Y008456D02*
X012041Y008456D01*
X012041Y008358D02*
X007461Y008358D01*
X007461Y008259D02*
X012041Y008259D01*
X012041Y008161D02*
X007461Y008161D01*
X007461Y008062D02*
X012041Y008062D01*
X012041Y007964D02*
X007461Y007964D01*
X007461Y007865D02*
X012041Y007865D01*
X012041Y007767D02*
X007461Y007767D01*
X007461Y007668D02*
X011955Y007668D01*
X011861Y007570D02*
X007461Y007570D01*
X007461Y007471D02*
X011861Y007471D01*
X011861Y007373D02*
X007461Y007373D01*
X007461Y007274D02*
X011861Y007274D01*
X011870Y007176D02*
X007461Y007176D01*
X007461Y007077D02*
X011968Y007077D01*
X012067Y006979D02*
X007461Y006979D01*
X007461Y006880D02*
X015920Y006880D01*
X016018Y006782D02*
X012593Y006782D01*
X012526Y006849D02*
X012136Y006849D01*
X011861Y006574D01*
X011861Y006184D01*
X012041Y006004D01*
X012041Y005754D01*
X011861Y005574D01*
X011861Y005184D01*
X012136Y004909D01*
X012391Y004909D01*
X015167Y002133D01*
X015273Y002089D01*
X017956Y002089D01*
X018136Y001909D01*
X018526Y001909D01*
X018706Y002089D01*
X021206Y002089D01*
X021386Y001909D01*
X021776Y001909D01*
X021956Y002089D01*
X024456Y002089D01*
X024636Y001909D01*
X025026Y001909D01*
X025301Y002184D01*
X025301Y002574D01*
X025026Y002849D01*
X024636Y002849D01*
X024456Y002669D01*
X021956Y002669D01*
X021776Y002849D01*
X021386Y002849D01*
X021206Y002669D01*
X018706Y002669D01*
X018526Y002849D01*
X018136Y002849D01*
X017956Y002669D01*
X015451Y002669D01*
X012801Y005319D01*
X012801Y005574D01*
X012621Y005754D01*
X012621Y006004D01*
X012801Y006184D01*
X012801Y006574D01*
X012526Y006849D01*
X012595Y006979D02*
X015821Y006979D01*
X015723Y007077D02*
X012694Y007077D01*
X012792Y007176D02*
X015624Y007176D01*
X015526Y007274D02*
X012801Y007274D01*
X012801Y007373D02*
X015427Y007373D01*
X015329Y007471D02*
X012801Y007471D01*
X012801Y007570D02*
X015230Y007570D01*
X015132Y007668D02*
X012707Y007668D01*
X012621Y007767D02*
X015033Y007767D01*
X014935Y007865D02*
X012621Y007865D01*
X012621Y007964D02*
X014836Y007964D01*
X014738Y008062D02*
X012621Y008062D01*
X012621Y008161D02*
X014639Y008161D01*
X014541Y008259D02*
X012621Y008259D01*
X012621Y008358D02*
X014442Y008358D01*
X014344Y008456D02*
X012621Y008456D01*
X012621Y008555D02*
X014245Y008555D01*
X014147Y008653D02*
X012621Y008653D01*
X012621Y008752D02*
X014048Y008752D01*
X013950Y008850D02*
X012621Y008850D01*
X012621Y008949D02*
X013851Y008949D01*
X013753Y009047D02*
X012621Y009047D01*
X012621Y009146D02*
X013654Y009146D01*
X013556Y009244D02*
X012621Y009244D01*
X012621Y009343D02*
X013457Y009343D01*
X013082Y009441D02*
X012621Y009441D01*
X012699Y009540D02*
X012963Y009540D01*
X012890Y009638D02*
X012772Y009638D01*
X012813Y009737D02*
X012849Y009737D01*
X012831Y009835D02*
X012831Y009835D01*
X012831Y009934D02*
X012831Y009934D01*
X012809Y010032D02*
X012853Y010032D01*
X012894Y010131D02*
X012768Y010131D01*
X012688Y010229D02*
X012974Y010229D01*
X013107Y010328D02*
X012555Y010328D01*
X013555Y010328D02*
X014107Y010328D01*
X013974Y010229D02*
X013688Y010229D01*
X013768Y010131D02*
X013894Y010131D01*
X013853Y010032D02*
X013809Y010032D01*
X013831Y009934D02*
X013831Y009934D01*
X013831Y009835D02*
X013831Y009835D01*
X014278Y009343D02*
X014457Y009343D01*
X014376Y009244D02*
X014556Y009244D01*
X014475Y009146D02*
X014654Y009146D01*
X014573Y009047D02*
X014753Y009047D01*
X014672Y008949D02*
X014851Y008949D01*
X014770Y008850D02*
X014950Y008850D01*
X014869Y008752D02*
X015048Y008752D01*
X014967Y008653D02*
X015147Y008653D01*
X015066Y008555D02*
X015245Y008555D01*
X015164Y008456D02*
X015344Y008456D01*
X015263Y008358D02*
X015442Y008358D01*
X015361Y008259D02*
X015541Y008259D01*
X015460Y008161D02*
X015639Y008161D01*
X015558Y008062D02*
X015738Y008062D01*
X015657Y007964D02*
X015836Y007964D01*
X015755Y007865D02*
X015935Y007865D01*
X015854Y007767D02*
X016033Y007767D01*
X015952Y007668D02*
X016132Y007668D01*
X016051Y007570D02*
X016230Y007570D01*
X016149Y007471D02*
X016329Y007471D01*
X016248Y007373D02*
X016427Y007373D01*
X016346Y007274D02*
X016526Y007274D01*
X016445Y007176D02*
X016624Y007176D01*
X016543Y007077D02*
X016723Y007077D01*
X016642Y006979D02*
X016821Y006979D01*
X016740Y006880D02*
X016920Y006880D01*
X016839Y006782D02*
X017018Y006782D01*
X016937Y006683D02*
X017117Y006683D01*
X017036Y006585D02*
X017215Y006585D01*
X017134Y006486D02*
X017314Y006486D01*
X017233Y006388D02*
X017412Y006388D01*
X017331Y006289D02*
X017511Y006289D01*
X017430Y006191D02*
X017609Y006191D01*
X017528Y006092D02*
X017708Y006092D01*
X017627Y005994D02*
X017806Y005994D01*
X017725Y005895D02*
X017905Y005895D01*
X017824Y005797D02*
X018003Y005797D01*
X017922Y005698D02*
X018102Y005698D01*
X018021Y005600D02*
X018200Y005600D01*
X018119Y005501D02*
X018299Y005501D01*
X018218Y005403D02*
X018397Y005403D01*
X018316Y005304D02*
X018496Y005304D01*
X018415Y005206D02*
X018594Y005206D01*
X018513Y005107D02*
X018693Y005107D01*
X018791Y005009D02*
X018591Y005009D01*
X018621Y004910D02*
X018890Y004910D01*
X018988Y004812D02*
X018621Y004812D01*
X018621Y004713D02*
X019087Y004713D01*
X019212Y004615D02*
X018621Y004615D01*
X018621Y004516D02*
X020284Y004516D01*
X020382Y004418D02*
X018621Y004418D01*
X018621Y004319D02*
X020481Y004319D01*
X020579Y004221D02*
X018621Y004221D01*
X018621Y004122D02*
X020678Y004122D01*
X020776Y004024D02*
X018621Y004024D01*
X018621Y003925D02*
X020875Y003925D01*
X020973Y003827D02*
X018621Y003827D01*
X018647Y003728D02*
X021072Y003728D01*
X021167Y003630D02*
X018745Y003630D01*
X018801Y003531D02*
X021111Y003531D01*
X021111Y003433D02*
X018801Y003433D01*
X018801Y003334D02*
X021111Y003334D01*
X021111Y003236D02*
X018801Y003236D01*
X018754Y003137D02*
X021158Y003137D01*
X021257Y003039D02*
X018655Y003039D01*
X018557Y002940D02*
X021355Y002940D01*
X021379Y002842D02*
X018533Y002842D01*
X018632Y002743D02*
X021280Y002743D01*
X021783Y002842D02*
X024629Y002842D01*
X024605Y002940D02*
X021807Y002940D01*
X021905Y003039D02*
X024507Y003039D01*
X024408Y003137D02*
X022004Y003137D01*
X022051Y003236D02*
X024361Y003236D01*
X024361Y003334D02*
X022051Y003334D01*
X022051Y003433D02*
X024361Y003433D01*
X024361Y003531D02*
X022051Y003531D01*
X021995Y003630D02*
X024417Y003630D01*
X024515Y003728D02*
X021897Y003728D01*
X021798Y003827D02*
X024473Y003827D01*
X024375Y003925D02*
X021695Y003925D01*
X021597Y004024D02*
X024276Y004024D01*
X024178Y004122D02*
X021498Y004122D01*
X021400Y004221D02*
X024079Y004221D01*
X023981Y004319D02*
X021301Y004319D01*
X021203Y004418D02*
X023882Y004418D01*
X023784Y004516D02*
X021104Y004516D01*
X021006Y004615D02*
X023685Y004615D01*
X023587Y004713D02*
X020907Y004713D01*
X020809Y004812D02*
X023488Y004812D01*
X023390Y004910D02*
X020710Y004910D01*
X020612Y005009D02*
X023291Y005009D01*
X023816Y005304D02*
X033071Y005304D01*
X033071Y005228D02*
X033187Y004949D01*
X033401Y004735D01*
X033680Y004619D01*
X033982Y004619D01*
X034261Y004735D01*
X034475Y004949D01*
X034591Y005228D01*
X034591Y005530D01*
X034475Y005810D01*
X034261Y006023D01*
X033982Y006139D01*
X033680Y006139D01*
X033401Y006023D01*
X033187Y005810D01*
X033071Y005530D01*
X033071Y005228D01*
X033080Y005206D02*
X023915Y005206D01*
X024013Y005107D02*
X033121Y005107D01*
X033162Y005009D02*
X024112Y005009D01*
X024210Y004910D02*
X033225Y004910D01*
X033324Y004812D02*
X024309Y004812D01*
X024407Y004713D02*
X033453Y004713D01*
X034209Y004713D02*
X035701Y004713D01*
X035701Y004615D02*
X024506Y004615D01*
X024604Y004516D02*
X035701Y004516D01*
X035701Y004418D02*
X024703Y004418D01*
X024801Y004319D02*
X035701Y004319D01*
X035701Y004221D02*
X024900Y004221D01*
X024998Y004122D02*
X035701Y004122D01*
X035701Y004024D02*
X025085Y004024D01*
X025121Y003925D02*
X035701Y003925D01*
X035701Y003827D02*
X025121Y003827D01*
X025147Y003728D02*
X035701Y003728D01*
X035701Y003630D02*
X025245Y003630D01*
X025301Y003531D02*
X035701Y003531D01*
X035701Y003433D02*
X025301Y003433D01*
X025301Y003334D02*
X035701Y003334D01*
X035701Y003236D02*
X025301Y003236D01*
X025254Y003137D02*
X035701Y003137D01*
X035701Y003039D02*
X025155Y003039D01*
X025057Y002940D02*
X035701Y002940D01*
X035701Y002842D02*
X025033Y002842D01*
X025132Y002743D02*
X035701Y002743D01*
X035701Y002645D02*
X025230Y002645D01*
X025301Y002546D02*
X035701Y002546D01*
X035701Y002448D02*
X025301Y002448D01*
X025301Y002349D02*
X035701Y002349D01*
X035701Y002251D02*
X025301Y002251D01*
X025269Y002152D02*
X035701Y002152D01*
X035701Y002054D02*
X025170Y002054D01*
X025072Y001955D02*
X035701Y001955D01*
X035701Y001857D02*
X007461Y001857D01*
X007461Y001955D02*
X018090Y001955D01*
X017992Y002054D02*
X012585Y002054D01*
X012501Y001969D02*
X012741Y002209D01*
X012741Y002349D01*
X012361Y002349D01*
X012361Y001969D01*
X012501Y001969D01*
X012361Y002054D02*
X012301Y002054D01*
X012301Y001969D02*
X012301Y002349D01*
X012361Y002349D01*
X012361Y002409D01*
X012741Y002409D01*
X012741Y002549D01*
X012501Y002789D01*
X012361Y002789D01*
X012361Y002409D01*
X012301Y002409D01*
X012301Y002349D01*
X011921Y002349D01*
X011921Y002209D01*
X012161Y001969D01*
X012301Y001969D01*
X012301Y002152D02*
X012361Y002152D01*
X012361Y002251D02*
X012301Y002251D01*
X012301Y002349D02*
X007461Y002349D01*
X007461Y002251D02*
X011921Y002251D01*
X011978Y002152D02*
X007461Y002152D01*
X007461Y002054D02*
X012077Y002054D01*
X011921Y002409D02*
X012301Y002409D01*
X012301Y002789D01*
X012161Y002789D01*
X011921Y002549D01*
X011921Y002409D01*
X011921Y002448D02*
X007461Y002448D01*
X007461Y002546D02*
X011921Y002546D01*
X012017Y002645D02*
X007461Y002645D01*
X007461Y002743D02*
X012115Y002743D01*
X012301Y002743D02*
X012361Y002743D01*
X012361Y002645D02*
X012301Y002645D01*
X012301Y002546D02*
X012361Y002546D01*
X012361Y002448D02*
X012301Y002448D01*
X012361Y002349D02*
X014951Y002349D01*
X015049Y002251D02*
X012741Y002251D01*
X012684Y002152D02*
X015148Y002152D01*
X014852Y002448D02*
X012741Y002448D01*
X012741Y002546D02*
X014754Y002546D01*
X014655Y002645D02*
X012645Y002645D01*
X012547Y002743D02*
X014557Y002743D01*
X014458Y002842D02*
X007461Y002842D01*
X007461Y002940D02*
X014360Y002940D01*
X014261Y003039D02*
X007461Y003039D01*
X007461Y003137D02*
X014163Y003137D01*
X014064Y003236D02*
X007461Y003236D01*
X007461Y003334D02*
X013966Y003334D01*
X013867Y003433D02*
X007461Y003433D01*
X007461Y003531D02*
X013769Y003531D01*
X013670Y003630D02*
X007461Y003630D01*
X007461Y003728D02*
X013572Y003728D01*
X013473Y003827D02*
X007461Y003827D01*
X007461Y003925D02*
X013375Y003925D01*
X013276Y004024D02*
X007461Y004024D01*
X007461Y004122D02*
X013178Y004122D01*
X013079Y004221D02*
X007461Y004221D01*
X007461Y004319D02*
X012981Y004319D01*
X012882Y004418D02*
X007461Y004418D01*
X007461Y004516D02*
X012784Y004516D01*
X012685Y004615D02*
X007461Y004615D01*
X007461Y004713D02*
X012587Y004713D01*
X012488Y004812D02*
X007461Y004812D01*
X007461Y004910D02*
X012135Y004910D01*
X012037Y005009D02*
X007461Y005009D01*
X007461Y005107D02*
X011938Y005107D01*
X011861Y005206D02*
X007461Y005206D01*
X007461Y005304D02*
X011861Y005304D01*
X011861Y005403D02*
X007461Y005403D01*
X007461Y005501D02*
X011861Y005501D01*
X011887Y005600D02*
X007461Y005600D01*
X007461Y005698D02*
X011985Y005698D01*
X012041Y005797D02*
X007461Y005797D01*
X007461Y005895D02*
X012041Y005895D01*
X012041Y005994D02*
X007461Y005994D01*
X007461Y006092D02*
X011953Y006092D01*
X011861Y006191D02*
X007461Y006191D01*
X007461Y006289D02*
X011861Y006289D01*
X011861Y006388D02*
X007461Y006388D01*
X007461Y006486D02*
X011861Y006486D01*
X011872Y006585D02*
X007461Y006585D01*
X007461Y006683D02*
X011970Y006683D01*
X012069Y006782D02*
X007461Y006782D01*
X012621Y005994D02*
X016806Y005994D01*
X016708Y006092D02*
X012709Y006092D01*
X012801Y006191D02*
X016609Y006191D01*
X016511Y006289D02*
X012801Y006289D01*
X012801Y006388D02*
X016412Y006388D01*
X016314Y006486D02*
X012801Y006486D01*
X012790Y006585D02*
X016215Y006585D01*
X016117Y006683D02*
X012692Y006683D01*
X012621Y005895D02*
X016905Y005895D01*
X017003Y005797D02*
X012621Y005797D01*
X012677Y005698D02*
X017102Y005698D01*
X017200Y005600D02*
X012775Y005600D01*
X012801Y005501D02*
X017299Y005501D01*
X017397Y005403D02*
X012801Y005403D01*
X012816Y005304D02*
X017496Y005304D01*
X017594Y005206D02*
X012915Y005206D01*
X013013Y005107D02*
X017693Y005107D01*
X017791Y005009D02*
X013112Y005009D01*
X013210Y004910D02*
X017890Y004910D01*
X017988Y004812D02*
X013309Y004812D01*
X013407Y004713D02*
X018041Y004713D01*
X018041Y004615D02*
X013506Y004615D01*
X013604Y004516D02*
X018041Y004516D01*
X018041Y004418D02*
X013703Y004418D01*
X013801Y004319D02*
X018041Y004319D01*
X018041Y004221D02*
X013900Y004221D01*
X013998Y004122D02*
X018041Y004122D01*
X018041Y004024D02*
X014097Y004024D01*
X014195Y003925D02*
X018041Y003925D01*
X018041Y003827D02*
X014294Y003827D01*
X014392Y003728D02*
X018015Y003728D01*
X017917Y003630D02*
X014491Y003630D01*
X014589Y003531D02*
X017861Y003531D01*
X017861Y003433D02*
X014688Y003433D01*
X014786Y003334D02*
X017861Y003334D01*
X017861Y003236D02*
X014885Y003236D01*
X014983Y003137D02*
X017908Y003137D01*
X018007Y003039D02*
X015082Y003039D01*
X015180Y002940D02*
X018105Y002940D01*
X018129Y002842D02*
X015279Y002842D01*
X015377Y002743D02*
X018030Y002743D01*
X018670Y002054D02*
X021242Y002054D01*
X021340Y001955D02*
X018572Y001955D01*
X021822Y001955D02*
X024590Y001955D01*
X024492Y002054D02*
X021920Y002054D01*
X021882Y002743D02*
X024530Y002743D01*
X023718Y005403D02*
X033071Y005403D01*
X033071Y005501D02*
X023619Y005501D01*
X023907Y006868D02*
X024093Y006868D01*
X024265Y006940D01*
X024397Y007071D01*
X024468Y007243D01*
X024468Y007429D01*
X024397Y007601D01*
X024268Y007730D01*
X024397Y007858D01*
X024468Y008030D01*
X024468Y008216D01*
X024397Y008388D01*
X024268Y008517D01*
X024397Y008646D01*
X024468Y008818D01*
X024468Y009004D01*
X024397Y009175D01*
X024268Y009304D01*
X024397Y009433D01*
X024468Y009605D01*
X024468Y009791D01*
X024397Y009963D01*
X024268Y010092D01*
X024397Y010221D01*
X024468Y010392D01*
X024468Y010578D01*
X024397Y010750D01*
X024268Y010879D01*
X024397Y011008D01*
X024468Y011180D01*
X024468Y011366D01*
X024397Y011538D01*
X024268Y011667D01*
X024397Y011795D01*
X024468Y011967D01*
X024468Y012153D01*
X024397Y012325D01*
X024268Y012454D01*
X024397Y012583D01*
X024468Y012755D01*
X024468Y012941D01*
X024397Y013112D01*
X024268Y013241D01*
X024397Y013370D01*
X024468Y013542D01*
X024468Y013728D01*
X024397Y013900D01*
X024268Y014029D01*
X024397Y014158D01*
X024468Y014329D01*
X024468Y014515D01*
X024397Y014687D01*
X024265Y014819D01*
X024093Y014890D01*
X023907Y014890D01*
X023735Y014819D01*
X023604Y014687D01*
X023533Y014515D01*
X023533Y014329D01*
X023604Y014158D01*
X023733Y014029D01*
X023604Y013900D01*
X023533Y013728D01*
X023533Y013542D01*
X023604Y013370D01*
X023733Y013241D01*
X023604Y013112D01*
X023533Y012941D01*
X023533Y012755D01*
X023604Y012583D01*
X023733Y012454D01*
X023604Y012325D01*
X023533Y012153D01*
X023533Y011967D01*
X023604Y011795D01*
X023733Y011667D01*
X023604Y011538D01*
X023533Y011366D01*
X023533Y011180D01*
X023604Y011008D01*
X023733Y010879D01*
X023604Y010750D01*
X023533Y010578D01*
X023533Y010392D01*
X023604Y010221D01*
X023733Y010092D01*
X023604Y009963D01*
X023533Y009791D01*
X023533Y009605D01*
X023604Y009433D01*
X023733Y009304D01*
X023604Y009175D01*
X023533Y009004D01*
X023533Y008818D01*
X023604Y008646D01*
X023733Y008517D01*
X023604Y008388D01*
X023533Y008216D01*
X023533Y008030D01*
X023604Y007858D01*
X023733Y007730D01*
X023604Y007601D01*
X023533Y007429D01*
X023533Y007243D01*
X023604Y007071D01*
X023735Y006940D01*
X023907Y006868D01*
X023879Y006880D02*
X020740Y006880D01*
X020839Y006782D02*
X027823Y006782D01*
X027725Y006683D02*
X020937Y006683D01*
X020642Y006979D02*
X023696Y006979D01*
X023601Y007077D02*
X020543Y007077D01*
X020445Y007176D02*
X023561Y007176D01*
X023533Y007274D02*
X020346Y007274D01*
X020248Y007373D02*
X023533Y007373D01*
X023550Y007471D02*
X020149Y007471D01*
X020051Y007570D02*
X023591Y007570D01*
X023671Y007668D02*
X019952Y007668D01*
X019854Y007767D02*
X023696Y007767D01*
X023601Y007865D02*
X019755Y007865D01*
X019657Y007964D02*
X023560Y007964D01*
X023533Y008062D02*
X019558Y008062D01*
X019460Y008161D02*
X023533Y008161D01*
X023551Y008259D02*
X019361Y008259D01*
X019263Y008358D02*
X023591Y008358D01*
X023672Y008456D02*
X019164Y008456D01*
X019066Y008555D02*
X023695Y008555D01*
X023601Y008653D02*
X018967Y008653D01*
X018869Y008752D02*
X023560Y008752D01*
X023533Y008850D02*
X018770Y008850D01*
X018672Y008949D02*
X023533Y008949D01*
X023551Y009047D02*
X018573Y009047D01*
X018475Y009146D02*
X023592Y009146D01*
X023673Y009244D02*
X018376Y009244D01*
X018278Y009343D02*
X023695Y009343D01*
X023601Y009441D02*
X021580Y009441D01*
X021699Y009540D02*
X023560Y009540D01*
X023533Y009638D02*
X021772Y009638D01*
X021813Y009737D02*
X023533Y009737D01*
X023551Y009835D02*
X021831Y009835D01*
X021831Y009934D02*
X023592Y009934D01*
X023673Y010032D02*
X021809Y010032D01*
X021768Y010131D02*
X023694Y010131D01*
X023600Y010229D02*
X021688Y010229D01*
X021555Y010328D02*
X023560Y010328D01*
X023533Y010426D02*
X021544Y010426D01*
X021684Y010525D02*
X023533Y010525D01*
X023551Y010623D02*
X021766Y010623D01*
X021807Y010722D02*
X023592Y010722D01*
X023674Y010820D02*
X021831Y010820D01*
X021831Y010919D02*
X023693Y010919D01*
X023600Y011017D02*
X021815Y011017D01*
X021774Y011116D02*
X023559Y011116D01*
X023533Y011214D02*
X021703Y011214D01*
X021591Y011313D02*
X023533Y011313D01*
X023552Y011411D02*
X021508Y011411D01*
X021669Y011510D02*
X023592Y011510D01*
X023674Y011608D02*
X021760Y011608D01*
X021801Y011707D02*
X023693Y011707D01*
X023600Y011805D02*
X021831Y011805D01*
X021831Y011904D02*
X023559Y011904D01*
X023533Y012002D02*
X021821Y012002D01*
X021780Y012101D02*
X023533Y012101D01*
X023552Y012199D02*
X021718Y012199D01*
X021620Y012298D02*
X023593Y012298D01*
X023675Y012396D02*
X012724Y012396D01*
X012823Y012298D02*
X021042Y012298D01*
X020944Y012199D02*
X012921Y012199D01*
X012626Y012495D02*
X021116Y012495D01*
X021100Y012503D02*
X021162Y012471D01*
X021228Y012450D01*
X021286Y012441D01*
X021286Y012834D01*
X021376Y012834D01*
X021376Y012441D01*
X021434Y012450D01*
X021500Y012471D01*
X021562Y012503D01*
X021618Y012544D01*
X021667Y012593D01*
X023600Y012593D01*
X023559Y012692D02*
X021729Y012692D01*
X021739Y012710D02*
X021760Y012776D01*
X021769Y012834D01*
X021376Y012834D01*
X021376Y012924D01*
X021769Y012924D01*
X021760Y012982D01*
X021739Y013048D01*
X021707Y013110D01*
X021667Y013166D01*
X021618Y013215D01*
X021562Y013255D01*
X021500Y013287D01*
X021434Y013308D01*
X021376Y013318D01*
X021376Y012924D01*
X021286Y012924D01*
X021286Y012834D01*
X020893Y012834D01*
X020902Y012776D01*
X020923Y012710D01*
X020955Y012649D01*
X020995Y012593D01*
X012527Y012593D01*
X012429Y012692D02*
X020933Y012692D01*
X020900Y012790D02*
X012330Y012790D01*
X012232Y012889D02*
X021286Y012889D01*
X021286Y012924D02*
X020893Y012924D01*
X020902Y012982D01*
X020923Y013048D01*
X020955Y013110D01*
X020995Y013166D01*
X021044Y013215D01*
X021100Y013255D01*
X021162Y013287D01*
X021228Y013308D01*
X021286Y013318D01*
X021286Y012924D01*
X021286Y012987D02*
X021376Y012987D01*
X021376Y012889D02*
X023533Y012889D01*
X023533Y012790D02*
X021762Y012790D01*
X021739Y012710D02*
X021707Y012649D01*
X021667Y012593D01*
X021546Y012495D02*
X023692Y012495D01*
X023552Y012987D02*
X021759Y012987D01*
X021720Y013086D02*
X023593Y013086D01*
X023676Y013184D02*
X021648Y013184D01*
X021508Y013283D02*
X023692Y013283D01*
X023599Y013381D02*
X021435Y013381D01*
X021376Y013283D02*
X021286Y013283D01*
X021286Y013184D02*
X021376Y013184D01*
X021376Y013086D02*
X021286Y013086D01*
X021154Y013283D02*
X011838Y013283D01*
X011936Y013184D02*
X021014Y013184D01*
X020942Y013086D02*
X012035Y013086D01*
X012133Y012987D02*
X020903Y012987D01*
X020995Y012593D02*
X021044Y012544D01*
X021100Y012503D01*
X021286Y012495D02*
X021376Y012495D01*
X021376Y012593D02*
X021286Y012593D01*
X021286Y012692D02*
X021376Y012692D01*
X021376Y012790D02*
X021286Y012790D01*
X021227Y013381D02*
X011739Y013381D01*
X011641Y013480D02*
X021023Y013480D01*
X020925Y013578D02*
X011542Y013578D01*
X011444Y013677D02*
X020874Y013677D01*
X020833Y013775D02*
X011345Y013775D01*
X011247Y013874D02*
X020831Y013874D01*
X020831Y013972D02*
X011148Y013972D01*
X011050Y014071D02*
X020869Y014071D01*
X020914Y014169D02*
X010951Y014169D01*
X010853Y014268D02*
X021012Y014268D01*
X021038Y014465D02*
X013624Y014465D01*
X013722Y014563D02*
X020940Y014563D01*
X020880Y014662D02*
X013782Y014662D01*
X013823Y014760D02*
X020839Y014760D01*
X020831Y014859D02*
X013831Y014859D01*
X013831Y014957D02*
X020831Y014957D01*
X020863Y015056D02*
X013799Y015056D01*
X013758Y015154D02*
X020904Y015154D01*
X020997Y015253D02*
X013665Y015253D01*
X013164Y015351D02*
X012498Y015351D01*
X012601Y015450D02*
X013061Y015450D01*
X012955Y015548D02*
X012707Y015548D01*
X012776Y015647D02*
X012886Y015647D01*
X012845Y015745D02*
X012817Y015745D01*
X012831Y015844D02*
X012831Y015844D01*
X012831Y015942D02*
X012831Y015942D01*
X012805Y016041D02*
X012857Y016041D01*
X012897Y016139D02*
X012764Y016139D01*
X012680Y016238D02*
X012982Y016238D01*
X013128Y016336D02*
X012534Y016336D01*
X012128Y016336D02*
X011534Y016336D01*
X011680Y016238D02*
X011982Y016238D01*
X011897Y016139D02*
X011764Y016139D01*
X011805Y016041D02*
X011857Y016041D01*
X011831Y015942D02*
X011831Y015942D01*
X011831Y015844D02*
X011831Y015844D01*
X011817Y015745D02*
X011845Y015745D01*
X011886Y015647D02*
X011776Y015647D01*
X011707Y015548D02*
X011955Y015548D01*
X012061Y015450D02*
X011601Y015450D01*
X011498Y015351D02*
X012164Y015351D01*
X011997Y015253D02*
X011665Y015253D01*
X011758Y015154D02*
X011904Y015154D01*
X011863Y015056D02*
X011799Y015056D01*
X011831Y014957D02*
X011831Y014957D01*
X011831Y014859D02*
X011831Y014859D01*
X011823Y014760D02*
X011839Y014760D01*
X011880Y014662D02*
X011782Y014662D01*
X011722Y014563D02*
X011940Y014563D01*
X012038Y014465D02*
X011624Y014465D01*
X011038Y014465D02*
X010656Y014465D01*
X010621Y014563D02*
X010940Y014563D01*
X010880Y014662D02*
X010621Y014662D01*
X010621Y014760D02*
X010839Y014760D01*
X010831Y014859D02*
X010621Y014859D01*
X010621Y014957D02*
X010831Y014957D01*
X010863Y015056D02*
X010621Y015056D01*
X010621Y015154D02*
X010904Y015154D01*
X010997Y015253D02*
X010621Y015253D01*
X010621Y015351D02*
X011164Y015351D01*
X011061Y015450D02*
X010621Y015450D01*
X010707Y015548D02*
X010955Y015548D01*
X010886Y015647D02*
X010776Y015647D01*
X010817Y015745D02*
X010845Y015745D01*
X010831Y015844D02*
X010831Y015844D01*
X010831Y015942D02*
X010831Y015942D01*
X010805Y016041D02*
X010857Y016041D01*
X010897Y016139D02*
X010764Y016139D01*
X010680Y016238D02*
X010982Y016238D01*
X011128Y016336D02*
X010534Y016336D01*
X008997Y015253D02*
X007461Y015253D01*
X007461Y015154D02*
X008904Y015154D01*
X008863Y015056D02*
X007461Y015056D01*
X007461Y014957D02*
X008831Y014957D01*
X008831Y014859D02*
X007461Y014859D01*
X007461Y014760D02*
X008839Y014760D01*
X008880Y014662D02*
X007461Y014662D01*
X007461Y014563D02*
X008940Y014563D01*
X009038Y014465D02*
X007461Y014465D01*
X010754Y014366D02*
X021200Y014366D01*
X021462Y014366D02*
X023533Y014366D01*
X023533Y014465D02*
X021624Y014465D01*
X021722Y014563D02*
X023553Y014563D01*
X023593Y014662D02*
X021782Y014662D01*
X021823Y014760D02*
X023677Y014760D01*
X023832Y014859D02*
X021831Y014859D01*
X021831Y014957D02*
X033041Y014957D01*
X033041Y014859D02*
X024169Y014859D01*
X024324Y014760D02*
X032433Y014760D01*
X032332Y014662D02*
X024407Y014662D01*
X024448Y014563D02*
X032279Y014563D01*
X032256Y014465D02*
X024468Y014465D01*
X024468Y014366D02*
X032258Y014366D01*
X032284Y014268D02*
X024442Y014268D01*
X024401Y014169D02*
X032342Y014169D01*
X032455Y014071D02*
X024310Y014071D01*
X024324Y013972D02*
X032338Y013972D01*
X032255Y013874D02*
X024407Y013874D01*
X024448Y013775D02*
X032214Y013775D01*
X032194Y013677D02*
X024468Y013677D01*
X024468Y013578D02*
X032194Y013578D01*
X032220Y013480D02*
X024442Y013480D01*
X024401Y013381D02*
X032261Y013381D01*
X032353Y013283D02*
X024309Y013283D01*
X024325Y013184D02*
X032337Y013184D01*
X032254Y013086D02*
X024408Y013086D01*
X024448Y012987D02*
X032213Y012987D01*
X032194Y012889D02*
X024468Y012889D01*
X024468Y012790D02*
X032194Y012790D01*
X032220Y012692D02*
X024442Y012692D01*
X024401Y012593D02*
X032261Y012593D01*
X032354Y012495D02*
X024308Y012495D01*
X024325Y012396D02*
X032336Y012396D01*
X032254Y012298D02*
X024408Y012298D01*
X024449Y012199D02*
X032213Y012199D01*
X032194Y012101D02*
X024468Y012101D01*
X024468Y012002D02*
X032194Y012002D01*
X032221Y011904D02*
X024441Y011904D01*
X024401Y011805D02*
X032261Y011805D01*
X032354Y011707D02*
X024308Y011707D01*
X024326Y011608D02*
X032336Y011608D01*
X032254Y011510D02*
X024408Y011510D01*
X024449Y011411D02*
X032213Y011411D01*
X032194Y011313D02*
X024468Y011313D01*
X024468Y011214D02*
X032194Y011214D01*
X032221Y011116D02*
X024441Y011116D01*
X024400Y011017D02*
X032262Y011017D01*
X032355Y010919D02*
X024307Y010919D01*
X024327Y010820D02*
X032335Y010820D01*
X032254Y010722D02*
X024408Y010722D01*
X024449Y010623D02*
X032213Y010623D01*
X032194Y010525D02*
X024468Y010525D01*
X024468Y010426D02*
X032194Y010426D01*
X032221Y010328D02*
X024441Y010328D01*
X024400Y010229D02*
X032262Y010229D01*
X032355Y010131D02*
X024307Y010131D01*
X024327Y010032D02*
X032335Y010032D01*
X032253Y009934D02*
X024409Y009934D01*
X024449Y009835D02*
X032212Y009835D01*
X032194Y009737D02*
X024468Y009737D01*
X024468Y009638D02*
X032194Y009638D01*
X032221Y009540D02*
X024441Y009540D01*
X024400Y009441D02*
X032262Y009441D01*
X032356Y009343D02*
X024306Y009343D01*
X024328Y009244D02*
X032334Y009244D01*
X033621Y009244D02*
X035701Y009244D01*
X035701Y009146D02*
X033621Y009146D01*
X033621Y009047D02*
X035701Y009047D01*
X035701Y008949D02*
X033621Y008949D01*
X033621Y008850D02*
X035701Y008850D01*
X035701Y008752D02*
X033621Y008752D01*
X033621Y008653D02*
X035701Y008653D01*
X035701Y008555D02*
X033621Y008555D01*
X033621Y008456D02*
X035701Y008456D01*
X035701Y008358D02*
X033621Y008358D01*
X033621Y008259D02*
X035701Y008259D01*
X035701Y008161D02*
X033621Y008161D01*
X033621Y008062D02*
X035701Y008062D01*
X035701Y007964D02*
X033621Y007964D01*
X033621Y007865D02*
X035701Y007865D01*
X035701Y007767D02*
X033598Y007767D01*
X033530Y007668D02*
X035701Y007668D01*
X035701Y007570D02*
X033432Y007570D01*
X033333Y007471D02*
X035701Y007471D01*
X035701Y007373D02*
X033235Y007373D01*
X033136Y007274D02*
X035701Y007274D01*
X035701Y007176D02*
X033101Y007176D01*
X033061Y007077D02*
X035701Y007077D01*
X035701Y006979D02*
X032966Y006979D01*
X032783Y006880D02*
X035701Y006880D01*
X035701Y006782D02*
X029394Y006782D01*
X029492Y006880D02*
X032540Y006880D01*
X032358Y006979D02*
X029591Y006979D01*
X029689Y007077D02*
X032263Y007077D01*
X032222Y007176D02*
X029788Y007176D01*
X029886Y007274D02*
X032194Y007274D01*
X032194Y007373D02*
X029985Y007373D01*
X030083Y007471D02*
X032212Y007471D01*
X032253Y007570D02*
X030182Y007570D01*
X030280Y007668D02*
X032333Y007668D01*
X032357Y007767D02*
X030379Y007767D01*
X029596Y008555D02*
X024305Y008555D01*
X024328Y008456D02*
X029498Y008456D01*
X029399Y008358D02*
X024409Y008358D01*
X024450Y008259D02*
X029301Y008259D01*
X029202Y008161D02*
X024468Y008161D01*
X024468Y008062D02*
X029104Y008062D01*
X029005Y007964D02*
X024440Y007964D01*
X024399Y007865D02*
X028907Y007865D01*
X028808Y007767D02*
X024305Y007767D01*
X024329Y007668D02*
X028710Y007668D01*
X028611Y007570D02*
X024409Y007570D01*
X024450Y007471D02*
X028513Y007471D01*
X028414Y007373D02*
X024468Y007373D01*
X024468Y007274D02*
X028316Y007274D01*
X028217Y007176D02*
X024440Y007176D01*
X024399Y007077D02*
X028119Y007077D01*
X028020Y006979D02*
X024304Y006979D01*
X024122Y006880D02*
X027922Y006880D01*
X028704Y006092D02*
X033567Y006092D01*
X033371Y005994D02*
X028606Y005994D01*
X028507Y005895D02*
X033272Y005895D01*
X033181Y005797D02*
X028409Y005797D01*
X028310Y005698D02*
X033141Y005698D01*
X033100Y005600D02*
X028164Y005600D01*
X028803Y006191D02*
X035701Y006191D01*
X035701Y006289D02*
X028901Y006289D01*
X029000Y006388D02*
X035701Y006388D01*
X035701Y006486D02*
X029098Y006486D01*
X029197Y006585D02*
X035701Y006585D01*
X035701Y006683D02*
X029295Y006683D01*
X029695Y008653D02*
X024400Y008653D01*
X024440Y008752D02*
X029793Y008752D01*
X029892Y008850D02*
X024468Y008850D01*
X024468Y008949D02*
X029990Y008949D01*
X030089Y009047D02*
X024450Y009047D01*
X024409Y009146D02*
X030217Y009146D01*
X033621Y009343D02*
X035701Y009343D01*
X035701Y009441D02*
X033621Y009441D01*
X033621Y009540D02*
X035701Y009540D01*
X035701Y009638D02*
X033621Y009638D01*
X033621Y009737D02*
X035701Y009737D01*
X035701Y009835D02*
X033621Y009835D01*
X033621Y009934D02*
X035701Y009934D01*
X035701Y010032D02*
X033621Y010032D01*
X033621Y010131D02*
X035701Y010131D01*
X035701Y010229D02*
X033621Y010229D01*
X033621Y010328D02*
X035701Y010328D01*
X035701Y010426D02*
X033621Y010426D01*
X033621Y010525D02*
X035701Y010525D01*
X035701Y010623D02*
X033621Y010623D01*
X033621Y010722D02*
X035701Y010722D01*
X035701Y010820D02*
X033621Y010820D01*
X033621Y010919D02*
X035701Y010919D01*
X035701Y011017D02*
X033621Y011017D01*
X033621Y011116D02*
X035701Y011116D01*
X035701Y011214D02*
X033621Y011214D01*
X033621Y011313D02*
X035701Y011313D01*
X035701Y011411D02*
X033621Y011411D01*
X033621Y011510D02*
X035701Y011510D01*
X035701Y011608D02*
X033621Y011608D01*
X033621Y011707D02*
X035701Y011707D01*
X035701Y011805D02*
X033621Y011805D01*
X033621Y011904D02*
X035701Y011904D01*
X035701Y012002D02*
X033621Y012002D01*
X033621Y012101D02*
X035701Y012101D01*
X035701Y012199D02*
X033621Y012199D01*
X033621Y012298D02*
X035701Y012298D01*
X035701Y012396D02*
X033621Y012396D01*
X033621Y012495D02*
X035701Y012495D01*
X035701Y012593D02*
X033621Y012593D01*
X033621Y012692D02*
X035701Y012692D01*
X035701Y012790D02*
X033621Y012790D01*
X033621Y012889D02*
X034628Y012889D01*
X034507Y012987D02*
X033621Y012987D01*
X033621Y013086D02*
X034445Y013086D01*
X034406Y013184D02*
X033621Y013184D01*
X033621Y013283D02*
X034406Y013283D01*
X034419Y013381D02*
X033621Y013381D01*
X033621Y013480D02*
X034460Y013480D01*
X034543Y013578D02*
X033621Y013578D01*
X033621Y013677D02*
X034354Y013677D01*
X034229Y013775D02*
X033621Y013775D01*
X033621Y013874D02*
X034158Y013874D01*
X034117Y013972D02*
X033621Y013972D01*
X033621Y014071D02*
X034106Y014071D01*
X034106Y014169D02*
X033621Y014169D01*
X033621Y014268D02*
X034140Y014268D01*
X034187Y014366D02*
X033621Y014366D01*
X033621Y014465D02*
X034285Y014465D01*
X034127Y014563D02*
X033621Y014563D01*
X033621Y014662D02*
X034025Y014662D01*
X033927Y014760D02*
X033621Y014760D01*
X033621Y014859D02*
X033828Y014859D01*
X033730Y014957D02*
X033621Y014957D01*
X033621Y015056D02*
X033631Y015056D01*
X033041Y015056D02*
X021799Y015056D01*
X021758Y015154D02*
X033041Y015154D01*
X033041Y015253D02*
X021665Y015253D01*
X021498Y015351D02*
X032949Y015351D01*
X032850Y015450D02*
X021601Y015450D01*
X021707Y015548D02*
X032752Y015548D01*
X033178Y015942D02*
X033461Y015942D01*
X033461Y015844D02*
X033277Y015844D01*
X033375Y015745D02*
X033461Y015745D01*
X033461Y016041D02*
X033080Y016041D01*
X032961Y016139D02*
X033461Y016139D01*
X033461Y016238D02*
X029383Y016238D01*
X029284Y016336D02*
X033461Y016336D01*
X033461Y016435D02*
X029186Y016435D01*
X029087Y016533D02*
X033494Y016533D01*
X033079Y016632D02*
X031983Y016632D01*
X032155Y016730D02*
X032959Y016730D01*
X032883Y016829D02*
X032249Y016829D01*
X032290Y016927D02*
X032842Y016927D01*
X032835Y017814D02*
X032297Y017814D01*
X032257Y017912D02*
X032875Y017912D01*
X032941Y018011D02*
X032172Y018011D01*
X032025Y018109D02*
X032961Y018109D01*
X032961Y018208D02*
X029291Y018208D01*
X029291Y018306D02*
X032961Y018306D01*
X031637Y018109D02*
X029212Y018109D01*
X029113Y018011D02*
X030583Y018011D01*
X030791Y018011D02*
X030871Y018011D01*
X030871Y017912D02*
X030791Y017912D01*
X030791Y017814D02*
X030871Y017814D01*
X030871Y017715D02*
X030791Y017715D01*
X030791Y017617D02*
X030871Y017617D01*
X030871Y017518D02*
X030791Y017518D01*
X030791Y017420D02*
X030871Y017420D01*
X030871Y017321D02*
X030791Y017321D01*
X030791Y017339D02*
X030791Y016670D01*
X030730Y016680D01*
X030666Y016701D01*
X030606Y016731D01*
X030551Y016771D01*
X030503Y016819D01*
X030463Y016874D01*
X030432Y016934D01*
X030412Y016998D01*
X030401Y017065D01*
X030401Y017339D01*
X030791Y017339D01*
X030791Y017223D02*
X030871Y017223D01*
X030871Y017124D02*
X030791Y017124D01*
X030791Y017026D02*
X030871Y017026D01*
X030871Y016927D02*
X030791Y016927D01*
X030791Y016829D02*
X030871Y016829D01*
X030871Y016730D02*
X030791Y016730D01*
X030608Y016730D02*
X028890Y016730D01*
X028989Y016632D02*
X031679Y016632D01*
X031507Y016730D02*
X031054Y016730D01*
X031166Y016829D02*
X031413Y016829D01*
X031372Y016927D02*
X031226Y016927D01*
X031255Y017026D02*
X031341Y017026D01*
X031341Y017124D02*
X031261Y017124D01*
X031261Y017223D02*
X031341Y017223D01*
X031341Y017321D02*
X031261Y017321D01*
X031261Y017420D02*
X031341Y017420D01*
X031341Y017518D02*
X031261Y017518D01*
X031261Y017617D02*
X031341Y017617D01*
X031341Y017715D02*
X031257Y017715D01*
X031233Y017814D02*
X031365Y017814D01*
X031405Y017912D02*
X031179Y017912D01*
X031079Y018011D02*
X031490Y018011D01*
X030401Y017518D02*
X028121Y017518D01*
X028201Y017420D02*
X030401Y017420D01*
X030401Y017321D02*
X028299Y017321D01*
X028398Y017223D02*
X030401Y017223D01*
X030401Y017124D02*
X028496Y017124D01*
X028595Y017026D02*
X030407Y017026D01*
X030436Y016927D02*
X028693Y016927D01*
X028792Y016829D02*
X030496Y016829D01*
X029153Y015647D02*
X021776Y015647D01*
X021817Y015745D02*
X029055Y015745D01*
X028956Y015844D02*
X021831Y015844D01*
X021831Y015942D02*
X028858Y015942D01*
X028759Y016041D02*
X021805Y016041D01*
X021764Y016139D02*
X028661Y016139D01*
X028562Y016238D02*
X021680Y016238D01*
X021534Y016336D02*
X028464Y016336D01*
X028450Y018109D02*
X028282Y018109D01*
X028323Y018208D02*
X028371Y018208D01*
X028371Y018306D02*
X028351Y018306D01*
X027515Y018799D02*
X024112Y018799D01*
X024121Y018897D02*
X027541Y018897D01*
X027541Y018996D02*
X024121Y018996D01*
X024121Y019094D02*
X027541Y019094D01*
X027541Y019193D02*
X024121Y019193D01*
X024121Y019291D02*
X027541Y019291D01*
X027541Y019390D02*
X024121Y019390D01*
X024121Y019488D02*
X027541Y019488D01*
X027541Y019587D02*
X024121Y019587D01*
X024121Y019685D02*
X027541Y019685D01*
X027541Y019784D02*
X024121Y019784D01*
X024121Y019882D02*
X027541Y019882D01*
X027541Y019981D02*
X024121Y019981D01*
X024196Y020079D02*
X027541Y020079D01*
X027541Y020178D02*
X024294Y020178D01*
X024301Y020276D02*
X027541Y020276D01*
X027541Y020375D02*
X024301Y020375D01*
X024301Y020473D02*
X027541Y020473D01*
X027541Y020572D02*
X024301Y020572D01*
X024205Y020670D02*
X027541Y020670D01*
X027541Y020769D02*
X024121Y020769D01*
X024121Y020867D02*
X027541Y020867D01*
X027223Y020966D02*
X024121Y020966D01*
X024181Y021064D02*
X027125Y021064D01*
X027069Y021163D02*
X024279Y021163D01*
X024301Y021261D02*
X027028Y021261D01*
X027021Y021360D02*
X024301Y021360D01*
X024301Y021458D02*
X027021Y021458D01*
X027052Y021557D02*
X024301Y021557D01*
X024220Y021655D02*
X027093Y021655D01*
X027184Y021754D02*
X024121Y021754D01*
X023541Y021754D02*
X022621Y021754D01*
X022720Y021655D02*
X023442Y021655D01*
X023361Y021557D02*
X022801Y021557D01*
X022801Y021458D02*
X023361Y021458D01*
X023361Y021360D02*
X022801Y021360D01*
X022801Y021261D02*
X023361Y021261D01*
X023383Y021163D02*
X022779Y021163D01*
X022681Y021064D02*
X023481Y021064D01*
X023541Y020966D02*
X022621Y020966D01*
X022621Y020867D02*
X023541Y020867D01*
X023541Y020769D02*
X023021Y020769D01*
X023120Y020670D02*
X023457Y020670D01*
X023361Y020572D02*
X023218Y020572D01*
X023241Y020473D02*
X023361Y020473D01*
X023361Y020375D02*
X022861Y020375D01*
X022861Y020473D02*
X022801Y020473D01*
X022801Y020572D02*
X022861Y020572D01*
X022861Y020670D02*
X022801Y020670D01*
X022801Y020769D02*
X022861Y020769D01*
X022641Y020769D02*
X022621Y020769D01*
X022801Y020276D02*
X022861Y020276D01*
X022861Y020178D02*
X022801Y020178D01*
X022801Y020079D02*
X022861Y020079D01*
X022861Y019981D02*
X022801Y019981D01*
X022650Y019981D02*
X022621Y019981D01*
X023012Y019981D02*
X023541Y019981D01*
X023466Y020079D02*
X023111Y020079D01*
X023209Y020178D02*
X023368Y020178D01*
X023361Y020276D02*
X023241Y020276D01*
X022041Y020276D02*
X021801Y020276D01*
X021794Y020178D02*
X022041Y020178D01*
X022041Y020079D02*
X021696Y020079D01*
X021621Y019981D02*
X022041Y019981D01*
X022041Y019882D02*
X021621Y019882D01*
X021621Y019784D02*
X022041Y019784D01*
X021972Y019685D02*
X021621Y019685D01*
X021621Y019587D02*
X021874Y019587D01*
X021861Y019488D02*
X021621Y019488D01*
X021621Y019390D02*
X021861Y019390D01*
X021833Y019291D02*
X021621Y019291D01*
X021621Y019193D02*
X021734Y019193D01*
X021636Y019094D02*
X021621Y019094D01*
X020861Y019488D02*
X020801Y019488D01*
X020801Y019409D02*
X020801Y019789D01*
X020661Y019789D01*
X020421Y019549D01*
X020421Y019409D01*
X020801Y019409D01*
X020801Y019390D02*
X020301Y019390D01*
X020301Y019488D02*
X020421Y019488D01*
X020459Y019587D02*
X020288Y019587D01*
X020190Y019685D02*
X020557Y019685D01*
X020656Y019784D02*
X020121Y019784D01*
X020121Y019882D02*
X021041Y019882D01*
X021041Y019784D02*
X021006Y019784D01*
X020861Y019784D02*
X020801Y019784D01*
X020801Y019685D02*
X020861Y019685D01*
X020861Y019587D02*
X020801Y019587D01*
X021041Y019981D02*
X020512Y019981D01*
X020611Y020079D02*
X020966Y020079D01*
X020868Y020178D02*
X020709Y020178D01*
X020741Y020276D02*
X020861Y020276D01*
X020861Y020375D02*
X020361Y020375D01*
X020361Y020473D02*
X020301Y020473D01*
X020301Y020572D02*
X020361Y020572D01*
X020361Y020670D02*
X020301Y020670D01*
X020301Y020769D02*
X020361Y020769D01*
X020521Y020769D02*
X021041Y020769D01*
X021041Y020867D02*
X020121Y020867D01*
X020121Y020769D02*
X020141Y020769D01*
X020121Y020966D02*
X021041Y020966D01*
X020981Y021064D02*
X020181Y021064D01*
X020279Y021163D02*
X020883Y021163D01*
X020861Y021261D02*
X020301Y021261D01*
X020301Y021360D02*
X020861Y021360D01*
X020861Y021458D02*
X020301Y021458D01*
X020301Y021557D02*
X020861Y021557D01*
X020942Y021655D02*
X020220Y021655D01*
X020121Y021754D02*
X021041Y021754D01*
X021621Y021754D02*
X022041Y021754D01*
X021942Y021655D02*
X021720Y021655D01*
X021801Y021557D02*
X021861Y021557D01*
X021861Y021458D02*
X021801Y021458D01*
X021801Y021360D02*
X021861Y021360D01*
X021861Y021261D02*
X021801Y021261D01*
X021779Y021163D02*
X021883Y021163D01*
X021981Y021064D02*
X021681Y021064D01*
X021621Y020966D02*
X022041Y020966D01*
X022041Y020867D02*
X021621Y020867D01*
X021621Y020769D02*
X022041Y020769D01*
X022041Y020670D02*
X021705Y020670D01*
X021801Y020572D02*
X022041Y020572D01*
X022041Y020473D02*
X021801Y020473D01*
X021801Y020375D02*
X022041Y020375D01*
X020957Y020670D02*
X020620Y020670D01*
X020718Y020572D02*
X020861Y020572D01*
X020861Y020473D02*
X020741Y020473D01*
X020361Y020276D02*
X020301Y020276D01*
X020301Y020178D02*
X020361Y020178D01*
X020361Y020079D02*
X020301Y020079D01*
X020301Y019981D02*
X020361Y019981D01*
X020150Y019981D02*
X020121Y019981D01*
X019541Y019981D02*
X019121Y019981D01*
X019121Y019882D02*
X019541Y019882D01*
X019541Y019784D02*
X019121Y019784D01*
X019121Y019685D02*
X019472Y019685D01*
X019374Y019587D02*
X019121Y019587D01*
X019121Y019488D02*
X019361Y019488D01*
X019361Y019390D02*
X019121Y019390D01*
X019121Y019291D02*
X019333Y019291D01*
X019234Y019193D02*
X019121Y019193D01*
X019121Y019094D02*
X019136Y019094D01*
X018631Y018589D02*
X016421Y016379D01*
X016232Y016379D01*
X016048Y016303D01*
X015907Y016162D01*
X015831Y015979D01*
X015831Y015780D01*
X015831Y015979D01*
X015755Y016162D01*
X015640Y016278D01*
X017951Y018589D01*
X018631Y018589D01*
X018545Y018503D02*
X017865Y018503D01*
X017767Y018405D02*
X018446Y018405D01*
X018348Y018306D02*
X017668Y018306D01*
X017570Y018208D02*
X018249Y018208D01*
X018151Y018109D02*
X017471Y018109D01*
X017373Y018011D02*
X018052Y018011D01*
X017954Y017912D02*
X017274Y017912D01*
X017176Y017814D02*
X017855Y017814D01*
X017757Y017715D02*
X017077Y017715D01*
X016979Y017617D02*
X017658Y017617D01*
X017560Y017518D02*
X016880Y017518D01*
X016782Y017420D02*
X017461Y017420D01*
X017363Y017321D02*
X016683Y017321D01*
X016585Y017223D02*
X017264Y017223D01*
X017166Y017124D02*
X016486Y017124D01*
X016388Y017026D02*
X017067Y017026D01*
X016969Y016927D02*
X016289Y016927D01*
X016191Y016829D02*
X016870Y016829D01*
X016772Y016730D02*
X016092Y016730D01*
X015994Y016632D02*
X016673Y016632D01*
X016575Y016533D02*
X015895Y016533D01*
X015797Y016435D02*
X016476Y016435D01*
X016128Y016336D02*
X015698Y016336D01*
X015680Y016238D02*
X015982Y016238D01*
X015897Y016139D02*
X015764Y016139D01*
X015805Y016041D02*
X015857Y016041D01*
X015831Y015942D02*
X015831Y015942D01*
X015831Y015844D02*
X015831Y015844D01*
X015817Y015745D02*
X015845Y015745D01*
X015886Y015647D02*
X015776Y015647D01*
X015707Y015548D02*
X015955Y015548D01*
X016061Y015450D02*
X015601Y015450D01*
X015061Y015450D02*
X014601Y015450D01*
X014707Y015548D02*
X014955Y015548D01*
X014886Y015647D02*
X014776Y015647D01*
X014817Y015745D02*
X014845Y015745D01*
X014831Y015780D02*
X014831Y015979D01*
X014907Y016162D01*
X015041Y016296D01*
X015041Y016437D01*
X015085Y016543D01*
X017451Y018909D01*
X017271Y018909D01*
X014640Y016278D01*
X014755Y016162D01*
X014831Y015979D01*
X014831Y015780D01*
X014831Y015844D02*
X014831Y015844D01*
X014831Y015942D02*
X014831Y015942D01*
X014805Y016041D02*
X014857Y016041D01*
X014897Y016139D02*
X014764Y016139D01*
X014680Y016238D02*
X014982Y016238D01*
X015041Y016336D02*
X014698Y016336D01*
X014797Y016435D02*
X015041Y016435D01*
X015081Y016533D02*
X014895Y016533D01*
X014994Y016632D02*
X015173Y016632D01*
X015092Y016730D02*
X015272Y016730D01*
X015191Y016829D02*
X015370Y016829D01*
X015289Y016927D02*
X015469Y016927D01*
X015388Y017026D02*
X015567Y017026D01*
X015486Y017124D02*
X015666Y017124D01*
X015585Y017223D02*
X015764Y017223D01*
X015683Y017321D02*
X015863Y017321D01*
X015782Y017420D02*
X015961Y017420D01*
X015880Y017518D02*
X016060Y017518D01*
X015979Y017617D02*
X016158Y017617D01*
X016077Y017715D02*
X016257Y017715D01*
X016176Y017814D02*
X016355Y017814D01*
X016274Y017912D02*
X016454Y017912D01*
X016373Y018011D02*
X016552Y018011D01*
X016471Y018109D02*
X016651Y018109D01*
X016570Y018208D02*
X016749Y018208D01*
X016668Y018306D02*
X016848Y018306D01*
X016767Y018405D02*
X016946Y018405D01*
X016865Y018503D02*
X017045Y018503D01*
X016964Y018602D02*
X017143Y018602D01*
X017062Y018700D02*
X017242Y018700D01*
X017161Y018799D02*
X017340Y018799D01*
X017259Y018897D02*
X017439Y018897D01*
X017801Y019193D02*
X017938Y019193D01*
X017921Y019291D02*
X017801Y019291D01*
X017801Y019390D02*
X018301Y019390D01*
X018301Y019409D02*
X017921Y019409D01*
X017921Y019549D01*
X018161Y019789D01*
X018301Y019789D01*
X018301Y019409D01*
X018301Y019488D02*
X018361Y019488D01*
X018361Y019587D02*
X018301Y019587D01*
X018301Y019685D02*
X018361Y019685D01*
X018361Y019784D02*
X018301Y019784D01*
X018156Y019784D02*
X017621Y019784D01*
X017621Y019882D02*
X018541Y019882D01*
X018541Y019784D02*
X018506Y019784D01*
X018541Y019981D02*
X018012Y019981D01*
X018111Y020079D02*
X018466Y020079D01*
X018368Y020178D02*
X018209Y020178D01*
X018241Y020276D02*
X018361Y020276D01*
X018361Y020375D02*
X017861Y020375D01*
X017861Y020473D02*
X017801Y020473D01*
X017801Y020572D02*
X017861Y020572D01*
X017861Y020670D02*
X017801Y020670D01*
X017801Y020769D02*
X017861Y020769D01*
X018021Y020769D02*
X018541Y020769D01*
X018541Y020867D02*
X017621Y020867D01*
X017621Y020769D02*
X017641Y020769D01*
X017621Y020966D02*
X018541Y020966D01*
X018481Y021064D02*
X017681Y021064D01*
X017779Y021163D02*
X018383Y021163D01*
X018361Y021261D02*
X017801Y021261D01*
X017801Y021360D02*
X018361Y021360D01*
X018361Y021458D02*
X017801Y021458D01*
X017801Y021557D02*
X018361Y021557D01*
X018442Y021655D02*
X017720Y021655D01*
X017621Y021754D02*
X018541Y021754D01*
X019121Y021754D02*
X019541Y021754D01*
X019442Y021655D02*
X019220Y021655D01*
X019301Y021557D02*
X019361Y021557D01*
X019361Y021458D02*
X019301Y021458D01*
X019301Y021360D02*
X019361Y021360D01*
X019361Y021261D02*
X019301Y021261D01*
X019279Y021163D02*
X019383Y021163D01*
X019481Y021064D02*
X019181Y021064D01*
X019121Y020966D02*
X019541Y020966D01*
X019541Y020867D02*
X019121Y020867D01*
X019121Y020769D02*
X019541Y020769D01*
X019541Y020670D02*
X019205Y020670D01*
X019301Y020572D02*
X019541Y020572D01*
X019541Y020473D02*
X019301Y020473D01*
X019301Y020375D02*
X019541Y020375D01*
X019541Y020276D02*
X019301Y020276D01*
X019294Y020178D02*
X019541Y020178D01*
X019541Y020079D02*
X019196Y020079D01*
X018361Y020473D02*
X018241Y020473D01*
X018218Y020572D02*
X018361Y020572D01*
X018457Y020670D02*
X018120Y020670D01*
X017861Y020276D02*
X017801Y020276D01*
X017801Y020178D02*
X017861Y020178D01*
X017861Y020079D02*
X017801Y020079D01*
X017801Y019981D02*
X017861Y019981D01*
X017650Y019981D02*
X017621Y019981D01*
X017690Y019685D02*
X018057Y019685D01*
X017959Y019587D02*
X017788Y019587D01*
X017801Y019488D02*
X017921Y019488D01*
X020301Y019291D02*
X020421Y019291D01*
X020438Y019193D02*
X020301Y019193D01*
X019831Y015969D02*
X019831Y015780D01*
X019831Y015969D01*
X019831Y015969D01*
X019831Y015942D02*
X019831Y015942D01*
X019831Y015844D02*
X019831Y015844D01*
X019817Y015745D02*
X019845Y015745D01*
X019886Y015647D02*
X019776Y015647D01*
X019707Y015548D02*
X019955Y015548D01*
X020061Y015450D02*
X019601Y015450D01*
X019061Y015450D02*
X018601Y015450D01*
X018707Y015548D02*
X018955Y015548D01*
X018886Y015647D02*
X018776Y015647D01*
X018817Y015745D02*
X018845Y015745D01*
X018831Y015780D02*
X018831Y015969D01*
X018831Y015969D01*
X018831Y015780D01*
X018831Y015844D02*
X018831Y015844D01*
X018831Y015942D02*
X018831Y015942D01*
X018061Y015450D02*
X017601Y015450D01*
X017707Y015548D02*
X017955Y015548D01*
X017886Y015647D02*
X017776Y015647D01*
X017817Y015745D02*
X017845Y015745D01*
X017831Y015780D02*
X017831Y015969D01*
X017831Y015969D01*
X017831Y015780D01*
X017831Y015844D02*
X017831Y015844D01*
X017831Y015942D02*
X017831Y015942D01*
X017061Y015450D02*
X016601Y015450D01*
X016707Y015548D02*
X016955Y015548D01*
X016886Y015647D02*
X016776Y015647D01*
X016817Y015745D02*
X016845Y015745D01*
X016831Y015780D02*
X016831Y015969D01*
X016831Y015969D01*
X016831Y015780D01*
X016831Y015844D02*
X016831Y015844D01*
X016831Y015942D02*
X016831Y015942D01*
X012997Y015253D02*
X012665Y015253D01*
X012758Y015154D02*
X012904Y015154D01*
X012863Y015056D02*
X012799Y015056D01*
X012831Y014957D02*
X012831Y014957D01*
X012831Y014859D02*
X012831Y014859D01*
X012823Y014760D02*
X012839Y014760D01*
X012880Y014662D02*
X012782Y014662D01*
X012722Y014563D02*
X012940Y014563D01*
X013038Y014465D02*
X012624Y014465D01*
X014555Y010328D02*
X015107Y010328D01*
X014974Y010229D02*
X014688Y010229D01*
X014768Y010131D02*
X014894Y010131D01*
X014853Y010032D02*
X014809Y010032D01*
X014831Y009934D02*
X014831Y009934D01*
X014831Y009835D02*
X014831Y009835D01*
X015555Y010328D02*
X016107Y010328D01*
X015974Y010229D02*
X015688Y010229D01*
X015768Y010131D02*
X015894Y010131D01*
X015853Y010032D02*
X015809Y010032D01*
X015831Y009934D02*
X015831Y009934D01*
X015831Y009835D02*
X015831Y009835D01*
X016555Y010328D02*
X017107Y010328D01*
X016974Y010229D02*
X016688Y010229D01*
X016768Y010131D02*
X016894Y010131D01*
X016853Y010032D02*
X016809Y010032D01*
X016831Y009934D02*
X016831Y009934D01*
X016831Y009835D02*
X016831Y009835D01*
X017555Y010328D02*
X018107Y010328D01*
X017974Y010229D02*
X017688Y010229D01*
X017768Y010131D02*
X017894Y010131D01*
X017853Y010032D02*
X017809Y010032D01*
X017831Y009934D02*
X017831Y009934D01*
X017831Y009835D02*
X017831Y009835D01*
X018580Y009441D02*
X019082Y009441D01*
X018963Y009540D02*
X018699Y009540D01*
X018772Y009638D02*
X018890Y009638D01*
X018849Y009737D02*
X018813Y009737D01*
X018831Y009835D02*
X018831Y009835D01*
X018831Y009934D02*
X018831Y009934D01*
X018809Y010032D02*
X018853Y010032D01*
X018894Y010131D02*
X018768Y010131D01*
X018688Y010229D02*
X018974Y010229D01*
X019107Y010328D02*
X018555Y010328D01*
X019555Y010328D02*
X020107Y010328D01*
X019974Y010229D02*
X019688Y010229D01*
X019768Y010131D02*
X019894Y010131D01*
X019853Y010032D02*
X019809Y010032D01*
X019831Y009934D02*
X019831Y009934D01*
X019831Y009835D02*
X019831Y009835D01*
X019813Y009737D02*
X019849Y009737D01*
X019890Y009638D02*
X019772Y009638D01*
X019699Y009540D02*
X019963Y009540D01*
X020082Y009441D02*
X019580Y009441D01*
X020580Y009441D02*
X021082Y009441D01*
X020963Y009540D02*
X020699Y009540D01*
X020772Y009638D02*
X020890Y009638D01*
X020849Y009737D02*
X020813Y009737D01*
X020831Y009835D02*
X020831Y009835D01*
X020831Y009934D02*
X020831Y009934D01*
X020809Y010032D02*
X020853Y010032D01*
X020894Y010131D02*
X020768Y010131D01*
X020688Y010229D02*
X020974Y010229D01*
X021107Y010328D02*
X020555Y010328D01*
X021639Y013480D02*
X023559Y013480D01*
X023533Y013578D02*
X021737Y013578D01*
X021788Y013677D02*
X023533Y013677D01*
X023552Y013775D02*
X021829Y013775D01*
X021831Y013874D02*
X023593Y013874D01*
X023676Y013972D02*
X021831Y013972D01*
X021793Y014071D02*
X023691Y014071D01*
X023599Y014169D02*
X021748Y014169D01*
X021650Y014268D02*
X023558Y014268D01*
X024062Y018700D02*
X027417Y018700D01*
X032633Y014760D02*
X032690Y014760D01*
X032690Y014662D02*
X032633Y014662D01*
X032633Y014563D02*
X032690Y014563D01*
X032690Y014465D02*
X032633Y014465D01*
X032690Y014451D02*
X033041Y014451D01*
X033041Y014394D01*
X032690Y014394D01*
X032690Y014103D01*
X032633Y014103D01*
X032633Y014394D01*
X032690Y014394D01*
X032690Y014451D01*
X032690Y014366D02*
X032633Y014366D01*
X032633Y014268D02*
X032690Y014268D01*
X032690Y014169D02*
X032633Y014169D01*
X032992Y014662D02*
X033041Y014662D01*
X033041Y014760D02*
X032890Y014760D01*
X035119Y013578D02*
X035701Y013578D01*
X035701Y013480D02*
X035202Y013480D01*
X035243Y013381D02*
X035701Y013381D01*
X035701Y013283D02*
X035256Y013283D01*
X035256Y013184D02*
X035701Y013184D01*
X035701Y013086D02*
X035217Y013086D01*
X035155Y012987D02*
X035701Y012987D01*
X035701Y012889D02*
X035034Y012889D01*
X035308Y013677D02*
X035701Y013677D01*
X035701Y013775D02*
X035433Y013775D01*
X035504Y013874D02*
X035701Y013874D01*
X035701Y013972D02*
X035545Y013972D01*
X035556Y014071D02*
X035701Y014071D01*
X035701Y014169D02*
X035556Y014169D01*
X035522Y014268D02*
X035701Y014268D01*
X035701Y014366D02*
X035475Y014366D01*
X035377Y014465D02*
X035701Y014465D01*
X035701Y014563D02*
X035434Y014563D01*
X035504Y014662D02*
X035701Y014662D01*
X035701Y014760D02*
X035545Y014760D01*
X035556Y014859D02*
X035701Y014859D01*
X035701Y014957D02*
X035556Y014957D01*
X035521Y015056D02*
X035701Y015056D01*
X035701Y015154D02*
X035475Y015154D01*
X035376Y015253D02*
X035701Y015253D01*
X035701Y015351D02*
X035434Y015351D01*
X035505Y015450D02*
X035701Y015450D01*
X035701Y015548D02*
X035545Y015548D01*
X035556Y015647D02*
X035701Y015647D01*
X035701Y015745D02*
X035556Y015745D01*
X035531Y015844D02*
X035701Y015844D01*
X035701Y015942D02*
X035630Y015942D01*
X035692Y022542D02*
X035701Y022542D01*
X035701Y022640D02*
X035593Y022640D01*
X035495Y022739D02*
X035701Y022739D01*
X035701Y022837D02*
X035396Y022837D01*
X035298Y022936D02*
X035701Y022936D01*
X035701Y023034D02*
X035199Y023034D01*
X035101Y023133D02*
X035701Y023133D01*
X035701Y023231D02*
X035002Y023231D01*
X034904Y023330D02*
X035701Y023330D01*
X035701Y023428D02*
X034871Y023428D01*
X034854Y023527D02*
X035701Y023527D01*
X035701Y023625D02*
X034814Y023625D01*
X034750Y023724D02*
X035701Y023724D01*
X035701Y023822D02*
X034652Y023822D01*
X034494Y024019D02*
X035701Y024019D01*
X035701Y023921D02*
X034396Y023921D01*
X034593Y024118D02*
X035701Y024118D01*
X035701Y024216D02*
X034691Y024216D01*
X034790Y024315D02*
X035701Y024315D01*
X035701Y024413D02*
X034888Y024413D01*
X034987Y024512D02*
X035701Y024512D01*
X035701Y024610D02*
X035085Y024610D01*
X035161Y024709D02*
X035701Y024709D01*
X035701Y024807D02*
X035201Y024807D01*
X035201Y024906D02*
X035701Y024906D01*
X035701Y025004D02*
X035201Y025004D01*
X035201Y025103D02*
X035701Y025103D01*
X035701Y025201D02*
X035201Y025201D01*
X035201Y025300D02*
X035701Y025300D01*
X035701Y025398D02*
X035201Y025398D01*
X035201Y025497D02*
X035701Y025497D01*
X035701Y025595D02*
X035201Y025595D01*
X035201Y025694D02*
X035701Y025694D01*
X035701Y025792D02*
X035201Y025792D01*
X035241Y025891D02*
X035701Y025891D01*
X035701Y025989D02*
X035282Y025989D01*
X035298Y026088D02*
X035701Y026088D01*
X035701Y026186D02*
X035298Y026186D01*
X035298Y026285D02*
X035701Y026285D01*
X035701Y026383D02*
X035298Y026383D01*
X035298Y026482D02*
X035701Y026482D01*
X035701Y026580D02*
X035298Y026580D01*
X035298Y026679D02*
X035701Y026679D01*
X035701Y026777D02*
X035279Y026777D01*
X035238Y026876D02*
X035701Y026876D01*
X035701Y026974D02*
X035154Y026974D01*
X035000Y027073D02*
X035701Y027073D01*
X035701Y027171D02*
X030062Y027171D01*
X030151Y027073D02*
X030662Y027073D01*
X030738Y027104D02*
X030566Y027033D01*
X030435Y026901D01*
X030363Y026730D01*
X030363Y026029D01*
X030435Y025857D01*
X030566Y025725D01*
X030738Y025654D01*
X030924Y025654D01*
X031096Y025725D01*
X031227Y025857D01*
X031298Y026029D01*
X031298Y026730D01*
X031227Y026901D01*
X031096Y027033D01*
X030924Y027104D01*
X030738Y027104D01*
X031000Y027073D02*
X032662Y027073D01*
X032738Y027104D02*
X032566Y027033D01*
X032435Y026901D01*
X032363Y026730D01*
X032363Y026029D01*
X032435Y025857D01*
X032566Y025725D01*
X032738Y025654D01*
X032924Y025654D01*
X033096Y025725D01*
X033227Y025857D01*
X033298Y026029D01*
X033298Y026730D01*
X033227Y026901D01*
X033096Y027033D01*
X032924Y027104D01*
X032738Y027104D01*
X033000Y027073D02*
X033662Y027073D01*
X033507Y026974D02*
X033154Y026974D01*
X033238Y026876D02*
X033424Y026876D01*
X033383Y026777D02*
X033279Y026777D01*
X033298Y026679D02*
X033363Y026679D01*
X033363Y026580D02*
X033298Y026580D01*
X033298Y026482D02*
X033363Y026482D01*
X033363Y026383D02*
X033298Y026383D01*
X033298Y026285D02*
X033363Y026285D01*
X033363Y026186D02*
X033298Y026186D01*
X033298Y026088D02*
X033363Y026088D01*
X033380Y025989D02*
X033282Y025989D01*
X033241Y025891D02*
X033421Y025891D01*
X033461Y025792D02*
X033163Y025792D01*
X033019Y025694D02*
X033461Y025694D01*
X034201Y025694D02*
X034461Y025694D01*
X034461Y025792D02*
X034201Y025792D01*
X034241Y025891D02*
X034421Y025891D01*
X034380Y025989D02*
X034282Y025989D01*
X034298Y026088D02*
X034363Y026088D01*
X034363Y026186D02*
X034298Y026186D01*
X034298Y026285D02*
X034363Y026285D01*
X034363Y026383D02*
X034298Y026383D01*
X034298Y026482D02*
X034363Y026482D01*
X034363Y026580D02*
X034298Y026580D01*
X034298Y026679D02*
X034363Y026679D01*
X034383Y026777D02*
X034279Y026777D01*
X034238Y026876D02*
X034424Y026876D01*
X034507Y026974D02*
X034154Y026974D01*
X034000Y027073D02*
X034662Y027073D01*
X035701Y027270D02*
X029964Y027270D01*
X029865Y027368D02*
X035701Y027368D01*
X035701Y027467D02*
X029767Y027467D01*
X029668Y027565D02*
X035701Y027565D01*
X035701Y027664D02*
X029570Y027664D01*
X029471Y027762D02*
X035701Y027762D01*
X035701Y027861D02*
X029373Y027861D01*
X029274Y027959D02*
X035701Y027959D01*
X035701Y028058D02*
X029176Y028058D01*
X029077Y028156D02*
X035701Y028156D01*
X034461Y025595D02*
X034201Y025595D01*
X034201Y025497D02*
X034461Y025497D01*
X034461Y025398D02*
X034201Y025398D01*
X034201Y025300D02*
X034461Y025300D01*
X034461Y025201D02*
X034201Y025201D01*
X034201Y025103D02*
X034461Y025103D01*
X034433Y025004D02*
X034201Y025004D01*
X034201Y024906D02*
X034334Y024906D01*
X034236Y024807D02*
X034201Y024807D01*
X032643Y025694D02*
X031019Y025694D01*
X031163Y025792D02*
X032499Y025792D01*
X032421Y025891D02*
X031241Y025891D01*
X031282Y025989D02*
X032380Y025989D01*
X032363Y026088D02*
X031298Y026088D01*
X031298Y026186D02*
X032363Y026186D01*
X032363Y026285D02*
X031298Y026285D01*
X031298Y026383D02*
X032363Y026383D01*
X032363Y026482D02*
X031298Y026482D01*
X031298Y026580D02*
X032363Y026580D01*
X032363Y026679D02*
X031298Y026679D01*
X031279Y026777D02*
X032383Y026777D01*
X032424Y026876D02*
X031238Y026876D01*
X031154Y026974D02*
X032507Y026974D01*
X030507Y026974D02*
X030192Y026974D01*
X030238Y026876D02*
X030424Y026876D01*
X030383Y026777D02*
X030279Y026777D01*
X030298Y026679D02*
X030363Y026679D01*
X030363Y026580D02*
X030298Y026580D01*
X030298Y026482D02*
X030363Y026482D01*
X030363Y026383D02*
X030298Y026383D01*
X030298Y026285D02*
X030363Y026285D01*
X030363Y026186D02*
X030298Y026186D01*
X030298Y026088D02*
X030363Y026088D01*
X030380Y025989D02*
X030282Y025989D01*
X030241Y025891D02*
X030421Y025891D01*
X030499Y025792D02*
X030163Y025792D01*
X030019Y025694D02*
X030643Y025694D01*
X029643Y025694D02*
X028019Y025694D01*
X028163Y025792D02*
X028591Y025792D01*
X028566Y025811D02*
X028617Y025773D01*
X028675Y025744D01*
X028736Y025724D01*
X028799Y025714D01*
X028802Y025714D01*
X028802Y026350D01*
X028860Y026350D01*
X028860Y025714D01*
X028863Y025714D01*
X028926Y025724D01*
X028987Y025744D01*
X029045Y025773D01*
X029096Y025811D01*
X029142Y025856D01*
X029179Y025908D01*
X029209Y025965D01*
X029228Y026026D01*
X029238Y026090D01*
X029238Y026350D01*
X028860Y026350D01*
X028860Y026408D01*
X029238Y026408D01*
X029238Y026669D01*
X029228Y026732D01*
X029209Y026793D01*
X029179Y026850D01*
X029142Y026902D01*
X029096Y026947D01*
X029045Y026985D01*
X028987Y027014D01*
X028926Y027034D01*
X028863Y027044D01*
X028860Y027044D01*
X028860Y026408D01*
X028802Y026408D01*
X028802Y026350D01*
X028423Y026350D01*
X028423Y026090D01*
X028434Y026026D01*
X028453Y025965D01*
X028482Y025908D01*
X028520Y025856D01*
X028566Y025811D01*
X028495Y025891D02*
X028241Y025891D01*
X028282Y025989D02*
X028446Y025989D01*
X028424Y026088D02*
X028298Y026088D01*
X028298Y026186D02*
X028423Y026186D01*
X028423Y026285D02*
X028298Y026285D01*
X028298Y026383D02*
X028802Y026383D01*
X028802Y026408D02*
X028423Y026408D01*
X028423Y026669D01*
X028434Y026732D01*
X028453Y026793D01*
X028482Y026850D01*
X028520Y026902D01*
X028566Y026947D01*
X028617Y026985D01*
X028675Y027014D01*
X028736Y027034D01*
X028799Y027044D01*
X028802Y027044D01*
X028802Y026408D01*
X028860Y026383D02*
X029363Y026383D01*
X029363Y026285D02*
X029238Y026285D01*
X029238Y026186D02*
X029363Y026186D01*
X029363Y026088D02*
X029238Y026088D01*
X029216Y025989D02*
X029380Y025989D01*
X029421Y025891D02*
X029167Y025891D01*
X029071Y025792D02*
X029499Y025792D01*
X028860Y025792D02*
X028802Y025792D01*
X028802Y025891D02*
X028860Y025891D01*
X028860Y025989D02*
X028802Y025989D01*
X028802Y026088D02*
X028860Y026088D01*
X028860Y026186D02*
X028802Y026186D01*
X028802Y026285D02*
X028860Y026285D01*
X028860Y026482D02*
X028802Y026482D01*
X028802Y026580D02*
X028860Y026580D01*
X028860Y026679D02*
X028802Y026679D01*
X028802Y026777D02*
X028860Y026777D01*
X028860Y026876D02*
X028802Y026876D01*
X028802Y026974D02*
X028860Y026974D01*
X029060Y026974D02*
X029213Y026974D01*
X029161Y026876D02*
X029311Y026876D01*
X029383Y026777D02*
X029214Y026777D01*
X029237Y026679D02*
X029363Y026679D01*
X029363Y026580D02*
X029238Y026580D01*
X029238Y026482D02*
X029363Y026482D01*
X029114Y027073D02*
X028000Y027073D01*
X028154Y026974D02*
X028602Y026974D01*
X028501Y026876D02*
X028238Y026876D01*
X028279Y026777D02*
X028448Y026777D01*
X028425Y026679D02*
X028298Y026679D01*
X028298Y026580D02*
X028423Y026580D01*
X028423Y026482D02*
X028298Y026482D01*
X032651Y022936D02*
X032961Y022936D01*
X032912Y023034D02*
X032750Y023034D01*
X032813Y023133D02*
X032849Y023133D01*
X021669Y027270D02*
X021493Y027270D01*
X021546Y027368D02*
X021616Y027368D01*
X019669Y027270D02*
X019493Y027270D01*
X019546Y027368D02*
X019616Y027368D01*
X017669Y027270D02*
X017408Y027270D01*
X017479Y027368D02*
X017616Y027368D01*
X017576Y027467D02*
X017518Y027467D01*
X017531Y027565D02*
X017571Y027565D01*
X017571Y027664D02*
X017531Y027664D01*
X017531Y027762D02*
X017571Y027762D01*
X017571Y027861D02*
X017131Y027861D01*
X017131Y027959D02*
X017031Y027959D01*
X017031Y028058D02*
X017131Y028058D01*
X017131Y028156D02*
X017031Y028156D01*
X017031Y028255D02*
X017131Y028255D01*
X017131Y028353D02*
X017031Y028353D01*
X017031Y028452D02*
X017131Y028452D01*
X017131Y028550D02*
X017031Y028550D01*
X017336Y028550D02*
X017731Y028550D01*
X017642Y028452D02*
X017439Y028452D01*
X017497Y028353D02*
X017601Y028353D01*
X017571Y028255D02*
X017525Y028255D01*
X017531Y028156D02*
X017571Y028156D01*
X017571Y028058D02*
X017531Y028058D01*
X017531Y027959D02*
X017571Y027959D01*
X016897Y024610D02*
X012552Y024610D01*
X012773Y024512D02*
X016861Y024512D01*
X016861Y024413D02*
X012872Y024413D01*
X012970Y024315D02*
X016861Y024315D01*
X016861Y024216D02*
X013014Y024216D01*
X013055Y024118D02*
X016928Y024118D01*
X017026Y024019D02*
X013091Y024019D01*
X013091Y023921D02*
X017125Y023921D01*
X015470Y023428D02*
X012955Y023428D01*
X012856Y023330D02*
X015371Y023330D01*
X015273Y023231D02*
X012752Y023231D01*
X012515Y023133D02*
X015174Y023133D01*
X034095Y006092D02*
X035701Y006092D01*
X035701Y005994D02*
X034291Y005994D01*
X034390Y005895D02*
X035701Y005895D01*
X035701Y005797D02*
X034481Y005797D01*
X034521Y005698D02*
X035701Y005698D01*
X035701Y005600D02*
X034562Y005600D01*
X034591Y005501D02*
X035701Y005501D01*
X035701Y005403D02*
X034591Y005403D01*
X034591Y005304D02*
X035701Y005304D01*
X035701Y005206D02*
X034582Y005206D01*
X034541Y005107D02*
X035701Y005107D01*
X035701Y005009D02*
X034500Y005009D01*
X034437Y004910D02*
X035701Y004910D01*
X035701Y004812D02*
X034338Y004812D01*
X035701Y001758D02*
X007461Y001758D01*
X007461Y001660D02*
X035701Y001660D01*
X035701Y001561D02*
X007461Y001561D01*
X007461Y001463D02*
X035701Y001463D01*
X035701Y001364D02*
X007461Y001364D01*
X007461Y001266D02*
X035701Y001266D01*
X035701Y001167D02*
X007461Y001167D01*
X007461Y001069D02*
X035701Y001069D01*
X035701Y000970D02*
X007461Y000970D01*
X007461Y000872D02*
X035701Y000872D01*
X035701Y000773D02*
X007461Y000773D01*
X007461Y000675D02*
X035701Y000675D01*
X035701Y000576D02*
X007461Y000576D01*
D21*
X012331Y005379D02*
X015331Y002379D01*
X018331Y002379D01*
X021581Y002379D01*
X024831Y002379D01*
X024831Y003379D02*
X024831Y003879D01*
X023331Y005379D01*
X019831Y005379D01*
X015331Y009879D01*
X014331Y009879D02*
X019331Y004879D01*
X020331Y004879D01*
X021581Y003629D01*
X021581Y003379D01*
X020331Y005879D02*
X028081Y005879D01*
X030331Y008129D01*
X032656Y008129D01*
X032662Y008123D01*
X033331Y007879D02*
X032831Y007379D01*
X032705Y007379D01*
X032662Y007336D01*
X033331Y007879D02*
X033331Y015379D01*
X032831Y015879D01*
X029331Y015879D01*
X027831Y017379D01*
X027831Y018379D01*
X027831Y021379D01*
X027831Y023379D02*
X032331Y023379D01*
X027831Y023379D02*
X015831Y023379D01*
X008331Y015879D01*
X010331Y015879D02*
X010331Y014379D01*
X012831Y011879D01*
X021331Y011879D01*
X017331Y009879D02*
X020831Y006379D01*
X027831Y006379D01*
X030331Y008879D01*
X032630Y008879D01*
X032662Y008911D01*
X022831Y017879D02*
X023831Y018879D01*
X023831Y020379D01*
X023831Y021379D01*
X022331Y021379D02*
X022331Y019379D01*
X021331Y018379D01*
X020831Y018379D01*
X018331Y015879D01*
X017331Y015879D02*
X020331Y018879D01*
X021081Y018879D01*
X021331Y019129D01*
X021331Y020379D01*
X021331Y021379D01*
X019831Y021379D02*
X019831Y019379D01*
X016331Y015879D01*
X015331Y015879D02*
X015331Y016379D01*
X017831Y018879D01*
X018581Y018879D01*
X018831Y019129D01*
X018831Y020379D01*
X018831Y021379D01*
X017331Y021379D02*
X017331Y019379D01*
X014331Y016379D01*
X014331Y015879D01*
X019331Y015879D02*
X021331Y017879D01*
X022831Y017879D01*
X022331Y024379D02*
X022081Y024629D01*
X022081Y025379D01*
X021081Y025379D02*
X021081Y024629D01*
X021331Y024379D01*
X020081Y024629D02*
X020081Y025379D01*
X020081Y024629D02*
X019831Y024379D01*
X019081Y024629D02*
X018831Y024379D01*
X019081Y024629D02*
X019081Y025379D01*
X018081Y025379D02*
X018081Y025129D01*
X017331Y024379D01*
X018081Y026379D02*
X018081Y027879D01*
X019081Y027879D02*
X019081Y026379D01*
X020081Y026379D02*
X020081Y027879D01*
X021081Y027879D02*
X021081Y026379D01*
X022081Y026379D02*
X022081Y027879D01*
X023081Y027879D02*
X023081Y026379D01*
X023081Y025379D02*
X023081Y025129D01*
X023831Y024379D01*
X016331Y009879D02*
X020331Y005879D01*
X018331Y004879D02*
X018331Y003379D01*
X018331Y004879D02*
X013331Y009879D01*
X012331Y009879D02*
X012331Y007379D01*
X012331Y006379D02*
X012331Y005379D01*
M02*
