%
M48
M72
T01C0.0315
T02C0.0320
T03C0.0360
T04C0.0380
T05C0.0394
T06C0.0400
T07C0.0591
T08C0.1260
%
T01
X24000Y7336
X24000Y8123
X24000Y8911
X24000Y9698
X24000Y10485
X24000Y11273
X24000Y12060
X24000Y12848
X24000Y13635
X24000Y14422
X32662Y14422
X32662Y13635
X32662Y12848
X32662Y12060
X32662Y11273
X32662Y10485
X32662Y9698
X32662Y8911
X32662Y8123
X32662Y7336
X34831Y14092
X34831Y14879
X34831Y15667
X34831Y26379
X33831Y26379
X32831Y26379
X30831Y26379
X29831Y26379
X28831Y26379
X27831Y26379
T02
X23831Y24379
X23081Y25379
X22081Y25379
X21081Y25379
X20081Y25379
X19081Y25379
X18081Y25379
X18081Y26379
X19081Y26379
X20081Y26379
X21081Y26379
X22081Y26379
X23081Y26379
X22331Y24379
X21331Y24379
X19831Y24379
X18831Y24379
X17331Y24379
X17331Y21379
X17831Y20379
X18831Y20379
X18831Y21379
X19831Y21379
X20331Y20379
X21331Y20379
X21331Y21379
X22331Y21379
X22831Y20379
X23831Y20379
X23831Y21379
X23331Y19379
X22331Y19379
X20831Y19379
X19831Y19379
X18331Y19379
X17331Y19379
X27831Y18379
X28831Y18379
X24831Y3379
X24831Y2379
X21581Y2379
X21581Y3379
X18331Y3379
X18331Y2379
X12331Y2379
X12331Y5379
X12331Y6379
X12331Y7379
T03
X30831Y17379
X31831Y17379
T04
X8331Y9879
X9331Y9879
X10331Y9879
X11331Y9879
X12331Y9879
X13331Y9879
X14331Y9879
X15331Y9879
X16331Y9879
X17331Y9879
X18331Y9879
X19331Y9879
X20331Y9879
X21331Y9879
X21331Y10879
X21331Y11879
X21331Y12879
X21331Y13879
X21331Y14879
X21331Y15879
X20331Y15879
X19331Y15879
X18331Y15879
X17331Y15879
X16331Y15879
X15331Y15879
X14331Y15879
X13331Y15879
X13331Y14879
X12331Y14879
X11331Y14879
X11331Y15879
X12331Y15879
X10331Y15879
X9331Y15879
X8331Y15879
X9331Y14879
T05
X32331Y23379
X33331Y23379
X34331Y23379
T06
X27831Y23379
X27831Y22379
X27831Y21379
X33331Y17379
X34331Y17379
X26081Y27879
X25081Y27879
X24081Y27879
X23081Y27879
X22081Y27879
X21081Y27879
X20081Y27879
X19081Y27879
X18081Y27879
X17081Y27879
T07
X34831Y16493
X34831Y13265
T08
X33831Y5379
X12331Y23879
M30
