G75*
G70*
%OFA0B0*%
%FSLAX24Y24*%
%IPPOS*%
%LPD*%
%AMOC8*
5,1,8,0,0,1.08239X$1,22.5*
%
%ADD10OC8,0.0520*%
%ADD11C,0.0440*%
%ADD12C,0.0520*%
%ADD13OC8,0.0600*%
%ADD14C,0.0554*%
%ADD15C,0.0650*%
%ADD16C,0.0600*%
%ADD17C,0.0660*%
%ADD18C,0.0560*%
%ADD19C,0.0100*%
%ADD20C,0.0436*%
%ADD21C,0.0320*%
%ADD22C,0.0160*%
D10*
X011831Y001650D03*
X012831Y001650D03*
X015831Y011150D03*
X015831Y012150D03*
X016831Y012150D03*
X017831Y012150D03*
X017831Y011150D03*
X020831Y013150D03*
X021831Y013150D03*
X022831Y012250D03*
X022831Y014250D03*
X022831Y015050D03*
X021831Y016150D03*
X022831Y017050D03*
X022831Y018650D03*
X022831Y019650D03*
X021831Y020150D03*
X020831Y021150D03*
X020831Y022150D03*
X021831Y022150D03*
X021831Y025150D03*
X018831Y021150D03*
X018831Y020150D03*
X017331Y020650D03*
X016331Y021650D03*
X015331Y021650D03*
X015331Y020650D03*
X014331Y020150D03*
X014331Y021150D03*
X014331Y022150D03*
X013331Y021150D03*
X013331Y020150D03*
X012331Y020150D03*
X011331Y021150D03*
X011331Y022150D03*
X012331Y022150D03*
X009331Y022150D03*
X008831Y021650D03*
X008831Y020650D03*
X007831Y024250D03*
X008831Y025150D03*
X007831Y026250D03*
X008831Y027150D03*
X017831Y022150D03*
X018831Y018650D03*
X019831Y018650D03*
X019831Y017650D03*
X019831Y016150D03*
X017831Y017650D03*
X014831Y017150D03*
X013831Y017150D03*
X011331Y017050D03*
X011331Y015050D03*
X011331Y014250D03*
X011331Y012250D03*
X013831Y012150D03*
X025331Y011150D03*
X025331Y010150D03*
X026331Y010150D03*
X027331Y011150D03*
X027831Y010150D03*
X028831Y010150D03*
X029331Y011150D03*
X029331Y012150D03*
X028331Y012150D03*
X026331Y012150D03*
X028331Y007900D03*
X029331Y007900D03*
X031331Y013150D03*
X032331Y013150D03*
X032331Y014150D03*
X031331Y015150D03*
X031831Y019650D03*
X031831Y021650D03*
X031831Y022650D03*
X031831Y025650D03*
X027831Y025650D03*
X026831Y025650D03*
X026831Y024650D03*
X027831Y027650D03*
D11*
X028831Y026150D03*
X029831Y025150D03*
X030831Y026150D03*
X025831Y026150D03*
X024831Y025150D03*
X023831Y026150D03*
X016331Y019650D03*
X017331Y018650D03*
X015331Y018650D03*
X011331Y019650D03*
X010331Y018650D03*
X010331Y020650D03*
X019831Y012150D03*
X018831Y011150D03*
X019831Y010150D03*
X022331Y010650D03*
X023331Y011650D03*
X024331Y010650D03*
X030331Y011150D03*
X031331Y010150D03*
X031331Y012150D03*
D12*
X030331Y012890D02*
X030331Y013410D01*
X029331Y013410D02*
X029331Y012890D01*
X028331Y012890D02*
X028331Y013410D01*
X027331Y013410D02*
X027331Y012890D01*
X026331Y012890D02*
X026331Y013410D01*
X025331Y013410D02*
X025331Y012890D01*
X024331Y012890D02*
X024331Y013410D01*
X024331Y015890D02*
X024331Y016410D01*
X025331Y016410D02*
X025331Y015890D01*
X026331Y015890D02*
X026331Y016410D01*
X027331Y016410D02*
X027331Y015890D01*
X028331Y015890D02*
X028331Y016410D01*
X029331Y016410D02*
X029331Y015890D01*
X030331Y015890D02*
X030331Y016410D01*
X021091Y023150D02*
X020571Y023150D01*
X020571Y024150D02*
X021091Y024150D01*
X021091Y025150D02*
X020571Y025150D01*
X020571Y026150D02*
X021091Y026150D01*
X018091Y026150D02*
X017571Y026150D01*
X017571Y025150D02*
X018091Y025150D01*
X018091Y024150D02*
X017571Y024150D01*
X017571Y023150D02*
X018091Y023150D01*
X016331Y022890D02*
X016331Y023410D01*
X015331Y023410D02*
X015331Y022890D01*
X014331Y022890D02*
X014331Y023410D01*
X013331Y023410D02*
X013331Y022890D01*
X012331Y022890D02*
X012331Y023410D01*
X011331Y023410D02*
X011331Y022890D01*
X010331Y022890D02*
X010331Y023410D01*
X010331Y025890D02*
X010331Y026410D01*
X011331Y026410D02*
X011331Y025890D01*
X012331Y025890D02*
X012331Y026410D01*
X013331Y026410D02*
X013331Y025890D01*
X014331Y025890D02*
X014331Y026410D01*
X015331Y026410D02*
X015331Y025890D01*
X016331Y025890D02*
X016331Y026410D01*
X016831Y016410D02*
X016831Y015890D01*
X015831Y015890D02*
X015831Y016410D01*
X014831Y016410D02*
X014831Y015890D01*
X013831Y015890D02*
X013831Y016410D01*
X012831Y016410D02*
X012831Y015890D01*
X012831Y013410D02*
X012831Y012890D01*
X013831Y012890D02*
X013831Y013410D01*
X014831Y013410D02*
X014831Y012890D01*
X015831Y012890D02*
X015831Y013410D01*
X016831Y013410D02*
X016831Y012890D01*
X017831Y012890D02*
X017831Y013410D01*
X018831Y013410D02*
X018831Y012890D01*
X018831Y015890D02*
X018831Y016410D01*
X017831Y016410D02*
X017831Y015890D01*
D13*
X020831Y018150D03*
X025331Y017700D03*
X029331Y017700D03*
X029331Y023600D03*
X025331Y023600D03*
X016331Y027150D03*
X016331Y010150D03*
D14*
X010931Y006850D03*
X010931Y005950D03*
X009031Y005550D03*
X009031Y004750D03*
X008331Y004350D03*
X008331Y003550D03*
X008331Y002750D03*
X009031Y003150D03*
X009031Y003950D03*
X008331Y005150D03*
X010931Y002350D03*
X010931Y001450D03*
X028231Y001450D03*
X028231Y002350D03*
X030131Y002750D03*
X030131Y003550D03*
X030131Y004350D03*
X030831Y004750D03*
X030831Y005550D03*
X030131Y005150D03*
X030831Y003950D03*
X030831Y003150D03*
X028231Y005950D03*
X028231Y006850D03*
D15*
X021943Y006741D03*
X020762Y006741D03*
X019581Y006741D03*
X019581Y005559D03*
X020762Y005559D03*
X021943Y005559D03*
X017219Y005559D03*
X017219Y006741D03*
D16*
X008831Y022850D02*
X008831Y023450D01*
X007831Y023450D02*
X007831Y022850D01*
D17*
X013831Y007150D03*
X013831Y003150D03*
D18*
X015081Y002930D02*
X015081Y002370D01*
X016081Y002370D02*
X016081Y002930D01*
X017081Y002930D02*
X017081Y002370D01*
X018081Y002370D02*
X018081Y002930D01*
X019081Y002930D02*
X019081Y002370D01*
X020081Y002370D02*
X020081Y002930D01*
X021081Y002930D02*
X021081Y002370D01*
X022081Y002370D02*
X022081Y002930D01*
X023081Y002930D02*
X023081Y002370D01*
X024081Y002370D02*
X024081Y002930D01*
D19*
X005461Y000280D02*
X005461Y028520D01*
X033701Y028520D01*
X033701Y000280D01*
X032871Y000280D01*
X032877Y000286D01*
X033577Y000986D01*
X033621Y001092D01*
X033621Y001708D01*
X033577Y001814D01*
X033495Y001896D01*
X031300Y004091D01*
X031244Y004226D01*
X031120Y004350D01*
X031244Y004474D01*
X031318Y004653D01*
X031318Y004847D01*
X031244Y005026D01*
X031120Y005150D01*
X031244Y005274D01*
X031318Y005453D01*
X031318Y005647D01*
X031244Y005826D01*
X031107Y005963D01*
X030928Y006037D01*
X030734Y006037D01*
X030555Y005963D01*
X030418Y005826D01*
X030344Y005647D01*
X030344Y005521D01*
X030295Y005546D01*
X030231Y005567D01*
X030170Y005576D01*
X030170Y005189D01*
X030092Y005189D01*
X030092Y005576D01*
X030031Y005567D01*
X029967Y005546D01*
X029907Y005515D01*
X029853Y005476D01*
X029805Y005428D01*
X029766Y005374D01*
X029735Y005314D01*
X029714Y005250D01*
X029705Y005189D01*
X030092Y005189D01*
X030092Y005111D01*
X029705Y005111D01*
X029714Y005050D01*
X029735Y004986D01*
X029766Y004926D01*
X029805Y004872D01*
X029853Y004824D01*
X029907Y004785D01*
X029907Y004785D01*
X029855Y004763D01*
X029732Y004640D01*
X026251Y004640D01*
X025759Y005132D01*
X025759Y005235D01*
X025694Y005392D01*
X025573Y005513D01*
X025416Y005578D01*
X025246Y005578D01*
X025089Y005513D01*
X024968Y005392D01*
X024903Y005235D01*
X024903Y005065D01*
X024968Y004908D01*
X025089Y004787D01*
X025246Y004722D01*
X025349Y004722D01*
X025631Y004440D01*
X024624Y004440D01*
X024652Y004506D01*
X024652Y004644D01*
X024599Y004771D01*
X024502Y004869D01*
X024374Y004922D01*
X024236Y004922D01*
X024109Y004869D01*
X024012Y004771D01*
X023959Y004644D01*
X023959Y004506D01*
X023986Y004440D01*
X023951Y004440D01*
X022724Y005668D01*
X022617Y005712D01*
X022459Y005712D01*
X022397Y005862D01*
X022246Y006013D01*
X022050Y006094D01*
X021837Y006094D01*
X021640Y006013D01*
X021490Y005862D01*
X021408Y005666D01*
X021408Y005453D01*
X021490Y005257D01*
X021509Y005238D01*
X021211Y004940D01*
X016451Y004940D01*
X015995Y005396D01*
X015889Y005440D01*
X014273Y005440D01*
X014167Y005396D01*
X014085Y005314D01*
X013849Y005078D01*
X013746Y005078D01*
X013589Y005013D01*
X013468Y004892D01*
X013403Y004735D01*
X013403Y004565D01*
X013468Y004408D01*
X013589Y004287D01*
X009383Y004287D01*
X009430Y004240D02*
X009320Y004350D01*
X009444Y004474D01*
X009518Y004653D01*
X009518Y004847D01*
X009444Y005026D01*
X009307Y005163D01*
X009255Y005185D01*
X009309Y005224D01*
X009357Y005272D01*
X014043Y005272D01*
X014141Y005371D02*
X009419Y005371D01*
X009427Y005386D02*
X009448Y005450D01*
X009457Y005511D01*
X009070Y005511D01*
X009070Y005589D01*
X008992Y005589D01*
X008992Y005976D01*
X008931Y005967D01*
X008867Y005946D01*
X008807Y005915D01*
X008753Y005876D01*
X008705Y005828D01*
X008666Y005774D01*
X008635Y005714D01*
X008614Y005650D01*
X008605Y005589D01*
X008992Y005589D01*
X008992Y005511D01*
X008659Y005511D01*
X008607Y005563D01*
X008428Y005637D01*
X008234Y005637D01*
X008055Y005563D01*
X007918Y005426D01*
X007844Y005247D01*
X007844Y005053D01*
X007918Y004874D01*
X008042Y004750D01*
X007918Y004626D01*
X007844Y004447D01*
X007844Y004253D01*
X007918Y004074D01*
X008042Y003950D01*
X007918Y003826D01*
X007844Y003647D01*
X007844Y003453D01*
X007918Y003274D01*
X008042Y003150D01*
X007918Y003026D01*
X007844Y002847D01*
X007844Y002653D01*
X007918Y002474D01*
X008055Y002337D01*
X008234Y002263D01*
X008428Y002263D01*
X008607Y002337D01*
X008744Y002474D01*
X008818Y002653D01*
X008818Y002779D01*
X008867Y002754D01*
X008931Y002733D01*
X008992Y002724D01*
X008992Y003111D01*
X009070Y003111D01*
X009070Y003189D01*
X009457Y003189D01*
X009448Y003250D01*
X009427Y003314D01*
X009396Y003374D01*
X009357Y003428D01*
X009309Y003476D01*
X009255Y003515D01*
X009255Y003515D01*
X009307Y003537D01*
X009430Y003660D01*
X011411Y003660D01*
X013835Y001236D01*
X013917Y001154D01*
X014023Y001110D01*
X015516Y001110D01*
X015589Y001037D01*
X015746Y000972D01*
X015916Y000972D01*
X016073Y001037D01*
X016194Y001158D01*
X016259Y001315D01*
X016259Y001449D01*
X017371Y000336D01*
X017507Y000280D01*
X026606Y000280D01*
X026606Y000280D01*
X005461Y000280D01*
X005461Y000347D02*
X017361Y000347D01*
X017262Y000446D02*
X005461Y000446D01*
X005461Y000544D02*
X017164Y000544D01*
X017065Y000643D02*
X005461Y000643D01*
X005461Y000741D02*
X016967Y000741D01*
X016868Y000840D02*
X005461Y000840D01*
X005461Y000938D02*
X007038Y000938D01*
X007178Y000880D02*
X007484Y000880D01*
X007767Y000997D01*
X007984Y001214D01*
X008101Y001497D01*
X008101Y001803D01*
X007984Y002086D01*
X007767Y002303D01*
X007484Y002420D01*
X007178Y002420D01*
X006895Y002303D01*
X006678Y002086D01*
X006561Y001803D01*
X006561Y001497D01*
X006678Y001214D01*
X006895Y000997D01*
X007178Y000880D01*
X006856Y001037D02*
X005461Y001037D01*
X005461Y001135D02*
X006757Y001135D01*
X006670Y001234D02*
X005461Y001234D01*
X005461Y001332D02*
X006630Y001332D01*
X006589Y001431D02*
X005461Y001431D01*
X005461Y001529D02*
X006561Y001529D01*
X006561Y001628D02*
X005461Y001628D01*
X005461Y001726D02*
X006561Y001726D01*
X006570Y001825D02*
X005461Y001825D01*
X005461Y001923D02*
X006611Y001923D01*
X006652Y002022D02*
X005461Y002022D01*
X005461Y002120D02*
X006712Y002120D01*
X006811Y002219D02*
X005461Y002219D01*
X005461Y002317D02*
X006930Y002317D01*
X007168Y002416D02*
X005461Y002416D01*
X005461Y002514D02*
X007901Y002514D01*
X007861Y002613D02*
X005461Y002613D01*
X005461Y002711D02*
X007844Y002711D01*
X007844Y002810D02*
X005461Y002810D01*
X005461Y002908D02*
X007869Y002908D01*
X007910Y003007D02*
X005461Y003007D01*
X005461Y003105D02*
X007997Y003105D01*
X007989Y003204D02*
X005461Y003204D01*
X005461Y003302D02*
X007906Y003302D01*
X007866Y003401D02*
X005461Y003401D01*
X005461Y003499D02*
X007844Y003499D01*
X007844Y003598D02*
X005461Y003598D01*
X005461Y003696D02*
X007864Y003696D01*
X007905Y003795D02*
X005461Y003795D01*
X005461Y003893D02*
X007985Y003893D01*
X008001Y003992D02*
X005461Y003992D01*
X005461Y004090D02*
X007911Y004090D01*
X007871Y004189D02*
X005461Y004189D01*
X005461Y004287D02*
X007844Y004287D01*
X007844Y004386D02*
X005461Y004386D01*
X005461Y004484D02*
X007859Y004484D01*
X007900Y004583D02*
X005461Y004583D01*
X005461Y004681D02*
X007973Y004681D01*
X008013Y004780D02*
X005461Y004780D01*
X005461Y004878D02*
X007916Y004878D01*
X007876Y004977D02*
X005461Y004977D01*
X005461Y005075D02*
X007844Y005075D01*
X007844Y005174D02*
X005461Y005174D01*
X005461Y005272D02*
X007854Y005272D01*
X007895Y005371D02*
X005461Y005371D01*
X005461Y005469D02*
X007961Y005469D01*
X008066Y005568D02*
X005461Y005568D01*
X005461Y005666D02*
X008620Y005666D01*
X008596Y005568D02*
X008992Y005568D01*
X009070Y005568D02*
X010625Y005568D01*
X010655Y005537D02*
X010518Y005674D01*
X010444Y005853D01*
X010444Y006047D01*
X010518Y006226D01*
X010655Y006363D01*
X010744Y006400D01*
X010655Y006437D01*
X010518Y006574D01*
X010444Y006753D01*
X010444Y006947D01*
X010518Y007126D01*
X010655Y007263D01*
X010834Y007337D01*
X011028Y007337D01*
X011207Y007263D01*
X011344Y007126D01*
X011418Y006947D01*
X011418Y006753D01*
X011344Y006574D01*
X011207Y006437D01*
X011118Y006400D01*
X011207Y006363D01*
X011344Y006226D01*
X011418Y006047D01*
X011418Y005853D01*
X011344Y005674D01*
X011207Y005537D01*
X011028Y005463D01*
X010834Y005463D01*
X010655Y005537D01*
X010819Y005469D02*
X009451Y005469D01*
X009427Y005386D02*
X009396Y005326D01*
X009357Y005272D01*
X009282Y005174D02*
X013944Y005174D01*
X013739Y005075D02*
X009395Y005075D01*
X009464Y004977D02*
X013552Y004977D01*
X013462Y004878D02*
X009505Y004878D01*
X009518Y004780D02*
X013422Y004780D01*
X013403Y004681D02*
X009518Y004681D01*
X009489Y004583D02*
X013403Y004583D01*
X013437Y004484D02*
X009448Y004484D01*
X009355Y004386D02*
X013490Y004386D01*
X013589Y004287D02*
X013746Y004222D01*
X013916Y004222D01*
X014073Y004287D01*
X014194Y004408D01*
X014259Y004565D01*
X014259Y004668D01*
X014451Y004860D01*
X014651Y004860D01*
X014563Y004771D01*
X014510Y004644D01*
X014510Y004506D01*
X014563Y004379D01*
X014660Y004281D01*
X014788Y004229D01*
X014925Y004229D01*
X015053Y004281D01*
X015150Y004379D01*
X015203Y004506D01*
X015203Y004644D01*
X015150Y004771D01*
X015062Y004860D01*
X015711Y004860D01*
X016085Y004486D01*
X016167Y004404D01*
X016273Y004360D01*
X021389Y004360D01*
X021495Y004404D01*
X021791Y004700D01*
X021791Y003333D01*
X021666Y003208D01*
X021591Y003027D01*
X021591Y002273D01*
X021666Y002092D01*
X021803Y001955D01*
X021839Y001940D01*
X021701Y001940D01*
X021512Y002129D01*
X021571Y002273D01*
X021571Y003027D01*
X021496Y003208D01*
X021359Y003345D01*
X021178Y003420D01*
X020984Y003420D01*
X020803Y003345D01*
X020666Y003208D01*
X020591Y003027D01*
X020591Y002273D01*
X020666Y002092D01*
X020803Y001955D01*
X020911Y001910D01*
X020917Y001904D01*
X021417Y001404D01*
X021523Y001360D01*
X026411Y001360D01*
X026709Y001062D01*
X026606Y001020D01*
X017734Y001020D01*
X016545Y002209D01*
X016571Y002273D01*
X016571Y003027D01*
X016496Y003208D01*
X016359Y003345D01*
X016178Y003420D01*
X015984Y003420D01*
X015803Y003345D01*
X015666Y003208D01*
X015591Y003027D01*
X015591Y002273D01*
X015666Y002092D01*
X015732Y002026D01*
X015767Y001940D01*
X015871Y001836D01*
X015880Y001828D01*
X015746Y001828D01*
X015589Y001763D01*
X015516Y001690D01*
X014201Y001690D01*
X011695Y004196D01*
X011589Y004240D01*
X009430Y004240D01*
X009367Y003598D02*
X011473Y003598D01*
X011572Y003499D02*
X009277Y003499D01*
X009377Y003401D02*
X011670Y003401D01*
X011769Y003302D02*
X009431Y003302D01*
X009455Y003204D02*
X011867Y003204D01*
X011966Y003105D02*
X009456Y003105D01*
X009457Y003111D02*
X009070Y003111D01*
X009070Y002724D01*
X009131Y002733D01*
X009195Y002754D01*
X009255Y002785D01*
X009309Y002824D01*
X009357Y002872D01*
X009396Y002926D01*
X009427Y002986D01*
X009448Y003050D01*
X009457Y003111D01*
X009433Y003007D02*
X012064Y003007D01*
X012163Y002908D02*
X009383Y002908D01*
X009289Y002810D02*
X010767Y002810D01*
X010834Y002837D02*
X010655Y002763D01*
X010518Y002626D01*
X010444Y002447D01*
X010444Y002253D01*
X010518Y002074D01*
X010655Y001937D01*
X010744Y001900D01*
X010655Y001863D01*
X010518Y001726D01*
X008101Y001726D01*
X008101Y001628D02*
X010477Y001628D01*
X010444Y001547D02*
X010444Y001353D01*
X010518Y001174D01*
X010655Y001037D01*
X010834Y000963D01*
X011028Y000963D01*
X011207Y001037D01*
X011344Y001174D01*
X011418Y001353D01*
X011418Y001398D01*
X011636Y001180D01*
X012026Y001180D01*
X012301Y001455D01*
X012301Y001845D01*
X012026Y002120D01*
X011636Y002120D01*
X011361Y001845D01*
X011361Y001685D01*
X011344Y001726D01*
X011207Y001863D01*
X011118Y001900D01*
X011207Y001937D01*
X011344Y002074D01*
X011418Y002253D01*
X011418Y002447D01*
X011344Y002626D01*
X011207Y002763D01*
X011028Y002837D01*
X010834Y002837D01*
X011095Y002810D02*
X012261Y002810D01*
X012360Y002711D02*
X011259Y002711D01*
X011350Y002613D02*
X012458Y002613D01*
X012557Y002514D02*
X011390Y002514D01*
X011418Y002416D02*
X012655Y002416D01*
X012754Y002317D02*
X011418Y002317D01*
X011404Y002219D02*
X012852Y002219D01*
X012951Y002120D02*
X011363Y002120D01*
X011291Y002022D02*
X011538Y002022D01*
X011439Y001923D02*
X011173Y001923D01*
X011245Y001825D02*
X011361Y001825D01*
X011361Y001726D02*
X011344Y001726D01*
X011409Y001332D02*
X011484Y001332D01*
X011583Y001234D02*
X011369Y001234D01*
X011305Y001135D02*
X013963Y001135D01*
X013837Y001234D02*
X012079Y001234D01*
X012178Y001332D02*
X012569Y001332D01*
X012661Y001240D02*
X012801Y001240D01*
X012801Y001620D01*
X012861Y001620D01*
X012861Y001680D01*
X013241Y001680D01*
X013241Y001820D01*
X013001Y002060D01*
X012861Y002060D01*
X012861Y001680D01*
X012801Y001680D01*
X012801Y002060D01*
X012661Y002060D01*
X012421Y001820D01*
X012421Y001680D01*
X012801Y001680D01*
X012801Y001620D01*
X012421Y001620D01*
X012421Y001480D01*
X012661Y001240D01*
X012801Y001332D02*
X012861Y001332D01*
X012861Y001240D02*
X013001Y001240D01*
X013241Y001480D01*
X013241Y001620D01*
X012861Y001620D01*
X012861Y001240D01*
X012861Y001431D02*
X012801Y001431D01*
X012801Y001529D02*
X012861Y001529D01*
X012861Y001628D02*
X013443Y001628D01*
X013345Y001726D02*
X013241Y001726D01*
X013236Y001825D02*
X013246Y001825D01*
X013148Y001923D02*
X013138Y001923D01*
X013049Y002022D02*
X013039Y002022D01*
X012861Y002022D02*
X012801Y002022D01*
X012801Y001923D02*
X012861Y001923D01*
X012861Y001825D02*
X012801Y001825D01*
X012801Y001726D02*
X012861Y001726D01*
X012801Y001628D02*
X012301Y001628D01*
X012301Y001726D02*
X012421Y001726D01*
X012426Y001825D02*
X012301Y001825D01*
X012223Y001923D02*
X012524Y001923D01*
X012623Y002022D02*
X012124Y002022D01*
X012301Y001529D02*
X012421Y001529D01*
X012471Y001431D02*
X012276Y001431D01*
X013093Y001332D02*
X013739Y001332D01*
X013640Y001431D02*
X013191Y001431D01*
X013241Y001529D02*
X013542Y001529D01*
X013968Y001923D02*
X014880Y001923D01*
X014803Y001955D02*
X014984Y001880D01*
X015178Y001880D01*
X015359Y001955D01*
X015496Y002092D01*
X015571Y002273D01*
X015571Y003027D01*
X015496Y003208D01*
X015359Y003345D01*
X015178Y003420D01*
X014984Y003420D01*
X014803Y003345D01*
X014666Y003208D01*
X014591Y003027D01*
X014591Y002273D01*
X014666Y002092D01*
X014803Y001955D01*
X014737Y002022D02*
X013870Y002022D01*
X013771Y002120D02*
X014654Y002120D01*
X014613Y002219D02*
X013673Y002219D01*
X013574Y002317D02*
X014591Y002317D01*
X014591Y002416D02*
X013476Y002416D01*
X013377Y002514D02*
X014591Y002514D01*
X014591Y002613D02*
X013944Y002613D01*
X013938Y002610D02*
X014137Y002692D01*
X014289Y002844D01*
X014371Y003043D01*
X014371Y003257D01*
X014289Y003456D01*
X014137Y003608D01*
X013938Y003690D01*
X013724Y003690D01*
X013525Y003608D01*
X013373Y003456D01*
X013291Y003257D01*
X013291Y003043D01*
X013373Y002844D01*
X013525Y002692D01*
X013724Y002610D01*
X013938Y002610D01*
X013718Y002613D02*
X013279Y002613D01*
X013180Y002711D02*
X013506Y002711D01*
X013408Y002810D02*
X013082Y002810D01*
X012983Y002908D02*
X013347Y002908D01*
X013306Y003007D02*
X012885Y003007D01*
X012786Y003105D02*
X013291Y003105D01*
X013291Y003204D02*
X012688Y003204D01*
X012589Y003302D02*
X013309Y003302D01*
X013350Y003401D02*
X012491Y003401D01*
X012392Y003499D02*
X013416Y003499D01*
X013515Y003598D02*
X012294Y003598D01*
X012195Y003696D02*
X021791Y003696D01*
X021791Y003598D02*
X014147Y003598D01*
X014246Y003499D02*
X021791Y003499D01*
X021791Y003401D02*
X021225Y003401D01*
X021402Y003302D02*
X021760Y003302D01*
X021664Y003204D02*
X021498Y003204D01*
X021539Y003105D02*
X021623Y003105D01*
X021591Y003007D02*
X021571Y003007D01*
X021571Y002908D02*
X021591Y002908D01*
X021591Y002810D02*
X021571Y002810D01*
X021571Y002711D02*
X021591Y002711D01*
X021591Y002613D02*
X021571Y002613D01*
X021571Y002514D02*
X021591Y002514D01*
X021591Y002416D02*
X021571Y002416D01*
X021571Y002317D02*
X021591Y002317D01*
X021613Y002219D02*
X021549Y002219D01*
X021521Y002120D02*
X021654Y002120D01*
X021620Y002022D02*
X021737Y002022D01*
X021292Y001529D02*
X017225Y001529D01*
X017127Y001628D02*
X021193Y001628D01*
X021095Y001726D02*
X017028Y001726D01*
X016930Y001825D02*
X020996Y001825D01*
X020917Y001904D02*
X020917Y001904D01*
X020880Y001923D02*
X020282Y001923D01*
X020359Y001955D02*
X020496Y002092D01*
X020571Y002273D01*
X020571Y003027D01*
X020496Y003208D01*
X020359Y003345D01*
X020178Y003420D01*
X019984Y003420D01*
X019803Y003345D01*
X019666Y003208D01*
X019591Y003027D01*
X019591Y002273D01*
X019666Y002092D01*
X019803Y001955D01*
X019984Y001880D01*
X020178Y001880D01*
X020359Y001955D01*
X020425Y002022D02*
X020737Y002022D01*
X020654Y002120D02*
X020508Y002120D01*
X020549Y002219D02*
X020613Y002219D01*
X020591Y002317D02*
X020571Y002317D01*
X020571Y002416D02*
X020591Y002416D01*
X020591Y002514D02*
X020571Y002514D01*
X020571Y002613D02*
X020591Y002613D01*
X020591Y002711D02*
X020571Y002711D01*
X020571Y002810D02*
X020591Y002810D01*
X020591Y002908D02*
X020571Y002908D01*
X020571Y003007D02*
X020591Y003007D01*
X020623Y003105D02*
X020539Y003105D01*
X020498Y003204D02*
X020664Y003204D01*
X020760Y003302D02*
X020402Y003302D01*
X020225Y003401D02*
X020936Y003401D01*
X019936Y003401D02*
X019225Y003401D01*
X019178Y003420D02*
X018984Y003420D01*
X018803Y003345D01*
X018666Y003208D01*
X018591Y003027D01*
X018591Y002273D01*
X018666Y002092D01*
X018803Y001955D01*
X018984Y001880D01*
X019178Y001880D01*
X019359Y001955D01*
X019496Y002092D01*
X019571Y002273D01*
X019571Y003027D01*
X019496Y003208D01*
X019359Y003345D01*
X019178Y003420D01*
X018936Y003401D02*
X018225Y003401D01*
X018178Y003420D02*
X018359Y003345D01*
X018496Y003208D01*
X018571Y003027D01*
X018571Y002273D01*
X018496Y002092D01*
X018359Y001955D01*
X018178Y001880D01*
X017984Y001880D01*
X017803Y001955D01*
X017666Y002092D01*
X017591Y002273D01*
X017591Y003027D01*
X017666Y003208D01*
X017803Y003345D01*
X017984Y003420D01*
X018178Y003420D01*
X017936Y003401D02*
X016225Y003401D01*
X016402Y003302D02*
X016864Y003302D01*
X016856Y003298D02*
X016801Y003258D01*
X016753Y003210D01*
X016713Y003155D01*
X016682Y003095D01*
X016662Y003031D01*
X016651Y002964D01*
X016651Y002690D01*
X017041Y002690D01*
X017041Y003359D01*
X016980Y003349D01*
X016916Y003328D01*
X016856Y003298D01*
X016748Y003204D02*
X016498Y003204D01*
X016539Y003105D02*
X016688Y003105D01*
X016658Y003007D02*
X016571Y003007D01*
X016571Y002908D02*
X016651Y002908D01*
X016651Y002810D02*
X016571Y002810D01*
X016571Y002711D02*
X016651Y002711D01*
X016651Y002610D02*
X016651Y002336D01*
X016662Y002269D01*
X016682Y002205D01*
X016713Y002145D01*
X016753Y002090D01*
X016801Y002042D01*
X016856Y002002D01*
X016916Y001972D01*
X016980Y001951D01*
X017041Y001941D01*
X017041Y002610D01*
X017121Y002610D01*
X017121Y002690D01*
X017511Y002690D01*
X017511Y002964D01*
X017500Y003031D01*
X017479Y003095D01*
X017449Y003155D01*
X017409Y003210D01*
X017361Y003258D01*
X017306Y003298D01*
X017246Y003328D01*
X017182Y003349D01*
X017121Y003359D01*
X017121Y002690D01*
X017041Y002690D01*
X017041Y002610D01*
X016651Y002610D01*
X016571Y002613D02*
X017041Y002613D01*
X017121Y002613D02*
X017591Y002613D01*
X017511Y002610D02*
X017511Y002336D01*
X017500Y002269D01*
X017479Y002205D01*
X017449Y002145D01*
X017409Y002090D01*
X017361Y002042D01*
X017306Y002002D01*
X017246Y001972D01*
X017182Y001951D01*
X017121Y001941D01*
X017121Y002610D01*
X017511Y002610D01*
X017511Y002514D02*
X017591Y002514D01*
X017591Y002416D02*
X017511Y002416D01*
X017508Y002317D02*
X017591Y002317D01*
X017613Y002219D02*
X017484Y002219D01*
X017431Y002120D02*
X017654Y002120D01*
X017737Y002022D02*
X017333Y002022D01*
X017121Y002022D02*
X017041Y002022D01*
X017041Y002120D02*
X017121Y002120D01*
X017121Y002219D02*
X017041Y002219D01*
X017041Y002317D02*
X017121Y002317D01*
X017121Y002416D02*
X017041Y002416D01*
X017041Y002514D02*
X017121Y002514D01*
X017121Y002711D02*
X017041Y002711D01*
X017041Y002810D02*
X017121Y002810D01*
X017121Y002908D02*
X017041Y002908D01*
X017041Y003007D02*
X017121Y003007D01*
X017121Y003105D02*
X017041Y003105D01*
X017041Y003204D02*
X017121Y003204D01*
X017121Y003302D02*
X017041Y003302D01*
X017298Y003302D02*
X017760Y003302D01*
X017664Y003204D02*
X017414Y003204D01*
X017474Y003105D02*
X017623Y003105D01*
X017591Y003007D02*
X017504Y003007D01*
X017511Y002908D02*
X017591Y002908D01*
X017591Y002810D02*
X017511Y002810D01*
X017511Y002711D02*
X017591Y002711D01*
X018402Y003302D02*
X018760Y003302D01*
X018664Y003204D02*
X018498Y003204D01*
X018539Y003105D02*
X018623Y003105D01*
X018591Y003007D02*
X018571Y003007D01*
X018571Y002908D02*
X018591Y002908D01*
X018591Y002810D02*
X018571Y002810D01*
X018571Y002711D02*
X018591Y002711D01*
X018591Y002613D02*
X018571Y002613D01*
X018571Y002514D02*
X018591Y002514D01*
X018591Y002416D02*
X018571Y002416D01*
X018571Y002317D02*
X018591Y002317D01*
X018613Y002219D02*
X018549Y002219D01*
X018508Y002120D02*
X018654Y002120D01*
X018737Y002022D02*
X018425Y002022D01*
X018282Y001923D02*
X018880Y001923D01*
X019282Y001923D02*
X019880Y001923D01*
X019737Y002022D02*
X019425Y002022D01*
X019508Y002120D02*
X019654Y002120D01*
X019613Y002219D02*
X019549Y002219D01*
X019571Y002317D02*
X019591Y002317D01*
X019591Y002416D02*
X019571Y002416D01*
X019571Y002514D02*
X019591Y002514D01*
X019591Y002613D02*
X019571Y002613D01*
X019571Y002711D02*
X019591Y002711D01*
X019591Y002810D02*
X019571Y002810D01*
X019571Y002908D02*
X019591Y002908D01*
X019591Y003007D02*
X019571Y003007D01*
X019539Y003105D02*
X019623Y003105D01*
X019664Y003204D02*
X019498Y003204D01*
X019402Y003302D02*
X019760Y003302D01*
X021450Y004386D02*
X021791Y004386D01*
X021791Y004484D02*
X021575Y004484D01*
X021674Y004583D02*
X021791Y004583D01*
X021791Y004681D02*
X021772Y004681D01*
X021791Y004287D02*
X015058Y004287D01*
X015153Y004386D02*
X016212Y004386D01*
X016087Y004484D02*
X015194Y004484D01*
X015203Y004583D02*
X015988Y004583D01*
X015890Y004681D02*
X015188Y004681D01*
X015142Y004780D02*
X015791Y004780D01*
X016119Y005272D02*
X016759Y005272D01*
X016765Y005257D02*
X016916Y005106D01*
X017112Y005025D01*
X017325Y005025D01*
X017522Y005106D01*
X017672Y005257D01*
X017754Y005453D01*
X017754Y005666D01*
X017672Y005862D01*
X017522Y006013D01*
X017325Y006094D01*
X017112Y006094D01*
X016916Y006013D01*
X016765Y005862D01*
X016684Y005666D01*
X011336Y005666D01*
X011381Y005765D02*
X016725Y005765D01*
X016766Y005863D02*
X011418Y005863D01*
X011418Y005962D02*
X016865Y005962D01*
X017030Y006060D02*
X011413Y006060D01*
X011372Y006159D02*
X018912Y006159D01*
X018814Y006257D02*
X017449Y006257D01*
X017522Y006287D02*
X017672Y006438D01*
X017754Y006634D01*
X017754Y006847D01*
X017672Y007043D01*
X017522Y007194D01*
X017325Y007275D01*
X017112Y007275D01*
X016916Y007194D01*
X016765Y007043D01*
X016684Y006847D01*
X016684Y006634D01*
X016765Y006438D01*
X016916Y006287D01*
X017112Y006206D01*
X017325Y006206D01*
X017522Y006287D01*
X017590Y006356D02*
X018715Y006356D01*
X018617Y006454D02*
X017679Y006454D01*
X017720Y006553D02*
X018518Y006553D01*
X018420Y006651D02*
X017754Y006651D01*
X017754Y006750D02*
X018321Y006750D01*
X018223Y006848D02*
X017753Y006848D01*
X017712Y006947D02*
X018124Y006947D01*
X018026Y007045D02*
X017671Y007045D01*
X017572Y007144D02*
X017927Y007144D01*
X017829Y007242D02*
X017406Y007242D01*
X017632Y007439D02*
X015061Y007439D01*
X015053Y007431D02*
X015150Y007529D01*
X015203Y007656D01*
X015203Y007794D01*
X015176Y007860D01*
X017211Y007860D01*
X019085Y005986D01*
X019167Y005904D01*
X019169Y005903D01*
X019128Y005862D01*
X019046Y005666D01*
X019046Y005453D01*
X019128Y005257D01*
X019278Y005106D01*
X019475Y005025D01*
X019687Y005025D01*
X019884Y005106D01*
X020034Y005257D01*
X020116Y005453D01*
X020116Y005666D01*
X020035Y005860D01*
X020308Y005860D01*
X020227Y005666D01*
X020227Y005453D01*
X020309Y005257D01*
X020459Y005106D01*
X020656Y005025D01*
X020868Y005025D01*
X021065Y005106D01*
X021215Y005257D01*
X021297Y005453D01*
X021297Y005666D01*
X021408Y005666D01*
X021408Y005568D02*
X021297Y005568D01*
X021297Y005666D02*
X021216Y005860D01*
X021410Y005860D01*
X021517Y005904D01*
X021824Y006211D01*
X021837Y006206D01*
X022050Y006206D01*
X022246Y006287D01*
X022397Y006438D01*
X022478Y006634D01*
X022478Y006847D01*
X022397Y007043D01*
X022246Y007194D01*
X022050Y007275D01*
X021837Y007275D01*
X021640Y007194D01*
X021490Y007043D01*
X021408Y006847D01*
X021408Y006634D01*
X021414Y006621D01*
X021233Y006440D01*
X021216Y006440D01*
X021297Y006634D01*
X021297Y006847D01*
X021215Y007043D01*
X021065Y007194D01*
X020868Y007275D01*
X020656Y007275D01*
X020643Y007270D01*
X019017Y008896D01*
X018910Y008940D01*
X017548Y008940D01*
X017599Y009065D01*
X017599Y009235D01*
X017534Y009392D01*
X017414Y009513D01*
X017257Y009578D01*
X017086Y009578D01*
X016929Y009513D01*
X016857Y009440D01*
X012451Y009440D01*
X008259Y013632D01*
X008259Y013735D01*
X008194Y013892D01*
X008073Y014013D01*
X008031Y014030D01*
X010106Y014030D01*
X010246Y013972D01*
X010416Y013972D01*
X010573Y014037D01*
X010694Y014158D01*
X010759Y014315D01*
X010759Y014485D01*
X010694Y014642D01*
X010573Y014763D01*
X010416Y014828D01*
X010246Y014828D01*
X010106Y014770D01*
X006556Y014770D01*
X006416Y014828D01*
X006246Y014828D01*
X006089Y014763D01*
X005968Y014642D01*
X005903Y014485D01*
X005903Y014315D01*
X005968Y014158D01*
X006089Y014037D01*
X006246Y013972D01*
X006416Y013972D01*
X006556Y014030D01*
X007630Y014030D01*
X007589Y014013D01*
X007468Y013892D01*
X007403Y013735D01*
X007403Y013565D01*
X007468Y013408D01*
X007589Y013287D01*
X007746Y013222D01*
X007849Y013222D01*
X012085Y008986D01*
X012131Y008940D01*
X007146Y008940D01*
X007073Y009013D01*
X006916Y009078D01*
X006746Y009078D01*
X006589Y009013D01*
X006468Y008892D01*
X006403Y008735D01*
X006403Y008565D01*
X006468Y008408D01*
X006589Y008287D01*
X006746Y008222D01*
X006916Y008222D01*
X007073Y008287D01*
X007146Y008360D01*
X007955Y008360D01*
X007903Y008235D01*
X007903Y008065D01*
X007968Y007908D01*
X008089Y007787D01*
X008246Y007722D01*
X008416Y007722D01*
X008573Y007787D01*
X008646Y007860D01*
X014537Y007860D01*
X014510Y007794D01*
X014510Y007656D01*
X014563Y007529D01*
X014660Y007431D01*
X014788Y007378D01*
X014925Y007378D01*
X015053Y007431D01*
X015154Y007538D02*
X017533Y007538D01*
X017435Y007636D02*
X015195Y007636D01*
X015203Y007735D02*
X017336Y007735D01*
X017238Y007833D02*
X015187Y007833D01*
X014526Y007833D02*
X008619Y007833D01*
X008446Y007735D02*
X014510Y007735D01*
X014518Y007636D02*
X014069Y007636D01*
X014137Y007608D02*
X013938Y007690D01*
X013724Y007690D01*
X013525Y007608D01*
X013373Y007456D01*
X013291Y007257D01*
X013291Y007043D01*
X013373Y006844D01*
X013525Y006692D01*
X013724Y006610D01*
X013938Y006610D01*
X014137Y006692D01*
X014289Y006844D01*
X014371Y007043D01*
X014371Y007257D01*
X014289Y007456D01*
X014137Y007608D01*
X014207Y007538D02*
X014559Y007538D01*
X014652Y007439D02*
X014296Y007439D01*
X014337Y007341D02*
X017730Y007341D01*
X017032Y007242D02*
X014371Y007242D01*
X014371Y007144D02*
X016865Y007144D01*
X016767Y007045D02*
X014371Y007045D01*
X014331Y006947D02*
X016725Y006947D01*
X016684Y006848D02*
X014290Y006848D01*
X014194Y006750D02*
X016684Y006750D01*
X016684Y006651D02*
X014037Y006651D01*
X013625Y006651D02*
X011376Y006651D01*
X011417Y006750D02*
X013468Y006750D01*
X013372Y006848D02*
X011418Y006848D01*
X011418Y006947D02*
X013331Y006947D01*
X013291Y007045D02*
X011377Y007045D01*
X011326Y007144D02*
X013291Y007144D01*
X013291Y007242D02*
X011228Y007242D01*
X010634Y007242D02*
X007828Y007242D01*
X007767Y007303D02*
X007484Y007420D01*
X007178Y007420D01*
X006895Y007303D01*
X006678Y007086D01*
X006561Y006803D01*
X006561Y006497D01*
X006678Y006214D01*
X006895Y005997D01*
X007178Y005880D01*
X007484Y005880D01*
X007767Y005997D01*
X007984Y006214D01*
X008101Y006497D01*
X008101Y006803D01*
X007984Y007086D01*
X007767Y007303D01*
X007675Y007341D02*
X013325Y007341D01*
X013366Y007439D02*
X005461Y007439D01*
X005461Y007341D02*
X006987Y007341D01*
X006834Y007242D02*
X005461Y007242D01*
X005461Y007144D02*
X006736Y007144D01*
X006661Y007045D02*
X005461Y007045D01*
X005461Y006947D02*
X006621Y006947D01*
X006580Y006848D02*
X005461Y006848D01*
X005461Y006750D02*
X006561Y006750D01*
X006561Y006651D02*
X005461Y006651D01*
X005461Y006553D02*
X006561Y006553D01*
X006579Y006454D02*
X005461Y006454D01*
X005461Y006356D02*
X006620Y006356D01*
X006661Y006257D02*
X005461Y006257D01*
X005461Y006159D02*
X006734Y006159D01*
X006832Y006060D02*
X005461Y006060D01*
X005461Y005962D02*
X006982Y005962D01*
X007680Y005962D02*
X008915Y005962D01*
X008992Y005962D02*
X009070Y005962D01*
X009070Y005976D02*
X009070Y005589D01*
X009457Y005589D01*
X009448Y005650D01*
X009427Y005714D01*
X009396Y005774D01*
X009357Y005828D01*
X009309Y005876D01*
X009255Y005915D01*
X009195Y005946D01*
X009131Y005967D01*
X009070Y005976D01*
X009147Y005962D02*
X010444Y005962D01*
X010449Y006060D02*
X007830Y006060D01*
X007928Y006159D02*
X010490Y006159D01*
X010549Y006257D02*
X008001Y006257D01*
X008042Y006356D02*
X010648Y006356D01*
X010638Y006454D02*
X008083Y006454D01*
X008101Y006553D02*
X010539Y006553D01*
X010486Y006651D02*
X008101Y006651D01*
X008101Y006750D02*
X010445Y006750D01*
X010444Y006848D02*
X008082Y006848D01*
X008041Y006947D02*
X010444Y006947D01*
X010484Y007045D02*
X008001Y007045D01*
X007926Y007144D02*
X010536Y007144D01*
X011224Y006454D02*
X016759Y006454D01*
X016718Y006553D02*
X011322Y006553D01*
X011214Y006356D02*
X016847Y006356D01*
X016989Y006257D02*
X011313Y006257D01*
X011237Y005568D02*
X016684Y005568D01*
X016684Y005666D02*
X016684Y005453D01*
X016765Y005257D01*
X016848Y005174D02*
X016218Y005174D01*
X016316Y005075D02*
X016991Y005075D01*
X016718Y005371D02*
X016021Y005371D01*
X016415Y004977D02*
X021247Y004977D01*
X021346Y005075D02*
X020990Y005075D01*
X021132Y005174D02*
X021444Y005174D01*
X021483Y005272D02*
X021222Y005272D01*
X021263Y005371D02*
X021443Y005371D01*
X021408Y005469D02*
X021297Y005469D01*
X021256Y005765D02*
X021449Y005765D01*
X021418Y005863D02*
X021490Y005863D01*
X021574Y005962D02*
X021589Y005962D01*
X021673Y006060D02*
X021754Y006060D01*
X021771Y006159D02*
X027790Y006159D01*
X027818Y006226D02*
X027744Y006047D01*
X027744Y005853D01*
X027818Y005674D01*
X027955Y005537D01*
X028134Y005463D01*
X028328Y005463D01*
X028507Y005537D01*
X028644Y005674D01*
X028718Y005853D01*
X028718Y006047D01*
X028644Y006226D01*
X028507Y006363D01*
X028418Y006400D01*
X028507Y006437D01*
X028644Y006574D01*
X028718Y006753D01*
X028718Y006947D01*
X028644Y007126D01*
X028507Y007263D01*
X028328Y007337D01*
X028134Y007337D01*
X027955Y007263D01*
X027818Y007126D01*
X027744Y006947D01*
X027744Y006753D01*
X027818Y006574D01*
X027955Y006437D01*
X028044Y006400D01*
X027955Y006363D01*
X027818Y006226D01*
X027849Y006257D02*
X022173Y006257D01*
X022314Y006356D02*
X027948Y006356D01*
X027938Y006454D02*
X022403Y006454D01*
X022444Y006553D02*
X027839Y006553D01*
X027786Y006651D02*
X022478Y006651D01*
X022478Y006750D02*
X027745Y006750D01*
X027744Y006848D02*
X022478Y006848D01*
X022437Y006947D02*
X027744Y006947D01*
X027784Y007045D02*
X022395Y007045D01*
X022297Y007144D02*
X027836Y007144D01*
X027934Y007242D02*
X022130Y007242D01*
X021756Y007242D02*
X020949Y007242D01*
X021115Y007144D02*
X021590Y007144D01*
X021491Y007045D02*
X021214Y007045D01*
X021256Y006947D02*
X021450Y006947D01*
X021409Y006848D02*
X021296Y006848D01*
X021297Y006750D02*
X021408Y006750D01*
X021408Y006651D02*
X021297Y006651D01*
X021263Y006553D02*
X021345Y006553D01*
X021247Y006454D02*
X021222Y006454D01*
X020572Y007341D02*
X031487Y007341D01*
X031395Y007303D02*
X031178Y007086D01*
X031061Y006803D01*
X031061Y006497D01*
X031178Y006214D01*
X031395Y005997D01*
X031678Y005880D01*
X031984Y005880D01*
X032267Y005997D01*
X032484Y006214D01*
X032601Y006497D01*
X032601Y006803D01*
X032484Y007086D01*
X032267Y007303D01*
X031984Y007420D01*
X031678Y007420D01*
X031395Y007303D01*
X031334Y007242D02*
X028528Y007242D01*
X028626Y007144D02*
X031236Y007144D01*
X031161Y007045D02*
X028677Y007045D01*
X028718Y006947D02*
X031121Y006947D01*
X031080Y006848D02*
X028718Y006848D01*
X028717Y006750D02*
X031061Y006750D01*
X031061Y006651D02*
X028676Y006651D01*
X028622Y006553D02*
X031061Y006553D01*
X031079Y006454D02*
X028524Y006454D01*
X028514Y006356D02*
X031120Y006356D01*
X031161Y006257D02*
X028613Y006257D01*
X028672Y006159D02*
X031234Y006159D01*
X031332Y006060D02*
X028713Y006060D01*
X028718Y005962D02*
X030554Y005962D01*
X030455Y005863D02*
X028718Y005863D01*
X028681Y005765D02*
X030393Y005765D01*
X030352Y005666D02*
X028636Y005666D01*
X028537Y005568D02*
X030036Y005568D01*
X030092Y005568D02*
X030170Y005568D01*
X030226Y005568D02*
X030344Y005568D01*
X030170Y005469D02*
X030092Y005469D01*
X030092Y005371D02*
X030170Y005371D01*
X030170Y005272D02*
X030092Y005272D01*
X030092Y005174D02*
X025759Y005174D01*
X025743Y005272D02*
X029721Y005272D01*
X029764Y005371D02*
X025703Y005371D01*
X025617Y005469D02*
X028119Y005469D01*
X027925Y005568D02*
X025441Y005568D01*
X025221Y005568D02*
X022824Y005568D01*
X022725Y005666D02*
X027826Y005666D01*
X027780Y005765D02*
X022437Y005765D01*
X022396Y005863D02*
X027744Y005863D01*
X027744Y005962D02*
X022297Y005962D01*
X022132Y006060D02*
X027749Y006060D01*
X028343Y005469D02*
X029846Y005469D01*
X029710Y005075D02*
X025816Y005075D01*
X025915Y004977D02*
X029740Y004977D01*
X029801Y004878D02*
X026013Y004878D01*
X026112Y004780D02*
X029895Y004780D01*
X029773Y004681D02*
X026210Y004681D01*
X025587Y004484D02*
X024643Y004484D01*
X024652Y004583D02*
X025488Y004583D01*
X025390Y004681D02*
X024637Y004681D01*
X024591Y004780D02*
X025108Y004780D01*
X024998Y004878D02*
X024480Y004878D01*
X024131Y004878D02*
X023513Y004878D01*
X023415Y004977D02*
X024940Y004977D01*
X024903Y005075D02*
X023316Y005075D01*
X023218Y005174D02*
X024903Y005174D01*
X024918Y005272D02*
X023119Y005272D01*
X023021Y005371D02*
X024959Y005371D01*
X025045Y005469D02*
X022922Y005469D01*
X023612Y004780D02*
X024020Y004780D01*
X023974Y004681D02*
X023710Y004681D01*
X023809Y004583D02*
X023959Y004583D01*
X023968Y004484D02*
X023907Y004484D01*
X024041Y003359D02*
X023980Y003349D01*
X023916Y003328D01*
X023856Y003298D01*
X023801Y003258D01*
X023753Y003210D01*
X023713Y003155D01*
X023682Y003095D01*
X023662Y003031D01*
X023651Y002964D01*
X023651Y002690D01*
X024041Y002690D01*
X024041Y003359D01*
X024041Y003302D02*
X024121Y003302D01*
X024121Y003359D02*
X024121Y002690D01*
X024511Y002690D01*
X024511Y002964D01*
X024500Y003031D01*
X024479Y003095D01*
X024449Y003155D01*
X024409Y003210D01*
X024361Y003258D01*
X024306Y003298D01*
X024246Y003328D01*
X024182Y003349D01*
X024121Y003359D01*
X024121Y003204D02*
X024041Y003204D01*
X024041Y003105D02*
X024121Y003105D01*
X024121Y003007D02*
X024041Y003007D01*
X024041Y002908D02*
X024121Y002908D01*
X024121Y002810D02*
X024041Y002810D01*
X024041Y002711D02*
X024121Y002711D01*
X024121Y002690D02*
X024041Y002690D01*
X024041Y002610D01*
X024121Y002610D01*
X024121Y002690D01*
X024121Y002613D02*
X025658Y002613D01*
X025560Y002711D02*
X024511Y002711D01*
X024511Y002810D02*
X025461Y002810D01*
X025363Y002908D02*
X024511Y002908D01*
X024504Y003007D02*
X025264Y003007D01*
X025166Y003105D02*
X024474Y003105D01*
X024414Y003204D02*
X025067Y003204D01*
X024969Y003302D02*
X024298Y003302D01*
X023864Y003302D02*
X023402Y003302D01*
X023371Y003333D02*
X023371Y003360D01*
X024911Y003360D01*
X026331Y001940D01*
X023323Y001940D01*
X023359Y001955D01*
X023496Y002092D01*
X023571Y002273D01*
X023571Y003027D01*
X023496Y003208D01*
X023371Y003333D01*
X023498Y003204D02*
X023748Y003204D01*
X023688Y003105D02*
X023539Y003105D01*
X023571Y003007D02*
X023658Y003007D01*
X023651Y002908D02*
X023571Y002908D01*
X023571Y002810D02*
X023651Y002810D01*
X023651Y002711D02*
X023571Y002711D01*
X023571Y002613D02*
X024041Y002613D01*
X024041Y002610D02*
X023651Y002610D01*
X023651Y002336D01*
X023662Y002269D01*
X023682Y002205D01*
X023713Y002145D01*
X023753Y002090D01*
X023801Y002042D01*
X023856Y002002D01*
X023916Y001972D01*
X023980Y001951D01*
X024041Y001941D01*
X024041Y002610D01*
X024121Y002610D02*
X024121Y001941D01*
X024182Y001951D01*
X024246Y001972D01*
X024306Y002002D01*
X024361Y002042D01*
X024409Y002090D01*
X024449Y002145D01*
X024479Y002205D01*
X024500Y002269D01*
X024511Y002336D01*
X024511Y002610D01*
X024121Y002610D01*
X024121Y002514D02*
X024041Y002514D01*
X024041Y002416D02*
X024121Y002416D01*
X024121Y002317D02*
X024041Y002317D01*
X024041Y002219D02*
X024121Y002219D01*
X024121Y002120D02*
X024041Y002120D01*
X024041Y002022D02*
X024121Y002022D01*
X024333Y002022D02*
X026249Y002022D01*
X026151Y002120D02*
X024431Y002120D01*
X024484Y002219D02*
X026052Y002219D01*
X025954Y002317D02*
X024508Y002317D01*
X024511Y002416D02*
X025855Y002416D01*
X025757Y002514D02*
X024511Y002514D01*
X023829Y002022D02*
X023425Y002022D01*
X023508Y002120D02*
X023731Y002120D01*
X023678Y002219D02*
X023549Y002219D01*
X023571Y002317D02*
X023654Y002317D01*
X023651Y002416D02*
X023571Y002416D01*
X023571Y002514D02*
X023651Y002514D01*
X025231Y003860D02*
X025711Y003860D01*
X026085Y003486D01*
X026167Y003404D01*
X026273Y003360D01*
X026816Y003360D01*
X026889Y003287D01*
X027046Y003222D01*
X027216Y003222D01*
X027373Y003287D01*
X027494Y003408D01*
X027559Y003565D01*
X027559Y003735D01*
X027494Y003892D01*
X027373Y004013D01*
X027259Y004060D01*
X029732Y004060D01*
X029842Y003950D01*
X029718Y003826D01*
X029644Y003647D01*
X029644Y003453D01*
X029718Y003274D01*
X029855Y003137D01*
X029907Y003115D01*
X029853Y003076D01*
X029805Y003028D01*
X029766Y002974D01*
X029735Y002914D01*
X029714Y002850D01*
X029705Y002789D01*
X030092Y002789D01*
X030092Y002711D01*
X030170Y002711D01*
X030170Y002324D01*
X030231Y002333D01*
X030295Y002354D01*
X030355Y002385D01*
X030409Y002424D01*
X030457Y002472D01*
X030496Y002526D01*
X030527Y002586D01*
X030541Y002630D01*
X030541Y001770D01*
X029911Y001140D01*
X028610Y001140D01*
X028644Y001174D01*
X028718Y001353D01*
X028718Y001547D01*
X028644Y001726D01*
X028507Y001863D01*
X028418Y001900D01*
X028507Y001937D01*
X028644Y002074D01*
X028718Y002253D01*
X028718Y002447D01*
X028644Y002626D01*
X028507Y002763D01*
X028328Y002837D01*
X028134Y002837D01*
X027955Y002763D01*
X027818Y002626D01*
X027744Y002447D01*
X027744Y002253D01*
X027818Y002074D01*
X027955Y001937D01*
X028044Y001900D01*
X027955Y001863D01*
X027818Y001726D01*
X027365Y001726D01*
X027267Y001825D02*
X027917Y001825D01*
X027989Y001923D02*
X027168Y001923D01*
X027070Y002022D02*
X027871Y002022D01*
X027799Y002120D02*
X026971Y002120D01*
X026873Y002219D02*
X027758Y002219D01*
X027744Y002317D02*
X026774Y002317D01*
X026676Y002416D02*
X027744Y002416D01*
X027772Y002514D02*
X026577Y002514D01*
X026479Y002613D02*
X027812Y002613D01*
X027903Y002711D02*
X026380Y002711D01*
X026282Y002810D02*
X028067Y002810D01*
X028395Y002810D02*
X029708Y002810D01*
X029705Y002711D02*
X029714Y002650D01*
X029735Y002586D01*
X029766Y002526D01*
X029805Y002472D01*
X029853Y002424D01*
X029907Y002385D01*
X029967Y002354D01*
X030031Y002333D01*
X030092Y002324D01*
X030092Y002711D01*
X030170Y002711D01*
X030092Y002711D02*
X029705Y002711D01*
X028559Y002711D01*
X028650Y002613D02*
X029726Y002613D01*
X029774Y002514D02*
X028690Y002514D01*
X028718Y002416D02*
X029865Y002416D01*
X030092Y002416D02*
X030170Y002416D01*
X030170Y002514D02*
X030092Y002514D01*
X030092Y002613D02*
X030170Y002613D01*
X030397Y002416D02*
X030541Y002416D01*
X030541Y002514D02*
X030488Y002514D01*
X030535Y002613D02*
X030541Y002613D01*
X030541Y002317D02*
X028718Y002317D01*
X028704Y002219D02*
X030541Y002219D01*
X030541Y002120D02*
X028663Y002120D01*
X028591Y002022D02*
X030541Y002022D01*
X030541Y001923D02*
X028473Y001923D01*
X028545Y001825D02*
X030541Y001825D01*
X030497Y001726D02*
X028644Y001726D01*
X028685Y001628D02*
X030398Y001628D01*
X030300Y001529D02*
X028718Y001529D01*
X028718Y001431D02*
X030201Y001431D01*
X030103Y001332D02*
X028709Y001332D01*
X028669Y001234D02*
X030004Y001234D01*
X029733Y002908D02*
X026183Y002908D01*
X026085Y003007D02*
X029789Y003007D01*
X029893Y003105D02*
X025986Y003105D01*
X025888Y003204D02*
X029789Y003204D01*
X029706Y003302D02*
X027388Y003302D01*
X027486Y003401D02*
X029666Y003401D01*
X029644Y003499D02*
X027531Y003499D01*
X027559Y003598D02*
X029644Y003598D01*
X029664Y003696D02*
X027559Y003696D01*
X027534Y003795D02*
X029705Y003795D01*
X029785Y003893D02*
X027493Y003893D01*
X027394Y003992D02*
X029801Y003992D01*
X029907Y003115D02*
X029907Y003115D01*
X031259Y004189D02*
X033701Y004189D01*
X033701Y004287D02*
X031183Y004287D01*
X031155Y004386D02*
X033701Y004386D01*
X033701Y004484D02*
X031248Y004484D01*
X031289Y004583D02*
X033701Y004583D01*
X033701Y004681D02*
X031318Y004681D01*
X031318Y004780D02*
X033701Y004780D01*
X033701Y004878D02*
X031305Y004878D01*
X031264Y004977D02*
X033701Y004977D01*
X033701Y005075D02*
X031195Y005075D01*
X031143Y005174D02*
X033701Y005174D01*
X033701Y005272D02*
X031242Y005272D01*
X031284Y005371D02*
X033701Y005371D01*
X033701Y005469D02*
X031318Y005469D01*
X031318Y005568D02*
X033701Y005568D01*
X033701Y005666D02*
X031310Y005666D01*
X031269Y005765D02*
X033701Y005765D01*
X033701Y005863D02*
X031207Y005863D01*
X031108Y005962D02*
X031482Y005962D01*
X032180Y005962D02*
X033701Y005962D01*
X033701Y006060D02*
X032330Y006060D01*
X032428Y006159D02*
X033701Y006159D01*
X033701Y006257D02*
X032501Y006257D01*
X032542Y006356D02*
X033701Y006356D01*
X033701Y006454D02*
X032583Y006454D01*
X032601Y006553D02*
X033701Y006553D01*
X033701Y006651D02*
X032601Y006651D01*
X032601Y006750D02*
X033701Y006750D01*
X033701Y006848D02*
X032582Y006848D01*
X032541Y006947D02*
X033701Y006947D01*
X033701Y007045D02*
X032501Y007045D01*
X032426Y007144D02*
X033701Y007144D01*
X033701Y007242D02*
X032328Y007242D01*
X032175Y007341D02*
X033701Y007341D01*
X033701Y007439D02*
X028535Y007439D01*
X028526Y007430D02*
X028801Y007705D01*
X028801Y008095D01*
X028526Y008370D01*
X028136Y008370D01*
X027861Y008095D01*
X027861Y007705D01*
X028136Y007430D01*
X028526Y007430D01*
X028633Y007538D02*
X029114Y007538D01*
X029161Y007490D02*
X029301Y007490D01*
X029301Y007870D01*
X029361Y007870D01*
X029361Y007930D01*
X029741Y007930D01*
X029741Y008070D01*
X029501Y008310D01*
X029361Y008310D01*
X029361Y007930D01*
X029301Y007930D01*
X029301Y008310D01*
X029161Y008310D01*
X028921Y008070D01*
X028921Y007930D01*
X029301Y007930D01*
X029301Y007870D01*
X028921Y007870D01*
X028921Y007730D01*
X029161Y007490D01*
X029301Y007538D02*
X029361Y007538D01*
X029361Y007490D02*
X029501Y007490D01*
X029741Y007730D01*
X029741Y007870D01*
X029361Y007870D01*
X029361Y007490D01*
X029361Y007636D02*
X029301Y007636D01*
X029301Y007735D02*
X029361Y007735D01*
X029361Y007833D02*
X029301Y007833D01*
X029301Y007932D02*
X029361Y007932D01*
X029361Y008030D02*
X029301Y008030D01*
X029301Y008129D02*
X029361Y008129D01*
X029361Y008227D02*
X029301Y008227D01*
X029078Y008227D02*
X028669Y008227D01*
X028767Y008129D02*
X028980Y008129D01*
X028921Y008030D02*
X028801Y008030D01*
X028801Y007932D02*
X028921Y007932D01*
X028921Y007833D02*
X028801Y007833D01*
X028801Y007735D02*
X028921Y007735D01*
X029015Y007636D02*
X028732Y007636D01*
X028127Y007439D02*
X026600Y007439D01*
X026482Y007390D02*
X026761Y007506D01*
X026975Y007720D01*
X027091Y007999D01*
X027091Y008301D01*
X026975Y008580D01*
X026761Y008794D01*
X026482Y008910D01*
X026180Y008910D01*
X025901Y008794D01*
X025687Y008580D01*
X025571Y008301D01*
X025571Y007999D01*
X025687Y007720D01*
X025901Y007506D01*
X026180Y007390D01*
X026482Y007390D01*
X026793Y007538D02*
X028029Y007538D01*
X027930Y007636D02*
X026892Y007636D01*
X026981Y007735D02*
X027861Y007735D01*
X027861Y007833D02*
X027022Y007833D01*
X027063Y007932D02*
X027861Y007932D01*
X027861Y008030D02*
X027091Y008030D01*
X027091Y008129D02*
X027895Y008129D01*
X027993Y008227D02*
X027091Y008227D01*
X027081Y008326D02*
X028092Y008326D01*
X028570Y008326D02*
X033701Y008326D01*
X033701Y008424D02*
X027040Y008424D01*
X026999Y008523D02*
X033701Y008523D01*
X033701Y008621D02*
X026935Y008621D01*
X026836Y008720D02*
X033701Y008720D01*
X033701Y008818D02*
X026704Y008818D01*
X025958Y008818D02*
X019095Y008818D01*
X019193Y008720D02*
X025826Y008720D01*
X025727Y008621D02*
X019292Y008621D01*
X019390Y008523D02*
X025663Y008523D01*
X025622Y008424D02*
X019489Y008424D01*
X019587Y008326D02*
X025581Y008326D01*
X025571Y008227D02*
X019686Y008227D01*
X019784Y008129D02*
X025571Y008129D01*
X025571Y008030D02*
X024474Y008030D01*
X024502Y008019D02*
X024374Y008071D01*
X024236Y008071D01*
X024109Y008019D01*
X024012Y007921D01*
X023959Y007794D01*
X023959Y007656D01*
X024012Y007529D01*
X024109Y007431D01*
X024236Y007378D01*
X024374Y007378D01*
X024502Y007431D01*
X024599Y007529D01*
X024652Y007656D01*
X024652Y007794D01*
X024599Y007921D01*
X024502Y008019D01*
X024589Y007932D02*
X025599Y007932D01*
X025640Y007833D02*
X024636Y007833D01*
X024652Y007735D02*
X025681Y007735D01*
X025770Y007636D02*
X024644Y007636D01*
X024603Y007538D02*
X025869Y007538D01*
X026062Y007439D02*
X024510Y007439D01*
X024101Y007439D02*
X020474Y007439D01*
X020375Y007538D02*
X024008Y007538D01*
X023967Y007636D02*
X020277Y007636D01*
X020178Y007735D02*
X023959Y007735D01*
X023975Y007833D02*
X020080Y007833D01*
X019981Y007932D02*
X024022Y007932D01*
X024137Y008030D02*
X019883Y008030D01*
X018967Y008917D02*
X033701Y008917D01*
X033701Y009015D02*
X017579Y009015D01*
X017599Y009114D02*
X033701Y009114D01*
X033701Y009212D02*
X017599Y009212D01*
X017568Y009311D02*
X033701Y009311D01*
X033701Y009409D02*
X017517Y009409D01*
X017419Y009508D02*
X033701Y009508D01*
X033701Y009606D02*
X012285Y009606D01*
X012187Y009705D02*
X016055Y009705D01*
X016120Y009640D02*
X016542Y009640D01*
X016841Y009939D01*
X016841Y010361D01*
X016542Y010660D01*
X016120Y010660D01*
X015821Y010361D01*
X015821Y009939D01*
X016120Y009640D01*
X015957Y009803D02*
X012088Y009803D01*
X011990Y009902D02*
X015858Y009902D01*
X015821Y010000D02*
X011891Y010000D01*
X011793Y010099D02*
X015821Y010099D01*
X015821Y010197D02*
X011694Y010197D01*
X011596Y010296D02*
X015821Y010296D01*
X015854Y010394D02*
X011497Y010394D01*
X011399Y010493D02*
X015952Y010493D01*
X016051Y010591D02*
X011300Y010591D01*
X011202Y010690D02*
X015627Y010690D01*
X015636Y010680D02*
X016026Y010680D01*
X016301Y010955D01*
X016301Y011345D01*
X016026Y011620D01*
X015636Y011620D01*
X015361Y011345D01*
X015361Y010955D01*
X015636Y010680D01*
X015528Y010788D02*
X011103Y010788D01*
X011005Y010887D02*
X015430Y010887D01*
X015361Y010985D02*
X010906Y010985D01*
X010808Y011084D02*
X015361Y011084D01*
X015361Y011182D02*
X010709Y011182D01*
X010611Y011281D02*
X015361Y011281D01*
X015395Y011379D02*
X010512Y011379D01*
X010414Y011478D02*
X015494Y011478D01*
X015592Y011576D02*
X010315Y011576D01*
X010217Y011675D02*
X022901Y011675D01*
X022901Y011736D02*
X022901Y011564D01*
X022966Y011406D01*
X023087Y011285D01*
X023245Y011220D01*
X023417Y011220D01*
X023575Y011285D01*
X023696Y011406D01*
X023761Y011564D01*
X023761Y011736D01*
X023696Y011894D01*
X023575Y012015D01*
X023417Y012080D01*
X023245Y012080D01*
X023238Y012077D01*
X023241Y012080D01*
X023241Y012220D01*
X022861Y012220D01*
X022861Y012280D01*
X023241Y012280D01*
X023241Y012420D01*
X023001Y012660D01*
X022861Y012660D01*
X022861Y012280D01*
X022801Y012280D01*
X022801Y012660D01*
X022661Y012660D01*
X022421Y012420D01*
X022421Y012280D01*
X022801Y012280D01*
X022801Y012220D01*
X022861Y012220D01*
X022861Y011840D01*
X022944Y011840D01*
X022901Y011736D01*
X022917Y011773D02*
X020045Y011773D01*
X020075Y011785D02*
X020196Y011906D01*
X020261Y012064D01*
X020261Y012236D01*
X020196Y012394D01*
X020075Y012515D01*
X019917Y012580D01*
X019745Y012580D01*
X019587Y012515D01*
X019466Y012394D01*
X019401Y012236D01*
X019401Y012064D01*
X019466Y011906D01*
X019587Y011785D01*
X019745Y011720D01*
X019917Y011720D01*
X020075Y011785D01*
X020161Y011872D02*
X022630Y011872D01*
X022661Y011840D02*
X022421Y012080D01*
X022421Y012220D01*
X022801Y012220D01*
X022801Y011840D01*
X022661Y011840D01*
X022801Y011872D02*
X022861Y011872D01*
X022861Y011970D02*
X022801Y011970D01*
X022801Y012069D02*
X022861Y012069D01*
X022861Y012167D02*
X022801Y012167D01*
X022801Y012266D02*
X020249Y012266D01*
X020261Y012167D02*
X022421Y012167D01*
X022433Y012069D02*
X020261Y012069D01*
X020222Y011970D02*
X022531Y011970D01*
X022421Y012364D02*
X020208Y012364D01*
X020127Y012463D02*
X022464Y012463D01*
X022562Y012561D02*
X019962Y012561D01*
X019700Y012561D02*
X019167Y012561D01*
X019229Y012624D02*
X019301Y012797D01*
X019301Y013503D01*
X019229Y013676D01*
X019097Y013808D01*
X018924Y013880D01*
X018737Y013880D01*
X018565Y013808D01*
X018433Y013676D01*
X018361Y013503D01*
X018361Y012797D01*
X018433Y012624D01*
X018565Y012492D01*
X018737Y012420D01*
X018924Y012420D01*
X019097Y012492D01*
X019229Y012624D01*
X019244Y012660D02*
X022661Y012660D01*
X022801Y012660D02*
X022861Y012660D01*
X022861Y012561D02*
X022801Y012561D01*
X022801Y012463D02*
X022861Y012463D01*
X022861Y012364D02*
X022801Y012364D01*
X022861Y012266D02*
X025861Y012266D01*
X025861Y012345D02*
X025861Y011955D01*
X026136Y011680D01*
X026526Y011680D01*
X026801Y011955D01*
X026801Y012345D01*
X026626Y012520D01*
X026729Y012624D01*
X026801Y012797D01*
X026801Y013503D01*
X026729Y013676D01*
X026597Y013808D01*
X026424Y013880D01*
X026237Y013880D01*
X026065Y013808D01*
X025933Y013676D01*
X025861Y013503D01*
X025861Y012797D01*
X025933Y012624D01*
X026036Y012520D01*
X025861Y012345D01*
X025880Y012364D02*
X023241Y012364D01*
X023198Y012463D02*
X024135Y012463D01*
X024065Y012492D02*
X024237Y012420D01*
X024424Y012420D01*
X024597Y012492D01*
X024729Y012624D01*
X024801Y012797D01*
X024801Y013503D01*
X024729Y013676D01*
X024597Y013808D01*
X024424Y013880D01*
X024237Y013880D01*
X024065Y013808D01*
X023933Y013676D01*
X023861Y013503D01*
X023861Y012797D01*
X023933Y012624D01*
X024065Y012492D01*
X023995Y012561D02*
X023100Y012561D01*
X023001Y012660D02*
X023918Y012660D01*
X023877Y012758D02*
X022104Y012758D01*
X022026Y012680D02*
X022301Y012955D01*
X023861Y012955D01*
X023861Y012857D02*
X022202Y012857D01*
X022301Y012955D02*
X022301Y013345D01*
X022026Y013620D01*
X021636Y013620D01*
X021361Y013345D01*
X021361Y012955D01*
X021301Y012955D01*
X021026Y012680D01*
X020636Y012680D01*
X020361Y012955D01*
X019301Y012955D01*
X019301Y012857D02*
X020460Y012857D01*
X020558Y012758D02*
X019285Y012758D01*
X019301Y013054D02*
X020361Y013054D01*
X020361Y013152D02*
X019301Y013152D01*
X019301Y013251D02*
X020361Y013251D01*
X020361Y013345D02*
X020361Y012955D01*
X020361Y013345D02*
X020636Y013620D01*
X021026Y013620D01*
X021301Y013345D01*
X021301Y012955D01*
X021361Y012955D02*
X021636Y012680D01*
X022026Y012680D01*
X022301Y013054D02*
X023861Y013054D01*
X023861Y013152D02*
X022301Y013152D01*
X022301Y013251D02*
X023861Y013251D01*
X023861Y013349D02*
X022297Y013349D01*
X022198Y013448D02*
X023861Y013448D01*
X023879Y013546D02*
X022100Y013546D01*
X022476Y013940D02*
X011686Y013940D01*
X011784Y014039D02*
X022378Y014039D01*
X022361Y014055D02*
X022636Y013780D01*
X023026Y013780D01*
X023301Y014055D01*
X023301Y014445D01*
X023096Y014650D01*
X023301Y014855D01*
X023301Y015245D01*
X023026Y015520D01*
X022636Y015520D01*
X022361Y015245D01*
X022361Y014855D01*
X022566Y014650D01*
X022361Y014445D01*
X022361Y014055D01*
X022361Y014137D02*
X011801Y014137D01*
X011801Y014055D02*
X011526Y013780D01*
X011136Y013780D01*
X010861Y014055D01*
X010861Y014445D01*
X011066Y014650D01*
X010861Y014855D01*
X010861Y015245D01*
X011136Y015520D01*
X011526Y015520D01*
X011801Y015245D01*
X011801Y014855D01*
X011596Y014650D01*
X011801Y014445D01*
X011801Y014055D01*
X011801Y014236D02*
X022361Y014236D01*
X022361Y014334D02*
X011801Y014334D01*
X011801Y014433D02*
X022361Y014433D01*
X022447Y014531D02*
X011715Y014531D01*
X011616Y014630D02*
X022546Y014630D01*
X022488Y014728D02*
X011674Y014728D01*
X011772Y014827D02*
X022390Y014827D01*
X022361Y014925D02*
X011801Y014925D01*
X011801Y015024D02*
X022361Y015024D01*
X022361Y015122D02*
X011801Y015122D01*
X011801Y015221D02*
X022361Y015221D01*
X022435Y015319D02*
X011727Y015319D01*
X011628Y015418D02*
X022534Y015418D01*
X022632Y015516D02*
X019122Y015516D01*
X019097Y015492D02*
X019229Y015624D01*
X019301Y015797D01*
X019301Y016503D01*
X019229Y016676D01*
X019097Y016808D01*
X018924Y016880D01*
X018737Y016880D01*
X018565Y016808D01*
X018433Y016676D01*
X018361Y016503D01*
X018361Y015797D01*
X018433Y015624D01*
X018565Y015492D01*
X018737Y015420D01*
X018924Y015420D01*
X019097Y015492D01*
X019220Y015615D02*
X023942Y015615D01*
X023933Y015624D02*
X024065Y015492D01*
X024237Y015420D01*
X024424Y015420D01*
X024597Y015492D01*
X024729Y015624D01*
X024801Y015797D01*
X024801Y016503D01*
X024729Y016676D01*
X024597Y016808D01*
X024424Y016880D01*
X024237Y016880D01*
X024065Y016808D01*
X023933Y016676D01*
X023861Y016503D01*
X023861Y015797D01*
X023933Y015624D01*
X023896Y015713D02*
X022059Y015713D01*
X022026Y015680D02*
X022301Y015955D01*
X022301Y016345D01*
X022026Y016620D01*
X021636Y016620D01*
X021361Y016345D01*
X021361Y015955D01*
X021636Y015680D01*
X022026Y015680D01*
X022157Y015812D02*
X023861Y015812D01*
X023861Y015910D02*
X022256Y015910D01*
X022301Y016009D02*
X023861Y016009D01*
X023861Y016107D02*
X022301Y016107D01*
X022301Y016206D02*
X023861Y016206D01*
X023861Y016304D02*
X022301Y016304D01*
X022243Y016403D02*
X023861Y016403D01*
X023861Y016501D02*
X022145Y016501D01*
X022046Y016600D02*
X023901Y016600D01*
X023954Y016698D02*
X023059Y016698D01*
X023001Y016640D02*
X023241Y016880D01*
X023241Y017020D01*
X022861Y017020D01*
X022861Y017080D01*
X023241Y017080D01*
X023241Y017220D01*
X023001Y017460D01*
X022861Y017460D01*
X022861Y017080D01*
X022801Y017080D01*
X022801Y017460D01*
X022661Y017460D01*
X022421Y017220D01*
X022421Y017080D01*
X022801Y017080D01*
X022801Y017020D01*
X022861Y017020D01*
X022861Y016640D01*
X023001Y016640D01*
X022861Y016698D02*
X022801Y016698D01*
X022801Y016640D02*
X022801Y017020D01*
X022421Y017020D01*
X022421Y016880D01*
X022661Y016640D01*
X022801Y016640D01*
X022801Y016797D02*
X022861Y016797D01*
X022861Y016895D02*
X022801Y016895D01*
X022801Y016994D02*
X022861Y016994D01*
X022861Y017092D02*
X022801Y017092D01*
X022801Y017191D02*
X022861Y017191D01*
X022861Y017289D02*
X022801Y017289D01*
X022801Y017388D02*
X022861Y017388D01*
X023073Y017388D02*
X024922Y017388D01*
X024824Y017486D02*
X020301Y017486D01*
X020301Y017455D02*
X020026Y017180D01*
X019636Y017180D01*
X019361Y017455D01*
X019361Y017845D01*
X019636Y018120D01*
X020026Y018120D01*
X020301Y017845D01*
X020301Y017455D01*
X020233Y017388D02*
X022589Y017388D01*
X022490Y017289D02*
X020135Y017289D01*
X020036Y017191D02*
X022421Y017191D01*
X022421Y017092D02*
X015301Y017092D01*
X015301Y016994D02*
X022421Y016994D01*
X022421Y016895D02*
X015241Y016895D01*
X015301Y016955D02*
X015301Y017345D01*
X015026Y017620D01*
X014636Y017620D01*
X014361Y017345D01*
X014361Y016955D01*
X014536Y016780D01*
X014433Y016676D01*
X014361Y016503D01*
X014361Y015797D01*
X014433Y015624D01*
X014565Y015492D01*
X014737Y015420D01*
X014924Y015420D01*
X015097Y015492D01*
X015229Y015624D01*
X015301Y015797D01*
X015301Y016503D01*
X015229Y016676D01*
X015126Y016780D01*
X015301Y016955D01*
X015142Y016797D02*
X015553Y016797D01*
X015565Y016808D02*
X015433Y016676D01*
X015361Y016503D01*
X015361Y015797D01*
X015433Y015624D01*
X015565Y015492D01*
X015737Y015420D01*
X015924Y015420D01*
X016097Y015492D01*
X016229Y015624D01*
X016301Y015797D01*
X016301Y016503D01*
X016229Y016676D01*
X016097Y016808D01*
X015924Y016880D01*
X015737Y016880D01*
X015565Y016808D01*
X015454Y016698D02*
X015208Y016698D01*
X015261Y016600D02*
X015401Y016600D01*
X015361Y016501D02*
X015301Y016501D01*
X015301Y016403D02*
X015361Y016403D01*
X015361Y016304D02*
X015301Y016304D01*
X015301Y016206D02*
X015361Y016206D01*
X015361Y016107D02*
X015301Y016107D01*
X015301Y016009D02*
X015361Y016009D01*
X015361Y015910D02*
X015301Y015910D01*
X015301Y015812D02*
X015361Y015812D01*
X015396Y015713D02*
X015266Y015713D01*
X015220Y015615D02*
X015442Y015615D01*
X015540Y015516D02*
X015122Y015516D01*
X014540Y015516D02*
X014000Y015516D01*
X013988Y015510D02*
X014046Y015539D01*
X014098Y015577D01*
X014144Y015623D01*
X014182Y015675D01*
X014211Y015733D01*
X014231Y015794D01*
X014241Y015858D01*
X014241Y016120D01*
X013861Y016120D01*
X013861Y016180D01*
X014241Y016180D01*
X014241Y016442D01*
X014231Y016506D01*
X014211Y016567D01*
X014182Y016625D01*
X014144Y016677D01*
X014098Y016723D01*
X014046Y016761D01*
X014030Y016769D01*
X014241Y016980D01*
X014241Y017120D01*
X013861Y017120D01*
X013861Y017180D01*
X014241Y017180D01*
X014241Y017320D01*
X014001Y017560D01*
X013861Y017560D01*
X013861Y017180D01*
X013801Y017180D01*
X013801Y017560D01*
X013661Y017560D01*
X013421Y017320D01*
X013421Y017180D01*
X013801Y017180D01*
X013801Y017120D01*
X013861Y017120D01*
X013861Y016820D01*
X013861Y016180D01*
X013801Y016180D01*
X013801Y017120D01*
X013421Y017120D01*
X013421Y016980D01*
X013632Y016769D01*
X013616Y016761D01*
X013564Y016723D01*
X013518Y016677D01*
X013480Y016625D01*
X013451Y016567D01*
X013431Y016506D01*
X013421Y016442D01*
X013421Y016180D01*
X013801Y016180D01*
X013801Y016120D01*
X013861Y016120D01*
X013861Y015480D01*
X013863Y015480D01*
X013927Y015490D01*
X013988Y015510D01*
X013861Y015516D02*
X013801Y015516D01*
X013801Y015480D02*
X013801Y016120D01*
X013421Y016120D01*
X013421Y015858D01*
X013431Y015794D01*
X013451Y015733D01*
X013480Y015675D01*
X013518Y015623D01*
X013564Y015577D01*
X013616Y015539D01*
X013674Y015510D01*
X013735Y015490D01*
X013799Y015480D01*
X013801Y015480D01*
X013801Y015615D02*
X013861Y015615D01*
X013861Y015713D02*
X013801Y015713D01*
X013801Y015812D02*
X013861Y015812D01*
X013861Y015910D02*
X013801Y015910D01*
X013801Y016009D02*
X013861Y016009D01*
X013861Y016107D02*
X013801Y016107D01*
X013801Y016206D02*
X013861Y016206D01*
X013861Y016304D02*
X013801Y016304D01*
X013801Y016403D02*
X013861Y016403D01*
X013861Y016501D02*
X013801Y016501D01*
X013801Y016600D02*
X013861Y016600D01*
X013861Y016698D02*
X013801Y016698D01*
X013801Y016797D02*
X013861Y016797D01*
X013861Y016895D02*
X013801Y016895D01*
X013801Y016994D02*
X013861Y016994D01*
X013861Y017092D02*
X013801Y017092D01*
X013801Y017191D02*
X013861Y017191D01*
X013861Y017289D02*
X013801Y017289D01*
X013801Y017388D02*
X013861Y017388D01*
X013861Y017486D02*
X013801Y017486D01*
X013587Y017486D02*
X005461Y017486D01*
X005461Y017388D02*
X008126Y017388D01*
X008180Y017410D02*
X007901Y017294D01*
X007687Y017080D01*
X007571Y016801D01*
X007571Y016499D01*
X007687Y016220D01*
X007901Y016006D01*
X008180Y015890D01*
X008482Y015890D01*
X008761Y016006D01*
X008975Y016220D01*
X009091Y016499D01*
X009091Y016801D01*
X008975Y017080D01*
X008761Y017294D01*
X008482Y017410D01*
X008180Y017410D01*
X007895Y017289D02*
X005461Y017289D01*
X005461Y017191D02*
X007797Y017191D01*
X007698Y017092D02*
X005461Y017092D01*
X005461Y016994D02*
X007651Y016994D01*
X007610Y016895D02*
X005461Y016895D01*
X005461Y016797D02*
X007571Y016797D01*
X007571Y016698D02*
X005461Y016698D01*
X005461Y016600D02*
X007571Y016600D01*
X007571Y016501D02*
X005461Y016501D01*
X005461Y016403D02*
X007611Y016403D01*
X007652Y016304D02*
X005461Y016304D01*
X005461Y016206D02*
X007701Y016206D01*
X007799Y016107D02*
X005461Y016107D01*
X005461Y016009D02*
X007898Y016009D01*
X008132Y015910D02*
X005461Y015910D01*
X005461Y015812D02*
X012361Y015812D01*
X012361Y015797D02*
X012433Y015624D01*
X012565Y015492D01*
X012737Y015420D01*
X012924Y015420D01*
X013097Y015492D01*
X013229Y015624D01*
X013301Y015797D01*
X013301Y016503D01*
X013229Y016676D01*
X013097Y016808D01*
X012924Y016880D01*
X012737Y016880D01*
X012565Y016808D01*
X012433Y016676D01*
X012361Y016503D01*
X012361Y015797D01*
X012396Y015713D02*
X005461Y015713D01*
X005461Y015615D02*
X012442Y015615D01*
X012540Y015516D02*
X011530Y015516D01*
X011132Y015516D02*
X005461Y015516D01*
X005461Y015418D02*
X011034Y015418D01*
X010935Y015319D02*
X005461Y015319D01*
X005461Y015221D02*
X010861Y015221D01*
X010861Y015122D02*
X005461Y015122D01*
X005461Y015024D02*
X010861Y015024D01*
X010861Y014925D02*
X005461Y014925D01*
X005461Y014827D02*
X006243Y014827D01*
X006419Y014827D02*
X010243Y014827D01*
X010419Y014827D02*
X010890Y014827D01*
X010988Y014728D02*
X010608Y014728D01*
X010699Y014630D02*
X011046Y014630D01*
X010947Y014531D02*
X010740Y014531D01*
X010759Y014433D02*
X010861Y014433D01*
X010861Y014334D02*
X010759Y014334D01*
X010726Y014236D02*
X010861Y014236D01*
X010861Y014137D02*
X010673Y014137D01*
X010574Y014039D02*
X010878Y014039D01*
X010976Y013940D02*
X008146Y013940D01*
X008215Y013842D02*
X011075Y013842D01*
X011587Y013842D02*
X012645Y013842D01*
X012565Y013808D02*
X012433Y013676D01*
X012361Y013503D01*
X012361Y012797D01*
X012433Y012624D01*
X012565Y012492D01*
X012737Y012420D01*
X012924Y012420D01*
X013097Y012492D01*
X013229Y012624D01*
X013301Y012797D01*
X013301Y013503D01*
X013229Y013676D01*
X013097Y013808D01*
X012924Y013880D01*
X012737Y013880D01*
X012565Y013808D01*
X012499Y013743D02*
X008255Y013743D01*
X008259Y013645D02*
X012419Y013645D01*
X012379Y013546D02*
X008345Y013546D01*
X008444Y013448D02*
X012361Y013448D01*
X012361Y013349D02*
X008542Y013349D01*
X008641Y013251D02*
X012361Y013251D01*
X012361Y013152D02*
X008739Y013152D01*
X008838Y013054D02*
X012361Y013054D01*
X012361Y012955D02*
X008936Y012955D01*
X009035Y012857D02*
X012361Y012857D01*
X012377Y012758D02*
X009133Y012758D01*
X009232Y012660D02*
X011161Y012660D01*
X010921Y012420D01*
X010921Y012280D01*
X011301Y012280D01*
X011301Y012660D01*
X011161Y012660D01*
X011062Y012561D02*
X009330Y012561D01*
X009429Y012463D02*
X010964Y012463D01*
X010921Y012364D02*
X009527Y012364D01*
X009626Y012266D02*
X011301Y012266D01*
X011301Y012280D02*
X011301Y012220D01*
X011361Y012220D01*
X011361Y012280D01*
X011741Y012280D01*
X011741Y012420D01*
X011501Y012660D01*
X011361Y012660D01*
X011361Y012280D01*
X011301Y012280D01*
X011301Y012220D02*
X010921Y012220D01*
X010921Y012080D01*
X011161Y011840D01*
X011301Y011840D01*
X011301Y012220D01*
X011301Y012167D02*
X011361Y012167D01*
X011361Y012220D02*
X011361Y011840D01*
X011501Y011840D01*
X011741Y012080D01*
X011741Y012220D01*
X011361Y012220D01*
X011361Y012266D02*
X013421Y012266D01*
X013421Y012320D02*
X013421Y012180D01*
X013801Y012180D01*
X013801Y012560D01*
X013801Y013120D01*
X013861Y013120D01*
X013861Y013180D01*
X014241Y013180D01*
X014241Y013442D01*
X014231Y013506D01*
X014211Y013567D01*
X014182Y013625D01*
X014144Y013677D01*
X014098Y013723D01*
X014046Y013761D01*
X013988Y013790D01*
X013927Y013810D01*
X013863Y013820D01*
X013861Y013820D01*
X013861Y013180D01*
X013801Y013180D01*
X013801Y013820D01*
X013799Y013820D01*
X013735Y013810D01*
X013674Y013790D01*
X013616Y013761D01*
X013564Y013723D01*
X013518Y013677D01*
X013480Y013625D01*
X013451Y013567D01*
X013431Y013506D01*
X013421Y013442D01*
X013421Y013180D01*
X013801Y013180D01*
X013801Y013120D01*
X013421Y013120D01*
X013421Y012858D01*
X013431Y012794D01*
X013451Y012733D01*
X013480Y012675D01*
X013518Y012623D01*
X013564Y012577D01*
X013616Y012539D01*
X013632Y012531D01*
X013421Y012320D01*
X013465Y012364D02*
X011741Y012364D01*
X011698Y012463D02*
X012635Y012463D01*
X012495Y012561D02*
X011600Y012561D01*
X011501Y012660D02*
X012418Y012660D01*
X013027Y012463D02*
X013564Y012463D01*
X013586Y012561D02*
X013167Y012561D01*
X013244Y012660D02*
X013492Y012660D01*
X013443Y012758D02*
X013285Y012758D01*
X013301Y012857D02*
X013421Y012857D01*
X013421Y012955D02*
X013301Y012955D01*
X013301Y013054D02*
X013421Y013054D01*
X013301Y013152D02*
X013801Y013152D01*
X013861Y013152D02*
X014361Y013152D01*
X014361Y013054D02*
X014241Y013054D01*
X014241Y013120D02*
X014241Y012858D01*
X014231Y012794D01*
X014211Y012733D01*
X014182Y012675D01*
X014144Y012623D01*
X014098Y012577D01*
X014046Y012539D01*
X014030Y012531D01*
X014241Y012320D01*
X014241Y012180D01*
X013861Y012180D01*
X013861Y012120D01*
X014241Y012120D01*
X014241Y011980D01*
X014001Y011740D01*
X013861Y011740D01*
X013861Y012120D01*
X013801Y012120D01*
X013801Y011740D01*
X013661Y011740D01*
X013421Y011980D01*
X013421Y012120D01*
X013801Y012120D01*
X013801Y012180D01*
X013861Y012180D01*
X013861Y013120D01*
X014241Y013120D01*
X014241Y013251D02*
X014361Y013251D01*
X014361Y013349D02*
X014241Y013349D01*
X014240Y013448D02*
X014361Y013448D01*
X014361Y013503D02*
X014361Y012797D01*
X014433Y012624D01*
X014565Y012492D01*
X014737Y012420D01*
X014924Y012420D01*
X015097Y012492D01*
X015229Y012624D01*
X015301Y012797D01*
X015301Y013503D01*
X015229Y013676D01*
X015097Y013808D01*
X014924Y013880D01*
X014737Y013880D01*
X014565Y013808D01*
X014433Y013676D01*
X014361Y013503D01*
X014379Y013546D02*
X014218Y013546D01*
X014167Y013645D02*
X014419Y013645D01*
X014499Y013743D02*
X014070Y013743D01*
X013861Y013743D02*
X013801Y013743D01*
X013801Y013645D02*
X013861Y013645D01*
X013861Y013546D02*
X013801Y013546D01*
X013801Y013448D02*
X013861Y013448D01*
X013861Y013349D02*
X013801Y013349D01*
X013801Y013251D02*
X013861Y013251D01*
X013861Y013054D02*
X013801Y013054D01*
X013801Y012955D02*
X013861Y012955D01*
X013861Y012857D02*
X013801Y012857D01*
X013801Y012758D02*
X013861Y012758D01*
X013861Y012660D02*
X013801Y012660D01*
X013801Y012561D02*
X013861Y012561D01*
X013861Y012463D02*
X013801Y012463D01*
X013801Y012364D02*
X013861Y012364D01*
X013861Y012266D02*
X013801Y012266D01*
X013801Y012167D02*
X011741Y012167D01*
X011729Y012069D02*
X013421Y012069D01*
X013431Y011970D02*
X011631Y011970D01*
X011532Y011872D02*
X013530Y011872D01*
X013628Y011773D02*
X010118Y011773D01*
X010020Y011872D02*
X011130Y011872D01*
X011031Y011970D02*
X009921Y011970D01*
X009823Y012069D02*
X010933Y012069D01*
X010921Y012167D02*
X009724Y012167D01*
X009298Y011773D02*
X005461Y011773D01*
X005461Y011675D02*
X009396Y011675D01*
X009495Y011576D02*
X005461Y011576D01*
X005461Y011478D02*
X009593Y011478D01*
X009692Y011379D02*
X005461Y011379D01*
X005461Y011281D02*
X009790Y011281D01*
X009889Y011182D02*
X005461Y011182D01*
X005461Y011084D02*
X009987Y011084D01*
X010086Y010985D02*
X005461Y010985D01*
X005461Y010887D02*
X010184Y010887D01*
X010283Y010788D02*
X005461Y010788D01*
X005461Y010690D02*
X010381Y010690D01*
X010480Y010591D02*
X005461Y010591D01*
X005461Y010493D02*
X010578Y010493D01*
X010677Y010394D02*
X005461Y010394D01*
X005461Y010296D02*
X010775Y010296D01*
X010874Y010197D02*
X005461Y010197D01*
X005461Y010099D02*
X010972Y010099D01*
X011071Y010000D02*
X005461Y010000D01*
X005461Y009902D02*
X011169Y009902D01*
X011268Y009803D02*
X005461Y009803D01*
X005461Y009705D02*
X011366Y009705D01*
X011465Y009606D02*
X005461Y009606D01*
X005461Y009508D02*
X011563Y009508D01*
X011662Y009409D02*
X005461Y009409D01*
X005461Y009311D02*
X011760Y009311D01*
X011859Y009212D02*
X005461Y009212D01*
X005461Y009114D02*
X011957Y009114D01*
X012056Y009015D02*
X007068Y009015D01*
X006594Y009015D02*
X005461Y009015D01*
X005461Y008917D02*
X006493Y008917D01*
X006438Y008818D02*
X005461Y008818D01*
X005461Y008720D02*
X006403Y008720D01*
X006403Y008621D02*
X005461Y008621D01*
X005461Y008523D02*
X006421Y008523D01*
X006462Y008424D02*
X005461Y008424D01*
X005461Y008326D02*
X006550Y008326D01*
X006734Y008227D02*
X005461Y008227D01*
X005461Y008129D02*
X007903Y008129D01*
X007903Y008227D02*
X006928Y008227D01*
X007111Y008326D02*
X007941Y008326D01*
X007918Y008030D02*
X005461Y008030D01*
X005461Y007932D02*
X007958Y007932D01*
X008043Y007833D02*
X005461Y007833D01*
X005461Y007735D02*
X008216Y007735D01*
X008740Y005863D02*
X005461Y005863D01*
X005461Y005765D02*
X008661Y005765D01*
X008992Y005765D02*
X009070Y005765D01*
X009070Y005863D02*
X008992Y005863D01*
X008992Y005666D02*
X009070Y005666D01*
X009322Y005863D02*
X010444Y005863D01*
X010480Y005765D02*
X009401Y005765D01*
X009442Y005666D02*
X010526Y005666D01*
X011043Y005469D02*
X016684Y005469D01*
X017447Y005075D02*
X019353Y005075D01*
X019211Y005174D02*
X017589Y005174D01*
X017679Y005272D02*
X019121Y005272D01*
X019080Y005371D02*
X017719Y005371D01*
X017754Y005469D02*
X019046Y005469D01*
X019046Y005568D02*
X017754Y005568D01*
X017753Y005666D02*
X019046Y005666D01*
X019087Y005765D02*
X017713Y005765D01*
X017672Y005863D02*
X019128Y005863D01*
X019109Y005962D02*
X017573Y005962D01*
X017408Y006060D02*
X019011Y006060D01*
X020075Y005765D02*
X020268Y005765D01*
X020227Y005666D02*
X020116Y005666D01*
X020116Y005568D02*
X020227Y005568D01*
X020227Y005469D02*
X020116Y005469D01*
X020082Y005371D02*
X020261Y005371D01*
X020302Y005272D02*
X020041Y005272D01*
X019951Y005174D02*
X020392Y005174D01*
X020534Y005075D02*
X019809Y005075D01*
X021791Y004189D02*
X011703Y004189D01*
X011801Y004090D02*
X021791Y004090D01*
X021791Y003992D02*
X011900Y003992D01*
X011998Y003893D02*
X021791Y003893D01*
X021791Y003795D02*
X012097Y003795D01*
X010603Y002711D02*
X008818Y002711D01*
X008801Y002613D02*
X010512Y002613D01*
X010472Y002514D02*
X008761Y002514D01*
X008685Y002416D02*
X010444Y002416D01*
X010444Y002317D02*
X008559Y002317D01*
X008103Y002317D02*
X007732Y002317D01*
X007851Y002219D02*
X010458Y002219D01*
X010499Y002120D02*
X007950Y002120D01*
X008010Y002022D02*
X010571Y002022D01*
X010689Y001923D02*
X008051Y001923D01*
X008092Y001825D02*
X010617Y001825D01*
X010518Y001726D02*
X010444Y001547D01*
X010444Y001529D02*
X008101Y001529D01*
X008073Y001431D02*
X010444Y001431D01*
X010453Y001332D02*
X008032Y001332D01*
X007992Y001234D02*
X010493Y001234D01*
X010557Y001135D02*
X007905Y001135D01*
X007806Y001037D02*
X010656Y001037D01*
X011206Y001037D02*
X015591Y001037D01*
X016071Y001037D02*
X016671Y001037D01*
X016573Y001135D02*
X016171Y001135D01*
X016225Y001234D02*
X016474Y001234D01*
X016376Y001332D02*
X016259Y001332D01*
X016259Y001431D02*
X016277Y001431D01*
X016831Y001923D02*
X017880Y001923D01*
X017324Y001431D02*
X021390Y001431D01*
X017718Y001037D02*
X026646Y001037D01*
X026636Y001135D02*
X017619Y001135D01*
X017521Y001234D02*
X026537Y001234D01*
X026439Y001332D02*
X017422Y001332D01*
X016770Y000938D02*
X007624Y000938D01*
X007494Y002416D02*
X007977Y002416D01*
X008992Y002810D02*
X009070Y002810D01*
X009070Y002908D02*
X008992Y002908D01*
X008992Y003007D02*
X009070Y003007D01*
X009070Y003105D02*
X008992Y003105D01*
X009255Y005185D02*
X009255Y005185D01*
X005461Y007538D02*
X013455Y007538D01*
X013593Y007636D02*
X005461Y007636D01*
X005461Y011872D02*
X009199Y011872D01*
X009101Y011970D02*
X005461Y011970D01*
X005461Y012069D02*
X009002Y012069D01*
X008904Y012167D02*
X005461Y012167D01*
X005461Y012266D02*
X008805Y012266D01*
X008707Y012364D02*
X005461Y012364D01*
X005461Y012463D02*
X008608Y012463D01*
X008510Y012561D02*
X005461Y012561D01*
X005461Y012660D02*
X008411Y012660D01*
X008313Y012758D02*
X005461Y012758D01*
X005461Y012857D02*
X008214Y012857D01*
X008116Y012955D02*
X005461Y012955D01*
X005461Y013054D02*
X008017Y013054D01*
X007919Y013152D02*
X005461Y013152D01*
X005461Y013251D02*
X007677Y013251D01*
X007527Y013349D02*
X005461Y013349D01*
X005461Y013448D02*
X007452Y013448D01*
X007411Y013546D02*
X005461Y013546D01*
X005461Y013645D02*
X007403Y013645D01*
X007406Y013743D02*
X005461Y013743D01*
X005461Y013842D02*
X007447Y013842D01*
X007516Y013940D02*
X005461Y013940D01*
X005461Y014039D02*
X006087Y014039D01*
X005989Y014137D02*
X005461Y014137D01*
X005461Y014236D02*
X005936Y014236D01*
X005903Y014334D02*
X005461Y014334D01*
X005461Y014433D02*
X005903Y014433D01*
X005922Y014531D02*
X005461Y014531D01*
X005461Y014630D02*
X005963Y014630D01*
X006054Y014728D02*
X005461Y014728D01*
X005461Y017585D02*
X014601Y017585D01*
X014502Y017486D02*
X014075Y017486D01*
X014173Y017388D02*
X014404Y017388D01*
X014361Y017289D02*
X014241Y017289D01*
X014241Y017191D02*
X014361Y017191D01*
X014361Y017092D02*
X014241Y017092D01*
X014241Y016994D02*
X014361Y016994D01*
X014421Y016895D02*
X014156Y016895D01*
X014057Y016797D02*
X014520Y016797D01*
X014454Y016698D02*
X014123Y016698D01*
X014195Y016600D02*
X014401Y016600D01*
X014361Y016501D02*
X014232Y016501D01*
X014241Y016403D02*
X014361Y016403D01*
X014361Y016304D02*
X014241Y016304D01*
X014241Y016206D02*
X014361Y016206D01*
X014361Y016107D02*
X014241Y016107D01*
X014241Y016009D02*
X014361Y016009D01*
X014361Y015910D02*
X014241Y015910D01*
X014234Y015812D02*
X014361Y015812D01*
X014396Y015713D02*
X014201Y015713D01*
X014135Y015615D02*
X014442Y015615D01*
X013662Y015516D02*
X013122Y015516D01*
X013220Y015615D02*
X013527Y015615D01*
X013461Y015713D02*
X013266Y015713D01*
X013301Y015812D02*
X013428Y015812D01*
X013421Y015910D02*
X013301Y015910D01*
X013301Y016009D02*
X013421Y016009D01*
X013421Y016107D02*
X013301Y016107D01*
X013301Y016206D02*
X013421Y016206D01*
X013421Y016304D02*
X013301Y016304D01*
X013301Y016403D02*
X013421Y016403D01*
X013430Y016501D02*
X013301Y016501D01*
X013261Y016600D02*
X013467Y016600D01*
X013539Y016698D02*
X013208Y016698D01*
X013109Y016797D02*
X013605Y016797D01*
X013506Y016895D02*
X011741Y016895D01*
X011741Y016880D02*
X011741Y017020D01*
X011361Y017020D01*
X011361Y017080D01*
X011741Y017080D01*
X011741Y017220D01*
X011501Y017460D01*
X011361Y017460D01*
X011361Y017080D01*
X011301Y017080D01*
X011301Y017460D01*
X011161Y017460D01*
X010921Y017220D01*
X010921Y017080D01*
X011301Y017080D01*
X011301Y017020D01*
X011361Y017020D01*
X011361Y016640D01*
X011501Y016640D01*
X011741Y016880D01*
X011741Y016994D02*
X013421Y016994D01*
X013421Y017092D02*
X011741Y017092D01*
X011741Y017191D02*
X013421Y017191D01*
X013421Y017289D02*
X011672Y017289D01*
X011573Y017388D02*
X013489Y017388D01*
X012553Y016797D02*
X011657Y016797D01*
X011559Y016698D02*
X012454Y016698D01*
X012401Y016600D02*
X009091Y016600D01*
X009091Y016698D02*
X011103Y016698D01*
X011161Y016640D02*
X010921Y016880D01*
X010921Y017020D01*
X011301Y017020D01*
X011301Y016640D01*
X011161Y016640D01*
X011301Y016698D02*
X011361Y016698D01*
X011361Y016797D02*
X011301Y016797D01*
X011301Y016895D02*
X011361Y016895D01*
X011361Y016994D02*
X011301Y016994D01*
X011301Y017092D02*
X011361Y017092D01*
X011361Y017191D02*
X011301Y017191D01*
X011301Y017289D02*
X011361Y017289D01*
X011361Y017388D02*
X011301Y017388D01*
X011089Y017388D02*
X008536Y017388D01*
X008767Y017289D02*
X010990Y017289D01*
X010921Y017191D02*
X008865Y017191D01*
X008964Y017092D02*
X010921Y017092D01*
X010921Y016994D02*
X009011Y016994D01*
X009052Y016895D02*
X010921Y016895D01*
X011005Y016797D02*
X009091Y016797D01*
X009091Y016501D02*
X012361Y016501D01*
X012361Y016403D02*
X009051Y016403D01*
X009010Y016304D02*
X012361Y016304D01*
X012361Y016206D02*
X008961Y016206D01*
X008863Y016107D02*
X012361Y016107D01*
X012361Y016009D02*
X008764Y016009D01*
X008530Y015910D02*
X012361Y015910D01*
X013017Y013842D02*
X014645Y013842D01*
X015017Y013842D02*
X015645Y013842D01*
X015565Y013808D02*
X015433Y013676D01*
X015361Y013503D01*
X015361Y012797D01*
X015433Y012624D01*
X015536Y012520D01*
X015361Y012345D01*
X015361Y011955D01*
X015636Y011680D01*
X016026Y011680D01*
X016301Y011955D01*
X016301Y012345D01*
X016126Y012520D01*
X016229Y012624D01*
X016301Y012797D01*
X016301Y013503D01*
X016229Y013676D01*
X016097Y013808D01*
X015924Y013880D01*
X015737Y013880D01*
X015565Y013808D01*
X015499Y013743D02*
X015163Y013743D01*
X015243Y013645D02*
X015419Y013645D01*
X015379Y013546D02*
X015283Y013546D01*
X015301Y013448D02*
X015361Y013448D01*
X015361Y013349D02*
X015301Y013349D01*
X015301Y013251D02*
X015361Y013251D01*
X015361Y013152D02*
X015301Y013152D01*
X015301Y013054D02*
X015361Y013054D01*
X015361Y012955D02*
X015301Y012955D01*
X015301Y012857D02*
X015361Y012857D01*
X015377Y012758D02*
X015285Y012758D01*
X015244Y012660D02*
X015418Y012660D01*
X015495Y012561D02*
X015167Y012561D01*
X015027Y012463D02*
X015479Y012463D01*
X015380Y012364D02*
X014197Y012364D01*
X014241Y012266D02*
X015361Y012266D01*
X015361Y012167D02*
X013861Y012167D01*
X013861Y012069D02*
X013801Y012069D01*
X013801Y011970D02*
X013861Y011970D01*
X013861Y011872D02*
X013801Y011872D01*
X013801Y011773D02*
X013861Y011773D01*
X014034Y011773D02*
X015543Y011773D01*
X015445Y011872D02*
X014132Y011872D01*
X014231Y011970D02*
X015361Y011970D01*
X015361Y012069D02*
X014241Y012069D01*
X014098Y012463D02*
X014635Y012463D01*
X014495Y012561D02*
X014076Y012561D01*
X014170Y012660D02*
X014418Y012660D01*
X014377Y012758D02*
X014219Y012758D01*
X014241Y012857D02*
X014361Y012857D01*
X014361Y012955D02*
X014241Y012955D01*
X013421Y013251D02*
X013301Y013251D01*
X013301Y013349D02*
X013421Y013349D01*
X013422Y013448D02*
X013301Y013448D01*
X013283Y013546D02*
X013444Y013546D01*
X013495Y013645D02*
X013243Y013645D01*
X013163Y013743D02*
X013592Y013743D01*
X011361Y012660D02*
X011301Y012660D01*
X011301Y012561D02*
X011361Y012561D01*
X011361Y012463D02*
X011301Y012463D01*
X011301Y012364D02*
X011361Y012364D01*
X011361Y012069D02*
X011301Y012069D01*
X011301Y011970D02*
X011361Y011970D01*
X011361Y011872D02*
X011301Y011872D01*
X012384Y009508D02*
X016924Y009508D01*
X016705Y009803D02*
X019570Y009803D01*
X019587Y009785D02*
X019466Y009906D01*
X019401Y010064D01*
X019401Y010236D01*
X019466Y010394D01*
X019587Y010515D01*
X019745Y010580D01*
X019917Y010580D01*
X020075Y010515D01*
X020196Y010394D01*
X020261Y010236D01*
X020261Y010064D01*
X020196Y009906D01*
X020075Y009785D01*
X019917Y009720D01*
X019745Y009720D01*
X019587Y009785D01*
X019471Y009902D02*
X016804Y009902D01*
X016841Y010000D02*
X019428Y010000D01*
X019401Y010099D02*
X016841Y010099D01*
X016841Y010197D02*
X019401Y010197D01*
X019426Y010296D02*
X016841Y010296D01*
X016808Y010394D02*
X019467Y010394D01*
X019565Y010493D02*
X016710Y010493D01*
X016611Y010591D02*
X021901Y010591D01*
X021901Y010564D02*
X021966Y010406D01*
X022087Y010285D01*
X022245Y010220D01*
X022417Y010220D01*
X022575Y010285D01*
X022696Y010406D01*
X022761Y010564D01*
X022761Y010736D01*
X022696Y010894D01*
X022575Y011015D01*
X022417Y011080D01*
X022245Y011080D01*
X022087Y011015D01*
X021966Y010894D01*
X021901Y010736D01*
X021901Y010564D01*
X021931Y010493D02*
X020097Y010493D01*
X020195Y010394D02*
X021979Y010394D01*
X022077Y010296D02*
X020236Y010296D01*
X020261Y010197D02*
X024861Y010197D01*
X024861Y010099D02*
X020261Y010099D01*
X020234Y010000D02*
X024861Y010000D01*
X024861Y009955D02*
X025136Y009680D01*
X025526Y009680D01*
X025801Y009955D01*
X025801Y010345D01*
X025526Y010620D01*
X025136Y010620D01*
X024861Y010345D01*
X024861Y009955D01*
X024915Y009902D02*
X020191Y009902D01*
X020092Y009803D02*
X025013Y009803D01*
X025112Y009705D02*
X016607Y009705D01*
X016035Y010690D02*
X017627Y010690D01*
X017636Y010680D02*
X018026Y010680D01*
X018301Y010955D01*
X018301Y011345D01*
X018026Y011620D01*
X017636Y011620D01*
X017361Y011345D01*
X017361Y010955D01*
X017636Y010680D01*
X017528Y010788D02*
X016134Y010788D01*
X016232Y010887D02*
X017430Y010887D01*
X017361Y010985D02*
X016301Y010985D01*
X016301Y011084D02*
X017361Y011084D01*
X017361Y011182D02*
X016301Y011182D01*
X016301Y011281D02*
X017361Y011281D01*
X017395Y011379D02*
X016267Y011379D01*
X016168Y011478D02*
X017494Y011478D01*
X017592Y011576D02*
X016070Y011576D01*
X016119Y011773D02*
X016543Y011773D01*
X016636Y011680D02*
X017026Y011680D01*
X017301Y011955D01*
X017301Y012345D01*
X017126Y012520D01*
X017229Y012624D01*
X017301Y012797D01*
X017301Y013503D01*
X017229Y013676D01*
X017097Y013808D01*
X016924Y013880D01*
X016737Y013880D01*
X016565Y013808D01*
X016433Y013676D01*
X016361Y013503D01*
X016361Y012797D01*
X016433Y012624D01*
X016536Y012520D01*
X016361Y012345D01*
X016361Y011955D01*
X016636Y011680D01*
X016445Y011872D02*
X016217Y011872D01*
X016301Y011970D02*
X016361Y011970D01*
X016361Y012069D02*
X016301Y012069D01*
X016301Y012167D02*
X016361Y012167D01*
X016361Y012266D02*
X016301Y012266D01*
X016282Y012364D02*
X016380Y012364D01*
X016479Y012463D02*
X016183Y012463D01*
X016167Y012561D02*
X016495Y012561D01*
X016418Y012660D02*
X016244Y012660D01*
X016285Y012758D02*
X016377Y012758D01*
X016361Y012857D02*
X016301Y012857D01*
X016301Y012955D02*
X016361Y012955D01*
X016361Y013054D02*
X016301Y013054D01*
X016301Y013152D02*
X016361Y013152D01*
X016361Y013251D02*
X016301Y013251D01*
X016301Y013349D02*
X016361Y013349D01*
X016361Y013448D02*
X016301Y013448D01*
X016283Y013546D02*
X016379Y013546D01*
X016419Y013645D02*
X016243Y013645D01*
X016163Y013743D02*
X016499Y013743D01*
X016645Y013842D02*
X016017Y013842D01*
X017017Y013842D02*
X017645Y013842D01*
X017565Y013808D02*
X017433Y013676D01*
X017361Y013503D01*
X017361Y012797D01*
X017433Y012624D01*
X017536Y012520D01*
X017361Y012345D01*
X017361Y011955D01*
X017636Y011680D01*
X018026Y011680D01*
X018301Y011955D01*
X018301Y012345D01*
X018126Y012520D01*
X018229Y012624D01*
X018301Y012797D01*
X018301Y013503D01*
X018229Y013676D01*
X018097Y013808D01*
X017924Y013880D01*
X017737Y013880D01*
X017565Y013808D01*
X017499Y013743D02*
X017163Y013743D01*
X017243Y013645D02*
X017419Y013645D01*
X017379Y013546D02*
X017283Y013546D01*
X017301Y013448D02*
X017361Y013448D01*
X017361Y013349D02*
X017301Y013349D01*
X017301Y013251D02*
X017361Y013251D01*
X017361Y013152D02*
X017301Y013152D01*
X017301Y013054D02*
X017361Y013054D01*
X017361Y012955D02*
X017301Y012955D01*
X017301Y012857D02*
X017361Y012857D01*
X017377Y012758D02*
X017285Y012758D01*
X017244Y012660D02*
X017418Y012660D01*
X017495Y012561D02*
X017167Y012561D01*
X017183Y012463D02*
X017479Y012463D01*
X017380Y012364D02*
X017282Y012364D01*
X017301Y012266D02*
X017361Y012266D01*
X017361Y012167D02*
X017301Y012167D01*
X017301Y012069D02*
X017361Y012069D01*
X017361Y011970D02*
X017301Y011970D01*
X017217Y011872D02*
X017445Y011872D01*
X017543Y011773D02*
X017119Y011773D01*
X018070Y011576D02*
X018736Y011576D01*
X018745Y011580D02*
X018587Y011515D01*
X018466Y011394D01*
X018401Y011236D01*
X018401Y011064D01*
X018466Y010906D01*
X018587Y010785D01*
X018745Y010720D01*
X018917Y010720D01*
X019075Y010785D01*
X019196Y010906D01*
X019261Y011064D01*
X019261Y011236D01*
X019196Y011394D01*
X019075Y011515D01*
X018917Y011580D01*
X018745Y011580D01*
X018926Y011576D02*
X022901Y011576D01*
X022937Y011478D02*
X019112Y011478D01*
X019202Y011379D02*
X022994Y011379D01*
X023099Y011281D02*
X019242Y011281D01*
X019261Y011182D02*
X024861Y011182D01*
X024861Y011084D02*
X019261Y011084D01*
X019228Y010985D02*
X022058Y010985D01*
X021964Y010887D02*
X019176Y010887D01*
X019077Y010788D02*
X021923Y010788D01*
X021901Y010690D02*
X018035Y010690D01*
X018134Y010788D02*
X018585Y010788D01*
X018486Y010887D02*
X018232Y010887D01*
X018301Y010985D02*
X018434Y010985D01*
X018401Y011084D02*
X018301Y011084D01*
X018301Y011182D02*
X018401Y011182D01*
X018420Y011281D02*
X018301Y011281D01*
X018267Y011379D02*
X018460Y011379D01*
X018550Y011478D02*
X018168Y011478D01*
X018119Y011773D02*
X019617Y011773D01*
X019501Y011872D02*
X018217Y011872D01*
X018301Y011970D02*
X019440Y011970D01*
X019401Y012069D02*
X018301Y012069D01*
X018301Y012167D02*
X019401Y012167D01*
X019413Y012266D02*
X018301Y012266D01*
X018282Y012364D02*
X019454Y012364D01*
X019535Y012463D02*
X019027Y012463D01*
X018635Y012463D02*
X018183Y012463D01*
X018167Y012561D02*
X018495Y012561D01*
X018418Y012660D02*
X018244Y012660D01*
X018285Y012758D02*
X018377Y012758D01*
X018361Y012857D02*
X018301Y012857D01*
X018301Y012955D02*
X018361Y012955D01*
X018361Y013054D02*
X018301Y013054D01*
X018301Y013152D02*
X018361Y013152D01*
X018361Y013251D02*
X018301Y013251D01*
X018301Y013349D02*
X018361Y013349D01*
X018361Y013448D02*
X018301Y013448D01*
X018283Y013546D02*
X018379Y013546D01*
X018419Y013645D02*
X018243Y013645D01*
X018163Y013743D02*
X018499Y013743D01*
X018645Y013842D02*
X018017Y013842D01*
X019017Y013842D02*
X022575Y013842D01*
X023087Y013842D02*
X024145Y013842D01*
X023999Y013743D02*
X019163Y013743D01*
X019243Y013645D02*
X023919Y013645D01*
X024517Y013842D02*
X025145Y013842D01*
X025065Y013808D02*
X025237Y013880D01*
X025424Y013880D01*
X025597Y013808D01*
X025729Y013676D01*
X025801Y013503D01*
X025801Y012797D01*
X025729Y012624D01*
X025597Y012492D01*
X025424Y012420D01*
X025237Y012420D01*
X025065Y012492D01*
X024933Y012624D01*
X024861Y012797D01*
X024861Y013503D01*
X024933Y013676D01*
X025065Y013808D01*
X024999Y013743D02*
X024663Y013743D01*
X024743Y013645D02*
X024919Y013645D01*
X024879Y013546D02*
X024783Y013546D01*
X024801Y013448D02*
X024861Y013448D01*
X024861Y013349D02*
X024801Y013349D01*
X024801Y013251D02*
X024861Y013251D01*
X024861Y013152D02*
X024801Y013152D01*
X024801Y013054D02*
X024861Y013054D01*
X024861Y012955D02*
X024801Y012955D01*
X024801Y012857D02*
X024861Y012857D01*
X024877Y012758D02*
X024785Y012758D01*
X024744Y012660D02*
X024918Y012660D01*
X024995Y012561D02*
X024667Y012561D01*
X024527Y012463D02*
X025135Y012463D01*
X025527Y012463D02*
X025979Y012463D01*
X025995Y012561D02*
X025667Y012561D01*
X025744Y012660D02*
X025918Y012660D01*
X025877Y012758D02*
X025785Y012758D01*
X025801Y012857D02*
X025861Y012857D01*
X025861Y012955D02*
X025801Y012955D01*
X025801Y013054D02*
X025861Y013054D01*
X025861Y013152D02*
X025801Y013152D01*
X025801Y013251D02*
X025861Y013251D01*
X025861Y013349D02*
X025801Y013349D01*
X025801Y013448D02*
X025861Y013448D01*
X025879Y013546D02*
X025783Y013546D01*
X025743Y013645D02*
X025919Y013645D01*
X025999Y013743D02*
X025663Y013743D01*
X025517Y013842D02*
X026145Y013842D01*
X026517Y013842D02*
X027145Y013842D01*
X027065Y013808D02*
X027237Y013880D01*
X027424Y013880D01*
X027597Y013808D01*
X027729Y013676D01*
X027801Y013503D01*
X027801Y012797D01*
X027729Y012624D01*
X027597Y012492D01*
X027424Y012420D01*
X027237Y012420D01*
X027065Y012492D01*
X026933Y012624D01*
X026861Y012797D01*
X026861Y013503D01*
X026933Y013676D01*
X027065Y013808D01*
X026999Y013743D02*
X026663Y013743D01*
X026743Y013645D02*
X026919Y013645D01*
X026879Y013546D02*
X026783Y013546D01*
X026801Y013448D02*
X026861Y013448D01*
X026861Y013349D02*
X026801Y013349D01*
X026801Y013251D02*
X026861Y013251D01*
X026861Y013152D02*
X026801Y013152D01*
X026801Y013054D02*
X026861Y013054D01*
X026861Y012955D02*
X026801Y012955D01*
X026801Y012857D02*
X026861Y012857D01*
X026877Y012758D02*
X026785Y012758D01*
X026744Y012660D02*
X026918Y012660D01*
X026995Y012561D02*
X026667Y012561D01*
X026683Y012463D02*
X027135Y012463D01*
X026782Y012364D02*
X027965Y012364D01*
X027921Y012320D02*
X027921Y012180D01*
X028301Y012180D01*
X028301Y012120D01*
X028361Y012120D01*
X028361Y012180D01*
X028741Y012180D01*
X028741Y012320D01*
X028577Y012483D01*
X028597Y012492D01*
X028729Y012624D01*
X028801Y012797D01*
X028801Y013503D01*
X028729Y013676D01*
X028597Y013808D01*
X028424Y013880D01*
X028237Y013880D01*
X028065Y013808D01*
X027933Y013676D01*
X027861Y013503D01*
X027861Y012797D01*
X027933Y012624D01*
X028065Y012492D01*
X028085Y012483D01*
X027921Y012320D01*
X027921Y012266D02*
X026801Y012266D01*
X026801Y012167D02*
X028301Y012167D01*
X028301Y012120D02*
X027921Y012120D01*
X027921Y011980D01*
X028161Y011740D01*
X028301Y011740D01*
X028301Y012120D01*
X028301Y012069D02*
X028361Y012069D01*
X028361Y012120D02*
X028361Y011740D01*
X028501Y011740D01*
X028741Y011980D01*
X028741Y012120D01*
X028361Y012120D01*
X028361Y012167D02*
X028861Y012167D01*
X028861Y012069D02*
X028741Y012069D01*
X028731Y011970D02*
X028861Y011970D01*
X028861Y011955D02*
X029136Y011680D01*
X029526Y011680D01*
X029801Y011955D01*
X029801Y012345D01*
X029626Y012520D01*
X029729Y012624D01*
X029801Y012797D01*
X029801Y013503D01*
X029729Y013676D01*
X029597Y013808D01*
X029424Y013880D01*
X029237Y013880D01*
X029065Y013808D01*
X028933Y013676D01*
X028861Y013503D01*
X028861Y012797D01*
X028933Y012624D01*
X029036Y012520D01*
X028861Y012345D01*
X028861Y011955D01*
X028945Y011872D02*
X028632Y011872D01*
X028534Y011773D02*
X029043Y011773D01*
X029136Y011620D02*
X028861Y011345D01*
X028861Y010955D01*
X029136Y010680D01*
X029526Y010680D01*
X029801Y010955D01*
X029801Y011345D01*
X029526Y011620D01*
X029136Y011620D01*
X029092Y011576D02*
X027570Y011576D01*
X027526Y011620D02*
X027136Y011620D01*
X026861Y011345D01*
X026861Y010955D01*
X027136Y010680D01*
X027526Y010680D01*
X027801Y010955D01*
X027801Y011345D01*
X027526Y011620D01*
X027668Y011478D02*
X028994Y011478D01*
X028895Y011379D02*
X027767Y011379D01*
X027801Y011281D02*
X028861Y011281D01*
X028861Y011182D02*
X027801Y011182D01*
X027801Y011084D02*
X028861Y011084D01*
X028861Y010985D02*
X027801Y010985D01*
X027732Y010887D02*
X028930Y010887D01*
X029028Y010788D02*
X027634Y010788D01*
X027535Y010690D02*
X029127Y010690D01*
X029001Y010560D02*
X028861Y010560D01*
X028861Y010180D01*
X029241Y010180D01*
X029241Y010320D01*
X029001Y010560D01*
X029068Y010493D02*
X031065Y010493D01*
X031087Y010515D02*
X030966Y010394D01*
X030901Y010236D01*
X030901Y010064D01*
X030966Y009906D01*
X031087Y009785D01*
X031245Y009720D01*
X031417Y009720D01*
X031575Y009785D01*
X031696Y009906D01*
X031761Y010064D01*
X031761Y010236D01*
X031696Y010394D01*
X031575Y010515D01*
X031417Y010580D01*
X031245Y010580D01*
X031087Y010515D01*
X030967Y010394D02*
X029167Y010394D01*
X029241Y010296D02*
X030926Y010296D01*
X030901Y010197D02*
X029241Y010197D01*
X029241Y010120D02*
X028861Y010120D01*
X028861Y010180D01*
X028801Y010180D01*
X028801Y010560D01*
X028661Y010560D01*
X028421Y010320D01*
X028421Y010180D01*
X028801Y010180D01*
X028801Y010120D01*
X028861Y010120D01*
X028861Y009740D01*
X029001Y009740D01*
X029241Y009980D01*
X029241Y010120D01*
X029241Y010099D02*
X030901Y010099D01*
X030928Y010000D02*
X029241Y010000D01*
X029162Y009902D02*
X030971Y009902D01*
X031070Y009803D02*
X029064Y009803D01*
X028861Y009803D02*
X028801Y009803D01*
X028801Y009740D02*
X028801Y010120D01*
X028421Y010120D01*
X028421Y009980D01*
X028661Y009740D01*
X028801Y009740D01*
X028801Y009902D02*
X028861Y009902D01*
X028861Y010000D02*
X028801Y010000D01*
X028801Y010099D02*
X028861Y010099D01*
X028861Y010197D02*
X028801Y010197D01*
X028801Y010296D02*
X028861Y010296D01*
X028861Y010394D02*
X028801Y010394D01*
X028801Y010493D02*
X028861Y010493D01*
X028594Y010493D02*
X028153Y010493D01*
X028055Y010591D02*
X033701Y010591D01*
X033701Y010493D02*
X031597Y010493D01*
X031695Y010394D02*
X033701Y010394D01*
X033701Y010296D02*
X031736Y010296D01*
X031761Y010197D02*
X033701Y010197D01*
X033701Y010099D02*
X031761Y010099D01*
X031734Y010000D02*
X033701Y010000D01*
X033701Y009902D02*
X031691Y009902D01*
X031592Y009803D02*
X033701Y009803D01*
X033701Y009705D02*
X028050Y009705D01*
X028026Y009680D02*
X028301Y009955D01*
X028301Y010345D01*
X028026Y010620D01*
X027636Y010620D01*
X027361Y010345D01*
X027361Y009955D01*
X027636Y009680D01*
X028026Y009680D01*
X028149Y009803D02*
X028598Y009803D01*
X028500Y009902D02*
X028247Y009902D01*
X028301Y010000D02*
X028421Y010000D01*
X028421Y010099D02*
X028301Y010099D01*
X028301Y010197D02*
X028421Y010197D01*
X028421Y010296D02*
X028301Y010296D01*
X028252Y010394D02*
X028495Y010394D01*
X027607Y010591D02*
X026555Y010591D01*
X026526Y010620D02*
X026136Y010620D01*
X025861Y010345D01*
X025861Y009955D01*
X026136Y009680D01*
X026526Y009680D01*
X026801Y009955D01*
X026801Y010345D01*
X026526Y010620D01*
X026653Y010493D02*
X027509Y010493D01*
X027410Y010394D02*
X026752Y010394D01*
X026801Y010296D02*
X027361Y010296D01*
X027361Y010197D02*
X026801Y010197D01*
X026801Y010099D02*
X027361Y010099D01*
X027361Y010000D02*
X026801Y010000D01*
X026747Y009902D02*
X027415Y009902D01*
X027513Y009803D02*
X026649Y009803D01*
X026550Y009705D02*
X027612Y009705D01*
X027127Y010690D02*
X025535Y010690D01*
X025526Y010680D02*
X025801Y010955D01*
X025801Y011345D01*
X025526Y011620D01*
X025136Y011620D01*
X024861Y011345D01*
X024861Y010955D01*
X025136Y010680D01*
X025526Y010680D01*
X025555Y010591D02*
X026107Y010591D01*
X026009Y010493D02*
X025653Y010493D01*
X025752Y010394D02*
X025910Y010394D01*
X025861Y010296D02*
X025801Y010296D01*
X025801Y010197D02*
X025861Y010197D01*
X025861Y010099D02*
X025801Y010099D01*
X025801Y010000D02*
X025861Y010000D01*
X025915Y009902D02*
X025747Y009902D01*
X025649Y009803D02*
X026013Y009803D01*
X026112Y009705D02*
X025550Y009705D01*
X024861Y010296D02*
X024585Y010296D01*
X024575Y010285D02*
X024696Y010406D01*
X024761Y010564D01*
X024761Y010736D01*
X024696Y010894D01*
X024575Y011015D01*
X024417Y011080D01*
X024245Y011080D01*
X024087Y011015D01*
X023966Y010894D01*
X023901Y010736D01*
X023901Y010564D01*
X023966Y010406D01*
X024087Y010285D01*
X024245Y010220D01*
X024417Y010220D01*
X024575Y010285D01*
X024683Y010394D02*
X024910Y010394D01*
X025009Y010493D02*
X024731Y010493D01*
X024761Y010591D02*
X025107Y010591D01*
X025127Y010690D02*
X024761Y010690D01*
X024739Y010788D02*
X025028Y010788D01*
X024930Y010887D02*
X024698Y010887D01*
X024604Y010985D02*
X024861Y010985D01*
X024861Y011281D02*
X023563Y011281D01*
X023668Y011379D02*
X024895Y011379D01*
X024994Y011478D02*
X023725Y011478D01*
X023761Y011576D02*
X025092Y011576D01*
X025570Y011576D02*
X027092Y011576D01*
X026994Y011478D02*
X025668Y011478D01*
X025767Y011379D02*
X026895Y011379D01*
X026861Y011281D02*
X025801Y011281D01*
X025801Y011182D02*
X026861Y011182D01*
X026861Y011084D02*
X025801Y011084D01*
X025801Y010985D02*
X026861Y010985D01*
X026930Y010887D02*
X025732Y010887D01*
X025634Y010788D02*
X027028Y010788D01*
X026619Y011773D02*
X028128Y011773D01*
X028030Y011872D02*
X026717Y011872D01*
X026801Y011970D02*
X027931Y011970D01*
X027921Y012069D02*
X026801Y012069D01*
X027527Y012463D02*
X028064Y012463D01*
X027995Y012561D02*
X027667Y012561D01*
X027744Y012660D02*
X027918Y012660D01*
X027877Y012758D02*
X027785Y012758D01*
X027801Y012857D02*
X027861Y012857D01*
X027861Y012955D02*
X027801Y012955D01*
X027801Y013054D02*
X027861Y013054D01*
X027861Y013152D02*
X027801Y013152D01*
X027801Y013251D02*
X027861Y013251D01*
X027861Y013349D02*
X027801Y013349D01*
X027801Y013448D02*
X027861Y013448D01*
X027879Y013546D02*
X027783Y013546D01*
X027743Y013645D02*
X027919Y013645D01*
X027999Y013743D02*
X027663Y013743D01*
X027517Y013842D02*
X028145Y013842D01*
X028517Y013842D02*
X029145Y013842D01*
X028999Y013743D02*
X028663Y013743D01*
X028743Y013645D02*
X028919Y013645D01*
X028879Y013546D02*
X028783Y013546D01*
X028801Y013448D02*
X028861Y013448D01*
X028861Y013349D02*
X028801Y013349D01*
X028801Y013251D02*
X028861Y013251D01*
X028861Y013152D02*
X028801Y013152D01*
X028801Y013054D02*
X028861Y013054D01*
X028861Y012955D02*
X028801Y012955D01*
X028801Y012857D02*
X028861Y012857D01*
X028877Y012758D02*
X028785Y012758D01*
X028744Y012660D02*
X028918Y012660D01*
X028995Y012561D02*
X028667Y012561D01*
X028598Y012463D02*
X028979Y012463D01*
X028880Y012364D02*
X028697Y012364D01*
X028741Y012266D02*
X028861Y012266D01*
X028361Y011970D02*
X028301Y011970D01*
X028301Y011872D02*
X028361Y011872D01*
X028361Y011773D02*
X028301Y011773D01*
X029570Y011576D02*
X030236Y011576D01*
X030245Y011580D02*
X030087Y011515D01*
X029966Y011394D01*
X029901Y011236D01*
X029901Y011064D01*
X029966Y010906D01*
X030087Y010785D01*
X030245Y010720D01*
X030417Y010720D01*
X030575Y010785D01*
X030696Y010906D01*
X030761Y011064D01*
X030761Y011236D01*
X030696Y011394D01*
X030575Y011515D01*
X030417Y011580D01*
X030245Y011580D01*
X030426Y011576D02*
X033701Y011576D01*
X033701Y011478D02*
X030612Y011478D01*
X030702Y011379D02*
X033701Y011379D01*
X033701Y011281D02*
X030742Y011281D01*
X030761Y011182D02*
X033701Y011182D01*
X033701Y011084D02*
X030761Y011084D01*
X030728Y010985D02*
X033701Y010985D01*
X033701Y010887D02*
X030676Y010887D01*
X030577Y010788D02*
X033701Y010788D01*
X033701Y010690D02*
X029535Y010690D01*
X029634Y010788D02*
X030085Y010788D01*
X029986Y010887D02*
X029732Y010887D01*
X029801Y010985D02*
X029934Y010985D01*
X029901Y011084D02*
X029801Y011084D01*
X029801Y011182D02*
X029901Y011182D01*
X029920Y011281D02*
X029801Y011281D01*
X029767Y011379D02*
X029960Y011379D01*
X030050Y011478D02*
X029668Y011478D01*
X029619Y011773D02*
X031117Y011773D01*
X031087Y011785D02*
X031245Y011720D01*
X031417Y011720D01*
X031575Y011785D01*
X031696Y011906D01*
X031761Y012064D01*
X031761Y012236D01*
X031696Y012394D01*
X031575Y012515D01*
X031417Y012580D01*
X031245Y012580D01*
X031087Y012515D01*
X030966Y012394D01*
X030901Y012236D01*
X030901Y012064D01*
X030966Y011906D01*
X031087Y011785D01*
X031001Y011872D02*
X029717Y011872D01*
X029801Y011970D02*
X030940Y011970D01*
X030901Y012069D02*
X029801Y012069D01*
X029801Y012167D02*
X030901Y012167D01*
X030913Y012266D02*
X029801Y012266D01*
X029782Y012364D02*
X030954Y012364D01*
X031035Y012463D02*
X030527Y012463D01*
X030597Y012492D02*
X030424Y012420D01*
X030237Y012420D01*
X030065Y012492D01*
X029933Y012624D01*
X029861Y012797D01*
X029861Y013503D01*
X029933Y013676D01*
X030065Y013808D01*
X030237Y013880D01*
X030424Y013880D01*
X030597Y013808D01*
X030729Y013676D01*
X030801Y013503D01*
X030801Y012797D01*
X030729Y012624D01*
X030597Y012492D01*
X030667Y012561D02*
X031200Y012561D01*
X031136Y012680D02*
X031526Y012680D01*
X031801Y012955D01*
X031861Y012955D01*
X032136Y012680D01*
X032526Y012680D01*
X032801Y012955D01*
X033701Y012955D01*
X033701Y012857D02*
X032702Y012857D01*
X032801Y012955D02*
X032801Y013345D01*
X032526Y013620D01*
X032136Y013620D01*
X031861Y013345D01*
X031861Y012955D01*
X031801Y012955D02*
X031801Y013345D01*
X031526Y013620D01*
X031136Y013620D01*
X030861Y013345D01*
X030861Y012955D01*
X030801Y012955D01*
X030861Y012955D02*
X031136Y012680D01*
X031058Y012758D02*
X030785Y012758D01*
X030801Y012857D02*
X030960Y012857D01*
X030861Y013054D02*
X030801Y013054D01*
X030801Y013152D02*
X030861Y013152D01*
X030861Y013251D02*
X030801Y013251D01*
X030801Y013349D02*
X030865Y013349D01*
X030801Y013448D02*
X030964Y013448D01*
X031062Y013546D02*
X030783Y013546D01*
X030743Y013645D02*
X033701Y013645D01*
X033701Y013743D02*
X032589Y013743D01*
X032526Y013680D02*
X032136Y013680D01*
X031861Y013955D01*
X031861Y014345D01*
X032136Y014620D01*
X032526Y014620D01*
X032801Y014345D01*
X032801Y013955D01*
X032526Y013680D01*
X032600Y013546D02*
X033701Y013546D01*
X033701Y013448D02*
X032698Y013448D01*
X032797Y013349D02*
X033701Y013349D01*
X033701Y013251D02*
X032801Y013251D01*
X032801Y013152D02*
X033701Y013152D01*
X033701Y013054D02*
X032801Y013054D01*
X032604Y012758D02*
X033701Y012758D01*
X033701Y012660D02*
X030744Y012660D01*
X030135Y012463D02*
X029683Y012463D01*
X029667Y012561D02*
X029995Y012561D01*
X029918Y012660D02*
X029744Y012660D01*
X029785Y012758D02*
X029877Y012758D01*
X029861Y012857D02*
X029801Y012857D01*
X029801Y012955D02*
X029861Y012955D01*
X029861Y013054D02*
X029801Y013054D01*
X029801Y013152D02*
X029861Y013152D01*
X029861Y013251D02*
X029801Y013251D01*
X029801Y013349D02*
X029861Y013349D01*
X029861Y013448D02*
X029801Y013448D01*
X029783Y013546D02*
X029879Y013546D01*
X029919Y013645D02*
X029743Y013645D01*
X029663Y013743D02*
X029999Y013743D01*
X030145Y013842D02*
X029517Y013842D01*
X030517Y013842D02*
X031975Y013842D01*
X031876Y013940D02*
X023186Y013940D01*
X023284Y014039D02*
X031861Y014039D01*
X031861Y014137D02*
X023301Y014137D01*
X023301Y014236D02*
X031861Y014236D01*
X031861Y014334D02*
X023301Y014334D01*
X023301Y014433D02*
X031949Y014433D01*
X032047Y014531D02*
X023215Y014531D01*
X023116Y014630D02*
X033701Y014630D01*
X033701Y014728D02*
X031574Y014728D01*
X031526Y014680D02*
X031801Y014955D01*
X031801Y015345D01*
X031526Y015620D01*
X031136Y015620D01*
X030861Y015345D01*
X030861Y014955D01*
X031136Y014680D01*
X031526Y014680D01*
X031672Y014827D02*
X033701Y014827D01*
X033701Y014925D02*
X031771Y014925D01*
X031801Y015024D02*
X033701Y015024D01*
X033701Y015122D02*
X031801Y015122D01*
X031801Y015221D02*
X033701Y015221D01*
X033701Y015319D02*
X031801Y015319D01*
X031728Y015418D02*
X033701Y015418D01*
X033701Y015516D02*
X031630Y015516D01*
X031531Y015615D02*
X033701Y015615D01*
X033701Y015713D02*
X030766Y015713D01*
X030801Y015797D02*
X030729Y015624D01*
X030597Y015492D01*
X030424Y015420D01*
X030237Y015420D01*
X030065Y015492D01*
X029933Y015624D01*
X029861Y015797D01*
X029861Y016503D01*
X029933Y016676D01*
X030065Y016808D01*
X030237Y016880D01*
X030424Y016880D01*
X030597Y016808D01*
X030729Y016676D01*
X030801Y016503D01*
X030801Y015797D01*
X030801Y015812D02*
X033701Y015812D01*
X033701Y015910D02*
X030801Y015910D01*
X030801Y016009D02*
X033701Y016009D01*
X033701Y016107D02*
X030801Y016107D01*
X030801Y016206D02*
X033701Y016206D01*
X033701Y016304D02*
X030801Y016304D01*
X030801Y016403D02*
X033701Y016403D01*
X033701Y016501D02*
X030801Y016501D01*
X030761Y016600D02*
X033701Y016600D01*
X033701Y016698D02*
X030708Y016698D01*
X030609Y016797D02*
X033701Y016797D01*
X033701Y016895D02*
X023241Y016895D01*
X023241Y016994D02*
X033701Y016994D01*
X033701Y017092D02*
X023241Y017092D01*
X023241Y017191D02*
X025119Y017191D01*
X025120Y017190D02*
X025542Y017190D01*
X025841Y017489D01*
X025841Y017911D01*
X025542Y018210D01*
X025120Y018210D01*
X024821Y017911D01*
X024821Y017489D01*
X025120Y017190D01*
X025021Y017289D02*
X023172Y017289D01*
X023157Y016797D02*
X024053Y016797D01*
X024609Y016797D02*
X025053Y016797D01*
X025065Y016808D02*
X024933Y016676D01*
X024861Y016503D01*
X024861Y015797D01*
X024933Y015624D01*
X025065Y015492D01*
X025237Y015420D01*
X025424Y015420D01*
X025597Y015492D01*
X025729Y015624D01*
X025801Y015797D01*
X025801Y016503D01*
X025729Y016676D01*
X025597Y016808D01*
X025424Y016880D01*
X025237Y016880D01*
X025065Y016808D01*
X024954Y016698D02*
X024708Y016698D01*
X024761Y016600D02*
X024901Y016600D01*
X024861Y016501D02*
X024801Y016501D01*
X024801Y016403D02*
X024861Y016403D01*
X024861Y016304D02*
X024801Y016304D01*
X024801Y016206D02*
X024861Y016206D01*
X024861Y016107D02*
X024801Y016107D01*
X024801Y016009D02*
X024861Y016009D01*
X024861Y015910D02*
X024801Y015910D01*
X024801Y015812D02*
X024861Y015812D01*
X024896Y015713D02*
X024766Y015713D01*
X024720Y015615D02*
X024942Y015615D01*
X025040Y015516D02*
X024622Y015516D01*
X024040Y015516D02*
X023030Y015516D01*
X023128Y015418D02*
X030934Y015418D01*
X030861Y015319D02*
X023227Y015319D01*
X023301Y015221D02*
X030861Y015221D01*
X030861Y015122D02*
X023301Y015122D01*
X023301Y015024D02*
X030861Y015024D01*
X030891Y014925D02*
X023301Y014925D01*
X023272Y014827D02*
X030990Y014827D01*
X031088Y014728D02*
X023174Y014728D01*
X021603Y015713D02*
X020059Y015713D01*
X020026Y015680D02*
X020301Y015955D01*
X020301Y016345D01*
X020026Y016620D01*
X019636Y016620D01*
X019361Y016345D01*
X019361Y015955D01*
X019636Y015680D01*
X020026Y015680D01*
X020157Y015812D02*
X021505Y015812D01*
X021406Y015910D02*
X020256Y015910D01*
X020301Y016009D02*
X021361Y016009D01*
X021361Y016107D02*
X020301Y016107D01*
X020301Y016206D02*
X021361Y016206D01*
X021361Y016304D02*
X020301Y016304D01*
X020243Y016403D02*
X021419Y016403D01*
X021517Y016501D02*
X020145Y016501D01*
X020046Y016600D02*
X021616Y016600D01*
X022505Y016797D02*
X019109Y016797D01*
X019208Y016698D02*
X022603Y016698D01*
X021341Y017939D02*
X021042Y017640D01*
X020620Y017640D01*
X020321Y017939D01*
X020321Y018361D01*
X020620Y018660D01*
X021042Y018660D01*
X021341Y018361D01*
X021341Y017939D01*
X021341Y017979D02*
X024888Y017979D01*
X024821Y017880D02*
X021282Y017880D01*
X021184Y017782D02*
X024821Y017782D01*
X024821Y017683D02*
X021085Y017683D01*
X021341Y018077D02*
X024987Y018077D01*
X025085Y018176D02*
X021341Y018176D01*
X021341Y018274D02*
X022542Y018274D01*
X022636Y018180D02*
X023026Y018180D01*
X023301Y018455D01*
X023301Y018845D01*
X023026Y019120D01*
X022636Y019120D01*
X022361Y018845D01*
X022361Y018455D01*
X022636Y018180D01*
X022444Y018373D02*
X021330Y018373D01*
X021231Y018471D02*
X022361Y018471D01*
X022361Y018570D02*
X021133Y018570D01*
X020529Y018570D02*
X020301Y018570D01*
X020301Y018668D02*
X022361Y018668D01*
X022361Y018767D02*
X020301Y018767D01*
X020301Y018845D02*
X020026Y019120D01*
X019636Y019120D01*
X019361Y018845D01*
X019361Y018455D01*
X019636Y018180D01*
X020026Y018180D01*
X020301Y018455D01*
X020301Y018845D01*
X020281Y018865D02*
X022381Y018865D01*
X022480Y018964D02*
X020182Y018964D01*
X020084Y019062D02*
X022578Y019062D01*
X022636Y019180D02*
X023026Y019180D01*
X023301Y019455D01*
X023301Y019845D01*
X023026Y020120D01*
X022636Y020120D01*
X022361Y019845D01*
X022361Y019455D01*
X022636Y019180D01*
X022557Y019259D02*
X016511Y019259D01*
X016575Y019285D02*
X016696Y019406D01*
X016761Y019564D01*
X016761Y019736D01*
X016696Y019894D01*
X016575Y020015D01*
X016417Y020080D01*
X016245Y020080D01*
X016087Y020015D01*
X015966Y019894D01*
X015901Y019736D01*
X015901Y019564D01*
X015966Y019406D01*
X016087Y019285D01*
X016245Y019220D01*
X016417Y019220D01*
X016575Y019285D01*
X016647Y019358D02*
X022459Y019358D01*
X022361Y019456D02*
X016716Y019456D01*
X016757Y019555D02*
X022361Y019555D01*
X022361Y019653D02*
X016761Y019653D01*
X016754Y019752D02*
X018565Y019752D01*
X018636Y019680D02*
X019026Y019680D01*
X019301Y019955D01*
X019301Y020345D01*
X019026Y020620D01*
X018636Y020620D01*
X018361Y020345D01*
X018361Y019955D01*
X018636Y019680D01*
X018466Y019850D02*
X016714Y019850D01*
X016641Y019949D02*
X018368Y019949D01*
X018361Y020047D02*
X016496Y020047D01*
X016166Y020047D02*
X014801Y020047D01*
X014801Y019955D02*
X014526Y019680D01*
X014136Y019680D01*
X013861Y019955D01*
X013861Y020345D01*
X014136Y020620D01*
X014526Y020620D01*
X014801Y020345D01*
X014801Y019955D01*
X014794Y019949D02*
X016021Y019949D01*
X015948Y019850D02*
X014696Y019850D01*
X014597Y019752D02*
X015908Y019752D01*
X015901Y019653D02*
X011761Y019653D01*
X011761Y019736D02*
X011696Y019894D01*
X011575Y020015D01*
X011417Y020080D01*
X011245Y020080D01*
X011087Y020015D01*
X010966Y019894D01*
X010901Y019736D01*
X010901Y019564D01*
X010966Y019406D01*
X011087Y019285D01*
X011245Y019220D01*
X011417Y019220D01*
X011575Y019285D01*
X011696Y019406D01*
X011761Y019564D01*
X011761Y019736D01*
X011754Y019752D02*
X012065Y019752D01*
X012136Y019680D02*
X012526Y019680D01*
X012801Y019955D01*
X012801Y020345D01*
X012526Y020620D01*
X012136Y020620D01*
X011861Y020345D01*
X011861Y019955D01*
X012136Y019680D01*
X011966Y019850D02*
X011714Y019850D01*
X011641Y019949D02*
X011868Y019949D01*
X011861Y020047D02*
X011496Y020047D01*
X011166Y020047D02*
X005461Y020047D01*
X005461Y019949D02*
X011021Y019949D01*
X010948Y019850D02*
X005461Y019850D01*
X005461Y019752D02*
X010908Y019752D01*
X010901Y019653D02*
X005461Y019653D01*
X005461Y019555D02*
X010905Y019555D01*
X010946Y019456D02*
X005461Y019456D01*
X005461Y019358D02*
X011015Y019358D01*
X011151Y019259D02*
X005461Y019259D01*
X005461Y019161D02*
X033701Y019161D01*
X033701Y019259D02*
X032020Y019259D01*
X032001Y019240D02*
X032241Y019480D01*
X032241Y019620D01*
X031861Y019620D01*
X031861Y019680D01*
X032241Y019680D01*
X032241Y019820D01*
X032001Y020060D01*
X031861Y020060D01*
X031861Y019680D01*
X031801Y019680D01*
X031801Y020060D01*
X031661Y020060D01*
X031421Y019820D01*
X031421Y019680D01*
X031801Y019680D01*
X031801Y019620D01*
X031861Y019620D01*
X031861Y019240D01*
X032001Y019240D01*
X031861Y019259D02*
X031801Y019259D01*
X031801Y019240D02*
X031801Y019620D01*
X031421Y019620D01*
X031421Y019480D01*
X031661Y019240D01*
X031801Y019240D01*
X031801Y019358D02*
X031861Y019358D01*
X031861Y019456D02*
X031801Y019456D01*
X031801Y019555D02*
X031861Y019555D01*
X031861Y019653D02*
X033701Y019653D01*
X033701Y019555D02*
X032241Y019555D01*
X032217Y019456D02*
X033701Y019456D01*
X033701Y019358D02*
X032118Y019358D01*
X032241Y019752D02*
X033701Y019752D01*
X033701Y019850D02*
X032211Y019850D01*
X032112Y019949D02*
X033701Y019949D01*
X033701Y020047D02*
X032014Y020047D01*
X031861Y020047D02*
X031801Y020047D01*
X031801Y019949D02*
X031861Y019949D01*
X031861Y019850D02*
X031801Y019850D01*
X031801Y019752D02*
X031861Y019752D01*
X031801Y019653D02*
X023301Y019653D01*
X023301Y019555D02*
X031421Y019555D01*
X031445Y019456D02*
X023301Y019456D01*
X023203Y019358D02*
X031544Y019358D01*
X031642Y019259D02*
X023105Y019259D01*
X023084Y019062D02*
X033701Y019062D01*
X033701Y018964D02*
X023182Y018964D01*
X023281Y018865D02*
X033701Y018865D01*
X033701Y018767D02*
X023301Y018767D01*
X023301Y018668D02*
X033701Y018668D01*
X033701Y018570D02*
X023301Y018570D01*
X023301Y018471D02*
X033701Y018471D01*
X033701Y018373D02*
X023218Y018373D01*
X023120Y018274D02*
X033701Y018274D01*
X033701Y018176D02*
X029577Y018176D01*
X029542Y018210D02*
X029841Y017911D01*
X029841Y017489D01*
X029542Y017190D01*
X029120Y017190D01*
X028821Y017489D01*
X028821Y017911D01*
X029120Y018210D01*
X029542Y018210D01*
X029675Y018077D02*
X033701Y018077D01*
X033701Y017979D02*
X029774Y017979D01*
X029841Y017880D02*
X033701Y017880D01*
X033701Y017782D02*
X029841Y017782D01*
X029841Y017683D02*
X033701Y017683D01*
X033701Y017585D02*
X029841Y017585D01*
X029838Y017486D02*
X033701Y017486D01*
X033701Y017388D02*
X029740Y017388D01*
X029641Y017289D02*
X033701Y017289D01*
X033701Y017191D02*
X029543Y017191D01*
X029424Y016880D02*
X029237Y016880D01*
X029065Y016808D01*
X028933Y016676D01*
X028861Y016503D01*
X028861Y015797D01*
X028933Y015624D01*
X029065Y015492D01*
X029237Y015420D01*
X029424Y015420D01*
X029597Y015492D01*
X029729Y015624D01*
X029801Y015797D01*
X029801Y016503D01*
X029729Y016676D01*
X029597Y016808D01*
X029424Y016880D01*
X029609Y016797D02*
X030053Y016797D01*
X029954Y016698D02*
X029708Y016698D01*
X029761Y016600D02*
X029901Y016600D01*
X029861Y016501D02*
X029801Y016501D01*
X029801Y016403D02*
X029861Y016403D01*
X029861Y016304D02*
X029801Y016304D01*
X029801Y016206D02*
X029861Y016206D01*
X029861Y016107D02*
X029801Y016107D01*
X029801Y016009D02*
X029861Y016009D01*
X029861Y015910D02*
X029801Y015910D01*
X029801Y015812D02*
X029861Y015812D01*
X029896Y015713D02*
X029766Y015713D01*
X029720Y015615D02*
X029942Y015615D01*
X030040Y015516D02*
X029622Y015516D01*
X029040Y015516D02*
X028622Y015516D01*
X028597Y015492D02*
X028729Y015624D01*
X028801Y015797D01*
X028801Y016503D01*
X028729Y016676D01*
X028597Y016808D01*
X028424Y016880D01*
X028237Y016880D01*
X028065Y016808D01*
X027933Y016676D01*
X027861Y016503D01*
X027861Y015797D01*
X027933Y015624D01*
X028065Y015492D01*
X028237Y015420D01*
X028424Y015420D01*
X028597Y015492D01*
X028720Y015615D02*
X028942Y015615D01*
X028896Y015713D02*
X028766Y015713D01*
X028801Y015812D02*
X028861Y015812D01*
X028861Y015910D02*
X028801Y015910D01*
X028801Y016009D02*
X028861Y016009D01*
X028861Y016107D02*
X028801Y016107D01*
X028801Y016206D02*
X028861Y016206D01*
X028861Y016304D02*
X028801Y016304D01*
X028801Y016403D02*
X028861Y016403D01*
X028861Y016501D02*
X028801Y016501D01*
X028761Y016600D02*
X028901Y016600D01*
X028954Y016698D02*
X028708Y016698D01*
X028609Y016797D02*
X029053Y016797D01*
X029119Y017191D02*
X025543Y017191D01*
X025641Y017289D02*
X029021Y017289D01*
X028922Y017388D02*
X025740Y017388D01*
X025838Y017486D02*
X028824Y017486D01*
X028821Y017585D02*
X025841Y017585D01*
X025841Y017683D02*
X028821Y017683D01*
X028821Y017782D02*
X025841Y017782D01*
X025841Y017880D02*
X028821Y017880D01*
X028888Y017979D02*
X025774Y017979D01*
X025675Y018077D02*
X028987Y018077D01*
X029085Y018176D02*
X025577Y018176D01*
X024821Y017585D02*
X020301Y017585D01*
X020301Y017683D02*
X020577Y017683D01*
X020478Y017782D02*
X020301Y017782D01*
X020266Y017880D02*
X020380Y017880D01*
X020321Y017979D02*
X020167Y017979D01*
X020069Y018077D02*
X020321Y018077D01*
X020321Y018176D02*
X005461Y018176D01*
X005461Y018274D02*
X010115Y018274D01*
X010087Y018285D02*
X010245Y018220D01*
X010417Y018220D01*
X010575Y018285D01*
X010696Y018406D01*
X010761Y018564D01*
X010761Y018736D01*
X010696Y018894D01*
X010575Y019015D01*
X010417Y019080D01*
X010245Y019080D01*
X010087Y019015D01*
X009966Y018894D01*
X009901Y018736D01*
X009901Y018564D01*
X009966Y018406D01*
X010087Y018285D01*
X010000Y018373D02*
X005461Y018373D01*
X005461Y018471D02*
X009940Y018471D01*
X009901Y018570D02*
X005461Y018570D01*
X005461Y018668D02*
X009901Y018668D01*
X009914Y018767D02*
X005461Y018767D01*
X005461Y018865D02*
X009955Y018865D01*
X010036Y018964D02*
X005461Y018964D01*
X005461Y019062D02*
X010202Y019062D01*
X010460Y019062D02*
X015202Y019062D01*
X015245Y019080D02*
X015087Y019015D01*
X014966Y018894D01*
X014901Y018736D01*
X014901Y018564D01*
X014966Y018406D01*
X015087Y018285D01*
X015245Y018220D01*
X015417Y018220D01*
X015575Y018285D01*
X015696Y018406D01*
X015761Y018564D01*
X015761Y018736D01*
X015696Y018894D01*
X015575Y019015D01*
X015417Y019080D01*
X015245Y019080D01*
X015460Y019062D02*
X017202Y019062D01*
X017245Y019080D02*
X017087Y019015D01*
X016966Y018894D01*
X016901Y018736D01*
X016901Y018564D01*
X016966Y018406D01*
X017087Y018285D01*
X017245Y018220D01*
X017417Y018220D01*
X017575Y018285D01*
X017696Y018406D01*
X017761Y018564D01*
X017761Y018736D01*
X017696Y018894D01*
X017575Y019015D01*
X017417Y019080D01*
X017245Y019080D01*
X017460Y019062D02*
X018578Y019062D01*
X018636Y019120D02*
X018361Y018845D01*
X018361Y018455D01*
X018636Y018180D01*
X019026Y018180D01*
X019301Y018455D01*
X019301Y018845D01*
X019026Y019120D01*
X018636Y019120D01*
X018480Y018964D02*
X017626Y018964D01*
X017707Y018865D02*
X018381Y018865D01*
X018361Y018767D02*
X017748Y018767D01*
X017761Y018668D02*
X018361Y018668D01*
X018361Y018570D02*
X017761Y018570D01*
X017722Y018471D02*
X018361Y018471D01*
X018444Y018373D02*
X017662Y018373D01*
X017547Y018274D02*
X018542Y018274D01*
X018167Y017979D02*
X019495Y017979D01*
X019593Y018077D02*
X018069Y018077D01*
X018026Y018120D02*
X017636Y018120D01*
X017361Y017845D01*
X017361Y017455D01*
X017636Y017180D01*
X018026Y017180D01*
X018301Y017455D01*
X018301Y017845D01*
X018026Y018120D01*
X018266Y017880D02*
X019396Y017880D01*
X019361Y017782D02*
X018301Y017782D01*
X018301Y017683D02*
X019361Y017683D01*
X019361Y017585D02*
X018301Y017585D01*
X018301Y017486D02*
X019361Y017486D01*
X019429Y017388D02*
X018233Y017388D01*
X018135Y017289D02*
X019527Y017289D01*
X019626Y017191D02*
X018036Y017191D01*
X017924Y016880D02*
X017737Y016880D01*
X017565Y016808D01*
X017433Y016676D01*
X017361Y016503D01*
X017361Y015797D01*
X017433Y015624D01*
X017565Y015492D01*
X017737Y015420D01*
X017924Y015420D01*
X018097Y015492D01*
X018229Y015624D01*
X018301Y015797D01*
X018301Y016503D01*
X018229Y016676D01*
X018097Y016808D01*
X017924Y016880D01*
X018109Y016797D02*
X018553Y016797D01*
X018454Y016698D02*
X018208Y016698D01*
X018261Y016600D02*
X018401Y016600D01*
X018361Y016501D02*
X018301Y016501D01*
X018301Y016403D02*
X018361Y016403D01*
X018361Y016304D02*
X018301Y016304D01*
X018301Y016206D02*
X018361Y016206D01*
X018361Y016107D02*
X018301Y016107D01*
X018301Y016009D02*
X018361Y016009D01*
X018361Y015910D02*
X018301Y015910D01*
X018301Y015812D02*
X018361Y015812D01*
X018396Y015713D02*
X018266Y015713D01*
X018220Y015615D02*
X018442Y015615D01*
X018540Y015516D02*
X018122Y015516D01*
X017540Y015516D02*
X017122Y015516D01*
X017097Y015492D02*
X017229Y015624D01*
X017301Y015797D01*
X017301Y016503D01*
X017229Y016676D01*
X017097Y016808D01*
X016924Y016880D01*
X016737Y016880D01*
X016565Y016808D01*
X016433Y016676D01*
X016361Y016503D01*
X016361Y015797D01*
X016433Y015624D01*
X016565Y015492D01*
X016737Y015420D01*
X016924Y015420D01*
X017097Y015492D01*
X017220Y015615D02*
X017442Y015615D01*
X017396Y015713D02*
X017266Y015713D01*
X017301Y015812D02*
X017361Y015812D01*
X017361Y015910D02*
X017301Y015910D01*
X017301Y016009D02*
X017361Y016009D01*
X017361Y016107D02*
X017301Y016107D01*
X017301Y016206D02*
X017361Y016206D01*
X017361Y016304D02*
X017301Y016304D01*
X017301Y016403D02*
X017361Y016403D01*
X017361Y016501D02*
X017301Y016501D01*
X017261Y016600D02*
X017401Y016600D01*
X017454Y016698D02*
X017208Y016698D01*
X017109Y016797D02*
X017553Y016797D01*
X017626Y017191D02*
X015301Y017191D01*
X015301Y017289D02*
X017527Y017289D01*
X017429Y017388D02*
X015258Y017388D01*
X015160Y017486D02*
X017361Y017486D01*
X017361Y017585D02*
X015061Y017585D01*
X015115Y018274D02*
X010547Y018274D01*
X010662Y018373D02*
X015000Y018373D01*
X014940Y018471D02*
X010722Y018471D01*
X010761Y018570D02*
X014901Y018570D01*
X014901Y018668D02*
X010761Y018668D01*
X010748Y018767D02*
X014914Y018767D01*
X014955Y018865D02*
X010707Y018865D01*
X010626Y018964D02*
X015036Y018964D01*
X015626Y018964D02*
X017036Y018964D01*
X016955Y018865D02*
X015707Y018865D01*
X015748Y018767D02*
X016914Y018767D01*
X016901Y018668D02*
X015761Y018668D01*
X015761Y018570D02*
X016901Y018570D01*
X016940Y018471D02*
X015722Y018471D01*
X015662Y018373D02*
X017000Y018373D01*
X017115Y018274D02*
X015547Y018274D01*
X016151Y019259D02*
X011511Y019259D01*
X011647Y019358D02*
X016015Y019358D01*
X015946Y019456D02*
X011716Y019456D01*
X011757Y019555D02*
X015905Y019555D01*
X015526Y020180D02*
X015136Y020180D01*
X014861Y020455D01*
X014861Y020845D01*
X015136Y021120D01*
X015526Y021120D01*
X015801Y020845D01*
X015801Y020455D01*
X015526Y020180D01*
X015590Y020244D02*
X017072Y020244D01*
X017136Y020180D02*
X017526Y020180D01*
X017801Y020455D01*
X017801Y020845D01*
X017526Y021120D01*
X017136Y021120D01*
X016861Y020845D01*
X016861Y020455D01*
X017136Y020180D01*
X016974Y020343D02*
X015688Y020343D01*
X015787Y020441D02*
X016875Y020441D01*
X016861Y020540D02*
X015801Y020540D01*
X015801Y020638D02*
X016861Y020638D01*
X016861Y020737D02*
X015801Y020737D01*
X015801Y020835D02*
X016861Y020835D01*
X016950Y020934D02*
X015712Y020934D01*
X015614Y021032D02*
X017048Y021032D01*
X016687Y021426D02*
X018442Y021426D01*
X018361Y021345D02*
X018361Y020955D01*
X018636Y020680D01*
X019026Y020680D01*
X019301Y020955D01*
X019301Y021345D01*
X019026Y021620D01*
X018636Y021620D01*
X018361Y021345D01*
X018361Y021328D02*
X016588Y021328D01*
X016501Y021240D02*
X016741Y021480D01*
X016741Y021620D01*
X016361Y021620D01*
X016361Y021680D01*
X016741Y021680D01*
X016741Y021820D01*
X016501Y022060D01*
X016361Y022060D01*
X016361Y021680D01*
X016301Y021680D01*
X016301Y022060D01*
X016161Y022060D01*
X015921Y021820D01*
X015921Y021680D01*
X016301Y021680D01*
X016301Y021620D01*
X016361Y021620D01*
X016361Y021240D01*
X016501Y021240D01*
X016361Y021328D02*
X016301Y021328D01*
X016301Y021240D02*
X016301Y021620D01*
X015921Y021620D01*
X015921Y021480D01*
X016161Y021240D01*
X016301Y021240D01*
X016301Y021426D02*
X016361Y021426D01*
X016361Y021525D02*
X016301Y021525D01*
X016301Y021623D02*
X015801Y021623D01*
X015801Y021525D02*
X015921Y021525D01*
X015975Y021426D02*
X015772Y021426D01*
X015801Y021455D02*
X015526Y021180D01*
X015136Y021180D01*
X014861Y021455D01*
X014861Y021845D01*
X015136Y022120D01*
X015526Y022120D01*
X015801Y021845D01*
X015801Y021455D01*
X015673Y021328D02*
X016074Y021328D01*
X016361Y021623D02*
X031361Y021623D01*
X031361Y021525D02*
X021121Y021525D01*
X021026Y021620D02*
X020636Y021620D01*
X020361Y021345D01*
X020361Y020955D01*
X020636Y020680D01*
X021026Y020680D01*
X021301Y020955D01*
X021301Y021345D01*
X021026Y021620D01*
X021026Y021680D02*
X021301Y021955D01*
X021301Y022345D01*
X021026Y022620D01*
X020636Y022620D01*
X020361Y022345D01*
X020361Y021955D01*
X020636Y021680D01*
X021026Y021680D01*
X021067Y021722D02*
X021595Y021722D01*
X021636Y021680D02*
X022026Y021680D01*
X022301Y021955D01*
X022301Y022345D01*
X022026Y022620D01*
X021636Y022620D01*
X021361Y022345D01*
X021361Y021955D01*
X021636Y021680D01*
X021496Y021820D02*
X021166Y021820D01*
X021264Y021919D02*
X021398Y021919D01*
X021361Y022017D02*
X021301Y022017D01*
X021301Y022116D02*
X021361Y022116D01*
X021361Y022214D02*
X021301Y022214D01*
X021301Y022313D02*
X021361Y022313D01*
X021427Y022411D02*
X021235Y022411D01*
X021136Y022510D02*
X021526Y022510D01*
X021624Y022608D02*
X021038Y022608D01*
X021184Y022680D02*
X021357Y022752D01*
X021489Y022884D01*
X021561Y023057D01*
X021561Y023243D01*
X021489Y023416D01*
X021357Y023548D01*
X021184Y023620D01*
X020477Y023620D01*
X020305Y023548D01*
X020173Y023416D01*
X020101Y023243D01*
X020101Y023057D01*
X020173Y022884D01*
X020305Y022752D01*
X020477Y022680D01*
X021184Y022680D01*
X021249Y022707D02*
X031361Y022707D01*
X031361Y022805D02*
X021411Y022805D01*
X021498Y022904D02*
X031420Y022904D01*
X031361Y022845D02*
X031361Y022455D01*
X031636Y022180D01*
X032026Y022180D01*
X032301Y022455D01*
X032301Y022845D01*
X032026Y023120D01*
X031636Y023120D01*
X031361Y022845D01*
X031518Y023002D02*
X021538Y023002D01*
X021561Y023101D02*
X025109Y023101D01*
X025120Y023090D02*
X025542Y023090D01*
X025841Y023389D01*
X025841Y023811D01*
X025542Y024110D01*
X025120Y024110D01*
X024821Y023811D01*
X024821Y023389D01*
X025120Y023090D01*
X025011Y023199D02*
X021561Y023199D01*
X021539Y023298D02*
X024912Y023298D01*
X024821Y023396D02*
X021498Y023396D01*
X021411Y023495D02*
X024821Y023495D01*
X024821Y023593D02*
X021250Y023593D01*
X021187Y023750D02*
X021248Y023770D01*
X021306Y023799D01*
X021358Y023837D01*
X021404Y023883D01*
X021442Y023935D01*
X021471Y023993D01*
X021491Y024054D01*
X021501Y024118D01*
X021501Y024120D01*
X020861Y024120D01*
X020861Y024180D01*
X021501Y024180D01*
X021501Y024182D01*
X021491Y024246D01*
X021471Y024307D01*
X021442Y024365D01*
X021404Y024417D01*
X021358Y024463D01*
X021306Y024501D01*
X021248Y024530D01*
X021187Y024550D01*
X021123Y024560D01*
X020861Y024560D01*
X020861Y024180D01*
X020801Y024180D01*
X020801Y024560D01*
X020539Y024560D01*
X020475Y024550D01*
X020414Y024530D01*
X020356Y024501D01*
X020304Y024463D01*
X020258Y024417D01*
X020220Y024365D01*
X020191Y024307D01*
X020171Y024246D01*
X020161Y024182D01*
X020161Y024180D01*
X020801Y024180D01*
X020801Y024120D01*
X020861Y024120D01*
X020861Y023740D01*
X021123Y023740D01*
X021187Y023750D01*
X021288Y023790D02*
X024821Y023790D01*
X024821Y023692D02*
X018212Y023692D01*
X018184Y023680D02*
X018357Y023752D01*
X018489Y023884D01*
X018561Y024057D01*
X018561Y024243D01*
X018489Y024416D01*
X018357Y024548D01*
X018184Y024620D01*
X017477Y024620D01*
X017305Y024548D01*
X017173Y024416D01*
X017101Y024243D01*
X017101Y024057D01*
X017173Y023884D01*
X017305Y023752D01*
X017477Y023680D01*
X018184Y023680D01*
X018184Y023620D02*
X017477Y023620D01*
X017305Y023548D01*
X017173Y023416D01*
X017101Y023243D01*
X017101Y023057D01*
X017173Y022884D01*
X017305Y022752D01*
X017477Y022680D01*
X018184Y022680D01*
X018357Y022752D01*
X018489Y022884D01*
X018561Y023057D01*
X018561Y023243D01*
X018489Y023416D01*
X018357Y023548D01*
X018184Y023620D01*
X018250Y023593D02*
X020412Y023593D01*
X020475Y023750D02*
X020539Y023740D01*
X020801Y023740D01*
X020801Y024120D01*
X020161Y024120D01*
X020161Y024118D01*
X020171Y024054D01*
X020191Y023993D01*
X020220Y023935D01*
X020258Y023883D01*
X020304Y023837D01*
X020356Y023799D01*
X020414Y023770D01*
X020475Y023750D01*
X020374Y023790D02*
X018396Y023790D01*
X018491Y023889D02*
X020254Y023889D01*
X020194Y023987D02*
X018532Y023987D01*
X018561Y024086D02*
X020166Y024086D01*
X020161Y024184D02*
X018561Y024184D01*
X018545Y024283D02*
X020183Y024283D01*
X020232Y024381D02*
X018504Y024381D01*
X018426Y024480D02*
X020327Y024480D01*
X020477Y024680D02*
X021184Y024680D01*
X021357Y024752D01*
X021461Y024855D01*
X021636Y024680D01*
X022026Y024680D01*
X022301Y024955D01*
X022301Y025345D01*
X022026Y025620D01*
X021636Y025620D01*
X021461Y025445D01*
X021357Y025548D01*
X021184Y025620D01*
X020477Y025620D01*
X020305Y025548D01*
X020173Y025416D01*
X020101Y025243D01*
X020101Y025057D01*
X020173Y024884D01*
X020305Y024752D01*
X020477Y024680D01*
X020281Y024775D02*
X018258Y024775D01*
X018248Y024770D02*
X018306Y024799D01*
X018358Y024837D01*
X018404Y024883D01*
X018442Y024935D01*
X018471Y024993D01*
X018491Y025054D01*
X018501Y025118D01*
X018501Y025120D01*
X017861Y025120D01*
X017861Y025180D01*
X018501Y025180D01*
X018501Y025182D01*
X018491Y025246D01*
X018471Y025307D01*
X018442Y025365D01*
X018404Y025417D01*
X018358Y025463D01*
X018306Y025501D01*
X018248Y025530D01*
X018187Y025550D01*
X018123Y025560D01*
X017861Y025560D01*
X017861Y025180D01*
X017801Y025180D01*
X017801Y025560D01*
X017539Y025560D01*
X017475Y025550D01*
X017414Y025530D01*
X017356Y025501D01*
X017304Y025463D01*
X017258Y025417D01*
X017220Y025365D01*
X017191Y025307D01*
X017171Y025246D01*
X017161Y025182D01*
X017161Y025180D01*
X017801Y025180D01*
X017801Y025120D01*
X017861Y025120D01*
X017861Y024740D01*
X018123Y024740D01*
X018187Y024750D01*
X018248Y024770D01*
X018394Y024874D02*
X020183Y024874D01*
X020136Y024972D02*
X018460Y024972D01*
X018493Y025071D02*
X020101Y025071D01*
X020101Y025169D02*
X017861Y025169D01*
X017801Y025169D02*
X009301Y025169D01*
X009301Y025071D02*
X017168Y025071D01*
X017171Y025054D02*
X017191Y024993D01*
X017220Y024935D01*
X017258Y024883D01*
X017304Y024837D01*
X017356Y024799D01*
X017414Y024770D01*
X017475Y024750D01*
X017539Y024740D01*
X017801Y024740D01*
X017801Y025120D01*
X017161Y025120D01*
X017161Y025118D01*
X017171Y025054D01*
X017201Y024972D02*
X009301Y024972D01*
X009301Y024955D02*
X009026Y024680D01*
X008636Y024680D01*
X008361Y024955D01*
X008361Y025345D01*
X008636Y025620D01*
X009026Y025620D01*
X009301Y025345D01*
X009301Y024955D01*
X009219Y024874D02*
X017268Y024874D01*
X017404Y024775D02*
X009121Y024775D01*
X009301Y025268D02*
X017178Y025268D01*
X017221Y025366D02*
X009280Y025366D01*
X009181Y025465D02*
X010130Y025465D01*
X010065Y025492D02*
X010237Y025420D01*
X010424Y025420D01*
X010597Y025492D01*
X010729Y025624D01*
X010801Y025797D01*
X010801Y026503D01*
X010729Y026676D01*
X010597Y026808D01*
X010424Y026880D01*
X010237Y026880D01*
X010065Y026808D01*
X009933Y026676D01*
X009861Y026503D01*
X009861Y025797D01*
X009933Y025624D01*
X010065Y025492D01*
X009993Y025563D02*
X009083Y025563D01*
X008579Y025563D02*
X005461Y025563D01*
X005461Y025465D02*
X008481Y025465D01*
X008382Y025366D02*
X005461Y025366D01*
X005461Y025268D02*
X008361Y025268D01*
X008361Y025169D02*
X005461Y025169D01*
X005461Y025071D02*
X008361Y025071D01*
X008361Y024972D02*
X005461Y024972D01*
X005461Y024874D02*
X008443Y024874D01*
X008541Y024775D02*
X005461Y024775D01*
X005461Y024677D02*
X007593Y024677D01*
X007636Y024720D02*
X007361Y024445D01*
X007361Y024055D01*
X007587Y023829D01*
X007538Y023793D01*
X007488Y023743D01*
X007446Y023686D01*
X007414Y023623D01*
X007392Y023555D01*
X007381Y023485D01*
X007381Y023200D01*
X007781Y023200D01*
X007781Y023100D01*
X007881Y023100D01*
X007881Y023200D01*
X008281Y023200D01*
X008281Y023485D01*
X008270Y023555D01*
X008248Y023623D01*
X008216Y023686D01*
X008174Y023743D01*
X008124Y023793D01*
X008075Y023829D01*
X008301Y024055D01*
X008301Y024445D01*
X008026Y024720D01*
X007636Y024720D01*
X007494Y024578D02*
X005461Y024578D01*
X005461Y024480D02*
X007396Y024480D01*
X007361Y024381D02*
X005461Y024381D01*
X005461Y024283D02*
X007361Y024283D01*
X007361Y024184D02*
X005461Y024184D01*
X005461Y024086D02*
X007361Y024086D01*
X007429Y023987D02*
X005461Y023987D01*
X005461Y023889D02*
X007528Y023889D01*
X007535Y023790D02*
X005461Y023790D01*
X005461Y023692D02*
X007450Y023692D01*
X007404Y023593D02*
X005461Y023593D01*
X005461Y023495D02*
X007382Y023495D01*
X007381Y023396D02*
X005461Y023396D01*
X005461Y023298D02*
X007381Y023298D01*
X007381Y023100D02*
X007381Y022815D01*
X007392Y022745D01*
X007414Y022677D01*
X007446Y022614D01*
X007488Y022557D01*
X007538Y022507D01*
X007595Y022465D01*
X007658Y022433D01*
X007726Y022411D01*
X005461Y022411D01*
X005461Y022313D02*
X008861Y022313D01*
X008861Y022340D02*
X008861Y022120D01*
X008636Y022120D01*
X008361Y021845D01*
X008361Y021455D01*
X008636Y021180D01*
X009026Y021180D01*
X009301Y021455D01*
X009301Y021680D01*
X009526Y021680D01*
X009801Y021955D01*
X009801Y022345D01*
X009526Y022620D01*
X009288Y022620D01*
X009341Y022749D01*
X009341Y023551D01*
X009263Y023739D01*
X009120Y023882D01*
X008932Y023960D01*
X008730Y023960D01*
X008542Y023882D01*
X008399Y023739D01*
X008321Y023551D01*
X008321Y022749D01*
X008399Y022561D01*
X008542Y022418D01*
X008730Y022340D01*
X008861Y022340D01*
X008861Y022214D02*
X005461Y022214D01*
X005461Y022116D02*
X008632Y022116D01*
X008533Y022017D02*
X005461Y022017D01*
X005461Y021919D02*
X008435Y021919D01*
X008361Y021820D02*
X005461Y021820D01*
X005461Y021722D02*
X008361Y021722D01*
X008361Y021623D02*
X005461Y021623D01*
X005461Y021525D02*
X008361Y021525D01*
X008390Y021426D02*
X005461Y021426D01*
X005461Y021328D02*
X008489Y021328D01*
X008587Y021229D02*
X005461Y021229D01*
X005461Y021131D02*
X011301Y021131D01*
X011301Y021120D02*
X010921Y021120D01*
X010921Y020980D01*
X011161Y020740D01*
X011301Y020740D01*
X011301Y021120D01*
X011361Y021120D01*
X011361Y021180D01*
X011741Y021180D01*
X011741Y021320D01*
X011501Y021560D01*
X011361Y021560D01*
X011361Y021180D01*
X011301Y021180D01*
X011301Y021560D01*
X011161Y021560D01*
X010921Y021320D01*
X010921Y021180D01*
X011301Y021180D01*
X011301Y021120D01*
X011361Y021120D02*
X011361Y020740D01*
X011501Y020740D01*
X011741Y020980D01*
X011741Y021120D01*
X011361Y021120D01*
X011361Y021131D02*
X012861Y021131D01*
X012861Y021229D02*
X011741Y021229D01*
X011733Y021328D02*
X012861Y021328D01*
X012861Y021345D02*
X012861Y020955D01*
X013136Y020680D01*
X013526Y020680D01*
X013801Y020955D01*
X013801Y021345D01*
X013526Y021620D01*
X013136Y021620D01*
X012861Y021345D01*
X012942Y021426D02*
X011635Y021426D01*
X011536Y021525D02*
X013041Y021525D01*
X012666Y021820D02*
X013996Y021820D01*
X013898Y021919D02*
X012764Y021919D01*
X012801Y021955D02*
X012526Y021680D01*
X012136Y021680D01*
X011861Y021955D01*
X011861Y022345D01*
X012036Y022520D01*
X011933Y022624D01*
X011861Y022797D01*
X011861Y023503D01*
X011933Y023676D01*
X012065Y023808D01*
X012237Y023880D01*
X012424Y023880D01*
X012597Y023808D01*
X012729Y023676D01*
X012801Y023503D01*
X012801Y022797D01*
X012729Y022624D01*
X012626Y022520D01*
X012801Y022345D01*
X012801Y021955D01*
X012801Y022017D02*
X013861Y022017D01*
X013861Y021955D02*
X014136Y021680D01*
X014526Y021680D01*
X014801Y021955D01*
X014801Y022345D01*
X014626Y022520D01*
X014729Y022624D01*
X014801Y022797D01*
X014801Y023503D01*
X014729Y023676D01*
X014597Y023808D01*
X014424Y023880D01*
X014237Y023880D01*
X014065Y023808D01*
X013933Y023676D01*
X013861Y023503D01*
X013861Y022797D01*
X013933Y022624D01*
X014036Y022520D01*
X013861Y022345D01*
X013861Y021955D01*
X013861Y022116D02*
X012801Y022116D01*
X012801Y022214D02*
X013861Y022214D01*
X013861Y022313D02*
X012801Y022313D01*
X012735Y022411D02*
X013927Y022411D01*
X014026Y022510D02*
X013615Y022510D01*
X013597Y022492D02*
X013729Y022624D01*
X013801Y022797D01*
X013801Y023503D01*
X013729Y023676D01*
X013597Y023808D01*
X013424Y023880D01*
X013237Y023880D01*
X013065Y023808D01*
X012933Y023676D01*
X012861Y023503D01*
X012861Y022797D01*
X012933Y022624D01*
X013065Y022492D01*
X013237Y022420D01*
X013424Y022420D01*
X013597Y022492D01*
X013714Y022608D02*
X013948Y022608D01*
X013898Y022707D02*
X013764Y022707D01*
X013801Y022805D02*
X013861Y022805D01*
X013861Y022904D02*
X013801Y022904D01*
X013801Y023002D02*
X013861Y023002D01*
X013861Y023101D02*
X013801Y023101D01*
X013801Y023199D02*
X013861Y023199D01*
X013861Y023298D02*
X013801Y023298D01*
X013801Y023396D02*
X013861Y023396D01*
X013861Y023495D02*
X013801Y023495D01*
X013764Y023593D02*
X013898Y023593D01*
X013948Y023692D02*
X013714Y023692D01*
X013616Y023790D02*
X014046Y023790D01*
X014616Y023790D02*
X015046Y023790D01*
X015065Y023808D02*
X014933Y023676D01*
X014861Y023503D01*
X014861Y022797D01*
X014933Y022624D01*
X015065Y022492D01*
X015237Y022420D01*
X015424Y022420D01*
X015597Y022492D01*
X015729Y022624D01*
X015801Y022797D01*
X015801Y023503D01*
X015729Y023676D01*
X015597Y023808D01*
X015424Y023880D01*
X015237Y023880D01*
X015065Y023808D01*
X014948Y023692D02*
X014714Y023692D01*
X014764Y023593D02*
X014898Y023593D01*
X014861Y023495D02*
X014801Y023495D01*
X014801Y023396D02*
X014861Y023396D01*
X014861Y023298D02*
X014801Y023298D01*
X014801Y023199D02*
X014861Y023199D01*
X014861Y023101D02*
X014801Y023101D01*
X014801Y023002D02*
X014861Y023002D01*
X014861Y022904D02*
X014801Y022904D01*
X014801Y022805D02*
X014861Y022805D01*
X014898Y022707D02*
X014764Y022707D01*
X014714Y022608D02*
X014948Y022608D01*
X015047Y022510D02*
X014636Y022510D01*
X014735Y022411D02*
X017427Y022411D01*
X017361Y022345D02*
X017361Y021955D01*
X017636Y021680D01*
X018026Y021680D01*
X018301Y021955D01*
X018301Y022345D01*
X018026Y022620D01*
X017636Y022620D01*
X017361Y022345D01*
X017361Y022313D02*
X014801Y022313D01*
X014801Y022214D02*
X017361Y022214D01*
X017361Y022116D02*
X015530Y022116D01*
X015629Y022017D02*
X016118Y022017D01*
X016020Y021919D02*
X015727Y021919D01*
X015801Y021820D02*
X015921Y021820D01*
X015921Y021722D02*
X015801Y021722D01*
X015575Y021229D02*
X018361Y021229D01*
X018361Y021131D02*
X014801Y021131D01*
X014801Y021229D02*
X015087Y021229D01*
X014989Y021328D02*
X014801Y021328D01*
X014801Y021345D02*
X014526Y021620D01*
X014136Y021620D01*
X013861Y021345D01*
X013861Y020955D01*
X014136Y020680D01*
X014526Y020680D01*
X014801Y020955D01*
X014801Y021345D01*
X014720Y021426D02*
X014890Y021426D01*
X014861Y021525D02*
X014621Y021525D01*
X014567Y021722D02*
X014861Y021722D01*
X014861Y021820D02*
X014666Y021820D01*
X014764Y021919D02*
X014935Y021919D01*
X015033Y022017D02*
X014801Y022017D01*
X014801Y022116D02*
X015132Y022116D01*
X015615Y022510D02*
X016047Y022510D01*
X016065Y022492D02*
X016237Y022420D01*
X016424Y022420D01*
X016597Y022492D01*
X016729Y022624D01*
X016801Y022797D01*
X016801Y023503D01*
X016729Y023676D01*
X016597Y023808D01*
X016424Y023880D01*
X016237Y023880D01*
X016065Y023808D01*
X015933Y023676D01*
X015861Y023503D01*
X015861Y022797D01*
X015933Y022624D01*
X016065Y022492D01*
X015948Y022608D02*
X015714Y022608D01*
X015764Y022707D02*
X015898Y022707D01*
X015861Y022805D02*
X015801Y022805D01*
X015801Y022904D02*
X015861Y022904D01*
X015861Y023002D02*
X015801Y023002D01*
X015801Y023101D02*
X015861Y023101D01*
X015861Y023199D02*
X015801Y023199D01*
X015801Y023298D02*
X015861Y023298D01*
X015861Y023396D02*
X015801Y023396D01*
X015801Y023495D02*
X015861Y023495D01*
X015898Y023593D02*
X015764Y023593D01*
X015714Y023692D02*
X015948Y023692D01*
X016046Y023790D02*
X015616Y023790D01*
X016616Y023790D02*
X017266Y023790D01*
X017171Y023889D02*
X009105Y023889D01*
X009212Y023790D02*
X010046Y023790D01*
X010065Y023808D02*
X009933Y023676D01*
X009861Y023503D01*
X009861Y022797D01*
X009933Y022624D01*
X010065Y022492D01*
X010237Y022420D01*
X010424Y022420D01*
X010597Y022492D01*
X010729Y022624D01*
X010801Y022797D01*
X010801Y023503D01*
X010729Y023676D01*
X010597Y023808D01*
X010424Y023880D01*
X010237Y023880D01*
X010065Y023808D01*
X009948Y023692D02*
X009283Y023692D01*
X009324Y023593D02*
X009898Y023593D01*
X009861Y023495D02*
X009341Y023495D01*
X009341Y023396D02*
X009861Y023396D01*
X009861Y023298D02*
X009341Y023298D01*
X009341Y023199D02*
X009861Y023199D01*
X009861Y023101D02*
X009341Y023101D01*
X009341Y023002D02*
X009861Y023002D01*
X009861Y022904D02*
X009341Y022904D01*
X009341Y022805D02*
X009861Y022805D01*
X009898Y022707D02*
X009324Y022707D01*
X009538Y022608D02*
X009948Y022608D01*
X010047Y022510D02*
X009636Y022510D01*
X009735Y022411D02*
X010927Y022411D01*
X010861Y022345D02*
X010861Y021955D01*
X011136Y021680D01*
X011526Y021680D01*
X011801Y021955D01*
X011801Y022345D01*
X011626Y022520D01*
X011729Y022624D01*
X011801Y022797D01*
X011801Y023503D01*
X011729Y023676D01*
X011597Y023808D01*
X011424Y023880D01*
X011237Y023880D01*
X011065Y023808D01*
X010933Y023676D01*
X010861Y023503D01*
X010861Y022797D01*
X010933Y022624D01*
X011036Y022520D01*
X010861Y022345D01*
X010861Y022313D02*
X009801Y022313D01*
X009801Y022214D02*
X010861Y022214D01*
X010861Y022116D02*
X009801Y022116D01*
X009801Y022017D02*
X010861Y022017D01*
X010898Y021919D02*
X009764Y021919D01*
X009666Y021820D02*
X010996Y021820D01*
X011095Y021722D02*
X009567Y021722D01*
X009301Y021623D02*
X014861Y021623D01*
X014801Y021032D02*
X015048Y021032D01*
X014950Y020934D02*
X014779Y020934D01*
X014861Y020835D02*
X014681Y020835D01*
X014582Y020737D02*
X014861Y020737D01*
X014861Y020638D02*
X010761Y020638D01*
X010761Y020564D02*
X010696Y020406D01*
X010575Y020285D01*
X010417Y020220D01*
X010245Y020220D01*
X010087Y020285D01*
X009966Y020406D01*
X009901Y020564D01*
X009901Y020736D01*
X009966Y020894D01*
X010087Y021015D01*
X010245Y021080D01*
X010417Y021080D01*
X010575Y021015D01*
X010696Y020894D01*
X010761Y020736D01*
X010761Y020564D01*
X010751Y020540D02*
X012056Y020540D01*
X011957Y020441D02*
X010710Y020441D01*
X010632Y020343D02*
X011861Y020343D01*
X011861Y020244D02*
X010475Y020244D01*
X010187Y020244D02*
X009090Y020244D01*
X009026Y020180D02*
X009301Y020455D01*
X009301Y020845D01*
X009026Y021120D01*
X008636Y021120D01*
X008361Y020845D01*
X008361Y020455D01*
X008636Y020180D01*
X009026Y020180D01*
X009188Y020343D02*
X010030Y020343D01*
X009952Y020441D02*
X009287Y020441D01*
X009301Y020540D02*
X009911Y020540D01*
X009901Y020638D02*
X009301Y020638D01*
X009301Y020737D02*
X009901Y020737D01*
X009942Y020835D02*
X009301Y020835D01*
X009212Y020934D02*
X010006Y020934D01*
X010130Y021032D02*
X009114Y021032D01*
X009075Y021229D02*
X010921Y021229D01*
X010929Y021328D02*
X009173Y021328D01*
X009272Y021426D02*
X011027Y021426D01*
X011126Y021525D02*
X009301Y021525D01*
X008548Y021032D02*
X005461Y021032D01*
X005461Y020934D02*
X008450Y020934D01*
X008361Y020835D02*
X005461Y020835D01*
X005461Y020737D02*
X008361Y020737D01*
X008361Y020638D02*
X005461Y020638D01*
X005461Y020540D02*
X008361Y020540D01*
X008375Y020441D02*
X005461Y020441D01*
X005461Y020343D02*
X008474Y020343D01*
X008572Y020244D02*
X005461Y020244D01*
X005461Y020146D02*
X011861Y020146D01*
X011596Y020835D02*
X012981Y020835D01*
X012883Y020934D02*
X011694Y020934D01*
X011741Y021032D02*
X012861Y021032D01*
X013080Y020737D02*
X010761Y020737D01*
X010720Y020835D02*
X011066Y020835D01*
X010968Y020934D02*
X010656Y020934D01*
X010532Y021032D02*
X010921Y021032D01*
X011301Y021032D02*
X011361Y021032D01*
X011361Y020934D02*
X011301Y020934D01*
X011301Y020835D02*
X011361Y020835D01*
X011361Y021229D02*
X011301Y021229D01*
X011301Y021328D02*
X011361Y021328D01*
X011361Y021426D02*
X011301Y021426D01*
X011301Y021525D02*
X011361Y021525D01*
X011567Y021722D02*
X012095Y021722D01*
X011996Y021820D02*
X011666Y021820D01*
X011764Y021919D02*
X011898Y021919D01*
X011861Y022017D02*
X011801Y022017D01*
X011801Y022116D02*
X011861Y022116D01*
X011861Y022214D02*
X011801Y022214D01*
X011801Y022313D02*
X011861Y022313D01*
X011927Y022411D02*
X011735Y022411D01*
X011636Y022510D02*
X012026Y022510D01*
X011948Y022608D02*
X011714Y022608D01*
X011764Y022707D02*
X011898Y022707D01*
X011861Y022805D02*
X011801Y022805D01*
X011801Y022904D02*
X011861Y022904D01*
X011861Y023002D02*
X011801Y023002D01*
X011801Y023101D02*
X011861Y023101D01*
X011861Y023199D02*
X011801Y023199D01*
X011801Y023298D02*
X011861Y023298D01*
X011861Y023396D02*
X011801Y023396D01*
X011801Y023495D02*
X011861Y023495D01*
X011898Y023593D02*
X011764Y023593D01*
X011714Y023692D02*
X011948Y023692D01*
X012046Y023790D02*
X011616Y023790D01*
X011046Y023790D02*
X010616Y023790D01*
X010714Y023692D02*
X010948Y023692D01*
X010898Y023593D02*
X010764Y023593D01*
X010801Y023495D02*
X010861Y023495D01*
X010861Y023396D02*
X010801Y023396D01*
X010801Y023298D02*
X010861Y023298D01*
X010861Y023199D02*
X010801Y023199D01*
X010801Y023101D02*
X010861Y023101D01*
X010861Y023002D02*
X010801Y023002D01*
X010801Y022904D02*
X010861Y022904D01*
X010861Y022805D02*
X010801Y022805D01*
X010764Y022707D02*
X010898Y022707D01*
X010948Y022608D02*
X010714Y022608D01*
X010615Y022510D02*
X011026Y022510D01*
X012636Y022510D02*
X013047Y022510D01*
X012948Y022608D02*
X012714Y022608D01*
X012764Y022707D02*
X012898Y022707D01*
X012861Y022805D02*
X012801Y022805D01*
X012801Y022904D02*
X012861Y022904D01*
X012861Y023002D02*
X012801Y023002D01*
X012801Y023101D02*
X012861Y023101D01*
X012861Y023199D02*
X012801Y023199D01*
X012801Y023298D02*
X012861Y023298D01*
X012861Y023396D02*
X012801Y023396D01*
X012801Y023495D02*
X012861Y023495D01*
X012898Y023593D02*
X012764Y023593D01*
X012714Y023692D02*
X012948Y023692D01*
X013046Y023790D02*
X012616Y023790D01*
X012424Y025420D02*
X012237Y025420D01*
X012065Y025492D01*
X011933Y025624D01*
X011861Y025797D01*
X011861Y026503D01*
X011933Y026676D01*
X012065Y026808D01*
X012237Y026880D01*
X012424Y026880D01*
X012597Y026808D01*
X012729Y026676D01*
X012801Y026503D01*
X012801Y025797D01*
X012729Y025624D01*
X012597Y025492D01*
X012424Y025420D01*
X012532Y025465D02*
X013130Y025465D01*
X013065Y025492D02*
X013237Y025420D01*
X013424Y025420D01*
X013597Y025492D01*
X013729Y025624D01*
X013801Y025797D01*
X013801Y026503D01*
X013729Y026676D01*
X013597Y026808D01*
X013424Y026880D01*
X013237Y026880D01*
X013065Y026808D01*
X012933Y026676D01*
X012861Y026503D01*
X012861Y025797D01*
X012933Y025624D01*
X013065Y025492D01*
X012993Y025563D02*
X012669Y025563D01*
X012745Y025662D02*
X012917Y025662D01*
X012876Y025760D02*
X012786Y025760D01*
X012801Y025859D02*
X012861Y025859D01*
X012861Y025957D02*
X012801Y025957D01*
X012801Y026056D02*
X012861Y026056D01*
X012861Y026154D02*
X012801Y026154D01*
X012801Y026253D02*
X012861Y026253D01*
X012861Y026351D02*
X012801Y026351D01*
X012801Y026450D02*
X012861Y026450D01*
X012879Y026548D02*
X012783Y026548D01*
X012742Y026647D02*
X012920Y026647D01*
X013001Y026745D02*
X012661Y026745D01*
X012512Y026844D02*
X013150Y026844D01*
X013512Y026844D02*
X015150Y026844D01*
X015065Y026808D02*
X015237Y026880D01*
X015424Y026880D01*
X015597Y026808D01*
X015729Y026676D01*
X015801Y026503D01*
X015801Y025797D01*
X015729Y025624D01*
X015597Y025492D01*
X015424Y025420D01*
X015237Y025420D01*
X015065Y025492D01*
X014933Y025624D01*
X014861Y025797D01*
X014861Y026503D01*
X014933Y026676D01*
X015065Y026808D01*
X015001Y026745D02*
X014567Y026745D01*
X014546Y026761D02*
X014488Y026790D01*
X014427Y026810D01*
X014363Y026820D01*
X014361Y026820D01*
X014361Y026180D01*
X014741Y026180D01*
X014741Y026442D01*
X014731Y026506D01*
X014711Y026567D01*
X014682Y026625D01*
X014644Y026677D01*
X014598Y026723D01*
X014546Y026761D01*
X014666Y026647D02*
X014920Y026647D01*
X014879Y026548D02*
X014717Y026548D01*
X014740Y026450D02*
X014861Y026450D01*
X014861Y026351D02*
X014741Y026351D01*
X014741Y026253D02*
X014861Y026253D01*
X014861Y026154D02*
X014361Y026154D01*
X014361Y026180D02*
X014361Y026120D01*
X014741Y026120D01*
X014741Y025858D01*
X014731Y025794D01*
X014711Y025733D01*
X014682Y025675D01*
X014644Y025623D01*
X014598Y025577D01*
X014546Y025539D01*
X014488Y025510D01*
X014427Y025490D01*
X014363Y025480D01*
X014361Y025480D01*
X014361Y026120D01*
X014301Y026120D01*
X014301Y025480D01*
X014299Y025480D01*
X014235Y025490D01*
X014174Y025510D01*
X014116Y025539D01*
X014064Y025577D01*
X014018Y025623D01*
X013980Y025675D01*
X013951Y025733D01*
X013931Y025794D01*
X013921Y025858D01*
X013921Y026120D01*
X014301Y026120D01*
X014301Y026180D01*
X014301Y026820D01*
X014299Y026820D01*
X014235Y026810D01*
X014174Y026790D01*
X014116Y026761D01*
X014064Y026723D01*
X014018Y026677D01*
X013980Y026625D01*
X013951Y026567D01*
X013931Y026506D01*
X013921Y026442D01*
X013921Y026180D01*
X014301Y026180D01*
X014361Y026180D01*
X014301Y026154D02*
X013801Y026154D01*
X013801Y026056D02*
X013921Y026056D01*
X013921Y025957D02*
X013801Y025957D01*
X013801Y025859D02*
X013921Y025859D01*
X013942Y025760D02*
X013786Y025760D01*
X013745Y025662D02*
X013990Y025662D01*
X014083Y025563D02*
X013669Y025563D01*
X013532Y025465D02*
X015130Y025465D01*
X014993Y025563D02*
X014579Y025563D01*
X014672Y025662D02*
X014917Y025662D01*
X014876Y025760D02*
X014720Y025760D01*
X014741Y025859D02*
X014861Y025859D01*
X014861Y025957D02*
X014741Y025957D01*
X014741Y026056D02*
X014861Y026056D01*
X014361Y026056D02*
X014301Y026056D01*
X014301Y025957D02*
X014361Y025957D01*
X014361Y025859D02*
X014301Y025859D01*
X014301Y025760D02*
X014361Y025760D01*
X014361Y025662D02*
X014301Y025662D01*
X014301Y025563D02*
X014361Y025563D01*
X014361Y026253D02*
X014301Y026253D01*
X014301Y026351D02*
X014361Y026351D01*
X014361Y026450D02*
X014301Y026450D01*
X014301Y026548D02*
X014361Y026548D01*
X014361Y026647D02*
X014301Y026647D01*
X014301Y026745D02*
X014361Y026745D01*
X014095Y026745D02*
X013661Y026745D01*
X013742Y026647D02*
X013996Y026647D01*
X013945Y026548D02*
X013783Y026548D01*
X013801Y026450D02*
X013922Y026450D01*
X013921Y026351D02*
X013801Y026351D01*
X013801Y026253D02*
X013921Y026253D01*
X015512Y026844D02*
X015916Y026844D01*
X016008Y026752D02*
X015821Y026939D01*
X015821Y027361D01*
X016120Y027660D01*
X016542Y027660D01*
X016841Y027361D01*
X016841Y026939D01*
X016654Y026752D01*
X016729Y026676D01*
X016801Y026503D01*
X016801Y025797D01*
X016729Y025624D01*
X016597Y025492D01*
X016424Y025420D01*
X016237Y025420D01*
X016065Y025492D01*
X015933Y025624D01*
X015861Y025797D01*
X015861Y026503D01*
X015933Y026676D01*
X016008Y026752D01*
X016001Y026745D02*
X015661Y026745D01*
X015742Y026647D02*
X015920Y026647D01*
X015879Y026548D02*
X015783Y026548D01*
X015801Y026450D02*
X015861Y026450D01*
X015861Y026351D02*
X015801Y026351D01*
X015801Y026253D02*
X015861Y026253D01*
X015861Y026154D02*
X015801Y026154D01*
X015801Y026056D02*
X015861Y026056D01*
X015861Y025957D02*
X015801Y025957D01*
X015801Y025859D02*
X015861Y025859D01*
X015876Y025760D02*
X015786Y025760D01*
X015745Y025662D02*
X015917Y025662D01*
X015993Y025563D02*
X015669Y025563D01*
X015532Y025465D02*
X016130Y025465D01*
X016532Y025465D02*
X017306Y025465D01*
X017477Y025680D02*
X017305Y025752D01*
X017173Y025884D01*
X017101Y026057D01*
X017101Y026243D01*
X017173Y026416D01*
X017305Y026548D01*
X017477Y026620D01*
X018184Y026620D01*
X018357Y026548D01*
X018489Y026416D01*
X018561Y026243D01*
X018561Y026057D01*
X018489Y025884D01*
X018357Y025752D01*
X018184Y025680D01*
X017477Y025680D01*
X017296Y025760D02*
X016786Y025760D01*
X016801Y025859D02*
X017198Y025859D01*
X017142Y025957D02*
X016801Y025957D01*
X016801Y026056D02*
X017101Y026056D01*
X017101Y026154D02*
X016801Y026154D01*
X016801Y026253D02*
X017105Y026253D01*
X017146Y026351D02*
X016801Y026351D01*
X016801Y026450D02*
X017206Y026450D01*
X017304Y026548D02*
X016783Y026548D01*
X016742Y026647D02*
X033701Y026647D01*
X033701Y026745D02*
X016661Y026745D01*
X016746Y026844D02*
X033701Y026844D01*
X033701Y026942D02*
X016841Y026942D01*
X016841Y027041D02*
X033701Y027041D01*
X033701Y027139D02*
X016841Y027139D01*
X016841Y027238D02*
X033701Y027238D01*
X033701Y027336D02*
X028097Y027336D01*
X028001Y027240D02*
X028241Y027480D01*
X028241Y027620D01*
X027861Y027620D01*
X027861Y027680D01*
X028241Y027680D01*
X028241Y027820D01*
X028001Y028060D01*
X027861Y028060D01*
X027861Y027680D01*
X027801Y027680D01*
X027801Y028060D01*
X027661Y028060D01*
X027421Y027820D01*
X027421Y027680D01*
X027801Y027680D01*
X027801Y027620D01*
X027861Y027620D01*
X027861Y027240D01*
X028001Y027240D01*
X027861Y027336D02*
X027801Y027336D01*
X027801Y027240D02*
X027801Y027620D01*
X027421Y027620D01*
X027421Y027480D01*
X027661Y027240D01*
X027801Y027240D01*
X027801Y027435D02*
X027861Y027435D01*
X027861Y027533D02*
X027801Y027533D01*
X027801Y027632D02*
X016571Y027632D01*
X016669Y027533D02*
X027421Y027533D01*
X027467Y027435D02*
X016768Y027435D01*
X016841Y027336D02*
X027565Y027336D01*
X027861Y027632D02*
X033701Y027632D01*
X033701Y027730D02*
X028241Y027730D01*
X028232Y027829D02*
X033701Y027829D01*
X033701Y027927D02*
X028134Y027927D01*
X028035Y028026D02*
X033701Y028026D01*
X033701Y028124D02*
X005461Y028124D01*
X005461Y028026D02*
X027627Y028026D01*
X027528Y027927D02*
X005461Y027927D01*
X005461Y027829D02*
X027430Y027829D01*
X027421Y027730D02*
X005461Y027730D01*
X005461Y027632D02*
X016091Y027632D01*
X015993Y027533D02*
X009028Y027533D01*
X009001Y027560D02*
X008861Y027560D01*
X008861Y027180D01*
X009241Y027180D01*
X009241Y027320D01*
X009001Y027560D01*
X008861Y027533D02*
X008801Y027533D01*
X008801Y027560D02*
X008661Y027560D01*
X008421Y027320D01*
X008421Y027180D01*
X008801Y027180D01*
X008801Y027560D01*
X008801Y027435D02*
X008861Y027435D01*
X008861Y027336D02*
X008801Y027336D01*
X008801Y027238D02*
X008861Y027238D01*
X008861Y027180D02*
X008801Y027180D01*
X008801Y027120D01*
X008861Y027120D01*
X008861Y027180D01*
X008861Y027139D02*
X015821Y027139D01*
X015821Y027041D02*
X009241Y027041D01*
X009241Y026980D02*
X009241Y027120D01*
X008861Y027120D01*
X008861Y026740D01*
X009001Y026740D01*
X009241Y026980D01*
X009203Y026942D02*
X015821Y026942D01*
X015821Y027238D02*
X009241Y027238D01*
X009225Y027336D02*
X015821Y027336D01*
X015894Y027435D02*
X009126Y027435D01*
X008801Y027139D02*
X005461Y027139D01*
X005461Y027041D02*
X008421Y027041D01*
X008421Y026980D02*
X008661Y026740D01*
X008801Y026740D01*
X008801Y027120D01*
X008421Y027120D01*
X008421Y026980D01*
X008459Y026942D02*
X005461Y026942D01*
X005461Y026844D02*
X008558Y026844D01*
X008656Y026745D02*
X005461Y026745D01*
X005461Y026647D02*
X007648Y026647D01*
X007661Y026660D02*
X007421Y026420D01*
X007421Y026280D01*
X007801Y026280D01*
X007801Y026660D01*
X007661Y026660D01*
X007801Y026647D02*
X007861Y026647D01*
X007861Y026660D02*
X007861Y026280D01*
X008241Y026280D01*
X008241Y026420D01*
X008001Y026660D01*
X007861Y026660D01*
X007861Y026548D02*
X007801Y026548D01*
X007801Y026450D02*
X007861Y026450D01*
X007861Y026351D02*
X007801Y026351D01*
X007801Y026280D02*
X007861Y026280D01*
X007861Y026220D01*
X008241Y026220D01*
X008241Y026080D01*
X008001Y025840D01*
X007861Y025840D01*
X007861Y026220D01*
X007801Y026220D01*
X007801Y025840D01*
X007661Y025840D01*
X007421Y026080D01*
X007421Y026220D01*
X007801Y026220D01*
X007801Y026280D01*
X007801Y026253D02*
X005461Y026253D01*
X005461Y026351D02*
X007421Y026351D01*
X007451Y026450D02*
X005461Y026450D01*
X005461Y026548D02*
X007549Y026548D01*
X007421Y026154D02*
X005461Y026154D01*
X005461Y026056D02*
X007446Y026056D01*
X007544Y025957D02*
X005461Y025957D01*
X005461Y025859D02*
X007643Y025859D01*
X007801Y025859D02*
X007861Y025859D01*
X007861Y025957D02*
X007801Y025957D01*
X007801Y026056D02*
X007861Y026056D01*
X007861Y026154D02*
X007801Y026154D01*
X007861Y026253D02*
X009861Y026253D01*
X009861Y026351D02*
X008241Y026351D01*
X008211Y026450D02*
X009861Y026450D01*
X009879Y026548D02*
X008113Y026548D01*
X008014Y026647D02*
X009920Y026647D01*
X010001Y026745D02*
X009006Y026745D01*
X009104Y026844D02*
X010150Y026844D01*
X010512Y026844D02*
X011150Y026844D01*
X011065Y026808D02*
X010933Y026676D01*
X010861Y026503D01*
X010861Y025797D01*
X010933Y025624D01*
X011065Y025492D01*
X011237Y025420D01*
X011424Y025420D01*
X011597Y025492D01*
X011729Y025624D01*
X011801Y025797D01*
X011801Y026503D01*
X011729Y026676D01*
X011597Y026808D01*
X011424Y026880D01*
X011237Y026880D01*
X011065Y026808D01*
X011001Y026745D02*
X010661Y026745D01*
X010742Y026647D02*
X010920Y026647D01*
X010879Y026548D02*
X010783Y026548D01*
X010801Y026450D02*
X010861Y026450D01*
X010861Y026351D02*
X010801Y026351D01*
X010801Y026253D02*
X010861Y026253D01*
X010861Y026154D02*
X010801Y026154D01*
X010801Y026056D02*
X010861Y026056D01*
X010861Y025957D02*
X010801Y025957D01*
X010801Y025859D02*
X010861Y025859D01*
X010876Y025760D02*
X010786Y025760D01*
X010745Y025662D02*
X010917Y025662D01*
X010993Y025563D02*
X010669Y025563D01*
X010532Y025465D02*
X011130Y025465D01*
X011532Y025465D02*
X012130Y025465D01*
X011993Y025563D02*
X011669Y025563D01*
X011745Y025662D02*
X011917Y025662D01*
X011876Y025760D02*
X011786Y025760D01*
X011801Y025859D02*
X011861Y025859D01*
X011861Y025957D02*
X011801Y025957D01*
X011801Y026056D02*
X011861Y026056D01*
X011861Y026154D02*
X011801Y026154D01*
X011801Y026253D02*
X011861Y026253D01*
X011861Y026351D02*
X011801Y026351D01*
X011801Y026450D02*
X011861Y026450D01*
X011879Y026548D02*
X011783Y026548D01*
X011742Y026647D02*
X011920Y026647D01*
X012001Y026745D02*
X011661Y026745D01*
X011512Y026844D02*
X012150Y026844D01*
X009861Y026154D02*
X008241Y026154D01*
X008216Y026056D02*
X009861Y026056D01*
X009861Y025957D02*
X008118Y025957D01*
X008019Y025859D02*
X009861Y025859D01*
X009876Y025760D02*
X005461Y025760D01*
X005461Y025662D02*
X009917Y025662D01*
X008861Y026745D02*
X008801Y026745D01*
X008801Y026844D02*
X008861Y026844D01*
X008861Y026942D02*
X008801Y026942D01*
X008801Y027041D02*
X008861Y027041D01*
X008421Y027238D02*
X005461Y027238D01*
X005461Y027336D02*
X008437Y027336D01*
X008536Y027435D02*
X005461Y027435D01*
X005461Y027533D02*
X008634Y027533D01*
X008069Y024677D02*
X026361Y024677D01*
X026361Y024775D02*
X025049Y024775D01*
X025075Y024785D02*
X024917Y024720D01*
X024745Y024720D01*
X024587Y024785D01*
X024466Y024906D01*
X024401Y025064D01*
X024401Y025236D01*
X024466Y025394D01*
X024587Y025515D01*
X024745Y025580D01*
X024917Y025580D01*
X025075Y025515D01*
X025196Y025394D01*
X025261Y025236D01*
X025261Y025064D01*
X025196Y024906D01*
X025075Y024785D01*
X025163Y024874D02*
X026390Y024874D01*
X026361Y024845D02*
X026361Y024455D01*
X026636Y024180D01*
X027026Y024180D01*
X027301Y024455D01*
X027301Y024845D01*
X027026Y025120D01*
X026636Y025120D01*
X026361Y024845D01*
X026488Y024972D02*
X025223Y024972D01*
X025261Y025071D02*
X026587Y025071D01*
X026636Y025180D02*
X027026Y025180D01*
X027301Y025455D01*
X027301Y025845D01*
X027026Y026120D01*
X026636Y026120D01*
X026361Y025845D01*
X026361Y025455D01*
X026636Y025180D01*
X026549Y025268D02*
X025248Y025268D01*
X025261Y025169D02*
X029401Y025169D01*
X029401Y025236D02*
X029401Y025064D01*
X029466Y024906D01*
X029587Y024785D01*
X029745Y024720D01*
X029917Y024720D01*
X030075Y024785D01*
X030196Y024906D01*
X030261Y025064D01*
X030261Y025236D01*
X030196Y025394D01*
X030075Y025515D01*
X029917Y025580D01*
X029745Y025580D01*
X029587Y025515D01*
X029466Y025394D01*
X029401Y025236D01*
X029414Y025268D02*
X028113Y025268D01*
X028026Y025180D02*
X028301Y025455D01*
X028301Y025845D01*
X028026Y026120D01*
X027636Y026120D01*
X027361Y025845D01*
X027361Y025455D01*
X027636Y025180D01*
X028026Y025180D01*
X028212Y025366D02*
X029455Y025366D01*
X029537Y025465D02*
X028301Y025465D01*
X028301Y025563D02*
X029705Y025563D01*
X029957Y025563D02*
X031361Y025563D01*
X031361Y025465D02*
X030125Y025465D01*
X030207Y025366D02*
X031450Y025366D01*
X031361Y025455D02*
X031636Y025180D01*
X032026Y025180D01*
X032301Y025455D01*
X032301Y025845D01*
X032026Y026120D01*
X031636Y026120D01*
X031361Y025845D01*
X031361Y025455D01*
X031361Y025662D02*
X028301Y025662D01*
X028301Y025760D02*
X028649Y025760D01*
X028587Y025785D02*
X028745Y025720D01*
X028917Y025720D01*
X029075Y025785D01*
X029196Y025906D01*
X029261Y026064D01*
X029261Y026236D01*
X029196Y026394D01*
X029075Y026515D01*
X028917Y026580D01*
X028745Y026580D01*
X028587Y026515D01*
X028466Y026394D01*
X028401Y026236D01*
X028401Y026064D01*
X028466Y025906D01*
X028587Y025785D01*
X028514Y025859D02*
X028287Y025859D01*
X028189Y025957D02*
X028445Y025957D01*
X028405Y026056D02*
X028090Y026056D01*
X028401Y026154D02*
X026261Y026154D01*
X026261Y026236D02*
X026196Y026394D01*
X026075Y026515D01*
X025917Y026580D01*
X025745Y026580D01*
X025587Y026515D01*
X025466Y026394D01*
X025401Y026236D01*
X025401Y026064D01*
X025466Y025906D01*
X025587Y025785D01*
X025745Y025720D01*
X025917Y025720D01*
X026075Y025785D01*
X026196Y025906D01*
X026261Y026064D01*
X026261Y026236D01*
X026254Y026253D02*
X028408Y026253D01*
X028449Y026351D02*
X026213Y026351D01*
X026140Y026450D02*
X028522Y026450D01*
X028668Y026548D02*
X025994Y026548D01*
X025668Y026548D02*
X023994Y026548D01*
X023917Y026580D02*
X023745Y026580D01*
X023587Y026515D01*
X023466Y026394D01*
X023401Y026236D01*
X023401Y026064D01*
X023466Y025906D01*
X023587Y025785D01*
X023745Y025720D01*
X023917Y025720D01*
X024075Y025785D01*
X024196Y025906D01*
X024261Y026064D01*
X024261Y026236D01*
X024196Y026394D01*
X024075Y026515D01*
X023917Y026580D01*
X023668Y026548D02*
X021193Y026548D01*
X021187Y026550D02*
X021123Y026560D01*
X020861Y026560D01*
X020861Y026180D01*
X021501Y026180D01*
X021501Y026182D01*
X021491Y026246D01*
X021471Y026307D01*
X021442Y026365D01*
X021404Y026417D01*
X021358Y026463D01*
X021306Y026501D01*
X021248Y026530D01*
X021187Y026550D01*
X021371Y026450D02*
X023522Y026450D01*
X023449Y026351D02*
X021449Y026351D01*
X021489Y026253D02*
X023408Y026253D01*
X023401Y026154D02*
X020861Y026154D01*
X020861Y026180D02*
X020861Y026120D01*
X021501Y026120D01*
X021501Y026118D01*
X021491Y026054D01*
X021471Y025993D01*
X021442Y025935D01*
X021404Y025883D01*
X021358Y025837D01*
X021306Y025799D01*
X021248Y025770D01*
X021187Y025750D01*
X021123Y025740D01*
X020861Y025740D01*
X020861Y026120D01*
X020801Y026120D01*
X020801Y025740D01*
X020539Y025740D01*
X020475Y025750D01*
X020414Y025770D01*
X020356Y025799D01*
X020304Y025837D01*
X020258Y025883D01*
X020220Y025935D01*
X020191Y025993D01*
X020171Y026054D01*
X020161Y026118D01*
X020161Y026120D01*
X020801Y026120D01*
X020801Y026180D01*
X020801Y026560D01*
X020539Y026560D01*
X020475Y026550D01*
X020414Y026530D01*
X020356Y026501D01*
X020304Y026463D01*
X020258Y026417D01*
X020220Y026365D01*
X020191Y026307D01*
X020171Y026246D01*
X020161Y026182D01*
X020161Y026180D01*
X020801Y026180D01*
X020861Y026180D01*
X020801Y026154D02*
X018561Y026154D01*
X018561Y026056D02*
X020171Y026056D01*
X020209Y025957D02*
X018520Y025957D01*
X018464Y025859D02*
X020283Y025859D01*
X020444Y025760D02*
X018366Y025760D01*
X018356Y025465D02*
X020221Y025465D01*
X020152Y025366D02*
X018441Y025366D01*
X018484Y025268D02*
X020111Y025268D01*
X020340Y025563D02*
X016669Y025563D01*
X016745Y025662D02*
X026361Y025662D01*
X026361Y025760D02*
X026013Y025760D01*
X026148Y025859D02*
X026375Y025859D01*
X026473Y025957D02*
X026216Y025957D01*
X026257Y026056D02*
X026572Y026056D01*
X027090Y026056D02*
X027572Y026056D01*
X027473Y025957D02*
X027189Y025957D01*
X027287Y025859D02*
X027375Y025859D01*
X027361Y025760D02*
X027301Y025760D01*
X027301Y025662D02*
X027361Y025662D01*
X027361Y025563D02*
X027301Y025563D01*
X027301Y025465D02*
X027361Y025465D01*
X027450Y025366D02*
X027212Y025366D01*
X027113Y025268D02*
X027549Y025268D01*
X027174Y024972D02*
X029439Y024972D01*
X029401Y025071D02*
X027075Y025071D01*
X027272Y024874D02*
X029499Y024874D01*
X029613Y024775D02*
X027301Y024775D01*
X027301Y024677D02*
X033701Y024677D01*
X033701Y024775D02*
X030049Y024775D01*
X030163Y024874D02*
X033701Y024874D01*
X033701Y024972D02*
X030223Y024972D01*
X030261Y025071D02*
X033701Y025071D01*
X033701Y025169D02*
X030261Y025169D01*
X030248Y025268D02*
X031549Y025268D01*
X031361Y025760D02*
X031013Y025760D01*
X031075Y025785D02*
X031196Y025906D01*
X031261Y026064D01*
X031261Y026236D01*
X031196Y026394D01*
X031075Y026515D01*
X030917Y026580D01*
X030745Y026580D01*
X030587Y026515D01*
X030466Y026394D01*
X030401Y026236D01*
X030401Y026064D01*
X030466Y025906D01*
X030587Y025785D01*
X030745Y025720D01*
X030917Y025720D01*
X031075Y025785D01*
X031148Y025859D02*
X031375Y025859D01*
X031473Y025957D02*
X031216Y025957D01*
X031257Y026056D02*
X031572Y026056D01*
X031261Y026154D02*
X033701Y026154D01*
X033701Y026056D02*
X032090Y026056D01*
X032189Y025957D02*
X033701Y025957D01*
X033701Y025859D02*
X032287Y025859D01*
X032301Y025760D02*
X033701Y025760D01*
X033701Y025662D02*
X032301Y025662D01*
X032301Y025563D02*
X033701Y025563D01*
X033701Y025465D02*
X032301Y025465D01*
X032212Y025366D02*
X033701Y025366D01*
X033701Y025268D02*
X032113Y025268D01*
X031254Y026253D02*
X033701Y026253D01*
X033701Y026351D02*
X031213Y026351D01*
X031140Y026450D02*
X033701Y026450D01*
X033701Y026548D02*
X030994Y026548D01*
X030668Y026548D02*
X028994Y026548D01*
X029140Y026450D02*
X030522Y026450D01*
X030449Y026351D02*
X029213Y026351D01*
X029254Y026253D02*
X030408Y026253D01*
X030401Y026154D02*
X029261Y026154D01*
X029257Y026056D02*
X030405Y026056D01*
X030445Y025957D02*
X029216Y025957D01*
X029148Y025859D02*
X030514Y025859D01*
X030649Y025760D02*
X029013Y025760D01*
X029120Y024110D02*
X028821Y023811D01*
X028821Y023389D01*
X029120Y023090D01*
X029542Y023090D01*
X029841Y023389D01*
X029841Y023811D01*
X029542Y024110D01*
X029120Y024110D01*
X029095Y024086D02*
X025567Y024086D01*
X025665Y023987D02*
X028997Y023987D01*
X028898Y023889D02*
X025764Y023889D01*
X025841Y023790D02*
X028821Y023790D01*
X028821Y023692D02*
X025841Y023692D01*
X025841Y023593D02*
X028821Y023593D01*
X028821Y023495D02*
X025841Y023495D01*
X025841Y023396D02*
X028821Y023396D01*
X028912Y023298D02*
X025750Y023298D01*
X025651Y023199D02*
X029011Y023199D01*
X029109Y023101D02*
X025553Y023101D01*
X024898Y023889D02*
X021408Y023889D01*
X021468Y023987D02*
X024997Y023987D01*
X025095Y024086D02*
X021496Y024086D01*
X021501Y024184D02*
X026632Y024184D01*
X026534Y024283D02*
X021479Y024283D01*
X021430Y024381D02*
X026435Y024381D01*
X026361Y024480D02*
X021335Y024480D01*
X021381Y024775D02*
X021541Y024775D01*
X022121Y024775D02*
X024613Y024775D01*
X024499Y024874D02*
X022219Y024874D01*
X022301Y024972D02*
X024439Y024972D01*
X024401Y025071D02*
X022301Y025071D01*
X022301Y025169D02*
X024401Y025169D01*
X024414Y025268D02*
X022301Y025268D01*
X022280Y025366D02*
X024455Y025366D01*
X024537Y025465D02*
X022181Y025465D01*
X022083Y025563D02*
X024705Y025563D01*
X024957Y025563D02*
X026361Y025563D01*
X026361Y025465D02*
X025125Y025465D01*
X025207Y025366D02*
X026450Y025366D01*
X026361Y024578D02*
X018286Y024578D01*
X017861Y024775D02*
X017801Y024775D01*
X017801Y024874D02*
X017861Y024874D01*
X017861Y024972D02*
X017801Y024972D01*
X017801Y025071D02*
X017861Y025071D01*
X017861Y025268D02*
X017801Y025268D01*
X017801Y025366D02*
X017861Y025366D01*
X017861Y025465D02*
X017801Y025465D01*
X018516Y026351D02*
X020213Y026351D01*
X020173Y026253D02*
X018557Y026253D01*
X018456Y026450D02*
X020291Y026450D01*
X020469Y026548D02*
X018358Y026548D01*
X017376Y024578D02*
X008168Y024578D01*
X008266Y024480D02*
X017236Y024480D01*
X017158Y024381D02*
X008301Y024381D01*
X008301Y024283D02*
X017117Y024283D01*
X017101Y024184D02*
X008301Y024184D01*
X008301Y024086D02*
X017101Y024086D01*
X017130Y023987D02*
X008233Y023987D01*
X008134Y023889D02*
X008557Y023889D01*
X008450Y023790D02*
X008127Y023790D01*
X008212Y023692D02*
X008379Y023692D01*
X008338Y023593D02*
X008258Y023593D01*
X008280Y023495D02*
X008321Y023495D01*
X008321Y023396D02*
X008281Y023396D01*
X008281Y023298D02*
X008321Y023298D01*
X008321Y023199D02*
X007881Y023199D01*
X007881Y023101D02*
X008321Y023101D01*
X008281Y023100D02*
X007881Y023100D01*
X007881Y022402D01*
X007936Y022411D01*
X008558Y022411D01*
X008450Y022510D02*
X008127Y022510D01*
X008124Y022507D02*
X008174Y022557D01*
X008216Y022614D01*
X008248Y022677D01*
X008270Y022745D01*
X008281Y022815D01*
X008281Y023100D01*
X008281Y023002D02*
X008321Y023002D01*
X008321Y022904D02*
X008281Y022904D01*
X008279Y022805D02*
X008321Y022805D01*
X008338Y022707D02*
X008258Y022707D01*
X008211Y022608D02*
X008379Y022608D01*
X008124Y022507D02*
X008067Y022465D01*
X008004Y022433D01*
X007936Y022411D01*
X007881Y022411D02*
X007781Y022411D01*
X007781Y022402D02*
X007781Y023100D01*
X007381Y023100D01*
X007381Y023002D02*
X005461Y023002D01*
X005461Y022904D02*
X007381Y022904D01*
X007382Y022805D02*
X005461Y022805D01*
X005461Y022707D02*
X007404Y022707D01*
X007451Y022608D02*
X005461Y022608D01*
X005461Y022510D02*
X007535Y022510D01*
X007726Y022411D02*
X007781Y022402D01*
X007781Y022510D02*
X007881Y022510D01*
X007881Y022608D02*
X007781Y022608D01*
X007781Y022707D02*
X007881Y022707D01*
X007881Y022805D02*
X007781Y022805D01*
X007781Y022904D02*
X007881Y022904D01*
X007881Y023002D02*
X007781Y023002D01*
X007781Y023101D02*
X005461Y023101D01*
X005461Y023199D02*
X007781Y023199D01*
X012567Y021722D02*
X014095Y021722D01*
X014041Y021525D02*
X013621Y021525D01*
X013720Y021426D02*
X013942Y021426D01*
X013861Y021328D02*
X013801Y021328D01*
X013801Y021229D02*
X013861Y021229D01*
X013861Y021131D02*
X013801Y021131D01*
X013801Y021032D02*
X013861Y021032D01*
X013883Y020934D02*
X013779Y020934D01*
X013681Y020835D02*
X013981Y020835D01*
X014080Y020737D02*
X013582Y020737D01*
X013526Y020620D02*
X013136Y020620D01*
X012861Y020345D01*
X012861Y019955D01*
X013136Y019680D01*
X013526Y019680D01*
X013801Y019955D01*
X013801Y020345D01*
X013526Y020620D01*
X013606Y020540D02*
X014056Y020540D01*
X013957Y020441D02*
X013705Y020441D01*
X013801Y020343D02*
X013861Y020343D01*
X013861Y020244D02*
X013801Y020244D01*
X013801Y020146D02*
X013861Y020146D01*
X013861Y020047D02*
X013801Y020047D01*
X013794Y019949D02*
X013868Y019949D01*
X013966Y019850D02*
X013696Y019850D01*
X013597Y019752D02*
X014065Y019752D01*
X013065Y019752D02*
X012597Y019752D01*
X012696Y019850D02*
X012966Y019850D01*
X012868Y019949D02*
X012794Y019949D01*
X012801Y020047D02*
X012861Y020047D01*
X012861Y020146D02*
X012801Y020146D01*
X012801Y020244D02*
X012861Y020244D01*
X012861Y020343D02*
X012801Y020343D01*
X012705Y020441D02*
X012957Y020441D01*
X013056Y020540D02*
X012606Y020540D01*
X014606Y020540D02*
X014861Y020540D01*
X014875Y020441D02*
X014705Y020441D01*
X014801Y020343D02*
X014974Y020343D01*
X015072Y020244D02*
X014801Y020244D01*
X014801Y020146D02*
X018361Y020146D01*
X018361Y020244D02*
X017590Y020244D01*
X017688Y020343D02*
X018361Y020343D01*
X018457Y020441D02*
X017787Y020441D01*
X017801Y020540D02*
X018556Y020540D01*
X018580Y020737D02*
X017801Y020737D01*
X017801Y020835D02*
X018481Y020835D01*
X018383Y020934D02*
X017712Y020934D01*
X017614Y021032D02*
X018361Y021032D01*
X018541Y021525D02*
X016741Y021525D01*
X016741Y021722D02*
X017595Y021722D01*
X017496Y021820D02*
X016741Y021820D01*
X016642Y021919D02*
X017398Y021919D01*
X017361Y022017D02*
X016544Y022017D01*
X016361Y022017D02*
X016301Y022017D01*
X016301Y021919D02*
X016361Y021919D01*
X016361Y021820D02*
X016301Y021820D01*
X016301Y021722D02*
X016361Y021722D01*
X016615Y022510D02*
X017526Y022510D01*
X017624Y022608D02*
X016714Y022608D01*
X016764Y022707D02*
X017413Y022707D01*
X017251Y022805D02*
X016801Y022805D01*
X016801Y022904D02*
X017164Y022904D01*
X017124Y023002D02*
X016801Y023002D01*
X016801Y023101D02*
X017101Y023101D01*
X017101Y023199D02*
X016801Y023199D01*
X016801Y023298D02*
X017123Y023298D01*
X017164Y023396D02*
X016801Y023396D01*
X016801Y023495D02*
X017251Y023495D01*
X017412Y023593D02*
X016764Y023593D01*
X016714Y023692D02*
X017450Y023692D01*
X018411Y023495D02*
X020251Y023495D01*
X020164Y023396D02*
X018498Y023396D01*
X018539Y023298D02*
X020123Y023298D01*
X020101Y023199D02*
X018561Y023199D01*
X018561Y023101D02*
X020101Y023101D01*
X020124Y023002D02*
X018538Y023002D01*
X018498Y022904D02*
X020164Y022904D01*
X020251Y022805D02*
X018411Y022805D01*
X018249Y022707D02*
X020413Y022707D01*
X020526Y022510D02*
X018136Y022510D01*
X018038Y022608D02*
X020624Y022608D01*
X020427Y022411D02*
X018235Y022411D01*
X018301Y022313D02*
X020361Y022313D01*
X020361Y022214D02*
X018301Y022214D01*
X018301Y022116D02*
X020361Y022116D01*
X020361Y022017D02*
X018301Y022017D01*
X018264Y021919D02*
X020398Y021919D01*
X020496Y021820D02*
X018166Y021820D01*
X018067Y021722D02*
X020595Y021722D01*
X020541Y021525D02*
X019121Y021525D01*
X019220Y021426D02*
X020442Y021426D01*
X020361Y021328D02*
X019301Y021328D01*
X019301Y021229D02*
X020361Y021229D01*
X020361Y021131D02*
X019301Y021131D01*
X019301Y021032D02*
X020361Y021032D01*
X020383Y020934D02*
X019279Y020934D01*
X019181Y020835D02*
X020481Y020835D01*
X020580Y020737D02*
X019082Y020737D01*
X019106Y020540D02*
X021556Y020540D01*
X021636Y020620D02*
X021361Y020345D01*
X021361Y019955D01*
X021636Y019680D01*
X022026Y019680D01*
X022301Y019955D01*
X022301Y020345D01*
X022026Y020620D01*
X021636Y020620D01*
X021457Y020441D02*
X019205Y020441D01*
X019301Y020343D02*
X021361Y020343D01*
X021361Y020244D02*
X019301Y020244D01*
X019301Y020146D02*
X021361Y020146D01*
X021361Y020047D02*
X019301Y020047D01*
X019294Y019949D02*
X021368Y019949D01*
X021466Y019850D02*
X019196Y019850D01*
X019097Y019752D02*
X021565Y019752D01*
X022097Y019752D02*
X022361Y019752D01*
X022366Y019850D02*
X022196Y019850D01*
X022294Y019949D02*
X022465Y019949D01*
X022563Y020047D02*
X022301Y020047D01*
X022301Y020146D02*
X033701Y020146D01*
X033701Y020244D02*
X022301Y020244D01*
X022301Y020343D02*
X033701Y020343D01*
X033701Y020441D02*
X022205Y020441D01*
X022106Y020540D02*
X033701Y020540D01*
X033701Y020638D02*
X017801Y020638D01*
X019084Y019062D02*
X019578Y019062D01*
X019480Y018964D02*
X019182Y018964D01*
X019281Y018865D02*
X019381Y018865D01*
X019361Y018767D02*
X019301Y018767D01*
X019301Y018668D02*
X019361Y018668D01*
X019361Y018570D02*
X019301Y018570D01*
X019301Y018471D02*
X019361Y018471D01*
X019444Y018373D02*
X019218Y018373D01*
X019120Y018274D02*
X019542Y018274D01*
X020120Y018274D02*
X020321Y018274D01*
X020332Y018373D02*
X020218Y018373D01*
X020301Y018471D02*
X020431Y018471D01*
X019616Y016600D02*
X019261Y016600D01*
X019301Y016501D02*
X019517Y016501D01*
X019419Y016403D02*
X019301Y016403D01*
X019301Y016304D02*
X019361Y016304D01*
X019361Y016206D02*
X019301Y016206D01*
X019301Y016107D02*
X019361Y016107D01*
X019361Y016009D02*
X019301Y016009D01*
X019301Y015910D02*
X019406Y015910D01*
X019505Y015812D02*
X019301Y015812D01*
X019266Y015713D02*
X019603Y015713D01*
X019283Y013546D02*
X020562Y013546D01*
X020464Y013448D02*
X019301Y013448D01*
X019301Y013349D02*
X020365Y013349D01*
X021100Y013546D02*
X021562Y013546D01*
X021464Y013448D02*
X021198Y013448D01*
X021297Y013349D02*
X021365Y013349D01*
X021361Y013251D02*
X021301Y013251D01*
X021301Y013152D02*
X021361Y013152D01*
X021361Y013054D02*
X021301Y013054D01*
X021202Y012857D02*
X021460Y012857D01*
X021558Y012758D02*
X021104Y012758D01*
X023241Y012167D02*
X025861Y012167D01*
X025861Y012069D02*
X023444Y012069D01*
X023619Y011970D02*
X025861Y011970D01*
X025945Y011872D02*
X023705Y011872D01*
X023745Y011773D02*
X026043Y011773D01*
X024058Y010985D02*
X022604Y010985D01*
X022698Y010887D02*
X023964Y010887D01*
X023923Y010788D02*
X022739Y010788D01*
X022761Y010690D02*
X023901Y010690D01*
X023901Y010591D02*
X022761Y010591D01*
X022731Y010493D02*
X023931Y010493D01*
X023979Y010394D02*
X022683Y010394D01*
X022585Y010296D02*
X024077Y010296D01*
X023761Y011675D02*
X033701Y011675D01*
X033701Y011773D02*
X031545Y011773D01*
X031661Y011872D02*
X033701Y011872D01*
X033701Y011970D02*
X031722Y011970D01*
X031761Y012069D02*
X033701Y012069D01*
X033701Y012167D02*
X031761Y012167D01*
X031749Y012266D02*
X033701Y012266D01*
X033701Y012364D02*
X031708Y012364D01*
X031627Y012463D02*
X033701Y012463D01*
X033701Y012561D02*
X031462Y012561D01*
X031604Y012758D02*
X032058Y012758D01*
X031960Y012857D02*
X031702Y012857D01*
X031801Y013054D02*
X031861Y013054D01*
X031861Y013152D02*
X031801Y013152D01*
X031801Y013251D02*
X031861Y013251D01*
X031865Y013349D02*
X031797Y013349D01*
X031698Y013448D02*
X031964Y013448D01*
X032062Y013546D02*
X031600Y013546D01*
X032073Y013743D02*
X030663Y013743D01*
X030622Y015516D02*
X031032Y015516D01*
X031131Y015615D02*
X030720Y015615D01*
X032615Y014531D02*
X033701Y014531D01*
X033701Y014433D02*
X032713Y014433D01*
X032801Y014334D02*
X033701Y014334D01*
X033701Y014236D02*
X032801Y014236D01*
X032801Y014137D02*
X033701Y014137D01*
X033701Y014039D02*
X032801Y014039D01*
X032786Y013940D02*
X033701Y013940D01*
X033701Y013842D02*
X032687Y013842D01*
X028040Y015516D02*
X027622Y015516D01*
X027597Y015492D02*
X027729Y015624D01*
X027801Y015797D01*
X027801Y016503D01*
X027729Y016676D01*
X027597Y016808D01*
X027424Y016880D01*
X027237Y016880D01*
X027065Y016808D01*
X026933Y016676D01*
X026861Y016503D01*
X026861Y015797D01*
X026933Y015624D01*
X027065Y015492D01*
X027237Y015420D01*
X027424Y015420D01*
X027597Y015492D01*
X027720Y015615D02*
X027942Y015615D01*
X027896Y015713D02*
X027766Y015713D01*
X027801Y015812D02*
X027861Y015812D01*
X027861Y015910D02*
X027801Y015910D01*
X027801Y016009D02*
X027861Y016009D01*
X027861Y016107D02*
X027801Y016107D01*
X027801Y016206D02*
X027861Y016206D01*
X027861Y016304D02*
X027801Y016304D01*
X027801Y016403D02*
X027861Y016403D01*
X027861Y016501D02*
X027801Y016501D01*
X027761Y016600D02*
X027901Y016600D01*
X027954Y016698D02*
X027708Y016698D01*
X027609Y016797D02*
X028053Y016797D01*
X027053Y016797D02*
X026609Y016797D01*
X026597Y016808D02*
X026424Y016880D01*
X026237Y016880D01*
X026065Y016808D01*
X025933Y016676D01*
X025861Y016503D01*
X025861Y015797D01*
X025933Y015624D01*
X026065Y015492D01*
X026237Y015420D01*
X026424Y015420D01*
X026597Y015492D01*
X026729Y015624D01*
X026801Y015797D01*
X026801Y016503D01*
X026729Y016676D01*
X026597Y016808D01*
X026708Y016698D02*
X026954Y016698D01*
X026901Y016600D02*
X026761Y016600D01*
X026801Y016501D02*
X026861Y016501D01*
X026861Y016403D02*
X026801Y016403D01*
X026801Y016304D02*
X026861Y016304D01*
X026861Y016206D02*
X026801Y016206D01*
X026801Y016107D02*
X026861Y016107D01*
X026861Y016009D02*
X026801Y016009D01*
X026801Y015910D02*
X026861Y015910D01*
X026861Y015812D02*
X026801Y015812D01*
X026766Y015713D02*
X026896Y015713D01*
X026942Y015615D02*
X026720Y015615D01*
X026622Y015516D02*
X027040Y015516D01*
X026040Y015516D02*
X025622Y015516D01*
X025720Y015615D02*
X025942Y015615D01*
X025896Y015713D02*
X025766Y015713D01*
X025801Y015812D02*
X025861Y015812D01*
X025861Y015910D02*
X025801Y015910D01*
X025801Y016009D02*
X025861Y016009D01*
X025861Y016107D02*
X025801Y016107D01*
X025801Y016206D02*
X025861Y016206D01*
X025861Y016304D02*
X025801Y016304D01*
X025801Y016403D02*
X025861Y016403D01*
X025861Y016501D02*
X025801Y016501D01*
X025761Y016600D02*
X025901Y016600D01*
X025954Y016698D02*
X025708Y016698D01*
X025609Y016797D02*
X026053Y016797D01*
X023301Y019752D02*
X031421Y019752D01*
X031451Y019850D02*
X023296Y019850D01*
X023197Y019949D02*
X031550Y019949D01*
X031648Y020047D02*
X023099Y020047D01*
X022067Y021722D02*
X031361Y021722D01*
X031361Y021820D02*
X022166Y021820D01*
X022264Y021919D02*
X031435Y021919D01*
X031361Y021845D02*
X031361Y021455D01*
X031636Y021180D01*
X032026Y021180D01*
X032301Y021455D01*
X032301Y021845D01*
X032026Y022120D01*
X031636Y022120D01*
X031361Y021845D01*
X031533Y022017D02*
X022301Y022017D01*
X022301Y022116D02*
X031632Y022116D01*
X031602Y022214D02*
X022301Y022214D01*
X022301Y022313D02*
X031504Y022313D01*
X031405Y022411D02*
X022235Y022411D01*
X022136Y022510D02*
X031361Y022510D01*
X031361Y022608D02*
X022038Y022608D01*
X021220Y021426D02*
X031390Y021426D01*
X031489Y021328D02*
X021301Y021328D01*
X021301Y021229D02*
X031587Y021229D01*
X032075Y021229D02*
X033701Y021229D01*
X033701Y021131D02*
X021301Y021131D01*
X021301Y021032D02*
X033701Y021032D01*
X033701Y020934D02*
X021279Y020934D01*
X021181Y020835D02*
X033701Y020835D01*
X033701Y020737D02*
X021082Y020737D01*
X020861Y023790D02*
X020801Y023790D01*
X020801Y023889D02*
X020861Y023889D01*
X020861Y023987D02*
X020801Y023987D01*
X020801Y024086D02*
X020861Y024086D01*
X020861Y024184D02*
X020801Y024184D01*
X020801Y024283D02*
X020861Y024283D01*
X020861Y024381D02*
X020801Y024381D01*
X020801Y024480D02*
X020861Y024480D01*
X021441Y025465D02*
X021481Y025465D01*
X021579Y025563D02*
X021322Y025563D01*
X021218Y025760D02*
X023649Y025760D01*
X023514Y025859D02*
X021379Y025859D01*
X021453Y025957D02*
X023445Y025957D01*
X023405Y026056D02*
X021491Y026056D01*
X020861Y026056D02*
X020801Y026056D01*
X020801Y025957D02*
X020861Y025957D01*
X020861Y025859D02*
X020801Y025859D01*
X020801Y025760D02*
X020861Y025760D01*
X020861Y026253D02*
X020801Y026253D01*
X020801Y026351D02*
X020861Y026351D01*
X020861Y026450D02*
X020801Y026450D01*
X020801Y026548D02*
X020861Y026548D01*
X024013Y025760D02*
X025649Y025760D01*
X025514Y025859D02*
X024148Y025859D01*
X024216Y025957D02*
X025445Y025957D01*
X025405Y026056D02*
X024257Y026056D01*
X024261Y026154D02*
X025401Y026154D01*
X025408Y026253D02*
X024254Y026253D01*
X024213Y026351D02*
X025449Y026351D01*
X025522Y026450D02*
X024140Y026450D01*
X027030Y024184D02*
X033701Y024184D01*
X033701Y024086D02*
X029567Y024086D01*
X029665Y023987D02*
X033701Y023987D01*
X033701Y023889D02*
X029764Y023889D01*
X029841Y023790D02*
X033701Y023790D01*
X033701Y023692D02*
X029841Y023692D01*
X029841Y023593D02*
X033701Y023593D01*
X033701Y023495D02*
X029841Y023495D01*
X029841Y023396D02*
X033701Y023396D01*
X033701Y023298D02*
X029750Y023298D01*
X029651Y023199D02*
X033701Y023199D01*
X033701Y023101D02*
X032045Y023101D01*
X032144Y023002D02*
X033701Y023002D01*
X033701Y022904D02*
X032242Y022904D01*
X032301Y022805D02*
X033701Y022805D01*
X033701Y022707D02*
X032301Y022707D01*
X032301Y022608D02*
X033701Y022608D01*
X033701Y022510D02*
X032301Y022510D01*
X032257Y022411D02*
X033701Y022411D01*
X033701Y022313D02*
X032158Y022313D01*
X032060Y022214D02*
X033701Y022214D01*
X033701Y022116D02*
X032030Y022116D01*
X032129Y022017D02*
X033701Y022017D01*
X033701Y021919D02*
X032227Y021919D01*
X032301Y021820D02*
X033701Y021820D01*
X033701Y021722D02*
X032301Y021722D01*
X032301Y021623D02*
X033701Y021623D01*
X033701Y021525D02*
X032301Y021525D01*
X032272Y021426D02*
X033701Y021426D01*
X033701Y021328D02*
X032173Y021328D01*
X031617Y023101D02*
X029553Y023101D01*
X027301Y024480D02*
X033701Y024480D01*
X033701Y024578D02*
X027301Y024578D01*
X027227Y024381D02*
X033701Y024381D01*
X033701Y024283D02*
X027128Y024283D01*
X028195Y027435D02*
X033701Y027435D01*
X033701Y027533D02*
X028241Y027533D01*
X027861Y027730D02*
X027801Y027730D01*
X027801Y027829D02*
X027861Y027829D01*
X027861Y027927D02*
X027801Y027927D01*
X027801Y028026D02*
X027861Y028026D01*
X033701Y028223D02*
X005461Y028223D01*
X005461Y028321D02*
X033701Y028321D01*
X033701Y028420D02*
X005461Y028420D01*
X005461Y028518D02*
X033701Y028518D01*
X017593Y018077D02*
X005461Y018077D01*
X005461Y017979D02*
X017495Y017979D01*
X017396Y017880D02*
X005461Y017880D01*
X005461Y017782D02*
X017361Y017782D01*
X017361Y017683D02*
X005461Y017683D01*
X016109Y016797D02*
X016553Y016797D01*
X016454Y016698D02*
X016208Y016698D01*
X016261Y016600D02*
X016401Y016600D01*
X016361Y016501D02*
X016301Y016501D01*
X016301Y016403D02*
X016361Y016403D01*
X016361Y016304D02*
X016301Y016304D01*
X016301Y016206D02*
X016361Y016206D01*
X016361Y016107D02*
X016301Y016107D01*
X016301Y016009D02*
X016361Y016009D01*
X016361Y015910D02*
X016301Y015910D01*
X016301Y015812D02*
X016361Y015812D01*
X016396Y015713D02*
X016266Y015713D01*
X016220Y015615D02*
X016442Y015615D01*
X016540Y015516D02*
X016122Y015516D01*
X014571Y004780D02*
X014371Y004780D01*
X014272Y004681D02*
X014525Y004681D01*
X014510Y004583D02*
X014259Y004583D01*
X014225Y004484D02*
X014519Y004484D01*
X014560Y004386D02*
X014171Y004386D01*
X014073Y004287D02*
X014655Y004287D01*
X014936Y003401D02*
X014312Y003401D01*
X014352Y003302D02*
X014760Y003302D01*
X014664Y003204D02*
X014371Y003204D01*
X014371Y003105D02*
X014623Y003105D01*
X014591Y003007D02*
X014356Y003007D01*
X014315Y002908D02*
X014591Y002908D01*
X014591Y002810D02*
X014254Y002810D01*
X014156Y002711D02*
X014591Y002711D01*
X015225Y003401D02*
X015936Y003401D01*
X015760Y003302D02*
X015402Y003302D01*
X015498Y003204D02*
X015664Y003204D01*
X015623Y003105D02*
X015539Y003105D01*
X015571Y003007D02*
X015591Y003007D01*
X015591Y002908D02*
X015571Y002908D01*
X015571Y002810D02*
X015591Y002810D01*
X015591Y002711D02*
X015571Y002711D01*
X015571Y002613D02*
X015591Y002613D01*
X015591Y002514D02*
X015571Y002514D01*
X015571Y002416D02*
X015591Y002416D01*
X015591Y002317D02*
X015571Y002317D01*
X015549Y002219D02*
X015613Y002219D01*
X015654Y002120D02*
X015508Y002120D01*
X015425Y002022D02*
X015734Y002022D01*
X015785Y001923D02*
X015282Y001923D01*
X015552Y001726D02*
X014165Y001726D01*
X014067Y001825D02*
X015738Y001825D01*
X016549Y002219D02*
X016678Y002219D01*
X016654Y002317D02*
X016571Y002317D01*
X016571Y002416D02*
X016651Y002416D01*
X016651Y002514D02*
X016571Y002514D01*
X016634Y002120D02*
X016731Y002120D01*
X016733Y002022D02*
X016829Y002022D01*
X025231Y003860D02*
X025277Y003814D01*
X027748Y001343D01*
X027744Y001353D01*
X027744Y001547D01*
X027818Y001726D01*
X027777Y001628D02*
X027464Y001628D01*
X027562Y001529D02*
X027744Y001529D01*
X027744Y001431D02*
X027661Y001431D01*
X026874Y003302D02*
X025789Y003302D01*
X025691Y003401D02*
X026175Y003401D01*
X026072Y003499D02*
X025592Y003499D01*
X025494Y003598D02*
X025973Y003598D01*
X025875Y003696D02*
X025395Y003696D01*
X025297Y003795D02*
X025776Y003795D01*
X029548Y007538D02*
X033701Y007538D01*
X033701Y007636D02*
X029647Y007636D01*
X029741Y007735D02*
X033701Y007735D01*
X033701Y007833D02*
X029741Y007833D01*
X029741Y007932D02*
X033701Y007932D01*
X033701Y008030D02*
X029741Y008030D01*
X029682Y008129D02*
X033701Y008129D01*
X033701Y008227D02*
X029584Y008227D01*
X031301Y004090D02*
X033701Y004090D01*
X033701Y003992D02*
X031400Y003992D01*
X031498Y003893D02*
X033701Y003893D01*
X033701Y003795D02*
X031597Y003795D01*
X031695Y003696D02*
X033701Y003696D01*
X033701Y003598D02*
X031794Y003598D01*
X031892Y003499D02*
X033701Y003499D01*
X033701Y003401D02*
X031991Y003401D01*
X032089Y003302D02*
X033701Y003302D01*
X033701Y003204D02*
X032188Y003204D01*
X032286Y003105D02*
X033701Y003105D01*
X033701Y003007D02*
X032385Y003007D01*
X032483Y002908D02*
X033701Y002908D01*
X033701Y002810D02*
X032582Y002810D01*
X032680Y002711D02*
X033701Y002711D01*
X033701Y002613D02*
X032779Y002613D01*
X032877Y002514D02*
X033701Y002514D01*
X033701Y002416D02*
X032976Y002416D01*
X033074Y002317D02*
X033701Y002317D01*
X033701Y002219D02*
X033173Y002219D01*
X033271Y002120D02*
X033701Y002120D01*
X033701Y002022D02*
X033370Y002022D01*
X033468Y001923D02*
X033701Y001923D01*
X033701Y001825D02*
X033567Y001825D01*
X033613Y001726D02*
X033701Y001726D01*
X033701Y001628D02*
X033621Y001628D01*
X033621Y001529D02*
X033701Y001529D01*
X033701Y001431D02*
X033621Y001431D01*
X033621Y001332D02*
X033701Y001332D01*
X033701Y001234D02*
X033621Y001234D01*
X033621Y001135D02*
X033701Y001135D01*
X033701Y001037D02*
X033598Y001037D01*
X033529Y000938D02*
X033701Y000938D01*
X033701Y000840D02*
X033431Y000840D01*
X033332Y000741D02*
X033701Y000741D01*
X033701Y000643D02*
X033234Y000643D01*
X033135Y000544D02*
X033701Y000544D01*
X033701Y000446D02*
X033037Y000446D01*
X032938Y000347D02*
X033701Y000347D01*
D20*
X026831Y000650D03*
X027131Y003650D03*
X025331Y005150D03*
X023081Y003900D03*
X017172Y009150D03*
X013831Y004650D03*
X015831Y001400D03*
X008331Y008150D03*
X006831Y008650D03*
X007831Y013650D03*
X006331Y014400D03*
X010331Y014400D03*
D21*
X006331Y014400D01*
X016081Y002650D02*
X016081Y002150D01*
X017581Y000650D01*
X026831Y000650D01*
D22*
X027731Y000450D02*
X026531Y001650D01*
X021581Y001650D01*
X021081Y002150D01*
X021081Y002650D01*
X022081Y002650D02*
X022081Y005422D01*
X022559Y005422D01*
X023831Y004150D01*
X025831Y004150D01*
X026331Y003650D01*
X027131Y003650D01*
X026131Y004350D02*
X030131Y004350D01*
X030831Y003950D02*
X031031Y003950D01*
X033331Y001650D01*
X033331Y001150D01*
X032631Y000450D01*
X027731Y000450D01*
X027831Y000850D02*
X025031Y003650D01*
X023081Y003650D01*
X023081Y003900D01*
X023081Y003650D02*
X023081Y002650D01*
X021331Y004650D02*
X021943Y005262D01*
X021943Y005559D01*
X022081Y005422D01*
X021353Y006150D02*
X021943Y006741D01*
X021353Y006150D02*
X019331Y006150D01*
X017331Y008150D01*
X008331Y008150D01*
X006831Y008650D02*
X018853Y008650D01*
X020762Y006741D01*
X021331Y004650D02*
X016331Y004650D01*
X015831Y005150D01*
X014331Y005150D01*
X013831Y004650D01*
X011531Y003950D02*
X014081Y001400D01*
X015831Y001400D01*
X011531Y003950D02*
X009031Y003950D01*
X012331Y009150D02*
X017172Y009150D01*
X012331Y009150D02*
X007831Y013650D01*
X025331Y005150D02*
X026131Y004350D01*
X027831Y000850D02*
X030031Y000850D01*
X030831Y001650D01*
X030831Y003150D01*
M02*
